<svg width="24" height="24" viewBox="0 0 24 24" fill="none" xmlns="http://www.w3.org/2000/svg">
<path d="M16.201 14.2993C15.7519 14.3016 15.309 14.4047 14.905 14.6009C14.5011 14.7972 14.1463 15.0817 13.867 15.4333L9.48099 12.6913C9.64084 12.1754 9.64084 11.6232 9.48099 11.1073L13.867 8.36534C14.3122 8.91657 14.9381 9.29245 15.6338 9.42639C16.3296 9.56032 17.0503 9.44368 17.6683 9.09712C18.2863 8.75055 18.7617 8.19644 19.0103 7.53293C19.2588 6.86942 19.2645 6.13935 19.0264 5.47204C18.7882 4.80473 18.3215 4.24326 17.709 3.88708C17.0965 3.5309 16.3777 3.40301 15.6799 3.52606C14.9821 3.64911 14.3504 4.01517 13.8967 4.55937C13.443 5.10358 13.1965 5.79082 13.201 6.49934C13.2038 6.76765 13.2442 7.03424 13.321 7.29134L8.93499 10.0333C8.54778 9.54589 8.01851 9.19097 7.42056 9.01778C6.82261 8.84459 6.18559 8.8617 5.5978 9.06675C5.01001 9.2718 4.50056 9.65462 4.14008 10.1622C3.7796 10.6697 3.58594 11.2768 3.58594 11.8993C3.58594 12.5219 3.7796 13.129 4.14008 13.6365C4.50056 14.1441 5.01001 14.5269 5.5978 14.7319C6.18559 14.937 6.82261 14.9541 7.42056 14.7809C8.01851 14.6077 8.54778 14.2528 8.93499 13.7653L13.321 16.5073C13.2442 16.7644 13.2038 17.031 13.201 17.2993C13.201 17.8927 13.3769 18.4727 13.7066 18.9661C14.0362 19.4594 14.5048 19.8439 15.0529 20.071C15.6011 20.298 16.2043 20.3575 16.7863 20.2417C17.3682 20.1259 17.9028 19.8402 18.3223 19.4207C18.7419 19.0011 19.0276 18.4666 19.1433 17.8846C19.2591 17.3027 19.1997 16.6995 18.9726 16.1513C18.7456 15.6031 18.361 15.1346 17.8677 14.8049C17.3744 14.4753 16.7943 14.2993 16.201 14.2993V14.2993ZM16.201 4.69934C16.557 4.69934 16.905 4.80491 17.201 5.0027C17.497 5.20048 17.7277 5.4816 17.864 5.81051C18.0002 6.13942 18.0359 6.50134 17.9664 6.8505C17.8969 7.19967 17.7255 7.5204 17.4738 7.77213C17.222 8.02387 16.9013 8.1953 16.5522 8.26475C16.203 8.33421 15.8411 8.29856 15.5122 8.16232C15.1833 8.02609 14.9021 7.79538 14.7043 7.49937C14.5066 7.20336 14.401 6.85535 14.401 6.49934C14.401 6.02195 14.5906 5.56411 14.9282 5.22655C15.2658 4.88898 15.7236 4.69934 16.201 4.69934V4.69934ZM6.60099 13.6993C6.24498 13.6993 5.89697 13.5938 5.60096 13.396C5.30495 13.1982 5.07424 12.9171 4.93801 12.5882C4.80177 12.2593 4.76612 11.8973 4.83558 11.5482C4.90503 11.199 5.07646 10.8783 5.3282 10.6265C5.57993 10.3748 5.90066 10.2034 6.24983 10.1339C6.59899 10.0645 6.96091 10.1001 7.28982 10.2364C7.61873 10.3726 7.89985 10.6033 8.09763 10.8993C8.29542 11.1953 8.40099 11.5433 8.40099 11.8993C8.40099 12.3767 8.21135 12.8346 7.87378 13.1721C7.53622 13.5097 7.07838 13.6993 6.60099 13.6993ZM16.201 19.0993C15.845 19.0993 15.497 18.9938 15.201 18.796C14.905 18.5982 14.6742 18.3171 14.538 17.9882C14.4018 17.6593 14.3661 17.2973 14.4356 16.9482C14.505 16.599 14.6765 16.2783 14.9282 16.0265C15.1799 15.7748 15.5007 15.6034 15.8498 15.5339C16.199 15.4645 16.5609 15.5001 16.8898 15.6364C17.2187 15.7726 17.4998 16.0033 17.6976 16.2993C17.8954 16.5953 18.001 16.9433 18.001 17.2993C18.001 17.7767 17.8113 18.2346 17.4738 18.5721C17.1362 18.9097 16.6784 19.0993 16.201 19.0993V19.0993Z" fill="#00ADBB"/>
</svg>
