<svg width="24" height="24" viewBox="0 0 24 24" fill="none" xmlns="http://www.w3.org/2000/svg">
<g clip-path="url(#clip0_139_18705)">
<path d="M20.4406 5.21164L17.7866 2.55777C17.62 2.39112 17.3984 2.29932 17.1626 2.29932H5.98878C5.50222 2.29932 5.10633 2.6952 5.10633 3.18177V11.9187H4.48578C3.83343 11.9187 3.30273 12.4494 3.30273 13.1017V18.5126C3.30273 19.1649 3.83343 19.6957 4.48578 19.6957H13.8045C14.2911 19.6957 14.687 19.2998 14.687 18.8132V14.6048C14.687 14.1182 14.2911 13.7223 13.8045 13.7223H4.48578C4.1436 13.7223 3.86523 13.4439 3.86523 13.1018C3.86523 12.7596 4.1436 12.4812 4.48578 12.4812H5.10633V12.8013C5.10633 12.9566 5.23226 13.0825 5.38758 13.0825C5.54291 13.0825 5.66883 12.9566 5.66883 12.8013V3.18177C5.66883 3.00533 5.81238 2.86182 5.98878 2.86182H16.8299V5.5866C16.8299 5.90745 17.0909 6.16849 17.4118 6.16849H20.1365V20.6169C20.1365 20.7933 19.993 20.9368 19.8166 20.9368H5.98878C5.81234 20.9368 5.66883 20.7933 5.66883 20.6169C5.66883 20.4615 5.54291 20.3356 5.38758 20.3356C5.23226 20.3356 5.10633 20.4615 5.10633 20.6169C5.10633 21.1035 5.50222 21.4993 5.98878 21.4993H19.8166C20.3032 21.4993 20.699 21.1034 20.699 20.6169V5.83564C20.6991 5.59995 20.6073 5.37833 20.4406 5.21164V5.21164ZM4.48578 14.2848H13.8045C13.981 14.2848 14.1245 14.4284 14.1245 14.6048V18.8133C14.1245 18.9897 13.9809 19.1332 13.8045 19.1332H4.48578C4.1436 19.1332 3.86523 18.8548 3.86523 18.5126V14.1086C4.04572 14.2203 4.25835 14.2848 4.48578 14.2848ZM17.3924 5.5866V2.95905L20.0394 5.60599H17.4118C17.4011 5.60599 17.3924 5.59729 17.3924 5.5866Z" fill="#00ADBB"/>
<path d="M11.2715 18.1839C11.4268 18.1839 11.5527 18.058 11.5527 17.9026V16.9676H12.1621C12.3175 16.9676 12.4434 16.8417 12.4434 16.6864C12.4434 16.5311 12.3175 16.4051 12.1621 16.4051H11.5527V15.7966H12.239C12.3943 15.7966 12.5203 15.6707 12.5203 15.5154C12.5203 15.36 12.3943 15.2341 12.239 15.2341H11.2715C11.1162 15.2341 10.9902 15.36 10.9902 15.5154V17.9026C10.9902 18.0579 11.1162 18.1839 11.2715 18.1839V18.1839Z" fill="#00ADBB"/>
<path d="M8.31634 18.0753C8.36903 18.1276 8.44028 18.1569 8.51449 18.1569H8.51554C8.53553 18.1569 9.00672 18.1551 9.19493 18.1518C9.88992 18.1396 10.3944 17.5328 10.3944 16.7088C10.3944 15.8427 9.90263 15.2607 9.1707 15.2607H8.50977C8.43507 15.2607 8.36348 15.2904 8.31072 15.3433C8.25795 15.3962 8.22837 15.4679 8.22852 15.5425V15.5444V15.5444V17.8378C8.22852 17.8571 8.23047 17.876 8.23418 17.8942C8.23868 17.9624 8.26755 18.0269 8.31634 18.0753ZM9.1707 15.8232C9.6582 15.8232 9.83187 16.2807 9.83187 16.7088C9.83187 17.3093 9.50704 17.5838 9.1851 17.5893C9.09563 17.5909 8.93599 17.5922 8.79477 17.593C8.79387 17.3171 8.79199 16.1103 8.7915 15.8232H9.1707Z" fill="#00ADBB"/>
<path d="M5.98047 18.1928C6.1358 18.1928 6.26172 18.067 6.26172 17.9116V17.1467C6.40137 17.146 6.56015 17.1453 6.65007 17.1453C7.1867 17.1453 7.62328 16.7147 7.62328 16.1854C7.62328 15.6561 7.1867 15.2255 6.65007 15.2255H5.98047C5.90573 15.2255 5.83407 15.2552 5.78127 15.3082C5.72869 15.3609 5.69926 15.4323 5.69926 15.5067H5.69922V17.9116C5.69922 18.067 5.82514 18.1928 5.98047 18.1928ZM6.65007 15.788C6.87271 15.788 7.06078 15.97 7.06078 16.1854C7.06078 16.4008 6.87271 16.5828 6.65007 16.5828C6.56075 16.5828 6.40396 16.5835 6.26483 16.5842C6.26408 16.4406 6.26296 15.9383 6.26255 15.788H6.65007V15.788Z" fill="#00ADBB"/>
<path d="M11.2495 10.4542C10.5582 10.6723 9.84877 10.9743 9.47032 11.365C9.15805 11.6873 9.10147 12.0612 9.31503 12.391C9.45997 12.6147 9.6592 12.7317 9.88323 12.7317C9.96921 12.7317 10.0589 12.7144 10.1505 12.6794C10.481 12.553 10.8379 12.1935 11.2417 11.5803C11.372 11.3823 11.504 11.1623 11.6353 10.9243C11.6831 10.9102 11.7319 10.8963 11.7818 10.8823C12.5755 10.6602 13.4735 10.4991 14.2616 10.4317C14.742 10.8963 15.2386 11.2582 15.6619 11.3569C16.1276 11.4656 16.4968 11.2526 16.6493 10.7872C16.7417 10.5054 16.6353 10.2396 16.3648 10.0762C16.0866 9.90828 15.6032 9.82717 14.9283 9.8349C14.7846 9.83655 14.6329 9.8424 14.475 9.85218C14.1718 9.53951 13.8563 9.16582 13.5526 8.75313C13.3172 8.43345 13.1068 8.11353 12.9289 7.80945C12.9483 7.74281 12.9667 7.67707 12.9841 7.6125C13.1764 6.89951 13.2449 6.35362 13.1879 5.98995C13.1055 5.46476 12.7666 5.39017 12.6247 5.38252C12.1415 5.35639 11.816 5.60017 11.7541 6.03461C11.7049 6.37972 11.821 6.85455 12.099 7.44585C12.1651 7.5864 12.2393 7.73126 12.3207 7.8792C12.2903 7.97655 12.2575 8.07783 12.2218 8.18325C11.9626 8.95027 11.6114 9.76758 11.2495 10.4542V10.4542ZM9.89883 12.1677C9.87877 12.1702 9.84494 12.1744 9.78712 12.0852C9.74005 12.0125 9.7375 11.9577 9.77767 11.8828C9.87157 11.7078 10.1922 11.4621 10.8125 11.2084C10.3795 11.88 10.056 12.1481 9.89883 12.1677V12.1677ZM16.1195 10.593C16.119 10.5964 16.1179 10.6027 16.1148 10.6121C16.0446 10.8265 15.9502 10.8467 15.7896 10.8092C15.5937 10.7635 15.3448 10.6187 15.0671 10.3971C15.8189 10.4031 16.0812 10.5386 16.1195 10.593V10.593ZM12.3109 6.11403C12.3224 6.03363 12.3353 5.94322 12.5492 5.94322C12.5627 5.94322 12.577 5.9436 12.5921 5.94431C12.6561 6.02235 12.6891 6.36956 12.5409 7.05671C12.3663 6.6564 12.281 6.32385 12.3109 6.11403ZM12.7026 8.51418C12.826 8.7039 12.9588 8.89548 13.0996 9.08666C13.3015 9.36093 13.5295 9.64567 13.7708 9.91747C13.4917 9.95115 13.2038 9.99461 12.9159 10.0469C12.721 10.0822 12.3813 10.149 11.9837 10.2481C12.0719 10.0653 12.1588 9.8757 12.2439 9.68077C12.413 9.29343 12.5686 8.8971 12.7026 8.51418V8.51418Z" fill="#00ADBB"/>
</g>
<defs>
<clipPath id="clip0_139_18705">
<rect width="19.2" height="19.2" fill="white" transform="translate(2.40039 2.29932)"/>
</clipPath>
</defs>
</svg>
