<svg width="21" height="21" viewBox="0 0 21 21" fill="none" xmlns="http://www.w3.org/2000/svg">
<path d="M10.3438 2.5C11.4378 2.5 12.4743 2.70845 13.4531 3.12534C14.432 3.54223 15.2813 4.11006 16.001 4.82884C16.7208 5.54762 17.2894 6.39578 17.7068 7.37331C18.1243 8.35085 18.333 9.39308 18.333 10.5C18.333 11.6069 18.1243 12.642 17.7068 13.6051C17.2894 14.5683 16.7208 15.4164 16.001 16.1496C15.2813 16.8827 14.432 17.4578 13.4531 17.8747C12.4743 18.2916 11.4342 18.5 10.333 18.5C9.23179 18.5 8.19895 18.2916 7.23449 17.8747C6.27003 17.4578 5.42073 16.8827 4.68658 16.1496C3.95244 15.4164 3.37664 14.5683 2.95919 13.6051C2.54173 12.642 2.33301 11.6069 2.33301 10.5C2.33301 9.39308 2.54173 8.35085 2.95919 7.37331C3.37664 6.39578 3.95244 5.54762 4.68658 4.82884C5.42073 4.11006 6.27003 3.54223 7.23449 3.12534C8.19895 2.70845 9.23539 2.5 10.3438 2.5ZM10.3438 5.02291C10.3438 4.86478 10.2934 4.7354 10.1927 4.63477C10.0919 4.53414 9.95514 4.4982 9.7824 4.52695C9.01947 4.59883 8.30692 4.80009 7.64475 5.13073C6.98258 5.46137 6.40678 5.89982 5.91735 6.44609C5.42792 6.99236 5.04646 7.60332 4.77295 8.27898C4.49945 8.95463 4.3555 9.69497 4.3411 10.5C4.32671 11.305 4.47066 12.0382 4.77295 12.6995C5.07525 13.3607 5.45671 13.9789 5.91735 14.5539C6.37799 15.1289 6.95379 15.5602 7.64475 15.8477C8.33571 16.1352 9.04826 16.3437 9.7824 16.473C9.94074 16.4874 10.0775 16.4443 10.1927 16.3437C10.3078 16.243 10.3582 16.1208 10.3438 15.9771V5.02291Z" fill="white"/>
</svg>
