<svg width="582" height="33" viewBox="0 0 582 33" fill="none" xmlns="http://www.w3.org/2000/svg">
<path d="M213 16.4999C213 16.1415 213.144 15.7831 213.432 15.5098L222.483 6.91028C223.059 6.36324 223.993 6.36324 224.568 6.91028C225.144 7.4571 225.144 8.34386 224.568 8.89095L216.559 16.4999L224.568 24.109C225.144 24.656 225.144 25.5427 224.568 26.0895C223.992 26.6368 223.059 26.6368 222.483 26.0895L213.431 17.49C213.144 17.2166 213 16.8582 213 16.4999Z" fill="#CCCCCC"/>
<path d="M266.644 24.52C266.644 24.784 266.836 25 267.124 25H269.236C269.5 25 269.692 24.784 269.692 24.52V8.656C269.692 8.416 269.5 8.2 269.236 8.2H267.988C267.652 8.2 267.388 8.296 267.148 8.512L264.076 11.104C263.86 11.272 263.812 11.368 263.836 11.632L263.98 12.832C264.004 13.072 264.244 13.216 264.484 13.168L266.644 12.688V24.52ZM276.725 24.544C276.725 24.784 276.941 25 277.181 25H279.413C279.653 25 279.869 24.784 279.869 24.544V11.08H283.541C283.805 11.08 283.997 10.864 283.997 10.624V8.656C283.997 8.416 283.805 8.2 283.541 8.2H273.053C272.789 8.2 272.597 8.416 272.597 8.656V10.624C272.597 10.864 272.789 11.08 273.053 11.08H276.725V24.544ZM288.517 23.344L293.221 18.328C294.925 16.504 296.317 14.896 296.317 12.712C296.317 10.192 294.517 7.96 290.965 7.96C288.037 7.96 286.285 10.384 286.285 10.384C286.117 10.576 286.165 10.864 286.309 11.032L286.789 11.512C287.005 11.704 287.269 11.704 287.461 11.512C288.229 10.696 289.453 9.64 290.965 9.64C293.533 9.64 294.445 11.344 294.445 12.76C294.445 13.936 293.629 15.4 291.949 17.248C290.005 19.288 288.109 21.4 286.189 23.464C285.877 23.8 285.877 23.92 285.877 24.184V24.52C285.877 24.784 286.069 25 286.357 25H295.741C296.005 25 296.221 24.784 296.221 24.52V23.872C296.221 23.608 296.005 23.392 295.741 23.392H288.517V23.344ZM301.615 11.272V24.52C301.615 24.784 301.831 25 302.095 25H302.983C303.223 25 303.439 24.784 303.439 24.52V8.656C303.439 8.416 303.223 8.2 302.983 8.2H302.551C302.383 8.2 302.263 8.248 302.143 8.368L298.855 11.56C298.735 11.68 298.639 11.896 298.807 12.088L299.287 12.616C299.455 12.808 299.647 12.784 299.839 12.64L301.591 11.272H301.615Z" fill="#12284C"/>
<path d="M369 16.5C369 16.8585 368.856 17.2169 368.568 17.4901L359.517 26.0897C358.941 26.6368 358.007 26.6368 357.432 26.0897C356.856 25.5429 356.856 24.6561 357.432 24.109L365.441 16.5L357.432 8.89098C356.856 8.34394 356.856 7.45726 357.432 6.91048C358.008 6.36317 358.941 6.36317 359.517 6.91048L368.569 15.5099C368.856 15.7833 369 16.1417 369 16.5Z" fill="#333333"/>
</svg>
