<svg width="582" height="112" viewBox="0 0 582 112" fill="none" xmlns="http://www.w3.org/2000/svg">
<g clip-path="url(#clip0_3100_21838)">
<path d="M106.498 31.68C106.912 31.68 107.248 31.3442 107.248 30.93C107.248 30.5158 106.912 30.18 106.498 30.18H105.645V22.9139C105.645 22.0583 104.949 21.3623 104.093 21.3623H100.887C100.031 21.3623 99.335 22.0583 99.335 22.9139V30.18H97.6286V26.9219C97.6286 26.0663 96.9326 25.3703 96.077 25.3703H92.8706C92.015 25.3703 91.319 26.0663 91.319 26.9219V30.18H89.6125V22.1123C89.6125 21.6981 89.2767 21.3623 88.8625 21.3623C88.4483 21.3623 88.1125 21.6981 88.1125 22.1123V30.18H84.8028V17.3026C84.8028 17.2741 84.8259 17.251 84.8544 17.251H88.0608C88.0893 17.251 88.1124 17.2741 88.1124 17.3026V18.9059C88.1124 19.3201 88.4482 19.6559 88.8624 19.6559C89.2766 19.6559 89.6124 19.3201 89.6124 18.9059V17.3026C89.6124 16.447 88.9164 15.751 88.0608 15.751H84.8544C83.9988 15.751 83.3028 16.447 83.3028 17.3026V30.18H81.5964V23.7155C81.5964 22.8599 80.9004 22.1639 80.0448 22.1639H76.8384C75.9828 22.1639 75.2868 22.8599 75.2868 23.7155V30.18H74.4336C74.0194 30.18 73.6836 30.5158 73.6836 30.93C73.6836 31.3442 74.0194 31.68 74.4336 31.68H106.498ZM100.835 22.9139C100.835 22.8854 100.858 22.8623 100.886 22.8623H104.093C104.121 22.8623 104.144 22.8854 104.144 22.9139V30.18H100.835V22.9139H100.835ZM92.8188 26.9219C92.8188 26.8934 92.8419 26.8703 92.8704 26.8703H96.0768C96.1053 26.8703 96.1284 26.8934 96.1284 26.9219V30.18H92.8187V26.9219H92.8188ZM76.7866 23.7155C76.7866 23.687 76.8097 23.6639 76.8382 23.6639H80.0446C80.0731 23.6639 80.0962 23.687 80.0962 23.7155V30.18H76.7865V23.7155H76.7866Z" fill="#00ADBB"/>
<path d="M101.688 52.6252H72.0282C71.9997 52.6252 71.9766 52.6021 71.9766 52.5736V7.68319C71.9766 7.65469 71.9997 7.63159 72.0282 7.63159H99.8903C99.9736 7.63159 100.055 7.63969 100.136 7.65169V14.8978C100.136 15.7534 100.832 16.4494 101.688 16.4494H108.934C108.946 16.5302 108.954 16.612 108.954 16.6952V46.9623C108.954 47.3765 109.29 47.7123 109.704 47.7123C110.118 47.7123 110.454 47.3765 110.454 46.9623V16.6951C110.454 15.8524 110.126 15.0602 109.53 14.4643L102.121 7.05559C101.525 6.45969 100.733 6.13159 99.8903 6.13159H72.0282C71.1726 6.13159 70.4766 6.82759 70.4766 7.68319V52.5735C70.4766 53.4291 71.1726 54.1251 72.0282 54.1251H101.688C102.102 54.1251 102.438 53.7893 102.438 53.3751C102.438 52.9609 102.102 52.6252 101.688 52.6252ZM107.894 14.9493H101.688C101.659 14.9493 101.636 14.9262 101.636 14.8977V8.69199L107.894 14.9493Z" fill="#00ADBB"/>
<path d="M112.17 53.3146L106.559 47.7037C106.115 47.2589 105.524 47.014 104.895 47.014C104.525 47.014 104.169 47.0993 103.848 47.2593L102.443 45.8549C103.442 44.6235 104.042 43.0564 104.042 41.3511C104.042 37.4014 100.828 34.1882 96.8787 34.1882C92.929 34.1882 89.7158 37.4015 89.7158 41.3511C89.7158 45.3007 92.9291 48.514 96.8787 48.514C98.5839 48.514 100.151 47.9141 101.383 46.9155L102.787 48.32C102.627 48.6414 102.542 48.9977 102.542 49.3672C102.542 49.9959 102.787 50.5868 103.231 51.031L108.842 56.642C109.286 57.0867 109.877 57.3317 110.506 57.3317C111.135 57.3317 111.726 57.0868 112.17 56.6425C112.615 56.1981 112.859 55.6071 112.859 54.9784C112.859 54.3497 112.614 53.7588 112.17 53.3146ZM91.2157 41.3511C91.2157 38.2286 93.7561 35.6882 96.8786 35.6882C100.001 35.6882 102.542 38.2286 102.542 41.3511C102.542 44.4736 100.001 47.014 96.8786 47.014C93.756 47.014 91.2157 44.4736 91.2157 41.3511ZM104.042 49.3672C104.042 49.1393 104.13 48.9252 104.292 48.7636C104.453 48.6026 104.667 48.5139 104.895 48.5139C105.123 48.5139 105.337 48.6026 105.498 48.7639L106.22 49.4861L105.014 50.6925L104.291 49.9701C104.13 49.8092 104.042 49.595 104.042 49.3672ZM111.109 55.582C110.948 55.743 110.734 55.8317 110.506 55.8317C110.278 55.8317 110.064 55.743 109.903 55.5817L106.074 51.7532L107.281 50.5468L111.109 54.3754C111.271 54.5364 111.359 54.7506 111.359 54.9784C111.359 55.2062 111.271 55.4205 111.109 55.582Z" fill="#00ADBB"/>
<path d="M76.8379 35.688H78.4411C78.8553 35.688 79.1911 35.3522 79.1911 34.938C79.1911 34.5238 78.8553 34.188 78.4411 34.188H76.8379C76.4237 34.188 76.0879 34.5238 76.0879 34.938C76.0879 35.3522 76.4237 35.688 76.8379 35.688Z" fill="#00ADBB"/>
<path d="M76.8379 38.8947H78.4411C78.8553 38.8947 79.1911 38.5589 79.1911 38.1447C79.1911 37.7305 78.8553 37.3947 78.4411 37.3947H76.8379C76.4237 37.3947 76.0879 37.7305 76.0879 38.1447C76.0879 38.5589 76.4237 38.8947 76.8379 38.8947Z" fill="#00ADBB"/>
<path d="M89.612 34.938C89.612 34.5238 89.2762 34.188 88.862 34.188H81.6475C81.2333 34.188 80.8975 34.5238 80.8975 34.938C80.8975 35.3522 81.2333 35.688 81.6475 35.688H88.862C89.2762 35.688 89.612 35.3523 89.612 34.938Z" fill="#00ADBB"/>
<path d="M88.0088 38.1447C88.0088 37.7305 87.673 37.3947 87.2588 37.3947H81.6475C81.2333 37.3947 80.8975 37.7305 80.8975 38.1447C80.8975 38.5589 81.2333 38.8947 81.6475 38.8947H87.2588C87.673 38.8947 88.0088 38.5589 88.0088 38.1447Z" fill="#00ADBB"/>
<path d="M76.8379 45.3073H84.0524C84.4666 45.3073 84.8024 44.9715 84.8024 44.5573C84.8024 44.1431 84.4666 43.8073 84.0524 43.8073H76.8379C76.4237 43.8073 76.0879 44.1431 76.0879 44.5573C76.0879 44.9715 76.4237 45.3073 76.8379 45.3073Z" fill="#00ADBB"/>
<path d="M76.8379 42.1008H78.4411C78.8553 42.1008 79.1911 41.765 79.1911 41.3508C79.1911 40.9366 78.8553 40.6008 78.4411 40.6008H76.8379C76.4237 40.6008 76.0879 40.9366 76.0879 41.3508C76.0879 41.765 76.4237 42.1008 76.8379 42.1008Z" fill="#00ADBB"/>
<path d="M87.2072 41.3508C87.2072 40.9366 86.8714 40.6008 86.4572 40.6008H81.6475C81.2333 40.6008 80.8975 40.9366 80.8975 41.3508C80.8975 41.765 81.2333 42.1008 81.6475 42.1008H86.4572C86.8714 42.1008 87.2072 41.765 87.2072 41.3508Z" fill="#00ADBB"/>
<path d="M87.2585 14.0444C87.6727 14.0444 88.0085 13.7086 88.0085 13.2944C88.0085 12.8802 87.6727 12.5444 87.2585 12.5444H85.6553C85.2411 12.5444 84.9053 12.8802 84.9053 13.2944C84.9053 13.7086 85.2411 14.0444 85.6553 14.0444H87.2585Z" fill="#00ADBB"/>
<path d="M95.2751 23.6639C95.6893 23.6639 96.0251 23.3281 96.0251 22.9139C96.0251 22.4997 95.6893 22.1639 95.2751 22.1639H93.6719C93.2577 22.1639 92.9219 22.4997 92.9219 22.9139C92.9219 23.3281 93.2577 23.6639 93.6719 23.6639H95.2751Z" fill="#00ADBB"/>
<path d="M79.2428 20.4573C79.657 20.4573 79.9928 20.1215 79.9928 19.7073C79.9928 19.2931 79.657 18.9573 79.2428 18.9573H77.6396C77.2254 18.9573 76.8896 19.2931 76.8896 19.7073C76.8896 20.1215 77.2254 20.4573 77.6396 20.4573H79.2428Z" fill="#00ADBB"/>
<path d="M103.291 19.6559C103.705 19.6559 104.041 19.3201 104.041 18.9059C104.041 18.4917 103.705 18.1559 103.291 18.1559H101.688C101.273 18.1559 100.938 18.4917 100.938 18.9059C100.938 19.3201 101.273 19.6559 101.688 19.6559H103.291Z" fill="#00ADBB"/>
</g>
<path d="M81.7339 81.696C81.7339 81.856 81.8779 82 82.0379 82H82.6779C82.8379 82 82.9819 81.856 82.9819 81.696V71.104C82.9819 70.944 82.8379 70.8 82.6779 70.8H82.0379C81.8779 70.8 81.7339 70.944 81.7339 71.104V81.696ZM88.0144 81.696C88.0144 81.856 88.1584 82 88.3184 82H88.9264C89.0864 82 89.2304 81.856 89.2304 81.696V71.872H92.0144C92.1904 71.872 92.3184 71.728 92.3184 71.568V71.104C92.3184 70.944 92.1904 70.8 92.0144 70.8H85.2304C85.0544 70.8 84.9264 70.944 84.9264 71.104V71.568C84.9264 71.728 85.0544 71.872 85.2304 71.872H88.0144V81.696ZM94.2652 81.696C94.2652 81.856 94.3932 82 94.5692 82H95.1932C95.3532 82 95.4972 81.856 95.4972 81.696V77.616H98.5532L100.633 81.76C100.713 81.92 100.793 82 100.985 82H101.753C102.025 82 102.137 81.744 102.025 81.536L99.8332 77.472C101.225 76.912 102.201 75.68 102.201 74.208C102.201 72.304 100.633 70.8 98.7132 70.8H94.5692C94.3932 70.8 94.2652 70.944 94.2652 71.104V81.696ZM95.5292 76.56V71.968H98.6332C99.8652 71.968 100.937 73.008 100.937 74.224C100.937 75.536 99.8652 76.56 98.6332 76.56H95.5292Z" fill="#4D4D4D"/>
<g clip-path="url(#clip1_3100_21838)">
<path d="M311.625 12.9804H291.938V8.07841C291.938 7.8184 291.839 7.56903 291.663 7.38517C291.487 7.20131 291.249 7.09802 291 7.09802C290.751 7.09802 290.513 7.20131 290.337 7.38517C290.161 7.56903 290.062 7.8184 290.062 8.07841V12.9804H270.375C269.629 12.9812 268.914 13.2914 268.387 13.8428C267.86 14.3942 267.563 15.1418 267.562 15.9216V45.3333C267.563 46.1131 267.86 46.8607 268.387 47.4121C268.914 47.9635 269.629 48.2737 270.375 48.2745H281.55L275.268 56.4855C275.19 56.5859 275.131 56.7015 275.095 56.8257C275.06 56.9499 275.048 57.0803 275.061 57.2092C275.074 57.3381 275.112 57.4631 275.171 57.5768C275.231 57.6905 275.311 57.7908 275.408 57.8718C275.505 57.9528 275.616 58.0129 275.735 58.0487C275.854 58.0844 275.979 58.0951 276.102 58.0801C276.225 58.0651 276.344 58.0247 276.452 57.9613C276.561 57.8979 276.656 57.8126 276.732 57.7105L283.951 48.2745H298.05L305.268 57.7105C305.424 57.9104 305.65 58.0376 305.895 58.0647C306.141 58.0918 306.387 58.0165 306.579 57.8552C306.772 57.6939 306.896 57.4596 306.925 57.2032C306.953 56.9467 306.884 56.6888 306.732 56.4855L300.451 48.2745H311.625C312.371 48.2737 313.086 47.9635 313.613 47.4121C314.14 46.8607 314.437 46.1131 314.438 45.3333V15.9216C314.437 15.1418 314.14 14.3942 313.613 13.8428C313.086 13.2914 312.371 12.9812 311.625 12.9804ZM312.562 45.3333C312.562 45.5933 312.463 45.8425 312.288 46.0263C312.112 46.2101 311.874 46.3134 311.625 46.3137H270.375C270.126 46.3134 269.888 46.2101 269.712 46.0263C269.537 45.8425 269.438 45.5933 269.438 45.3333V15.9216C269.438 15.6616 269.537 15.4124 269.712 15.2286C269.888 15.0448 270.126 14.9414 270.375 14.9412H311.625C311.874 14.9414 312.112 15.0448 312.288 15.2286C312.463 15.4124 312.562 15.6616 312.562 15.9216V45.3333ZM284.438 31.6078V37.4902C284.438 37.7502 284.339 37.9996 284.163 38.1834C283.987 38.3673 283.749 38.4706 283.5 38.4706C283.251 38.4706 283.013 38.3673 282.837 38.1834C282.661 37.9996 282.562 37.7502 282.562 37.4902V31.6078C282.562 31.3478 282.661 31.0984 282.837 30.9146C283.013 30.7307 283.251 30.6274 283.5 30.6274C283.749 30.6274 283.987 30.7307 284.163 30.9146C284.339 31.0984 284.438 31.3478 284.438 31.6078ZM291.938 27.6863V37.4902C291.938 37.7502 291.839 37.9996 291.663 38.1834C291.487 38.3673 291.249 38.4706 291 38.4706C290.751 38.4706 290.513 38.3673 290.337 38.1834C290.161 37.9996 290.062 37.7502 290.062 37.4902V27.6863C290.062 27.4262 290.161 27.1769 290.337 26.993C290.513 26.8092 290.751 26.7059 291 26.7059C291.249 26.7059 291.487 26.8092 291.663 26.993C291.839 27.1769 291.938 27.4262 291.938 27.6863ZM299.438 23.7647V37.4902C299.438 37.7502 299.339 37.9996 299.163 38.1834C298.987 38.3673 298.749 38.4706 298.5 38.4706C298.251 38.4706 298.013 38.3673 297.837 38.1834C297.661 37.9996 297.562 37.7502 297.562 37.4902V23.7647C297.562 23.5047 297.661 23.2553 297.837 23.0714C298.013 22.8876 298.251 22.7843 298.5 22.7843C298.749 22.7843 298.987 22.8876 299.163 23.0714C299.339 23.2553 299.438 23.5047 299.438 23.7647Z" fill="#00ADBB"/>
</g>
<path d="M233.259 82H233.899C234.043 82 234.139 81.904 234.171 81.824L235.339 79.184H241.019L242.203 81.824C242.235 81.904 242.331 82 242.475 82H243.115C243.355 82 243.483 81.792 243.387 81.584L238.555 70.816C238.507 70.72 238.427 70.64 238.283 70.64H238.123C237.979 70.64 237.899 70.72 237.851 70.816L232.987 81.584C232.891 81.792 233.019 82 233.259 82ZM235.787 78.192L238.123 72.944H238.251C239.035 74.688 239.803 76.448 240.587 78.192H235.787ZM245.931 81.568C245.931 81.568 246.747 82.176 247.979 82.176C250.011 82.176 251.467 80.464 251.467 78.304C251.467 76.192 250.043 74.448 248.027 74.448C246.699 74.448 245.803 75.2 245.803 75.2L245.691 74.848C245.611 74.656 245.563 74.608 245.387 74.608H245.115C244.923 74.608 244.763 74.784 244.763 74.96V85.456C244.763 85.648 244.923 85.808 245.115 85.808H245.579C245.755 85.808 245.931 85.648 245.931 85.456V81.568ZM245.931 80.464V76.416C245.931 76.416 246.699 75.52 247.883 75.52C249.371 75.52 250.267 76.848 250.267 78.288C250.267 79.904 249.227 81.104 247.803 81.104C246.779 81.104 245.931 80.464 245.931 80.464ZM253.498 81.648C253.498 81.84 253.658 82 253.85 82H254.33C254.506 82 254.682 81.84 254.682 81.648V76.528C254.682 76.528 255.258 75.584 256.682 75.584C257.034 75.584 257.306 75.712 257.482 75.792C257.658 75.872 257.834 75.856 257.914 75.616L258.122 75.04C258.298 74.528 257.386 74.448 256.826 74.448C255.29 74.448 254.554 75.392 254.554 75.392L254.426 74.864C254.378 74.688 254.25 74.608 254.106 74.608H253.85C253.658 74.608 253.498 74.784 253.498 74.96V81.648ZM258.971 78.304C258.971 80.416 260.315 82.176 262.555 82.176C263.835 82.176 264.811 81.68 265.259 81.328C265.531 81.12 265.467 81.04 265.323 80.816L265.131 80.544C264.939 80.256 264.827 80.32 264.571 80.496C264.155 80.768 263.547 81.104 262.571 81.104C261.227 81.104 260.187 79.808 260.155 78.576H265.531C265.691 78.576 265.851 78.448 265.867 78.256C265.883 78.128 265.899 77.936 265.899 77.808C265.899 75.872 264.491 74.448 262.555 74.448C260.315 74.448 258.971 76.224 258.971 78.304ZM260.171 77.632C260.315 76.48 261.307 75.52 262.555 75.52C263.819 75.52 264.683 76.544 264.715 77.632H260.171ZM269.905 82.176C271.409 82.176 272.417 81.232 272.417 80.064C272.417 78.72 271.313 78.24 270.033 77.648C269.137 77.232 268.625 76.992 268.625 76.336C268.625 75.984 268.897 75.52 269.713 75.52C270.401 75.52 270.913 75.76 271.233 75.952C271.393 76.048 271.633 76.032 271.745 75.824L271.905 75.52C272.017 75.312 271.985 75.152 271.825 75.024C271.473 74.768 270.673 74.448 269.713 74.448C268.001 74.448 267.425 75.616 267.425 76.384C267.425 77.648 268.545 78.176 269.521 78.656C270.593 79.184 271.169 79.472 271.169 80.176C271.169 80.752 270.657 81.104 269.905 81.104C268.961 81.104 268.321 80.64 268.065 80.448C267.857 80.304 267.729 80.368 267.633 80.544L267.409 80.96C267.345 81.088 267.377 81.2 267.457 81.28C267.841 81.632 268.673 82.176 269.905 82.176ZM273.877 78.304C273.877 80.416 275.221 82.176 277.461 82.176C278.741 82.176 279.717 81.68 280.165 81.328C280.437 81.12 280.373 81.04 280.229 80.816L280.037 80.544C279.845 80.256 279.733 80.32 279.477 80.496C279.061 80.768 278.453 81.104 277.477 81.104C276.133 81.104 275.093 79.808 275.061 78.576H280.437C280.597 78.576 280.757 78.448 280.773 78.256C280.789 78.128 280.805 77.936 280.805 77.808C280.805 75.872 279.397 74.448 277.461 74.448C275.221 74.448 273.877 76.224 273.877 78.304ZM275.077 77.632C275.221 76.48 276.213 75.52 277.461 75.52C278.725 75.52 279.589 76.544 279.621 77.632H275.077ZM282.748 81.648C282.748 81.84 282.908 82 283.1 82H283.58C283.756 82 283.932 81.84 283.932 81.648V76.544C283.932 76.544 284.812 75.52 286.204 75.52C287.292 75.52 287.772 76.176 287.772 77.584V81.648C287.772 81.84 287.932 82 288.124 82H288.604C288.78 82 288.956 81.84 288.956 81.648V77.744C288.956 75.84 288.428 74.448 286.284 74.448C284.748 74.448 283.804 75.392 283.804 75.392L283.644 74.832C283.612 74.672 283.516 74.608 283.356 74.608H283.1C282.908 74.608 282.748 74.784 282.748 74.96V81.648ZM291.775 75.632V80.128C291.775 81.28 292.063 82.176 293.471 82.176C294.463 82.176 295.231 81.808 295.551 81.584C295.743 81.456 295.775 81.344 295.679 81.104L295.535 80.768C295.455 80.592 295.359 80.448 295.071 80.624C294.767 80.816 294.303 81.104 293.615 81.104C293.199 81.104 292.959 80.816 292.959 80.048V75.632H295.135C295.343 75.632 295.503 75.472 295.503 75.28V74.96C295.503 74.752 295.343 74.608 295.135 74.608H292.959V72.528C292.959 72.336 292.815 72.16 292.623 72.176L292.127 72.208C291.951 72.224 291.775 72.368 291.775 72.56V74.608H290.799C290.575 74.608 290.431 74.752 290.431 74.96V75.28C290.431 75.472 290.575 75.632 290.799 75.632H291.775ZM296.781 79.76C296.781 81.248 297.773 82.176 299.069 82.176C300.205 82.176 300.973 81.616 301.357 81.232L301.501 81.728C301.549 81.888 301.613 82 301.805 82H302.109C302.301 82 302.461 81.84 302.461 81.648V77.552C302.461 75.376 302.061 74.448 300.173 74.448C298.957 74.448 297.997 74.768 297.629 74.928C297.453 75.008 297.341 75.104 297.405 75.328L297.565 75.76C297.629 75.936 297.725 76.032 297.917 75.952C298.253 75.84 299.101 75.52 300.109 75.52C301.165 75.52 301.341 76.192 301.325 77.552C301.325 77.552 300.525 77.312 299.741 77.312C297.837 77.312 296.781 78.352 296.781 79.76ZM297.949 79.76C297.949 78.816 298.717 78.32 299.741 78.32C300.477 78.32 301.069 78.48 301.309 78.608V80.112C300.989 80.592 300.189 81.104 299.277 81.104C298.461 81.104 297.949 80.512 297.949 79.76ZM304.408 78.32C304.408 80.32 305.736 81.84 307.512 82.128L306.76 83.696C306.712 83.808 306.84 83.952 306.952 83.904C307.112 83.824 307.432 83.744 307.72 83.744C308.216 83.744 308.568 83.904 308.568 84.4C308.568 84.832 308.216 85.056 307.672 85.056C307.304 85.056 307.032 84.896 306.872 84.736C306.728 84.64 306.616 84.656 306.536 84.816L306.408 85.056C306.344 85.184 306.312 85.296 306.408 85.392C306.68 85.648 307.128 85.84 307.72 85.84C308.664 85.84 309.512 85.248 309.512 84.336C309.512 83.376 308.792 83.008 308.12 83.008C307.96 83.008 307.816 83.04 307.72 83.072L308.296 82.176C309.448 82.112 310.376 81.472 310.92 80.688C311.048 80.496 310.984 80.336 310.824 80.176L310.728 80.08C310.52 79.872 310.312 79.808 310.104 80.048C309.688 80.528 309.208 81.104 308.088 81.104C306.712 81.104 305.608 79.776 305.608 78.304C305.608 76.832 306.728 75.52 308.136 75.52C308.888 75.52 309.48 75.744 309.992 76.32C310.136 76.48 310.28 76.64 310.52 76.432L310.776 76.192C310.952 76.048 310.984 75.84 310.84 75.664C310.152 74.88 309.256 74.448 308.152 74.448C306.104 74.448 304.408 76.144 304.408 78.32ZM312.312 79.76C312.312 81.248 313.304 82.176 314.6 82.176C315.736 82.176 316.504 81.616 316.888 81.232L317.032 81.728C317.08 81.888 317.144 82 317.336 82H317.64C317.832 82 317.992 81.84 317.992 81.648V77.552C317.992 75.376 317.592 74.448 315.704 74.448C314.488 74.448 313.528 74.768 313.16 74.928C312.984 75.008 312.872 75.104 312.936 75.328L313.096 75.76C313.16 75.936 313.256 76.032 313.448 75.952C313.784 75.84 314.632 75.52 315.64 75.52C316.696 75.52 316.872 76.192 316.856 77.552C316.856 77.552 316.056 77.312 315.272 77.312C313.368 77.312 312.312 78.352 312.312 79.76ZM313.48 79.76C313.48 78.816 314.248 78.32 315.272 78.32C316.008 78.32 316.6 78.48 316.84 78.608V80.112C316.52 80.592 315.72 81.104 314.808 81.104C313.992 81.104 313.48 80.512 313.48 79.76ZM313.304 72.8C313.512 72.912 313.656 72.8 313.704 72.64C313.816 72.304 313.976 71.84 314.408 71.84C314.856 71.84 315.288 73.04 316.168 73.04C317.048 73.04 317.432 72.208 317.592 71.744C317.624 71.632 317.72 71.424 317.528 71.328L317.272 71.2C317.096 71.12 316.952 71.168 316.904 71.328C316.824 71.6 316.632 72.144 316.184 72.144C315.688 72.144 315.384 70.96 314.424 70.96C313.368 70.96 313.096 72.016 312.952 72.304C312.904 72.416 312.888 72.592 313.016 72.656L313.304 72.8ZM319.94 78.288C319.94 80.4 321.604 82.176 323.652 82.176C325.7 82.176 327.364 80.4 327.364 78.288C327.364 76.208 325.7 74.448 323.652 74.448C321.604 74.448 319.94 76.208 319.94 78.288ZM321.108 78.288C321.108 76.784 322.196 75.52 323.652 75.52C325.108 75.52 326.18 76.784 326.18 78.288C326.18 79.824 325.108 81.104 323.652 81.104C322.196 81.104 321.108 79.824 321.108 78.288ZM332.752 78.288C332.752 80.4 334.192 82.176 336.064 82.176C337.456 82.176 338.4 81.216 338.4 81.216L338.496 81.696C338.56 81.872 338.656 82 338.816 82H339.104C339.296 82 339.472 81.84 339.472 81.648V71.152C339.472 70.976 339.296 70.8 339.104 70.8H338.656C338.464 70.8 338.304 70.976 338.304 71.152V74.912C338.304 74.912 337.472 74.448 336.256 74.448C334.032 74.448 332.752 76.128 332.752 78.288ZM333.952 78.304C333.952 76.832 334.832 75.52 336.416 75.52C337.44 75.52 338.304 75.936 338.304 75.936V79.92C338.304 79.92 337.536 81.104 336.208 81.104C334.864 81.104 333.952 79.744 333.952 78.304ZM341.502 78.304C341.502 80.416 342.846 82.176 345.086 82.176C346.366 82.176 347.342 81.68 347.79 81.328C348.062 81.12 347.998 81.04 347.854 80.816L347.662 80.544C347.47 80.256 347.358 80.32 347.102 80.496C346.686 80.768 346.078 81.104 345.102 81.104C343.758 81.104 342.718 79.808 342.686 78.576H348.062C348.222 78.576 348.382 78.448 348.398 78.256C348.414 78.128 348.43 77.936 348.43 77.808C348.43 75.872 347.022 74.448 345.086 74.448C342.846 74.448 341.502 76.224 341.502 78.304ZM342.702 77.632C342.846 76.48 343.838 75.52 345.086 75.52C346.35 75.52 347.214 76.544 347.246 77.632H342.702ZM255.051 105.696C255.051 105.856 255.179 106 255.355 106H255.979C256.139 106 256.283 105.856 256.283 105.696V101.616H259.339L261.419 105.76C261.499 105.92 261.579 106 261.771 106H262.539C262.811 106 262.923 105.744 262.811 105.536L260.619 101.472C262.011 100.912 262.987 99.68 262.987 98.208C262.987 96.304 261.419 94.8 259.499 94.8H255.355C255.179 94.8 255.051 94.944 255.051 95.104V105.696ZM256.315 100.56V95.968H259.419C260.651 95.968 261.723 97.008 261.723 98.224C261.723 99.536 260.651 100.56 259.419 100.56H256.315ZM264.299 102.304C264.299 104.416 265.643 106.176 267.883 106.176C269.163 106.176 270.139 105.68 270.587 105.328C270.859 105.12 270.795 105.04 270.651 104.816L270.459 104.544C270.267 104.256 270.155 104.32 269.899 104.496C269.483 104.768 268.875 105.104 267.899 105.104C266.555 105.104 265.515 103.808 265.483 102.576H270.859C271.019 102.576 271.179 102.448 271.195 102.256C271.211 102.128 271.227 101.936 271.227 101.808C271.227 99.872 269.819 98.448 267.883 98.448C265.643 98.448 264.299 100.224 264.299 102.304ZM265.499 101.632C265.643 100.48 266.635 99.52 267.883 99.52C269.147 99.52 270.011 100.544 270.043 101.632H265.499ZM275.234 106.176C276.738 106.176 277.746 105.232 277.746 104.064C277.746 102.72 276.642 102.24 275.362 101.648C274.466 101.232 273.954 100.992 273.954 100.336C273.954 99.984 274.226 99.52 275.042 99.52C275.73 99.52 276.242 99.76 276.562 99.952C276.722 100.048 276.962 100.032 277.074 99.824L277.234 99.52C277.346 99.312 277.314 99.152 277.154 99.024C276.802 98.768 276.002 98.448 275.042 98.448C273.33 98.448 272.754 99.616 272.754 100.384C272.754 101.648 273.874 102.176 274.85 102.656C275.922 103.184 276.498 103.472 276.498 104.176C276.498 104.752 275.986 105.104 275.234 105.104C274.29 105.104 273.65 104.64 273.394 104.448C273.186 104.304 273.058 104.368 272.962 104.544L272.738 104.96C272.674 105.088 272.706 105.2 272.786 105.28C273.17 105.632 274.002 106.176 275.234 106.176ZM279.59 102.944C279.59 104.896 280.102 106.176 282.23 106.176C283.558 106.176 284.246 105.504 284.518 105.216L284.662 105.68C284.71 105.872 284.79 106 284.998 106H285.254C285.43 106 285.59 105.84 285.59 105.648V98.96C285.59 98.784 285.43 98.608 285.254 98.608H284.758C284.566 98.608 284.422 98.784 284.422 98.96V104.032C284.086 104.416 283.43 105.104 282.326 105.104C281.254 105.104 280.774 104.432 280.774 102.96V98.96C280.774 98.784 280.614 98.608 280.422 98.608H279.942C279.734 98.608 279.59 98.784 279.59 98.96V102.944ZM288.171 105.648C288.171 105.84 288.331 106 288.523 106H289.003C289.179 106 289.355 105.84 289.355 105.648V95.152C289.355 94.976 289.179 94.8 289.003 94.8H288.523C288.331 94.8 288.171 94.976 288.171 95.152V105.648ZM292.415 99.632V104.128C292.415 105.28 292.703 106.176 294.111 106.176C295.103 106.176 295.871 105.808 296.191 105.584C296.383 105.456 296.415 105.344 296.319 105.104L296.175 104.768C296.095 104.592 295.999 104.448 295.711 104.624C295.407 104.816 294.943 105.104 294.255 105.104C293.839 105.104 293.599 104.816 293.599 104.048V99.632H295.775C295.983 99.632 296.143 99.472 296.143 99.28V98.96C296.143 98.752 295.983 98.608 295.775 98.608H293.599V96.528C293.599 96.336 293.455 96.16 293.263 96.176L292.767 96.208C292.591 96.224 292.415 96.368 292.415 96.56V98.608H291.439C291.215 98.608 291.071 98.752 291.071 98.96V99.28C291.071 99.472 291.215 99.632 291.439 99.632H292.415ZM297.422 103.76C297.422 105.248 298.414 106.176 299.71 106.176C300.846 106.176 301.614 105.616 301.998 105.232L302.142 105.728C302.19 105.888 302.254 106 302.446 106H302.75C302.942 106 303.102 105.84 303.102 105.648V101.552C303.102 99.376 302.702 98.448 300.814 98.448C299.598 98.448 298.638 98.768 298.27 98.928C298.094 99.008 297.982 99.104 298.046 99.328L298.206 99.76C298.27 99.936 298.366 100.032 298.558 99.952C298.894 99.84 299.742 99.52 300.75 99.52C301.806 99.52 301.982 100.192 301.966 101.552C301.966 101.552 301.166 101.312 300.382 101.312C298.478 101.312 297.422 102.352 297.422 103.76ZM298.59 103.76C298.59 102.816 299.358 102.32 300.382 102.32C301.118 102.32 301.71 102.48 301.95 102.608V104.112C301.63 104.592 300.83 105.104 299.918 105.104C299.102 105.104 298.59 104.512 298.59 103.76ZM305.065 102.288C305.065 104.4 306.505 106.176 308.377 106.176C309.769 106.176 310.713 105.216 310.713 105.216L310.809 105.696C310.873 105.872 310.969 106 311.129 106H311.417C311.609 106 311.785 105.84 311.785 105.648V95.152C311.785 94.976 311.609 94.8 311.417 94.8H310.969C310.777 94.8 310.617 94.976 310.617 95.152V98.912C310.617 98.912 309.785 98.448 308.569 98.448C306.345 98.448 305.065 100.128 305.065 102.288ZM306.265 102.304C306.265 100.832 307.145 99.52 308.729 99.52C309.753 99.52 310.617 99.936 310.617 99.936V103.92C310.617 103.92 309.849 105.104 308.521 105.104C307.177 105.104 306.265 103.744 306.265 102.304ZM313.799 102.288C313.799 104.4 315.463 106.176 317.511 106.176C319.559 106.176 321.223 104.4 321.223 102.288C321.223 100.208 319.559 98.448 317.511 98.448C315.463 98.448 313.799 100.208 313.799 102.288ZM314.967 102.288C314.967 100.784 316.055 99.52 317.511 99.52C318.967 99.52 320.039 100.784 320.039 102.288C320.039 103.824 318.967 105.104 317.511 105.104C316.055 105.104 314.967 103.824 314.967 102.288ZM325.296 106.176C326.8 106.176 327.808 105.232 327.808 104.064C327.808 102.72 326.704 102.24 325.424 101.648C324.528 101.232 324.016 100.992 324.016 100.336C324.016 99.984 324.288 99.52 325.104 99.52C325.792 99.52 326.304 99.76 326.624 99.952C326.784 100.048 327.024 100.032 327.136 99.824L327.296 99.52C327.408 99.312 327.376 99.152 327.216 99.024C326.864 98.768 326.064 98.448 325.104 98.448C323.392 98.448 322.816 99.616 322.816 100.384C322.816 101.648 323.936 102.176 324.912 102.656C325.984 103.184 326.56 103.472 326.56 104.176C326.56 104.752 326.048 105.104 325.296 105.104C324.352 105.104 323.712 104.64 323.456 104.448C323.248 104.304 323.12 104.368 323.024 104.544L322.8 104.96C322.736 105.088 322.768 105.2 322.848 105.28C323.232 105.632 324.064 106.176 325.296 106.176Z" fill="#4D4D4D"/>
<g clip-path="url(#clip2_3100_21838)">
<path d="M512.841 13.8978L505.763 6.82079C505.319 6.37639 504.728 6.13159 504.099 6.13159H474.302C473.005 6.13159 471.949 7.18729 471.949 8.48479V31.7832H470.294C468.555 31.7832 467.14 33.1985 467.14 34.938V49.367C467.14 51.1066 468.555 52.5219 470.294 52.5219H499.954C501.252 52.5219 502.307 51.4662 502.307 50.1687V38.9462C502.307 37.6486 501.252 36.5929 499.954 36.5929H470.294C469.382 36.5929 468.64 35.8506 468.64 34.9381C468.64 34.0256 469.382 33.2833 470.294 33.2833H471.949V34.1368C471.949 34.551 472.285 34.8868 472.699 34.8868C473.113 34.8868 473.449 34.551 473.449 34.1368V8.48479C473.449 8.01429 473.832 7.63159 474.302 7.63159H503.212V14.8977C503.212 15.7533 503.908 16.4494 504.764 16.4494H512.03V54.9784C512.03 55.4489 511.647 55.8316 511.177 55.8316H474.302C473.832 55.8316 473.449 55.4489 473.449 54.9784C473.449 54.5642 473.113 54.2284 472.699 54.2284C472.285 54.2284 471.949 54.5642 471.949 54.9784C471.949 56.276 473.005 57.3316 474.302 57.3316H511.177C512.474 57.3316 513.53 56.2759 513.53 54.9784V15.5618C513.53 14.9333 513.285 14.3423 512.841 13.8978ZM470.294 38.0929H499.954C500.425 38.0929 500.807 38.4757 500.807 38.9462V50.1688C500.807 50.6393 500.425 51.022 499.954 51.022H470.294C469.382 51.022 468.64 50.2796 468.64 49.3671V37.6231C469.121 37.921 469.688 38.0929 470.294 38.0929ZM504.712 14.8977V7.89089L511.771 14.9494H504.764C504.735 14.9494 504.712 14.9262 504.712 14.8977Z" fill="#00ADBB"/>
<path d="M483.922 32.4816H501.557C501.971 32.4816 502.307 32.1458 502.307 31.7316C502.307 31.3174 501.971 30.9816 501.557 30.9816H483.922C483.508 30.9816 483.172 31.3174 483.172 31.7316C483.172 32.1458 483.508 32.4816 483.922 32.4816Z" fill="#00ADBB"/>
<path d="M483.922 28.4735H501.557C501.971 28.4735 502.307 28.1377 502.307 27.7235C502.307 27.3093 501.971 26.9735 501.557 26.9735H483.922C483.508 26.9735 483.172 27.3093 483.172 27.7235C483.172 28.1377 483.508 28.4735 483.922 28.4735Z" fill="#00ADBB"/>
<path d="M495.145 24.4655H501.557C501.972 24.4655 502.307 24.1297 502.307 23.7155C502.307 23.3012 501.972 22.9655 501.557 22.9655H495.145C494.73 22.9655 494.395 23.3012 494.395 23.7155C494.395 24.1296 494.73 24.4655 495.145 24.4655Z" fill="#00ADBB"/>
<path d="M495.145 20.4573H501.557C501.972 20.4573 502.307 20.1216 502.307 19.7073C502.307 19.2931 501.972 18.9573 501.557 18.9573H495.145C494.73 18.9573 494.395 19.2931 494.395 19.7073C494.395 20.1215 494.73 20.4573 495.145 20.4573Z" fill="#00ADBB"/>
<path d="M493.844 48.6428C494.742 48.6428 495.548 48.3481 496.174 47.7906C496.296 47.6813 496.413 47.5611 496.52 47.4332C496.787 47.1158 496.745 46.6428 496.428 46.3766C496.11 46.1104 495.637 46.1519 495.371 46.4693C495.31 46.5418 495.245 46.6094 495.176 46.6705C494.824 46.9839 494.376 47.1429 493.844 47.1429C492.419 47.1429 491.259 45.9831 491.259 44.5574C491.259 43.1318 492.419 41.972 493.844 41.972C494.362 41.972 494.862 42.1245 495.289 42.4131C495.633 42.6449 496.099 42.5547 496.331 42.2115C496.563 41.8682 496.472 41.402 496.129 41.1701C495.453 40.7133 494.663 40.4719 493.844 40.4719C491.591 40.4719 489.759 42.3046 489.759 44.5573C489.759 46.81 491.592 48.6428 493.844 48.6428Z" fill="#00ADBB"/>
<path d="M484.316 48.6428C486.569 48.6428 488.401 46.81 488.401 44.5573C488.401 42.3046 486.569 40.4719 484.316 40.4719C482.063 40.4719 480.23 42.3046 480.23 44.5573C480.23 46.81 482.063 48.6428 484.316 48.6428ZM484.316 41.9718C485.742 41.9718 486.901 43.1317 486.901 44.5572C486.901 45.9829 485.742 47.1427 484.316 47.1427C482.89 47.1427 481.73 45.9829 481.73 44.5572C481.73 43.1317 482.89 41.9718 484.316 41.9718Z" fill="#00ADBB"/>
<path d="M484.723 24.4656H490.335C491.19 24.4656 491.886 23.7695 491.886 22.9139V20.5091C491.886 19.6535 491.19 18.9574 490.335 18.9574H484.723C483.868 18.9574 483.172 19.6535 483.172 20.5091V22.9139C483.172 23.7695 483.868 24.4656 484.723 24.4656ZM484.672 20.5091C484.672 20.4806 484.695 20.4574 484.723 20.4574H490.335C490.363 20.4574 490.386 20.4805 490.386 20.5091V22.9139C490.386 22.9424 490.363 22.9656 490.335 22.9656H484.723C484.695 22.9656 484.672 22.9425 484.672 22.9139V20.5091Z" fill="#00ADBB"/>
<path d="M472.764 47.7971C472.765 47.996 472.845 48.1866 472.986 48.3267C473.126 48.4662 473.316 48.5444 473.514 48.5444H473.517C473.572 48.5442 474.879 48.5392 475.401 48.53C477.312 48.4966 478.699 46.826 478.699 44.5575C478.699 42.1729 477.347 40.5707 475.334 40.5707H473.501C473.302 40.5707 473.111 40.6499 472.97 40.7909C472.829 40.9318 472.751 41.1229 472.751 41.3221C472.751 41.3221 472.756 43.8122 472.756 44.5503C472.756 45.4504 472.764 47.7971 472.764 47.7971ZM475.334 42.0708C476.709 42.0708 477.199 43.3555 477.199 44.5576C477.199 46.2437 476.283 47.0144 475.375 47.0303C475.12 47.0347 474.661 47.0383 474.262 47.0407C474.259 46.275 474.256 45.1212 474.256 44.5505C474.256 44.0738 474.254 42.8671 474.252 42.0708H475.334Z" fill="#00ADBB"/>
</g>
<path d="M415.417 81.696C415.417 81.856 415.545 82 415.721 82H416.345C416.505 82 416.649 81.856 416.649 81.696V77.616H419.705L421.785 81.76C421.865 81.92 421.945 82 422.137 82H422.905C423.177 82 423.289 81.744 423.177 81.536L420.985 77.472C422.377 76.912 423.353 75.68 423.353 74.208C423.353 72.304 421.785 70.8 419.865 70.8H415.721C415.545 70.8 415.417 70.944 415.417 71.104V81.696ZM416.681 76.56V71.968H419.785C421.017 71.968 422.089 73.008 422.089 74.224C422.089 75.536 421.017 76.56 419.785 76.56H416.681ZM424.665 78.304C424.665 80.416 426.009 82.176 428.249 82.176C429.529 82.176 430.505 81.68 430.953 81.328C431.225 81.12 431.161 81.04 431.017 80.816L430.825 80.544C430.633 80.256 430.521 80.32 430.265 80.496C429.849 80.768 429.241 81.104 428.265 81.104C426.921 81.104 425.881 79.808 425.849 78.576H431.225C431.385 78.576 431.545 78.448 431.561 78.256C431.577 78.128 431.593 77.936 431.593 77.808C431.593 75.872 430.185 74.448 428.249 74.448C426.009 74.448 424.665 76.224 424.665 78.304ZM425.865 77.632C426.009 76.48 427.001 75.52 428.249 75.52C429.513 75.52 430.377 76.544 430.409 77.632H425.865ZM433.615 81.648C433.615 81.84 433.775 82 433.967 82H434.447C434.623 82 434.799 81.84 434.799 81.648V71.152C434.799 70.976 434.623 70.8 434.447 70.8H433.967C433.775 70.8 433.615 70.976 433.615 71.152V81.648ZM436.915 78.304C436.915 80.416 438.259 82.176 440.499 82.176C441.779 82.176 442.755 81.68 443.203 81.328C443.475 81.12 443.411 81.04 443.267 80.816L443.075 80.544C442.883 80.256 442.771 80.32 442.515 80.496C442.099 80.768 441.491 81.104 440.515 81.104C439.171 81.104 438.131 79.808 438.099 78.576H443.475C443.635 78.576 443.795 78.448 443.811 78.256C443.827 78.128 443.843 77.936 443.843 77.808C443.843 75.872 442.435 74.448 440.499 74.448C438.259 74.448 436.915 76.224 436.915 78.304ZM438.115 77.632C438.259 76.48 439.251 75.52 440.499 75.52C441.763 75.52 442.627 76.544 442.659 77.632H438.115ZM445.209 79.76C445.209 81.248 446.201 82.176 447.497 82.176C448.633 82.176 449.401 81.616 449.785 81.232L449.929 81.728C449.977 81.888 450.041 82 450.233 82H450.537C450.729 82 450.889 81.84 450.889 81.648V77.552C450.889 75.376 450.489 74.448 448.601 74.448C447.385 74.448 446.425 74.768 446.057 74.928C445.881 75.008 445.769 75.104 445.833 75.328L445.993 75.76C446.057 75.936 446.153 76.032 446.345 75.952C446.681 75.84 447.529 75.52 448.537 75.52C449.593 75.52 449.769 76.192 449.753 77.552C449.753 77.552 448.953 77.312 448.169 77.312C446.265 77.312 445.209 78.352 445.209 79.76ZM446.377 79.76C446.377 78.816 447.145 78.32 448.169 78.32C448.905 78.32 449.497 78.48 449.737 78.608V80.112C449.417 80.592 448.617 81.104 447.705 81.104C446.889 81.104 446.377 80.512 446.377 79.76ZM455.38 82.176C456.884 82.176 457.892 81.232 457.892 80.064C457.892 78.72 456.788 78.24 455.508 77.648C454.612 77.232 454.1 76.992 454.1 76.336C454.1 75.984 454.372 75.52 455.188 75.52C455.876 75.52 456.388 75.76 456.708 75.952C456.868 76.048 457.108 76.032 457.22 75.824L457.38 75.52C457.492 75.312 457.46 75.152 457.3 75.024C456.948 74.768 456.148 74.448 455.188 74.448C453.476 74.448 452.9 75.616 452.9 76.384C452.9 77.648 454.02 78.176 454.996 78.656C456.068 79.184 456.644 79.472 456.644 80.176C456.644 80.752 456.132 81.104 455.38 81.104C454.436 81.104 453.796 80.64 453.54 80.448C453.332 80.304 453.204 80.368 453.108 80.544L452.884 80.96C452.82 81.088 452.852 81.2 452.932 81.28C453.316 81.632 454.148 82.176 455.38 82.176ZM459.352 78.304C459.352 80.416 460.696 82.176 462.936 82.176C464.216 82.176 465.192 81.68 465.64 81.328C465.912 81.12 465.848 81.04 465.704 80.816L465.512 80.544C465.32 80.256 465.208 80.32 464.952 80.496C464.536 80.768 463.928 81.104 462.952 81.104C461.608 81.104 460.568 79.808 460.536 78.576H465.912C466.072 78.576 466.232 78.448 466.248 78.256C466.264 78.128 466.28 77.936 466.28 77.808C466.28 75.872 464.872 74.448 462.936 74.448C460.696 74.448 459.352 76.224 459.352 78.304ZM460.552 77.632C460.696 76.48 461.688 75.52 462.936 75.52C464.2 75.52 465.064 76.544 465.096 77.632H460.552ZM471.602 78.288C471.602 80.4 473.042 82.176 474.914 82.176C476.306 82.176 477.25 81.216 477.25 81.216L477.346 81.696C477.41 81.872 477.506 82 477.666 82H477.954C478.146 82 478.322 81.84 478.322 81.648V71.152C478.322 70.976 478.146 70.8 477.954 70.8H477.506C477.314 70.8 477.154 70.976 477.154 71.152V74.912C477.154 74.912 476.322 74.448 475.106 74.448C472.882 74.448 471.602 76.128 471.602 78.288ZM472.802 78.304C472.802 76.832 473.682 75.52 475.266 75.52C476.29 75.52 477.154 75.936 477.154 75.936V79.92C477.154 79.92 476.386 81.104 475.058 81.104C473.714 81.104 472.802 79.744 472.802 78.304ZM480.352 78.304C480.352 80.416 481.696 82.176 483.936 82.176C485.216 82.176 486.192 81.68 486.64 81.328C486.912 81.12 486.848 81.04 486.704 80.816L486.512 80.544C486.32 80.256 486.208 80.32 485.952 80.496C485.536 80.768 484.928 81.104 483.952 81.104C482.608 81.104 481.568 79.808 481.536 78.576H486.912C487.072 78.576 487.232 78.448 487.248 78.256C487.264 78.128 487.28 77.936 487.28 77.808C487.28 75.872 485.872 74.448 483.936 74.448C481.696 74.448 480.352 76.224 480.352 78.304ZM481.552 77.632C481.696 76.48 482.688 75.52 483.936 75.52C485.2 75.52 486.064 76.544 486.096 77.632H481.552ZM493.354 81.696C493.354 81.856 493.482 82 493.658 82H494.282C494.442 82 494.586 81.856 494.586 81.696V77.616H497.642L499.722 81.76C499.802 81.92 499.882 82 500.074 82H500.842C501.114 82 501.226 81.744 501.114 81.536L498.922 77.472C500.314 76.912 501.29 75.68 501.29 74.208C501.29 72.304 499.722 70.8 497.802 70.8H493.658C493.482 70.8 493.354 70.944 493.354 71.104V81.696ZM494.618 76.56V71.968H497.722C498.954 71.968 500.026 73.008 500.026 74.224C500.026 75.536 498.954 76.56 497.722 76.56H494.618ZM502.602 78.304C502.602 80.416 503.946 82.176 506.186 82.176C507.466 82.176 508.442 81.68 508.89 81.328C509.162 81.12 509.098 81.04 508.954 80.816L508.762 80.544C508.57 80.256 508.458 80.32 508.202 80.496C507.786 80.768 507.178 81.104 506.202 81.104C504.858 81.104 503.818 79.808 503.786 78.576H509.162C509.322 78.576 509.482 78.448 509.498 78.256C509.514 78.128 509.53 77.936 509.53 77.808C509.53 75.872 508.122 74.448 506.186 74.448C503.946 74.448 502.602 76.224 502.602 78.304ZM503.802 77.632C503.946 76.48 504.938 75.52 506.186 75.52C507.45 75.52 508.314 76.544 508.346 77.632H503.802ZM513.537 82.176C515.041 82.176 516.049 81.232 516.049 80.064C516.049 78.72 514.945 78.24 513.665 77.648C512.769 77.232 512.257 76.992 512.257 76.336C512.257 75.984 512.529 75.52 513.345 75.52C514.033 75.52 514.545 75.76 514.865 75.952C515.025 76.048 515.265 76.032 515.377 75.824L515.537 75.52C515.649 75.312 515.617 75.152 515.457 75.024C515.105 74.768 514.305 74.448 513.345 74.448C511.633 74.448 511.057 75.616 511.057 76.384C511.057 77.648 512.177 78.176 513.153 78.656C514.225 79.184 514.801 79.472 514.801 80.176C514.801 80.752 514.289 81.104 513.537 81.104C512.593 81.104 511.953 80.64 511.697 80.448C511.489 80.304 511.361 80.368 511.265 80.544L511.041 80.96C510.977 81.088 511.009 81.2 511.089 81.28C511.473 81.632 512.305 82.176 513.537 82.176ZM517.893 78.944C517.893 80.896 518.405 82.176 520.533 82.176C521.861 82.176 522.549 81.504 522.821 81.216L522.965 81.68C523.013 81.872 523.093 82 523.301 82H523.557C523.733 82 523.893 81.84 523.893 81.648V74.96C523.893 74.784 523.733 74.608 523.557 74.608H523.061C522.869 74.608 522.725 74.784 522.725 74.96V80.032C522.389 80.416 521.733 81.104 520.629 81.104C519.557 81.104 519.077 80.432 519.077 78.96V74.96C519.077 74.784 518.917 74.608 518.725 74.608H518.245C518.037 74.608 517.893 74.784 517.893 74.96V78.944ZM526.474 81.648C526.474 81.84 526.634 82 526.826 82H527.306C527.482 82 527.658 81.84 527.658 81.648V71.152C527.658 70.976 527.482 70.8 527.306 70.8H526.826C526.634 70.8 526.474 70.976 526.474 71.152V81.648ZM530.718 75.632V80.128C530.718 81.28 531.006 82.176 532.414 82.176C533.406 82.176 534.174 81.808 534.494 81.584C534.686 81.456 534.718 81.344 534.622 81.104L534.478 80.768C534.398 80.592 534.302 80.448 534.014 80.624C533.71 80.816 533.246 81.104 532.558 81.104C532.142 81.104 531.902 80.816 531.902 80.048V75.632H534.078C534.286 75.632 534.446 75.472 534.446 75.28V74.96C534.446 74.752 534.286 74.608 534.078 74.608H531.902V72.528C531.902 72.336 531.758 72.16 531.566 72.176L531.07 72.208C530.894 72.224 530.718 72.368 530.718 72.56V74.608H529.742C529.518 74.608 529.374 74.752 529.374 74.96V75.28C529.374 75.472 529.518 75.632 529.742 75.632H530.718ZM535.725 79.76C535.725 81.248 536.717 82.176 538.013 82.176C539.149 82.176 539.917 81.616 540.301 81.232L540.445 81.728C540.493 81.888 540.557 82 540.749 82H541.053C541.245 82 541.405 81.84 541.405 81.648V77.552C541.405 75.376 541.005 74.448 539.117 74.448C537.901 74.448 536.941 74.768 536.573 74.928C536.397 75.008 536.285 75.104 536.349 75.328L536.509 75.76C536.573 75.936 536.669 76.032 536.861 75.952C537.197 75.84 538.045 75.52 539.053 75.52C540.109 75.52 540.285 76.192 540.269 77.552C540.269 77.552 539.469 77.312 538.685 77.312C536.781 77.312 535.725 78.352 535.725 79.76ZM536.893 79.76C536.893 78.816 537.661 78.32 538.685 78.32C539.421 78.32 540.013 78.48 540.253 78.608V80.112C539.933 80.592 539.133 81.104 538.221 81.104C537.405 81.104 536.893 80.512 536.893 79.76ZM543.368 78.288C543.368 80.4 544.808 82.176 546.68 82.176C548.072 82.176 549.016 81.216 549.016 81.216L549.112 81.696C549.176 81.872 549.272 82 549.432 82H549.72C549.912 82 550.088 81.84 550.088 81.648V71.152C550.088 70.976 549.912 70.8 549.72 70.8H549.272C549.08 70.8 548.92 70.976 548.92 71.152V74.912C548.92 74.912 548.088 74.448 546.872 74.448C544.648 74.448 543.368 76.128 543.368 78.288ZM544.568 78.304C544.568 76.832 545.448 75.52 547.032 75.52C548.056 75.52 548.92 75.936 548.92 75.936V79.92C548.92 79.92 548.152 81.104 546.824 81.104C545.48 81.104 544.568 79.744 544.568 78.304ZM552.102 78.288C552.102 80.4 553.766 82.176 555.814 82.176C557.862 82.176 559.526 80.4 559.526 78.288C559.526 76.208 557.862 74.448 555.814 74.448C553.766 74.448 552.102 76.208 552.102 78.288ZM553.27 78.288C553.27 76.784 554.358 75.52 555.814 75.52C557.27 75.52 558.342 76.784 558.342 78.288C558.342 79.824 557.27 81.104 555.814 81.104C554.358 81.104 553.27 79.824 553.27 78.288ZM563.599 82.176C565.103 82.176 566.111 81.232 566.111 80.064C566.111 78.72 565.007 78.24 563.727 77.648C562.831 77.232 562.319 76.992 562.319 76.336C562.319 75.984 562.591 75.52 563.407 75.52C564.095 75.52 564.607 75.76 564.927 75.952C565.087 76.048 565.327 76.032 565.439 75.824L565.599 75.52C565.711 75.312 565.679 75.152 565.519 75.024C565.167 74.768 564.367 74.448 563.407 74.448C561.695 74.448 561.119 75.616 561.119 76.384C561.119 77.648 562.239 78.176 563.215 78.656C564.287 79.184 564.863 79.472 564.863 80.176C564.863 80.752 564.351 81.104 563.599 81.104C562.655 81.104 562.015 80.64 561.759 80.448C561.551 80.304 561.423 80.368 561.327 80.544L561.103 80.96C561.039 81.088 561.071 81.2 561.151 81.28C561.535 81.632 562.367 82.176 563.599 82.176Z" fill="#4D4D4D"/>
<defs>
<clipPath id="clip0_3100_21838">
<rect width="51.2" height="51.2" fill="white" transform="translate(66.0674 6.13159)"/>
</clipPath>
<clipPath id="clip1_3100_21838">
<rect width="48" height="53.3333" fill="white" transform="translate(267 5.33337)"/>
</clipPath>
<clipPath id="clip2_3100_21838">
<rect width="51.2" height="51.2" fill="white" transform="translate(464.734 6.13159)"/>
</clipPath>
</defs>
</svg>
