<svg width="582" height="88" viewBox="0 0 582 88" fill="none" xmlns="http://www.w3.org/2000/svg">
<g clip-path="url(#clip0_3100_21849)">
<path d="M115.11 13.4232L107.738 6.05129C107.275 5.58837 106.659 5.33337 106.005 5.33337H74.9661C73.6146 5.33337 72.5149 6.43306 72.5149 7.78462V32.0538H70.7911C68.979 32.0538 67.5049 33.5281 67.5049 35.34V50.3703C67.5049 52.1823 68.979 53.6566 70.7911 53.6566H96.6765C98.0282 53.6566 99.1278 52.5569 99.1278 51.2054V39.5153C99.1278 38.1636 98.0281 37.0639 96.6765 37.0639H70.7911C69.8406 37.0639 69.0674 36.2907 69.0674 35.3401C69.0674 34.3896 69.8406 33.6164 70.7911 33.6164H72.5149V34.5055C72.5149 34.9369 72.8647 35.2867 73.2961 35.2867C73.7276 35.2867 74.0774 34.9369 74.0774 34.5055V7.78462C74.0774 7.29452 74.4761 6.89587 74.9661 6.89587H105.08V14.4647C105.08 15.356 105.805 16.0811 106.697 16.0811H114.265V56.2155C114.265 56.7056 113.867 57.1042 113.377 57.1042H74.9661C74.476 57.1042 74.0774 56.7056 74.0774 56.2155C74.0774 55.784 73.7276 55.4342 73.2961 55.4342C72.8647 55.4342 72.5149 55.784 72.5149 56.2155C72.5149 57.5671 73.6146 58.6667 74.9661 58.6667H113.377C114.728 58.6667 115.828 57.567 115.828 56.2155V15.1565C115.828 14.5018 115.573 13.8862 115.11 13.4232ZM70.7911 38.6264H96.6765C97.1666 38.6264 97.5653 39.0251 97.5653 39.5153V51.2055C97.5653 51.6956 97.1665 52.0942 96.6765 52.0942H70.7911C69.8406 52.0942 69.0674 51.3209 69.0674 50.3704V38.137C69.5687 38.4473 70.1594 38.6264 70.7911 38.6264ZM106.643 14.4647V7.16598L113.996 14.5186H106.697C106.667 14.5186 106.643 14.4944 106.643 14.4647Z" fill="#00ADBB"/>
<path d="M82.4833 49.4647C82.539 49.4743 82.5842 49.482 83.3312 49.482C83.6917 49.482 84.2157 49.4803 84.9831 49.4759C85.4146 49.4736 85.7624 49.1218 85.76 48.6903C85.7576 48.2587 85.4039 47.9147 84.9744 47.9134C84.4288 47.9164 83.8429 47.9186 83.3965 47.919V41.9506C83.3965 41.5191 83.0467 41.1693 82.6152 41.1693C82.1838 41.1693 81.834 41.5191 81.834 41.9506V48.6946C81.834 49.0753 82.1082 49.4005 82.4833 49.4647Z" fill="#00ADBB"/>
<path d="M90.4099 49.4816C91.8021 49.4816 92.9706 48.5956 93.1887 47.3749C93.3522 46.4586 92.9331 45.2606 91.2664 44.6458C90.4269 44.3361 89.646 43.9987 89.4175 43.8985C89.2021 43.731 89.2091 43.4944 89.223 43.3965C89.2419 43.2655 89.336 42.9457 89.8037 42.8048C90.7879 42.5082 91.6936 43.2254 91.7188 43.2456C92.049 43.5199 92.5393 43.4763 92.8158 43.1473C93.0934 42.8169 93.0507 42.3241 92.7204 42.0465C92.6578 41.9939 91.1652 40.7629 89.353 41.3087C88.4448 41.5823 87.8023 42.2973 87.6763 43.1744C87.5584 43.9961 87.9145 44.7864 88.6055 45.2369C88.6401 45.2594 88.6762 45.2792 88.714 45.296C88.753 45.3134 89.6806 45.7263 90.7255 46.1117C91.0361 46.2263 91.7482 46.5521 91.6503 47.1002C91.5784 47.5027 91.0948 47.919 90.4097 47.919C89.7216 47.919 89.0586 47.641 88.6366 47.1752C88.3469 46.8555 87.8528 46.8311 87.533 47.1209C87.2133 47.4106 87.1889 47.9047 87.4787 48.2245C88.1923 49.0118 89.2879 49.4816 90.4099 49.4816Z" fill="#00ADBB"/>
<path d="M73.6644 49.3391C73.8012 49.4354 73.9582 49.4817 74.1137 49.4817C74.3592 49.4817 74.6009 49.3662 74.753 49.1502L76.6602 46.4429L78.5645 49.1498C78.7166 49.366 78.9585 49.4817 79.2042 49.4817C79.3595 49.4817 79.5164 49.4355 79.653 49.3394C80.006 49.091 80.0907 48.6037 79.8425 48.2508L77.6162 45.0861L79.508 42.4006C79.7566 42.0479 79.672 41.5605 79.3193 41.3121C78.9666 41.0635 78.4792 41.1481 78.2306 41.5008L76.6612 43.7287L75.0942 41.5011C74.846 41.1482 74.3586 41.0634 74.0057 41.3116C73.6527 41.5599 73.5679 42.0473 73.8162 42.4001L75.7052 45.0854L73.4757 48.2503C73.2271 48.6032 73.3117 49.0905 73.6644 49.3391Z" fill="#00ADBB"/>
<path d="M104.973 20.31C104.973 19.4187 104.248 18.6936 103.357 18.6936H84.9864C84.0951 18.6936 83.3701 19.4187 83.3701 20.31V31.165C83.3701 32.0563 84.0951 32.7813 84.9864 32.7813H103.357C104.248 32.7813 104.973 32.0563 104.973 31.165V20.31H104.973ZM91.6127 27.0438V24.4312H96.7303V27.0438H91.6127ZM96.7303 28.6063V31.2189H91.6127V28.6063H96.7303ZM84.9326 24.4313H90.0502V27.0439H84.9326V24.4313ZM91.6127 22.8688V20.2562H96.7303V22.8688H91.6127ZM98.2928 24.4313H103.41V27.0439H98.2928V24.4313ZM103.41 20.31V22.8687H98.2928V20.2561H103.357C103.386 20.2562 103.41 20.2803 103.41 20.31ZM84.9864 20.2562H90.0502V22.8688H84.9326V20.3101C84.9326 20.2803 84.9567 20.2562 84.9864 20.2562ZM84.9326 31.1651V28.6064H90.0502V31.2189H84.9864C84.9567 31.2189 84.9326 31.1948 84.9326 31.1651ZM103.357 31.2189H98.2928V28.6063H103.41V31.165C103.41 31.1948 103.386 31.2189 103.357 31.2189Z" fill="#00ADBB"/>
</g>
<path d="M33.7108 81.696C33.7108 81.856 33.8388 82 34.0148 82H34.6228C34.7828 82 34.9268 81.856 34.9268 81.696V77.936H37.5668C39.5188 77.936 41.1348 76.32 41.1348 74.336C41.1348 72.4 39.5188 70.8 37.5508 70.8H34.0148C33.8388 70.8 33.7108 70.944 33.7108 71.104V81.696ZM34.9268 76.752V72.016H37.4708C38.7828 72.016 39.9028 72.88 39.9028 74.304C39.9028 75.776 38.7828 76.752 37.4708 76.752H34.9268ZM42.9872 81.648C42.9872 81.84 43.1472 82 43.3392 82H43.8192C43.9952 82 44.1712 81.84 44.1712 81.648V71.152C44.1712 70.976 43.9952 70.8 43.8192 70.8H43.3392C43.1472 70.8 42.9872 70.976 42.9872 71.152V81.648ZM46.1749 79.76C46.1749 81.248 47.1669 82.176 48.4629 82.176C49.5989 82.176 50.3669 81.616 50.7509 81.232L50.8949 81.728C50.9429 81.888 51.0069 82 51.1989 82H51.5029C51.6949 82 51.8549 81.84 51.8549 81.648V77.552C51.8549 75.376 51.4549 74.448 49.5669 74.448C48.3509 74.448 47.3909 74.768 47.0229 74.928C46.8469 75.008 46.7349 75.104 46.7989 75.328L46.9589 75.76C47.0229 75.936 47.1189 76.032 47.3109 75.952C47.6469 75.84 48.4949 75.52 49.5029 75.52C50.5589 75.52 50.7349 76.192 50.7189 77.552C50.7189 77.552 49.9189 77.312 49.1349 77.312C47.2309 77.312 46.1749 78.352 46.1749 79.76ZM47.3429 79.76C47.3429 78.816 48.1109 78.32 49.1349 78.32C49.8709 78.32 50.4629 78.48 50.7029 78.608V80.112C50.3829 80.592 49.5829 81.104 48.6709 81.104C47.8549 81.104 47.3429 80.512 47.3429 79.76ZM54.2822 81.648C54.2822 81.84 54.4422 82 54.6342 82H55.1142C55.2902 82 55.4662 81.84 55.4662 81.648V76.544C55.4662 76.544 56.3462 75.52 57.7382 75.52C58.8262 75.52 59.3062 76.176 59.3062 77.584V81.648C59.3062 81.84 59.4662 82 59.6582 82H60.1382C60.3142 82 60.4902 81.84 60.4902 81.648V77.744C60.4902 75.84 59.9622 74.448 57.8182 74.448C56.2822 74.448 55.3382 75.392 55.3382 75.392L55.1782 74.832C55.1462 74.672 55.0502 74.608 54.8902 74.608H54.6342C54.4422 74.608 54.2822 74.784 54.2822 74.96V81.648ZM63.4672 72.704C63.9632 72.704 64.3472 72.304 64.3472 71.84C64.3472 71.328 63.9632 70.944 63.4672 70.944C62.9872 70.944 62.6032 71.328 62.6032 71.84C62.6032 72.304 62.9872 72.704 63.4672 72.704ZM62.9072 81.648C62.9072 81.84 63.0672 82 63.2592 82H63.7392C63.9152 82 64.0912 81.84 64.0912 81.648V74.96C64.0912 74.784 63.9152 74.608 63.7392 74.608H63.2592C63.0672 74.608 62.9072 74.784 62.9072 74.96V81.648ZM66.6747 81.648C66.6747 81.84 66.8347 82 67.0267 82H67.5067C67.6827 82 67.8587 81.84 67.8587 81.648V71.152C67.8587 70.976 67.6827 70.8 67.5067 70.8H67.0267C66.8347 70.8 66.6747 70.976 66.6747 71.152V81.648ZM70.4384 81.648C70.4384 81.84 70.5984 82 70.7904 82H71.2704C71.4464 82 71.6224 81.84 71.6224 81.648V76.576C71.6224 76.576 72.4864 75.52 73.8944 75.52C75.0304 75.52 75.4464 76.336 75.4464 77.744V81.648C75.4464 81.84 75.6064 82 75.7984 82H76.2944C76.4704 82 76.6464 81.84 76.6464 81.648V77.744C76.6464 75.584 75.8144 74.448 73.9744 74.448C72.4864 74.448 71.6224 75.392 71.6224 75.392V71.152C71.6224 70.976 71.4464 70.8 71.2704 70.8H70.7904C70.5984 70.8 70.4384 70.976 70.4384 71.152V81.648ZM78.4874 79.76C78.4874 81.248 79.4794 82.176 80.7754 82.176C81.9114 82.176 82.6794 81.616 83.0634 81.232L83.2074 81.728C83.2554 81.888 83.3194 82 83.5114 82H83.8154C84.0074 82 84.1674 81.84 84.1674 81.648V77.552C84.1674 75.376 83.7674 74.448 81.8794 74.448C80.6634 74.448 79.7034 74.768 79.3354 74.928C79.1594 75.008 79.0474 75.104 79.1114 75.328L79.2714 75.76C79.3354 75.936 79.4314 76.032 79.6234 75.952C79.9594 75.84 80.8074 75.52 81.8154 75.52C82.8714 75.52 83.0474 76.192 83.0314 77.552C83.0314 77.552 82.2314 77.312 81.4474 77.312C79.5434 77.312 78.4874 78.352 78.4874 79.76ZM79.6554 79.76C79.6554 78.816 80.4234 78.32 81.4474 78.32C82.1834 78.32 82.7754 78.48 83.0154 78.608V80.112C82.6954 80.592 81.8954 81.104 80.9834 81.104C80.1674 81.104 79.6554 80.512 79.6554 79.76ZM89.9744 78.288C89.9744 80.4 91.4144 82.176 93.2864 82.176C94.6784 82.176 95.6224 81.216 95.6224 81.216L95.7184 81.696C95.7824 81.872 95.8784 82 96.0384 82H96.3264C96.5184 82 96.6944 81.84 96.6944 81.648V71.152C96.6944 70.976 96.5184 70.8 96.3264 70.8H95.8784C95.6864 70.8 95.5264 70.976 95.5264 71.152V74.912C95.5264 74.912 94.6944 74.448 93.4784 74.448C91.2544 74.448 89.9744 76.128 89.9744 78.288ZM91.1744 78.304C91.1744 76.832 92.0544 75.52 93.6384 75.52C94.6624 75.52 95.5264 75.936 95.5264 75.936V79.92C95.5264 79.92 94.7584 81.104 93.4304 81.104C92.0864 81.104 91.1744 79.744 91.1744 78.304ZM98.7244 78.304C98.7244 80.416 100.068 82.176 102.308 82.176C103.588 82.176 104.564 81.68 105.012 81.328C105.284 81.12 105.22 81.04 105.076 80.816L104.884 80.544C104.692 80.256 104.58 80.32 104.324 80.496C103.908 80.768 103.3 81.104 102.324 81.104C100.98 81.104 99.9404 79.808 99.9084 78.576H105.284C105.444 78.576 105.604 78.448 105.62 78.256C105.636 78.128 105.652 77.936 105.652 77.808C105.652 75.872 104.244 74.448 102.308 74.448C100.068 74.448 98.7244 76.224 98.7244 78.304ZM99.9244 77.632C100.068 76.48 101.06 75.52 102.308 75.52C103.572 75.52 104.436 76.544 104.468 77.632H99.9244ZM110.574 82H111.214C111.358 82 111.454 81.904 111.486 81.824L112.654 79.184H118.334L119.518 81.824C119.55 81.904 119.646 82 119.79 82H120.43C120.67 82 120.798 81.792 120.702 81.584L115.87 70.816C115.822 70.72 115.742 70.64 115.598 70.64H115.438C115.294 70.64 115.214 70.72 115.166 70.816L110.302 81.584C110.206 81.792 110.334 82 110.574 82ZM113.102 78.192L115.438 72.944H115.566C116.35 74.688 117.118 76.448 117.902 78.192H113.102ZM123.247 81.568C123.247 81.568 124.063 82.176 125.295 82.176C127.327 82.176 128.783 80.464 128.783 78.304C128.783 76.192 127.359 74.448 125.343 74.448C124.015 74.448 123.119 75.2 123.119 75.2L123.007 74.848C122.927 74.656 122.879 74.608 122.703 74.608H122.431C122.239 74.608 122.079 74.784 122.079 74.96V85.456C122.079 85.648 122.239 85.808 122.431 85.808H122.895C123.071 85.808 123.247 85.648 123.247 85.456V81.568ZM123.247 80.464V76.416C123.247 76.416 124.015 75.52 125.199 75.52C126.687 75.52 127.583 76.848 127.583 78.288C127.583 79.904 126.543 81.104 125.119 81.104C124.095 81.104 123.247 80.464 123.247 80.464ZM130.333 78.288C130.333 80.4 131.997 82.176 134.045 82.176C136.093 82.176 137.757 80.4 137.757 78.288C137.757 76.208 136.093 74.448 134.045 74.448C131.997 74.448 130.333 76.208 130.333 78.288ZM131.501 78.288C131.501 76.784 132.589 75.52 134.045 75.52C135.501 75.52 136.573 76.784 136.573 78.288C136.573 79.824 135.501 81.104 134.045 81.104C132.589 81.104 131.501 79.824 131.501 78.288ZM140.327 72.704C140.823 72.704 141.207 72.304 141.207 71.84C141.207 71.328 140.823 70.944 140.327 70.944C139.847 70.944 139.463 71.328 139.463 71.84C139.463 72.304 139.847 72.704 140.327 72.704ZM139.767 81.648C139.767 81.84 139.927 82 140.119 82H140.599C140.775 82 140.951 81.84 140.951 81.648V74.96C140.951 74.784 140.775 74.608 140.599 74.608H140.119C139.927 74.608 139.767 74.784 139.767 74.96V81.648ZM142.974 78.288C142.974 80.4 144.638 82.176 146.686 82.176C148.734 82.176 150.398 80.4 150.398 78.288C150.398 76.208 148.734 74.448 146.686 74.448C144.638 74.448 142.974 76.208 142.974 78.288ZM144.142 78.288C144.142 76.784 145.23 75.52 146.686 75.52C148.142 75.52 149.214 76.784 149.214 78.288C149.214 79.824 148.142 81.104 146.686 81.104C145.23 81.104 144.142 79.824 144.142 78.288Z" fill="#4D4D4D"/>
<g clip-path="url(#clip1_3100_21849)">
<path d="M307.511 58.6667H274.49C273.198 58.6667 272.146 57.6154 272.146 56.323V28.6929C272.146 28.2614 272.496 27.9116 272.928 27.9116C273.359 27.9116 273.709 28.2614 273.709 28.6929V56.323C273.709 56.7538 274.059 57.1042 274.49 57.1042H307.511C307.942 57.1042 308.292 56.7538 308.292 56.323V45.724C308.292 45.2925 308.642 44.9427 309.074 44.9427C309.505 44.9427 309.855 45.2925 309.855 45.724V56.323C309.855 57.6154 308.803 58.6667 307.511 58.6667ZM293.842 44.269C293.39 44.269 292.946 44.0921 292.613 43.7583L288.23 39.3753H283.104C281.924 39.3753 280.892 38.6227 280.534 37.5029C280.311 36.8027 280.131 36.0399 280.001 35.2357C279.932 34.8097 280.221 34.4086 280.647 34.3396C281.073 34.271 281.474 34.56 281.543 34.9861C281.661 35.7141 281.822 36.401 282.023 37.0276C282.172 37.4973 282.607 37.8129 283.104 37.8129H287.772V26.1873H283.104C282.607 26.1873 282.173 26.5029 282.023 26.9725C281.699 27.9859 281.313 29.6807 281.313 32C281.313 32.4315 280.963 32.7813 280.532 32.7813C280.1 32.7813 279.751 32.4315 279.751 32C279.751 29.4795 280.177 27.6164 280.534 26.4971C280.892 25.3772 281.924 24.6247 283.104 24.6247H288.23L292.613 20.2417C293.112 19.7421 293.857 19.594 294.51 19.8643C295.162 20.1347 295.584 20.7659 295.584 21.4724V42.5275C295.584 43.234 295.162 43.8653 294.51 44.1357C294.293 44.2254 294.066 44.269 293.842 44.269ZM289.334 38.2705L293.717 42.6535C293.773 42.7093 293.838 42.7222 293.911 42.6921C293.984 42.6619 294.021 42.6066 294.021 42.5276V21.4725C294.021 21.3936 293.984 21.3383 293.911 21.3081C293.839 21.2779 293.773 21.2908 293.717 21.3467L289.334 25.7297V38.2705ZM298.917 8.91608V15.4896C298.917 15.9205 299.268 16.2709 299.699 16.2709H306.272C305.256 15.2551 303.926 13.9243 302.595 12.5935C301.264 11.2625 299.933 9.93181 298.917 8.91608ZM301.261 39.7466C300.83 39.7466 300.48 39.3968 300.48 38.9654V25.0347C300.48 24.6033 300.83 24.2535 301.261 24.2535C301.693 24.2535 302.042 24.6033 302.042 25.0347V38.9653C302.042 39.3968 301.693 39.7466 301.261 39.7466ZM297.355 7.67712C297.355 7.24567 297.005 6.89587 296.574 6.89587H274.49C274.059 6.89587 273.709 7.24629 273.709 7.67712V25.5679C273.709 25.9993 273.359 26.3491 272.928 26.3491C272.496 26.3491 272.146 25.9993 272.146 25.5679V7.67712C272.146 6.38473 273.198 5.33337 274.49 5.33337H296.574C297.2 5.33337 297.788 5.57712 298.231 6.01973C298.231 6.01973 298.231 6.01973 298.231 6.01983C298.304 6.09327 301.002 8.79087 303.7 11.4886C306.396 14.1846 309.092 16.8807 309.168 16.9573C309.245 17.034 309.168 16.9573 309.168 16.9574H309.168C309.611 17.4001 309.855 17.9886 309.855 18.6145V42.5989C309.855 43.0304 309.505 43.3801 309.073 43.3801C308.642 43.3801 308.292 43.0304 308.292 42.5989V18.6146C308.292 18.1832 307.942 17.8334 307.511 17.8334H299.698C298.406 17.8334 297.355 16.782 297.355 15.4896V7.67712H297.355ZM304.386 36.5894C303.955 36.5894 303.605 36.2396 303.605 35.8082V28.192C303.605 27.7606 303.955 27.4108 304.386 27.4108C304.818 27.4108 305.167 27.7606 305.167 28.192V35.8082C305.167 36.2396 304.818 36.5894 304.386 36.5894ZM298.136 35.8921C297.705 35.8921 297.355 35.5423 297.355 35.1109V28.8892C297.355 28.4578 297.705 28.108 298.136 28.108C298.568 28.108 298.917 28.4578 298.917 28.8892V35.1109C298.917 35.5423 298.568 35.8921 298.136 35.8921Z" fill="#00ADBB"/>
</g>
<path d="M228.668 76.416C228.668 79.616 231.244 82.16 234.444 82.16C235.868 82.16 237.196 81.568 238.252 80.608C238.364 80.496 238.396 80.272 238.268 80.176L237.9 79.808C237.772 79.68 237.644 79.664 237.484 79.792C236.636 80.512 235.82 80.992 234.428 80.992C231.9 80.992 229.964 78.864 229.964 76.4C229.964 73.92 231.9 71.792 234.428 71.792C235.596 71.792 236.652 72.272 237.484 72.992C237.644 73.152 237.772 73.168 237.9 73.008L238.332 72.576C238.46 72.448 238.444 72.256 238.316 72.128C237.228 71.2 236.06 70.64 234.444 70.64C231.244 70.64 228.668 73.216 228.668 76.416ZM239.805 79.76C239.805 81.248 240.797 82.176 242.093 82.176C243.229 82.176 243.997 81.616 244.381 81.232L244.525 81.728C244.573 81.888 244.637 82 244.829 82H245.133C245.325 82 245.485 81.84 245.485 81.648V77.552C245.485 75.376 245.085 74.448 243.197 74.448C241.981 74.448 241.021 74.768 240.653 74.928C240.477 75.008 240.365 75.104 240.429 75.328L240.589 75.76C240.653 75.936 240.749 76.032 240.941 75.952C241.277 75.84 242.125 75.52 243.133 75.52C244.189 75.52 244.365 76.192 244.349 77.552C244.349 77.552 243.549 77.312 242.765 77.312C240.861 77.312 239.805 78.352 239.805 79.76ZM240.973 79.76C240.973 78.816 241.741 78.32 242.765 78.32C243.501 78.32 244.093 78.48 244.333 78.608V80.112C244.013 80.592 243.213 81.104 242.301 81.104C241.485 81.104 240.973 80.512 240.973 79.76ZM247.992 81.648C247.992 81.84 248.152 82 248.344 82H248.824C249 82 249.176 81.84 249.176 81.648V71.152C249.176 70.976 249 70.8 248.824 70.8H248.344C248.152 70.8 247.992 70.976 247.992 71.152V81.648ZM251.836 81.648C251.836 81.84 251.996 82 252.188 82H252.668C252.844 82 253.02 81.84 253.02 81.648V71.152C253.02 70.976 252.844 70.8 252.668 70.8H252.188C251.996 70.8 251.836 70.976 251.836 71.152V81.648ZM258.979 78.288C258.979 80.4 260.419 82.176 262.291 82.176C263.683 82.176 264.627 81.216 264.627 81.216L264.723 81.696C264.787 81.872 264.883 82 265.043 82H265.331C265.523 82 265.699 81.84 265.699 81.648V71.152C265.699 70.976 265.523 70.8 265.331 70.8H264.883C264.691 70.8 264.531 70.976 264.531 71.152V74.912C264.531 74.912 263.699 74.448 262.483 74.448C260.259 74.448 258.979 76.128 258.979 78.288ZM260.179 78.304C260.179 76.832 261.059 75.52 262.643 75.52C263.667 75.52 264.531 75.936 264.531 75.936V79.92C264.531 79.92 263.763 81.104 262.435 81.104C261.091 81.104 260.179 79.744 260.179 78.304ZM267.729 78.304C267.729 80.416 269.073 82.176 271.313 82.176C272.593 82.176 273.569 81.68 274.017 81.328C274.289 81.12 274.225 81.04 274.081 80.816L273.889 80.544C273.697 80.256 273.585 80.32 273.329 80.496C272.913 80.768 272.305 81.104 271.329 81.104C269.985 81.104 268.945 79.808 268.913 78.576H274.289C274.449 78.576 274.609 78.448 274.625 78.256C274.641 78.128 274.657 77.936 274.657 77.808C274.657 75.872 273.249 74.448 271.313 74.448C269.073 74.448 267.729 76.224 267.729 78.304ZM268.929 77.632C269.073 76.48 270.065 75.52 271.313 75.52C272.577 75.52 273.441 76.544 273.473 77.632H268.929ZM280.731 81.696C280.731 81.856 280.859 82 281.035 82H281.659C281.819 82 281.963 81.856 281.963 81.696V77.616H285.019L287.099 81.76C287.179 81.92 287.259 82 287.451 82H288.219C288.491 82 288.603 81.744 288.491 81.536L286.299 77.472C287.691 76.912 288.667 75.68 288.667 74.208C288.667 72.304 287.099 70.8 285.179 70.8H281.035C280.859 70.8 280.731 70.944 280.731 71.104V81.696ZM281.995 76.56V71.968H285.099C286.331 71.968 287.403 73.008 287.403 74.224C287.403 75.536 286.331 76.56 285.099 76.56H281.995ZM289.979 78.304C289.979 80.416 291.323 82.176 293.563 82.176C294.843 82.176 295.819 81.68 296.267 81.328C296.539 81.12 296.475 81.04 296.331 80.816L296.139 80.544C295.947 80.256 295.835 80.32 295.579 80.496C295.163 80.768 294.555 81.104 293.579 81.104C292.235 81.104 291.195 79.808 291.163 78.576H296.539C296.699 78.576 296.859 78.448 296.875 78.256C296.891 78.128 296.907 77.936 296.907 77.808C296.907 75.872 295.499 74.448 293.563 74.448C291.323 74.448 289.979 76.224 289.979 78.304ZM291.179 77.632C291.323 76.48 292.315 75.52 293.563 75.52C294.827 75.52 295.691 76.544 295.723 77.632H291.179ZM300.914 82.176C302.418 82.176 303.426 81.232 303.426 80.064C303.426 78.72 302.322 78.24 301.042 77.648C300.146 77.232 299.634 76.992 299.634 76.336C299.634 75.984 299.906 75.52 300.722 75.52C301.41 75.52 301.922 75.76 302.242 75.952C302.402 76.048 302.642 76.032 302.754 75.824L302.914 75.52C303.026 75.312 302.994 75.152 302.834 75.024C302.482 74.768 301.682 74.448 300.722 74.448C299.01 74.448 298.434 75.616 298.434 76.384C298.434 77.648 299.554 78.176 300.53 78.656C301.602 79.184 302.178 79.472 302.178 80.176C302.178 80.752 301.666 81.104 300.914 81.104C299.97 81.104 299.33 80.64 299.074 80.448C298.866 80.304 298.738 80.368 298.642 80.544L298.418 80.96C298.354 81.088 298.386 81.2 298.466 81.28C298.85 81.632 299.682 82.176 300.914 82.176ZM305.27 78.944C305.27 80.896 305.782 82.176 307.91 82.176C309.238 82.176 309.926 81.504 310.198 81.216L310.342 81.68C310.39 81.872 310.47 82 310.678 82H310.934C311.11 82 311.27 81.84 311.27 81.648V74.96C311.27 74.784 311.11 74.608 310.934 74.608H310.438C310.246 74.608 310.102 74.784 310.102 74.96V80.032C309.766 80.416 309.11 81.104 308.006 81.104C306.934 81.104 306.454 80.432 306.454 78.96V74.96C306.454 74.784 306.294 74.608 306.102 74.608H305.622C305.414 74.608 305.27 74.784 305.27 74.96V78.944ZM313.851 81.648C313.851 81.84 314.011 82 314.203 82H314.683C314.859 82 315.035 81.84 315.035 81.648V71.152C315.035 70.976 314.859 70.8 314.683 70.8H314.203C314.011 70.8 313.851 70.976 313.851 71.152V81.648ZM318.095 75.632V80.128C318.095 81.28 318.383 82.176 319.791 82.176C320.783 82.176 321.551 81.808 321.871 81.584C322.063 81.456 322.095 81.344 321.999 81.104L321.855 80.768C321.775 80.592 321.679 80.448 321.391 80.624C321.087 80.816 320.623 81.104 319.935 81.104C319.519 81.104 319.279 80.816 319.279 80.048V75.632H321.455C321.663 75.632 321.823 75.472 321.823 75.28V74.96C321.823 74.752 321.663 74.608 321.455 74.608H319.279V72.528C319.279 72.336 319.135 72.16 318.943 72.176L318.447 72.208C318.271 72.224 318.095 72.368 318.095 72.56V74.608H317.119C316.895 74.608 316.751 74.752 316.751 74.96V75.28C316.751 75.472 316.895 75.632 317.119 75.632H318.095ZM323.102 79.76C323.102 81.248 324.094 82.176 325.39 82.176C326.526 82.176 327.294 81.616 327.678 81.232L327.822 81.728C327.87 81.888 327.934 82 328.126 82H328.43C328.622 82 328.782 81.84 328.782 81.648V77.552C328.782 75.376 328.382 74.448 326.494 74.448C325.278 74.448 324.318 74.768 323.95 74.928C323.774 75.008 323.662 75.104 323.726 75.328L323.886 75.76C323.95 75.936 324.046 76.032 324.238 75.952C324.574 75.84 325.422 75.52 326.43 75.52C327.486 75.52 327.662 76.192 327.646 77.552C327.646 77.552 326.846 77.312 326.062 77.312C324.158 77.312 323.102 78.352 323.102 79.76ZM324.27 79.76C324.27 78.816 325.038 78.32 326.062 78.32C326.798 78.32 327.39 78.48 327.63 78.608V80.112C327.31 80.592 326.51 81.104 325.598 81.104C324.782 81.104 324.27 80.512 324.27 79.76ZM330.745 78.288C330.745 80.4 332.185 82.176 334.057 82.176C335.449 82.176 336.393 81.216 336.393 81.216L336.489 81.696C336.553 81.872 336.649 82 336.809 82H337.097C337.289 82 337.465 81.84 337.465 81.648V71.152C337.465 70.976 337.289 70.8 337.097 70.8H336.649C336.457 70.8 336.297 70.976 336.297 71.152V74.912C336.297 74.912 335.465 74.448 334.249 74.448C332.025 74.448 330.745 76.128 330.745 78.288ZM331.945 78.304C331.945 76.832 332.825 75.52 334.409 75.52C335.433 75.52 336.297 75.936 336.297 75.936V79.92C336.297 79.92 335.529 81.104 334.201 81.104C332.857 81.104 331.945 79.744 331.945 78.304ZM339.479 78.288C339.479 80.4 341.143 82.176 343.191 82.176C345.239 82.176 346.903 80.4 346.903 78.288C346.903 76.208 345.239 74.448 343.191 74.448C341.143 74.448 339.479 76.208 339.479 78.288ZM340.647 78.288C340.647 76.784 341.735 75.52 343.191 75.52C344.647 75.52 345.719 76.784 345.719 78.288C345.719 79.824 344.647 81.104 343.191 81.104C341.735 81.104 340.647 79.824 340.647 78.288ZM350.976 82.176C352.48 82.176 353.488 81.232 353.488 80.064C353.488 78.72 352.384 78.24 351.104 77.648C350.208 77.232 349.696 76.992 349.696 76.336C349.696 75.984 349.968 75.52 350.784 75.52C351.472 75.52 351.984 75.76 352.304 75.952C352.464 76.048 352.704 76.032 352.816 75.824L352.976 75.52C353.088 75.312 353.056 75.152 352.896 75.024C352.544 74.768 351.744 74.448 350.784 74.448C349.072 74.448 348.496 75.616 348.496 76.384C348.496 77.648 349.616 78.176 350.592 78.656C351.664 79.184 352.24 79.472 352.24 80.176C352.24 80.752 351.728 81.104 350.976 81.104C350.032 81.104 349.392 80.64 349.136 80.448C348.928 80.304 348.8 80.368 348.704 80.544L348.48 80.96C348.416 81.088 348.448 81.2 348.528 81.28C348.912 81.632 349.744 82.176 350.976 82.176Z" fill="#4D4D4D"/>
<defs>
<clipPath id="clip0_3100_21849">
<rect width="53.3333" height="53.3333" fill="white" transform="translate(65 5.33337)"/>
</clipPath>
<clipPath id="clip1_3100_21849">
<rect width="42.6667" height="53.3333" fill="white" transform="translate(269.667 5.33337)"/>
</clipPath>
</defs>
</svg>
