<svg width="184" height="88" viewBox="0 0 184 88" fill="none" xmlns="http://www.w3.org/2000/svg">
<g clip-path="url(#clip0_3100_21853)">
<path d="M108.511 58.6667H75.4902C74.1978 58.6667 73.1465 57.6154 73.1465 56.323V28.6929C73.1465 28.2614 73.4963 27.9116 73.9277 27.9116C74.3592 27.9116 74.709 28.2614 74.709 28.6929V56.323C74.709 56.7538 75.0594 57.1042 75.4902 57.1042H108.511C108.942 57.1042 109.292 56.7538 109.292 56.323V45.724C109.292 45.2925 109.642 44.9428 110.074 44.9428C110.505 44.9428 110.855 45.2925 110.855 45.724V56.323C110.855 57.6154 109.803 58.6667 108.511 58.6667ZM94.8416 44.269C94.3895 44.269 93.9464 44.0921 93.6126 43.7583L89.2296 39.3753H84.1041C82.9244 39.3753 81.8917 38.6228 81.5341 37.5029C81.3105 36.8028 81.1311 36.0399 81.0009 35.2357C80.9319 34.8097 81.2214 34.4086 81.6473 34.3396C82.0726 34.271 82.4744 34.56 82.5434 34.9861C82.6612 35.7141 82.8224 36.401 83.0225 37.0276C83.1724 37.4973 83.6071 37.8129 84.1041 37.8129H88.772V26.1873H84.1041C83.6071 26.1873 83.1725 26.5029 83.0225 26.9725C82.6989 27.9859 82.3131 29.6807 82.3131 32C82.3131 32.4315 81.9634 32.7813 81.5319 32.7813C81.1004 32.7813 80.7506 32.4315 80.7506 32C80.7506 29.4795 81.1767 27.6164 81.5341 26.4971C81.8917 25.3772 82.9244 24.6247 84.1041 24.6247H89.2296L93.6126 20.2417C94.1121 19.7421 94.8568 19.594 95.5095 19.8643C96.1622 20.1347 96.584 20.7659 96.584 21.4724V42.5275C96.584 43.234 96.1622 43.8653 95.5095 44.1357C95.2928 44.2254 95.0662 44.269 94.8416 44.269ZM90.3344 38.2705L94.7174 42.6535C94.7733 42.7093 94.8385 42.7222 94.9115 42.6921C94.9844 42.6619 95.0214 42.6066 95.0214 42.5276V21.4725C95.0214 21.3936 94.9844 21.3383 94.9115 21.3081C94.8386 21.2779 94.7733 21.2908 94.7174 21.3467L90.3344 25.7297V38.2705ZM99.9173 8.91608V15.4896C99.9173 15.9205 100.268 16.2709 100.699 16.2709H107.272C106.256 15.2551 104.926 13.9243 103.595 12.5935C102.264 11.2625 100.933 9.93181 99.9173 8.91608ZM102.261 39.7466C101.83 39.7466 101.48 39.3968 101.48 38.9654V25.0347C101.48 24.6033 101.83 24.2535 102.261 24.2535C102.693 24.2535 103.042 24.6033 103.042 25.0347V38.9653C103.042 39.3968 102.693 39.7466 102.261 39.7466V39.7466ZM98.3548 7.67712C98.3548 7.24567 98.005 6.89587 97.5736 6.89587H75.4902C75.0594 6.89587 74.709 7.24629 74.709 7.67712V25.5679C74.709 25.9993 74.3592 26.3491 73.9277 26.3491C73.4963 26.3491 73.1465 25.9993 73.1465 25.5679V7.67712C73.1465 6.38473 74.1978 5.33337 75.4902 5.33337H97.5736C98.1995 5.33337 98.788 5.57712 99.2308 6.01973C99.2308 6.01973 99.2308 6.01973 99.2309 6.01983C99.3043 6.09327 102.002 8.79087 104.7 11.4886C107.396 14.1846 110.092 16.8807 110.168 16.9573C110.245 17.034 110.168 16.9573 110.168 16.9574H110.168C110.611 17.4001 110.855 17.9886 110.855 18.6145V42.5989C110.855 43.0304 110.505 43.3801 110.073 43.3801C109.642 43.3801 109.292 43.0304 109.292 42.5989V18.6146C109.292 18.1832 108.942 17.8334 108.511 17.8334H100.698C99.4061 17.8334 98.3547 16.782 98.3547 15.4896V7.67712H98.3548ZM105.386 36.5894C104.955 36.5894 104.605 36.2396 104.605 35.8082V28.192C104.605 27.7606 104.955 27.4108 105.386 27.4108C105.818 27.4108 106.167 27.7606 106.167 28.192V35.8082C106.167 36.2396 105.818 36.5894 105.386 36.5894ZM99.1361 35.8921C98.7046 35.8921 98.3548 35.5423 98.3548 35.1109V28.8892C98.3548 28.4578 98.7046 28.108 99.1361 28.108C99.5675 28.108 99.9173 28.4578 99.9173 28.8892V35.1109C99.9173 35.5423 99.5675 35.8921 99.1361 35.8921Z" fill="#00ADBB"/>
</g>
<path d="M29.6679 76.416C29.6679 79.616 32.2439 82.16 35.4439 82.16C36.8679 82.16 38.1959 81.568 39.2519 80.608C39.3639 80.496 39.3959 80.272 39.2679 80.176L38.8999 79.808C38.7719 79.68 38.6439 79.664 38.4839 79.792C37.6359 80.512 36.8199 80.992 35.4279 80.992C32.8999 80.992 30.9639 78.864 30.9639 76.4C30.9639 73.92 32.8999 71.792 35.4279 71.792C36.5959 71.792 37.6519 72.272 38.4839 72.992C38.6439 73.152 38.7719 73.168 38.8999 73.008L39.3319 72.576C39.4599 72.448 39.4439 72.256 39.3159 72.128C38.2279 71.2 37.0599 70.64 35.4439 70.64C32.2439 70.64 29.6679 73.216 29.6679 76.416ZM40.8048 79.76C40.8048 81.248 41.7968 82.176 43.0928 82.176C44.2288 82.176 44.9968 81.616 45.3808 81.232L45.5248 81.728C45.5728 81.888 45.6368 82 45.8288 82H46.1328C46.3248 82 46.4848 81.84 46.4848 81.648V77.552C46.4848 75.376 46.0848 74.448 44.1968 74.448C42.9808 74.448 42.0208 74.768 41.6528 74.928C41.4768 75.008 41.3648 75.104 41.4288 75.328L41.5888 75.76C41.6528 75.936 41.7488 76.032 41.9408 75.952C42.2768 75.84 43.1248 75.52 44.1328 75.52C45.1888 75.52 45.3648 76.192 45.3488 77.552C45.3488 77.552 44.5488 77.312 43.7648 77.312C41.8608 77.312 40.8048 78.352 40.8048 79.76ZM41.9728 79.76C41.9728 78.816 42.7408 78.32 43.7648 78.32C44.5008 78.32 45.0928 78.48 45.3328 78.608V80.112C45.0128 80.592 44.2128 81.104 43.3008 81.104C42.4848 81.104 41.9728 80.512 41.9728 79.76ZM48.9921 81.648C48.9921 81.84 49.1521 82 49.3441 82H49.8241C50.0001 82 50.1761 81.84 50.1761 81.648V71.152C50.1761 70.976 50.0001 70.8 49.8241 70.8H49.3441C49.1521 70.8 48.9921 70.976 48.9921 71.152V81.648ZM52.8358 81.648C52.8358 81.84 52.9958 82 53.1878 82H53.6678C53.8438 82 54.0198 81.84 54.0198 81.648V71.152C54.0198 70.976 53.8438 70.8 53.6678 70.8H53.1878C52.9958 70.8 52.8358 70.976 52.8358 71.152V81.648ZM59.9793 78.288C59.9793 80.4 61.4193 82.176 63.2913 82.176C64.6833 82.176 65.6273 81.216 65.6273 81.216L65.7233 81.696C65.7873 81.872 65.8833 82 66.0433 82H66.3313C66.5233 82 66.6993 81.84 66.6993 81.648V71.152C66.6993 70.976 66.5233 70.8 66.3313 70.8H65.8833C65.6913 70.8 65.5313 70.976 65.5313 71.152V74.912C65.5313 74.912 64.6993 74.448 63.4833 74.448C61.2593 74.448 59.9793 76.128 59.9793 78.288ZM61.1793 78.304C61.1793 76.832 62.0593 75.52 63.6433 75.52C64.6673 75.52 65.5313 75.936 65.5313 75.936V79.92C65.5313 79.92 64.7633 81.104 63.4353 81.104C62.0913 81.104 61.1793 79.744 61.1793 78.304ZM68.7293 78.304C68.7293 80.416 70.0733 82.176 72.3133 82.176C73.5933 82.176 74.5693 81.68 75.0173 81.328C75.2893 81.12 75.2253 81.04 75.0813 80.816L74.8893 80.544C74.6973 80.256 74.5853 80.32 74.3293 80.496C73.9133 80.768 73.3053 81.104 72.3293 81.104C70.9853 81.104 69.9453 79.808 69.9133 78.576H75.2893C75.4493 78.576 75.6093 78.448 75.6253 78.256C75.6413 78.128 75.6573 77.936 75.6573 77.808C75.6573 75.872 74.2493 74.448 72.3133 74.448C70.0733 74.448 68.7293 76.224 68.7293 78.304ZM69.9293 77.632C70.0733 76.48 71.0653 75.52 72.3133 75.52C73.5773 75.52 74.4413 76.544 74.4733 77.632H69.9293ZM81.7313 81.696C81.7313 81.856 81.8593 82 82.0353 82H82.6593C82.8193 82 82.9633 81.856 82.9633 81.696V77.616H86.0193L88.0993 81.76C88.1793 81.92 88.2593 82 88.4513 82H89.2193C89.4913 82 89.6033 81.744 89.4913 81.536L87.2993 77.472C88.6913 76.912 89.6673 75.68 89.6673 74.208C89.6673 72.304 88.0993 70.8 86.1793 70.8H82.0353C81.8593 70.8 81.7313 70.944 81.7313 71.104V81.696ZM82.9953 76.56V71.968H86.0993C87.3313 71.968 88.4033 73.008 88.4033 74.224C88.4033 75.536 87.3313 76.56 86.0993 76.56H82.9953ZM90.9793 78.304C90.9793 80.416 92.3233 82.176 94.5633 82.176C95.8433 82.176 96.8193 81.68 97.2673 81.328C97.5393 81.12 97.4753 81.04 97.3313 80.816L97.1393 80.544C96.9473 80.256 96.8353 80.32 96.5793 80.496C96.1633 80.768 95.5553 81.104 94.5793 81.104C93.2353 81.104 92.1953 79.808 92.1633 78.576H97.5393C97.6993 78.576 97.8593 78.448 97.8753 78.256C97.8913 78.128 97.9073 77.936 97.9073 77.808C97.9073 75.872 96.4993 74.448 94.5633 74.448C92.3233 74.448 90.9793 76.224 90.9793 78.304ZM92.1793 77.632C92.3233 76.48 93.3153 75.52 94.5633 75.52C95.8273 75.52 96.6913 76.544 96.7233 77.632H92.1793ZM101.914 82.176C103.418 82.176 104.426 81.232 104.426 80.064C104.426 78.72 103.322 78.24 102.042 77.648C101.146 77.232 100.634 76.992 100.634 76.336C100.634 75.984 100.906 75.52 101.722 75.52C102.41 75.52 102.922 75.76 103.242 75.952C103.402 76.048 103.642 76.032 103.754 75.824L103.914 75.52C104.026 75.312 103.994 75.152 103.834 75.024C103.482 74.768 102.682 74.448 101.722 74.448C100.01 74.448 99.4336 75.616 99.4336 76.384C99.4336 77.648 100.554 78.176 101.53 78.656C102.602 79.184 103.178 79.472 103.178 80.176C103.178 80.752 102.666 81.104 101.914 81.104C100.97 81.104 100.33 80.64 100.074 80.448C99.8656 80.304 99.7376 80.368 99.6416 80.544L99.4176 80.96C99.3536 81.088 99.3856 81.2 99.4656 81.28C99.8496 81.632 100.682 82.176 101.914 82.176ZM106.27 78.944C106.27 80.896 106.782 82.176 108.91 82.176C110.238 82.176 110.926 81.504 111.198 81.216L111.342 81.68C111.39 81.872 111.47 82 111.678 82H111.934C112.11 82 112.27 81.84 112.27 81.648V74.96C112.27 74.784 112.11 74.608 111.934 74.608H111.438C111.246 74.608 111.102 74.784 111.102 74.96V80.032C110.766 80.416 110.11 81.104 109.006 81.104C107.934 81.104 107.454 80.432 107.454 78.96V74.96C107.454 74.784 107.294 74.608 107.102 74.608H106.622C106.414 74.608 106.27 74.784 106.27 74.96V78.944ZM114.851 81.648C114.851 81.84 115.011 82 115.203 82H115.683C115.859 82 116.035 81.84 116.035 81.648V71.152C116.035 70.976 115.859 70.8 115.683 70.8H115.203C115.011 70.8 114.851 70.976 114.851 71.152V81.648ZM119.095 75.632V80.128C119.095 81.28 119.383 82.176 120.791 82.176C121.783 82.176 122.551 81.808 122.871 81.584C123.063 81.456 123.095 81.344 122.999 81.104L122.855 80.768C122.775 80.592 122.679 80.448 122.391 80.624C122.087 80.816 121.623 81.104 120.935 81.104C120.519 81.104 120.279 80.816 120.279 80.048V75.632H122.455C122.663 75.632 122.823 75.472 122.823 75.28V74.96C122.823 74.752 122.663 74.608 122.455 74.608H120.279V72.528C120.279 72.336 120.135 72.16 119.943 72.176L119.447 72.208C119.271 72.224 119.095 72.368 119.095 72.56V74.608H118.119C117.895 74.608 117.751 74.752 117.751 74.96V75.28C117.751 75.472 117.895 75.632 118.119 75.632H119.095ZM124.102 79.76C124.102 81.248 125.094 82.176 126.39 82.176C127.526 82.176 128.294 81.616 128.678 81.232L128.822 81.728C128.87 81.888 128.934 82 129.126 82H129.43C129.622 82 129.782 81.84 129.782 81.648V77.552C129.782 75.376 129.382 74.448 127.494 74.448C126.278 74.448 125.318 74.768 124.95 74.928C124.774 75.008 124.662 75.104 124.726 75.328L124.886 75.76C124.95 75.936 125.046 76.032 125.238 75.952C125.574 75.84 126.422 75.52 127.43 75.52C128.486 75.52 128.662 76.192 128.646 77.552C128.646 77.552 127.846 77.312 127.062 77.312C125.158 77.312 124.102 78.352 124.102 79.76ZM125.27 79.76C125.27 78.816 126.038 78.32 127.062 78.32C127.798 78.32 128.39 78.48 128.63 78.608V80.112C128.31 80.592 127.51 81.104 126.598 81.104C125.782 81.104 125.27 80.512 125.27 79.76ZM131.745 78.288C131.745 80.4 133.185 82.176 135.057 82.176C136.449 82.176 137.393 81.216 137.393 81.216L137.489 81.696C137.553 81.872 137.649 82 137.809 82H138.097C138.289 82 138.465 81.84 138.465 81.648V71.152C138.465 70.976 138.289 70.8 138.097 70.8H137.649C137.457 70.8 137.297 70.976 137.297 71.152V74.912C137.297 74.912 136.465 74.448 135.249 74.448C133.025 74.448 131.745 76.128 131.745 78.288ZM132.945 78.304C132.945 76.832 133.825 75.52 135.409 75.52C136.433 75.52 137.297 75.936 137.297 75.936V79.92C137.297 79.92 136.529 81.104 135.201 81.104C133.857 81.104 132.945 79.744 132.945 78.304ZM140.479 78.288C140.479 80.4 142.143 82.176 144.191 82.176C146.239 82.176 147.903 80.4 147.903 78.288C147.903 76.208 146.239 74.448 144.191 74.448C142.143 74.448 140.479 76.208 140.479 78.288ZM141.647 78.288C141.647 76.784 142.735 75.52 144.191 75.52C145.647 75.52 146.719 76.784 146.719 78.288C146.719 79.824 145.647 81.104 144.191 81.104C142.735 81.104 141.647 79.824 141.647 78.288ZM151.976 82.176C153.48 82.176 154.488 81.232 154.488 80.064C154.488 78.72 153.384 78.24 152.104 77.648C151.208 77.232 150.696 76.992 150.696 76.336C150.696 75.984 150.968 75.52 151.784 75.52C152.472 75.52 152.984 75.76 153.304 75.952C153.464 76.048 153.704 76.032 153.816 75.824L153.976 75.52C154.088 75.312 154.056 75.152 153.896 75.024C153.544 74.768 152.744 74.448 151.784 74.448C150.072 74.448 149.496 75.616 149.496 76.384C149.496 77.648 150.616 78.176 151.592 78.656C152.664 79.184 153.24 79.472 153.24 80.176C153.24 80.752 152.728 81.104 151.976 81.104C151.032 81.104 150.392 80.64 150.136 80.448C149.928 80.304 149.8 80.368 149.704 80.544L149.48 80.96C149.416 81.088 149.448 81.2 149.528 81.28C149.912 81.632 150.744 82.176 151.976 82.176Z" fill="#4D4D4D"/>
<defs>
<clipPath id="clip0_3100_21853">
<rect width="42.6667" height="53.3333" fill="white" transform="translate(70.667 5.33337)"/>
</clipPath>
</defs>
</svg>
