<svg width="624" height="100" viewBox="0 0 624 100" fill="none" xmlns="http://www.w3.org/2000/svg">
<path d="M0.384 18H1.024C1.168 18 1.264 17.904 1.296 17.824L2.464 15.184H8.144L9.328 17.824C9.36 17.904 9.456 18 9.6 18H10.24C10.48 18 10.608 17.792 10.512 17.584L5.68 6.816C5.632 6.72 5.552 6.64 5.408 6.64H5.248C5.104 6.64 5.024 6.72 4.976 6.816L0.112 17.584C0.016 17.792 0.144 18 0.384 18ZM2.912 14.192L5.248 8.944H5.376C6.16 10.688 6.928 12.448 7.712 14.192H2.912ZM13.3766 11.824V7.904H15.8086C17.1206 7.904 17.9046 8.672 17.9046 9.824C17.9046 10.944 17.1206 11.824 15.8086 11.824H13.3766ZM13.3446 16.928V12.928H16.0966C17.3126 12.928 18.2726 13.76 18.2726 14.896C18.2726 16.048 17.4566 16.928 16.1606 16.928H13.3446ZM17.7126 12.288C18.4486 11.84 19.2646 11.04 19.2646 9.744C19.2646 8.064 17.9686 6.8 16.0166 6.8H12.4806C12.3046 6.8 12.1766 6.944 12.1766 7.104V17.696C12.1766 17.856 12.3046 18 12.4806 18H16.2406C18.2246 18 19.6166 16.704 19.6166 14.912C19.6166 13.456 18.5606 12.672 17.7126 12.32V12.288ZM22.1454 17.696C22.1454 17.856 22.2734 18 22.4494 18H23.0734C23.2334 18 23.3774 17.856 23.3774 17.696V13.616H26.4334L28.5134 17.76C28.5934 17.92 28.6734 18 28.8654 18H29.6334C29.9054 18 30.0174 17.744 29.9054 17.536L27.7134 13.472C29.1054 12.912 30.0814 11.68 30.0814 10.208C30.0814 8.304 28.5134 6.8 26.5934 6.8H22.4494C22.2734 6.8 22.1454 6.944 22.1454 7.104V17.696ZM23.4094 12.56V7.968H26.5134C27.7454 7.968 28.8174 9.008 28.8174 10.224C28.8174 11.536 27.7454 12.56 26.5134 12.56H23.4094Z" fill="#00ADBB"/>
<rect x="40" y="7" width="1" height="10" fill="#00ADBB"/>
<path d="M52.952 16.208C53.816 15.104 55.064 13.568 55.752 12.576C56.392 11.648 56.856 10.992 56.856 9.92C56.856 8.144 55.544 6.64 53.176 6.64C51.224 6.64 49.928 8.256 49.928 8.256C49.816 8.384 49.848 8.592 49.944 8.688L50.744 9.472C50.872 9.616 51.048 9.616 51.192 9.472C51.56 9.072 52.248 8.512 53.032 8.512C54.216 8.512 54.776 9.264 54.776 10C54.776 10.56 54.456 11.2 53.944 11.824C52.888 13.216 50.92 15.776 49.8 17.152C49.752 17.216 49.672 17.344 49.672 17.52V17.68C49.672 17.856 49.8 18 49.976 18H56.472C56.648 18 56.792 17.856 56.792 17.68V16.544C56.792 16.384 56.648 16.24 56.472 16.24H52.952V16.208ZM58.6118 16.704C58.9798 17.12 59.9878 18.16 62.0358 18.16C64.3078 18.16 65.8278 16.816 65.8278 14.944C65.8278 13.488 64.7238 12.608 63.8438 12.272V12.208C64.5798 11.872 65.5398 11.088 65.5398 9.664C65.5398 7.808 63.9398 6.64 62.0198 6.64C60.4358 6.64 59.4118 7.488 58.9318 8.096C58.8198 8.224 58.7878 8.416 58.9318 8.528L59.7318 9.28C59.8758 9.408 60.0678 9.392 60.1798 9.264C60.4518 8.928 60.9798 8.48 61.8438 8.48C62.6758 8.48 63.4438 9.088 63.4438 9.984C63.4438 10.832 62.7558 11.488 61.3958 11.488H60.4678C60.2758 11.488 60.1638 11.6 60.1638 11.824V12.864C60.1638 13.056 60.2918 13.184 60.4678 13.184H61.3958C62.8838 13.184 63.6678 13.824 63.6678 14.88C63.6678 15.728 62.9318 16.368 61.9238 16.368C60.9158 16.368 60.3398 15.92 59.8918 15.472C59.7638 15.344 59.6198 15.344 59.4758 15.472L58.6278 16.288C58.5318 16.4 58.5158 16.576 58.6118 16.704Z" fill="#00ADBB"/>
<path d="M0.384 42H1.024C1.168 42 1.264 41.904 1.296 41.824L2.464 39.184H8.144L9.328 41.824C9.36 41.904 9.456 42 9.6 42H10.24C10.48 42 10.608 41.792 10.512 41.584L5.68 30.816C5.632 30.72 5.552 30.64 5.408 30.64H5.248C5.104 30.64 5.024 30.72 4.976 30.816L0.112 41.584C0.016 41.792 0.144 42 0.384 42ZM2.912 38.192L5.248 32.944H5.376C6.16 34.688 6.928 36.448 7.712 38.192H2.912ZM11.8886 41.648C11.8886 41.84 12.0486 42 12.2406 42H12.7206C12.8966 42 13.0726 41.84 13.0726 41.648V36.544C13.0726 36.544 13.7446 35.52 15.0566 35.52C16.2566 35.52 16.7206 36.336 16.7206 37.744V41.648C16.7206 41.84 16.8966 42 17.0726 42H17.5526C17.7446 42 17.9046 41.84 17.9046 41.648V37.744C17.9046 37.36 17.8726 36.848 17.8086 36.528C18.0806 36.304 18.7526 35.52 19.9526 35.52C21.0726 35.52 21.5206 36.368 21.5206 37.744V41.648C21.5206 41.84 21.6806 42 21.8726 42H22.3526C22.5446 42 22.7046 41.84 22.7046 41.648V37.744C22.7046 35.84 22.1926 34.448 20.0486 34.448C18.5606 34.448 17.5046 35.552 17.4086 35.616C16.9286 34.848 16.3366 34.448 15.2326 34.448C13.7126 34.448 12.9446 35.392 12.9446 35.392L12.7846 34.832C12.7526 34.672 12.6566 34.608 12.4966 34.608H12.2406C12.0486 34.608 11.8886 34.784 11.8886 34.96V41.648ZM24.659 38.304C24.659 40.416 26.003 42.176 28.243 42.176C29.523 42.176 30.499 41.68 30.947 41.328C31.219 41.12 31.155 41.04 31.011 40.816L30.819 40.544C30.627 40.256 30.515 40.32 30.259 40.496C29.843 40.768 29.235 41.104 28.259 41.104C26.915 41.104 25.875 39.808 25.843 38.576H31.219C31.379 38.576 31.539 38.448 31.555 38.256C31.571 38.128 31.587 37.936 31.587 37.808C31.587 35.872 30.179 34.448 28.243 34.448C26.003 34.448 24.659 36.224 24.659 38.304ZM25.859 37.632C26.003 36.48 26.995 35.52 28.243 35.52C29.507 35.52 30.371 36.544 30.403 37.632H25.859ZM34.0093 35.632V40.128C34.0093 41.28 34.2973 42.176 35.7053 42.176C36.6973 42.176 37.4653 41.808 37.7853 41.584C37.9773 41.456 38.0093 41.344 37.9133 41.104L37.7693 40.768C37.6893 40.592 37.5933 40.448 37.3053 40.624C37.0013 40.816 36.5373 41.104 35.8493 41.104C35.4333 41.104 35.1933 40.816 35.1933 40.048V35.632H37.3693C37.5773 35.632 37.7373 35.472 37.7373 35.28V34.96C37.7373 34.752 37.5773 34.608 37.3693 34.608H35.1933V32.528C35.1933 32.336 35.0493 32.16 34.8573 32.176L34.3613 32.208C34.1853 32.224 34.0093 32.368 34.0093 32.56V34.608H33.0333C32.8092 34.608 32.6653 34.752 32.6653 34.96V35.28C32.6653 35.472 32.8092 35.632 33.0333 35.632H34.0093ZM43.4355 41.648C43.4355 41.84 43.5955 42 43.7875 42H44.2675C44.4435 42 44.6195 41.84 44.6195 41.648V36.544C44.6195 36.544 45.2915 35.52 46.6035 35.52C47.8035 35.52 48.2675 36.336 48.2675 37.744V41.648C48.2675 41.84 48.4435 42 48.6195 42H49.0995C49.2915 42 49.4515 41.84 49.4515 41.648V37.744C49.4515 37.36 49.4195 36.848 49.3555 36.528C49.6275 36.304 50.2995 35.52 51.4995 35.52C52.6195 35.52 53.0675 36.368 53.0675 37.744V41.648C53.0675 41.84 53.2275 42 53.4195 42H53.8995C54.0915 42 54.2515 41.84 54.2515 41.648V37.744C54.2515 35.84 53.7395 34.448 51.5955 34.448C50.1075 34.448 49.0515 35.552 48.9555 35.616C48.4755 34.848 47.8835 34.448 46.7795 34.448C45.2595 34.448 44.4915 35.392 44.4915 35.392L44.3315 34.832C44.2995 34.672 44.2035 34.608 44.0435 34.608H43.7875C43.5955 34.608 43.4355 34.784 43.4355 34.96V41.648ZM57.2299 32.704C57.7259 32.704 58.1099 32.304 58.1099 31.84C58.1099 31.328 57.7259 30.944 57.2299 30.944C56.7499 30.944 56.3659 31.328 56.3659 31.84C56.3659 32.304 56.7499 32.704 57.2299 32.704ZM56.6699 41.648C56.6699 41.84 56.8299 42 57.0219 42H57.5019C57.6779 42 57.8539 41.84 57.8539 41.648V34.96C57.8539 34.784 57.6779 34.608 57.5019 34.608H57.0219C56.8299 34.608 56.6699 34.784 56.6699 34.96V41.648ZM60.3574 41.648C60.3574 41.84 60.5174 42 60.7094 42H61.1894C61.3654 42 61.5414 41.84 61.5414 41.648V36.544C61.5414 36.544 62.4214 35.52 63.8134 35.52C64.9014 35.52 65.3814 36.176 65.3814 37.584V41.648C65.3814 41.84 65.5414 42 65.7334 42H66.2134C66.3894 42 66.5654 41.84 66.5654 41.648V37.744C66.5654 35.84 66.0374 34.448 63.8934 34.448C62.3574 34.448 61.4134 35.392 61.4134 35.392L61.2534 34.832C61.2214 34.672 61.1254 34.608 60.9654 34.608H60.7094C60.5174 34.608 60.3574 34.784 60.3574 34.96V41.648ZM69.5424 32.704C70.0384 32.704 70.4224 32.304 70.4224 31.84C70.4224 31.328 70.0384 30.944 69.5424 30.944C69.0624 30.944 68.6784 31.328 68.6784 31.84C68.6784 32.304 69.0624 32.704 69.5424 32.704ZM68.9824 41.648C68.9824 41.84 69.1424 42 69.3344 42H69.8144C69.9904 42 70.1664 41.84 70.1664 41.648V34.96C70.1664 34.784 69.9904 34.608 69.8144 34.608H69.3344C69.1424 34.608 68.9824 34.784 68.9824 34.96V41.648ZM72.6699 41.648C72.6699 41.84 72.8299 42 73.0219 42H73.5019C73.6779 42 73.8539 41.84 73.8539 41.648V36.544C73.8539 36.544 74.5259 35.52 75.8379 35.52C77.0379 35.52 77.5019 36.336 77.5019 37.744V41.648C77.5019 41.84 77.6779 42 77.8539 42H78.3339C78.5259 42 78.6859 41.84 78.6859 41.648V37.744C78.6859 37.36 78.6539 36.848 78.5899 36.528C78.8619 36.304 79.5339 35.52 80.7339 35.52C81.8539 35.52 82.3019 36.368 82.3019 37.744V41.648C82.3019 41.84 82.4619 42 82.6539 42H83.1339C83.3259 42 83.4859 41.84 83.4859 41.648V37.744C83.4859 35.84 82.9739 34.448 80.8299 34.448C79.3419 34.448 78.2859 35.552 78.1899 35.616C77.7099 34.848 77.1179 34.448 76.0139 34.448C74.4939 34.448 73.7259 35.392 73.7259 35.392L73.5659 34.832C73.5339 34.672 73.4379 34.608 73.2779 34.608H73.0219C72.8299 34.608 72.6699 34.784 72.6699 34.96V41.648ZM89.748 41.648C89.748 41.84 89.908 42 90.1 42H90.58C90.756 42 90.932 41.84 90.932 41.648V36.544C90.932 36.544 91.604 35.52 92.916 35.52C94.116 35.52 94.58 36.336 94.58 37.744V41.648C94.58 41.84 94.756 42 94.932 42H95.412C95.604 42 95.764 41.84 95.764 41.648V37.744C95.764 37.36 95.732 36.848 95.668 36.528C95.94 36.304 96.612 35.52 97.812 35.52C98.932 35.52 99.38 36.368 99.38 37.744V41.648C99.38 41.84 99.54 42 99.732 42H100.212C100.404 42 100.564 41.84 100.564 41.648V37.744C100.564 35.84 100.052 34.448 97.908 34.448C96.42 34.448 95.364 35.552 95.268 35.616C94.788 34.848 94.196 34.448 93.092 34.448C91.572 34.448 90.804 35.392 90.804 35.392L90.644 34.832C90.612 34.672 90.516 34.608 90.356 34.608H90.1C89.908 34.608 89.748 34.784 89.748 34.96V41.648ZM102.502 38.288C102.502 40.4 104.166 42.176 106.214 42.176C108.262 42.176 109.926 40.4 109.926 38.288C109.926 36.208 108.262 34.448 106.214 34.448C104.166 34.448 102.502 36.208 102.502 38.288ZM103.67 38.288C103.67 36.784 104.758 35.52 106.214 35.52C107.67 35.52 108.742 36.784 108.742 38.288C108.742 39.824 107.67 41.104 106.214 41.104C104.758 41.104 103.67 39.824 103.67 38.288ZM112.016 41.648C112.016 41.84 112.176 42 112.368 42H112.848C113.024 42 113.2 41.84 113.2 41.648V31.152C113.2 30.976 113.024 30.8 112.848 30.8H112.368C112.176 30.8 112.016 30.976 112.016 31.152V41.648ZM115.859 41.648C115.859 41.84 116.019 42 116.211 42H116.691C116.867 42 117.043 41.84 117.043 41.648V31.152C117.043 30.976 116.867 30.8 116.691 30.8H116.211C116.019 30.8 115.859 30.976 115.859 31.152V41.648ZM120.183 32.704C120.679 32.704 121.063 32.304 121.063 31.84C121.063 31.328 120.679 30.944 120.183 30.944C119.703 30.944 119.319 31.328 119.319 31.84C119.319 32.304 119.703 32.704 120.183 32.704ZM119.623 41.648C119.623 41.84 119.783 42 119.975 42H120.455C120.631 42 120.807 41.84 120.807 41.648V34.96C120.807 34.784 120.631 34.608 120.455 34.608H119.975C119.783 34.608 119.623 34.784 119.623 34.96V41.648ZM123.791 35.632V40.128C123.791 41.28 124.079 42.176 125.487 42.176C126.479 42.176 127.247 41.808 127.567 41.584C127.759 41.456 127.791 41.344 127.695 41.104L127.551 40.768C127.471 40.592 127.375 40.448 127.087 40.624C126.783 40.816 126.319 41.104 125.631 41.104C125.215 41.104 124.975 40.816 124.975 40.048V35.632H127.151C127.359 35.632 127.519 35.472 127.519 35.28V34.96C127.519 34.752 127.359 34.608 127.151 34.608H124.975V32.528C124.975 32.336 124.831 32.16 124.639 32.176L124.143 32.208C123.967 32.224 123.791 32.368 123.791 32.56V34.608H122.815C122.59 34.608 122.447 34.752 122.447 34.96V35.28C122.447 35.472 122.59 35.632 122.815 35.632H123.791ZM133.217 41.648C133.217 41.84 133.377 42 133.569 42H134.049C134.225 42 134.401 41.84 134.401 41.648V36.544C134.401 36.544 135.281 35.52 136.673 35.52C137.761 35.52 138.241 36.176 138.241 37.584V41.648C138.241 41.84 138.401 42 138.593 42H139.073C139.249 42 139.425 41.84 139.425 41.648V37.744C139.425 35.84 138.897 34.448 136.753 34.448C135.217 34.448 134.273 35.392 134.273 35.392L134.113 34.832C134.081 34.672 133.985 34.608 133.825 34.608H133.569C133.377 34.608 133.217 34.784 133.217 34.96V41.648ZM141.362 38.288C141.362 40.4 143.026 42.176 145.074 42.176C147.122 42.176 148.786 40.4 148.786 38.288C148.786 36.208 147.122 34.448 145.074 34.448C143.026 34.448 141.362 36.208 141.362 38.288ZM142.53 38.288C142.53 36.784 143.618 35.52 145.074 35.52C146.53 35.52 147.602 36.784 147.602 38.288C147.602 39.824 146.53 41.104 145.074 41.104C143.618 41.104 142.53 39.824 142.53 38.288ZM150.795 41.648C150.795 41.84 150.955 42 151.147 42H151.627C151.803 42 151.979 41.84 151.979 41.648V36.544C151.979 36.544 152.859 35.52 154.251 35.52C155.339 35.52 155.819 36.176 155.819 37.584V41.648C155.819 41.84 155.979 42 156.171 42H156.651C156.827 42 157.003 41.84 157.003 41.648V37.744C157.003 35.84 156.475 34.448 154.331 34.448C152.795 34.448 151.851 35.392 151.851 35.392L151.691 34.832C151.659 34.672 151.563 34.608 151.403 34.608H151.147C150.955 34.608 150.795 34.784 150.795 34.96V41.648ZM162.8 38.288C162.8 40.4 164.24 42.176 166.112 42.176C167.504 42.176 168.448 41.216 168.448 41.216L168.544 41.696C168.608 41.872 168.704 42 168.864 42H169.152C169.344 42 169.52 41.84 169.52 41.648V31.152C169.52 30.976 169.344 30.8 169.152 30.8H168.704C168.512 30.8 168.352 30.976 168.352 31.152V34.912C168.352 34.912 167.52 34.448 166.304 34.448C164.08 34.448 162.8 36.128 162.8 38.288ZM164 38.304C164 36.832 164.88 35.52 166.464 35.52C167.488 35.52 168.352 35.936 168.352 35.936V39.92C168.352 39.92 167.584 41.104 166.256 41.104C164.912 41.104 164 39.744 164 38.304ZM171.55 38.304C171.55 40.416 172.894 42.176 175.134 42.176C176.414 42.176 177.39 41.68 177.838 41.328C178.11 41.12 178.046 41.04 177.902 40.816L177.71 40.544C177.518 40.256 177.406 40.32 177.15 40.496C176.734 40.768 176.126 41.104 175.15 41.104C173.806 41.104 172.766 39.808 172.734 38.576H178.11C178.27 38.576 178.43 38.448 178.446 38.256C178.462 38.128 178.478 37.936 178.478 37.808C178.478 35.872 177.07 34.448 175.134 34.448C172.894 34.448 171.55 36.224 171.55 38.304ZM172.75 37.632C172.894 36.48 173.886 35.52 175.134 35.52C176.398 35.52 177.262 36.544 177.294 37.632H172.75ZM182.484 42.176C183.988 42.176 184.996 41.232 184.996 40.064C184.996 38.72 183.892 38.24 182.612 37.648C181.716 37.232 181.204 36.992 181.204 36.336C181.204 35.984 181.476 35.52 182.292 35.52C182.98 35.52 183.492 35.76 183.812 35.952C183.972 36.048 184.212 36.032 184.324 35.824L184.484 35.52C184.596 35.312 184.564 35.152 184.404 35.024C184.052 34.768 183.252 34.448 182.292 34.448C180.58 34.448 180.004 35.616 180.004 36.384C180.004 37.648 181.124 38.176 182.1 38.656C183.172 39.184 183.748 39.472 183.748 40.176C183.748 40.752 183.236 41.104 182.484 41.104C181.54 41.104 180.9 40.64 180.644 40.448C180.436 40.304 180.308 40.368 180.212 40.544L179.988 40.96C179.924 41.088 179.956 41.2 180.036 41.28C180.42 41.632 181.252 42.176 182.484 42.176ZM186.456 38.304C186.456 40.416 187.8 42.176 190.04 42.176C191.32 42.176 192.296 41.68 192.744 41.328C193.016 41.12 192.952 41.04 192.808 40.816L192.616 40.544C192.424 40.256 192.312 40.32 192.056 40.496C191.64 40.768 191.032 41.104 190.056 41.104C188.712 41.104 187.672 39.808 187.64 38.576H193.016C193.176 38.576 193.336 38.448 193.352 38.256C193.368 38.128 193.384 37.936 193.384 37.808C193.384 35.872 191.976 34.448 190.04 34.448C187.8 34.448 186.456 36.224 186.456 38.304ZM187.656 37.632C187.8 36.48 188.792 35.52 190.04 35.52C191.304 35.52 192.168 36.544 192.2 37.632H187.656ZM195.326 41.648C195.326 41.84 195.486 42 195.678 42H196.158C196.334 42 196.51 41.84 196.51 41.648V36.528C196.51 36.528 197.086 35.584 198.51 35.584C198.862 35.584 199.134 35.712 199.31 35.792C199.486 35.872 199.662 35.856 199.742 35.616L199.95 35.04C200.126 34.528 199.214 34.448 198.654 34.448C197.118 34.448 196.382 35.392 196.382 35.392L196.254 34.864C196.206 34.688 196.078 34.608 195.934 34.608H195.678C195.486 34.608 195.326 34.784 195.326 34.96V41.648ZM201.418 38.944C201.418 40.896 201.93 42.176 204.058 42.176C205.386 42.176 206.074 41.504 206.346 41.216L206.49 41.68C206.538 41.872 206.618 42 206.826 42H207.082C207.258 42 207.418 41.84 207.418 41.648V34.96C207.418 34.784 207.258 34.608 207.082 34.608H206.586C206.394 34.608 206.25 34.784 206.25 34.96V40.032C205.914 40.416 205.258 41.104 204.154 41.104C203.082 41.104 202.602 40.432 202.602 38.96V34.96C202.602 34.784 202.442 34.608 202.25 34.608H201.77C201.562 34.608 201.418 34.784 201.418 34.96V38.944ZM209.92 41.648C209.92 41.84 210.08 42 210.272 42H210.752C210.928 42 211.104 41.84 211.104 41.648V36.544C211.104 36.544 211.984 35.52 213.376 35.52C214.464 35.52 214.944 36.176 214.944 37.584V41.648C214.944 41.84 215.104 42 215.296 42H215.776C215.952 42 216.128 41.84 216.128 41.648V37.744C216.128 35.84 215.6 34.448 213.456 34.448C211.92 34.448 210.976 35.392 210.976 35.392L210.816 34.832C210.784 34.672 210.688 34.608 210.528 34.608H210.272C210.08 34.608 209.92 34.784 209.92 34.96V41.648ZM218.947 35.632V40.128C218.947 41.28 219.235 42.176 220.643 42.176C221.635 42.176 222.403 41.808 222.723 41.584C222.915 41.456 222.947 41.344 222.851 41.104L222.707 40.768C222.627 40.592 222.531 40.448 222.243 40.624C221.939 40.816 221.475 41.104 220.787 41.104C220.371 41.104 220.131 40.816 220.131 40.048V35.632H222.307C222.515 35.632 222.675 35.472 222.675 35.28V34.96C222.675 34.752 222.515 34.608 222.307 34.608H220.131V32.528C220.131 32.336 219.987 32.16 219.795 32.176L219.299 32.208C219.123 32.224 218.947 32.368 218.947 32.56V34.608H217.971C217.747 34.608 217.603 34.752 217.603 34.96V35.28C217.603 35.472 217.747 35.632 217.971 35.632H218.947ZM228.293 38.944C228.293 40.896 228.805 42.176 230.933 42.176C232.261 42.176 232.949 41.504 233.221 41.216L233.365 41.68C233.413 41.872 233.493 42 233.701 42H233.957C234.133 42 234.293 41.84 234.293 41.648V34.96C234.293 34.784 234.133 34.608 233.957 34.608H233.461C233.269 34.608 233.125 34.784 233.125 34.96V40.032C232.789 40.416 232.133 41.104 231.029 41.104C229.957 41.104 229.477 40.432 229.477 38.96V34.96C229.477 34.784 229.317 34.608 229.125 34.608H228.645C228.437 34.608 228.293 34.784 228.293 34.96V38.944ZM236.875 41.648C236.875 41.84 237.035 42 237.227 42H237.707C237.883 42 238.059 41.84 238.059 41.648V31.152C238.059 30.976 237.883 30.8 237.707 30.8H237.227C237.035 30.8 236.875 30.976 236.875 31.152V41.648ZM240.719 41.648C240.719 41.84 240.879 42 241.071 42H241.551C241.727 42 241.903 41.84 241.903 41.648V31.152C241.903 30.976 241.727 30.8 241.551 30.8H241.071C240.879 30.8 240.719 30.976 240.719 31.152V41.648ZM243.906 39.76C243.906 41.248 244.898 42.176 246.194 42.176C247.33 42.176 248.098 41.616 248.482 41.232L248.626 41.728C248.674 41.888 248.738 42 248.93 42H249.234C249.426 42 249.586 41.84 249.586 41.648V37.552C249.586 35.376 249.186 34.448 247.298 34.448C246.082 34.448 245.122 34.768 244.754 34.928C244.578 35.008 244.466 35.104 244.53 35.328L244.69 35.76C244.754 35.936 244.85 36.032 245.042 35.952C245.378 35.84 246.226 35.52 247.234 35.52C248.29 35.52 248.466 36.192 248.45 37.552C248.45 37.552 247.65 37.312 246.866 37.312C244.962 37.312 243.906 38.352 243.906 39.76ZM245.074 39.76C245.074 38.816 245.842 38.32 246.866 38.32C247.602 38.32 248.194 38.48 248.434 38.608V40.112C248.114 40.592 247.314 41.104 246.402 41.104C245.586 41.104 245.074 40.512 245.074 39.76ZM252.014 41.648C252.014 41.84 252.174 42 252.366 42H252.846C253.022 42 253.198 41.84 253.198 41.648V36.544C253.198 36.544 253.87 35.52 255.182 35.52C256.382 35.52 256.846 36.336 256.846 37.744V41.648C256.846 41.84 257.022 42 257.198 42H257.678C257.87 42 258.03 41.84 258.03 41.648V37.744C258.03 37.36 257.998 36.848 257.934 36.528C258.206 36.304 258.878 35.52 260.078 35.52C261.198 35.52 261.646 36.368 261.646 37.744V41.648C261.646 41.84 261.806 42 261.998 42H262.478C262.67 42 262.83 41.84 262.83 41.648V37.744C262.83 35.84 262.318 34.448 260.174 34.448C258.686 34.448 257.63 35.552 257.534 35.616C257.054 34.848 256.462 34.448 255.358 34.448C253.838 34.448 253.07 35.392 253.07 35.392L252.91 34.832C252.878 34.672 252.782 34.608 252.622 34.608H252.366C252.174 34.608 252.014 34.784 252.014 34.96V41.648ZM264.768 38.32C264.768 40.544 266.304 42.176 268.496 42.176C269.728 42.176 270.72 41.504 271.28 40.688C271.408 40.496 271.344 40.336 271.184 40.176L271.088 40.08C270.88 39.872 270.672 39.808 270.464 40.048C270.048 40.528 269.568 41.104 268.448 41.104C267.072 41.104 265.968 39.872 265.968 38.304C265.968 36.768 267.088 35.52 268.496 35.52C269.248 35.52 269.84 35.744 270.352 36.32C270.496 36.48 270.64 36.64 270.88 36.432L271.136 36.192C271.312 36.048 271.344 35.84 271.2 35.664C270.512 34.88 269.616 34.448 268.512 34.448C266.368 34.448 264.768 36.144 264.768 38.32ZM272.69 38.288C272.69 40.4 274.354 42.176 276.402 42.176C278.45 42.176 280.114 40.4 280.114 38.288C280.114 36.208 278.45 34.448 276.402 34.448C274.354 34.448 272.69 36.208 272.69 38.288ZM273.858 38.288C273.858 36.784 274.946 35.52 276.402 35.52C277.858 35.52 278.93 36.784 278.93 38.288C278.93 39.824 277.858 41.104 276.402 41.104C274.946 41.104 273.858 39.824 273.858 38.288ZM285.503 38.304C285.503 40.416 286.847 42.176 289.087 42.176C290.367 42.176 291.343 41.68 291.791 41.328C292.063 41.12 291.999 41.04 291.855 40.816L291.663 40.544C291.471 40.256 291.359 40.32 291.103 40.496C290.687 40.768 290.079 41.104 289.103 41.104C287.759 41.104 286.719 39.808 286.687 38.576H292.063C292.223 38.576 292.383 38.448 292.399 38.256C292.415 38.128 292.431 37.936 292.431 37.808C292.431 35.872 291.023 34.448 289.087 34.448C286.847 34.448 285.503 36.224 285.503 38.304ZM286.703 37.632C286.847 36.48 287.839 35.52 289.087 35.52C290.351 35.52 291.215 36.544 291.247 37.632H286.703ZM296.437 42.176C297.941 42.176 298.949 41.232 298.949 40.064C298.949 38.72 297.845 38.24 296.565 37.648C295.669 37.232 295.157 36.992 295.157 36.336C295.157 35.984 295.429 35.52 296.245 35.52C296.933 35.52 297.445 35.76 297.765 35.952C297.925 36.048 298.165 36.032 298.277 35.824L298.437 35.52C298.549 35.312 298.517 35.152 298.357 35.024C298.005 34.768 297.205 34.448 296.245 34.448C294.533 34.448 293.957 35.616 293.957 36.384C293.957 37.648 295.077 38.176 296.053 38.656C297.125 39.184 297.701 39.472 297.701 40.176C297.701 40.752 297.189 41.104 296.437 41.104C295.493 41.104 294.853 40.64 294.597 40.448C294.389 40.304 294.261 40.368 294.165 40.544L293.941 40.96C293.877 41.088 293.909 41.2 293.989 41.28C294.373 41.632 295.205 42.176 296.437 42.176ZM301.353 35.632V40.128C301.353 41.28 301.641 42.176 303.049 42.176C304.041 42.176 304.809 41.808 305.129 41.584C305.321 41.456 305.353 41.344 305.257 41.104L305.113 40.768C305.033 40.592 304.937 40.448 304.649 40.624C304.345 40.816 303.881 41.104 303.193 41.104C302.777 41.104 302.537 40.816 302.537 40.048V35.632H304.713C304.921 35.632 305.081 35.472 305.081 35.28V34.96C305.081 34.752 304.921 34.608 304.713 34.608H302.537V32.528C302.537 32.336 302.393 32.16 302.201 32.176L301.705 32.208C301.529 32.224 301.353 32.368 301.353 32.56V34.608H300.377C300.153 34.608 300.009 34.752 300.009 34.96V35.28C300.009 35.472 300.153 35.632 300.377 35.632H301.353ZM312.843 42.176C314.347 42.176 315.355 41.232 315.355 40.064C315.355 38.72 314.251 38.24 312.971 37.648C312.075 37.232 311.563 36.992 311.563 36.336C311.563 35.984 311.835 35.52 312.651 35.52C313.339 35.52 313.851 35.76 314.171 35.952C314.331 36.048 314.571 36.032 314.683 35.824L314.843 35.52C314.955 35.312 314.923 35.152 314.763 35.024C314.411 34.768 313.611 34.448 312.651 34.448C310.939 34.448 310.363 35.616 310.363 36.384C310.363 37.648 311.483 38.176 312.459 38.656C313.531 39.184 314.107 39.472 314.107 40.176C314.107 40.752 313.595 41.104 312.843 41.104C311.899 41.104 311.259 40.64 311.003 40.448C310.795 40.304 310.667 40.368 310.571 40.544L310.347 40.96C310.283 41.088 310.315 41.2 310.395 41.28C310.779 41.632 311.611 42.176 312.843 42.176ZM317.839 32.704C318.335 32.704 318.719 32.304 318.719 31.84C318.719 31.328 318.335 30.944 317.839 30.944C317.359 30.944 316.975 31.328 316.975 31.84C316.975 32.304 317.359 32.704 317.839 32.704ZM317.279 41.648C317.279 41.84 317.439 42 317.631 42H318.111C318.287 42 318.463 41.84 318.463 41.648V34.96C318.463 34.784 318.287 34.608 318.111 34.608H317.631C317.439 34.608 317.279 34.784 317.279 34.96V41.648ZM321.447 35.632V40.128C321.447 41.28 321.735 42.176 323.143 42.176C324.135 42.176 324.903 41.808 325.223 41.584C325.415 41.456 325.447 41.344 325.351 41.104L325.207 40.768C325.127 40.592 325.031 40.448 324.743 40.624C324.439 40.816 323.975 41.104 323.287 41.104C322.871 41.104 322.631 40.816 322.631 40.048V35.632H324.807C325.015 35.632 325.175 35.472 325.175 35.28V34.96C325.175 34.752 325.015 34.608 324.807 34.608H322.631V32.528C322.631 32.336 322.487 32.16 322.295 32.176L321.799 32.208C321.623 32.224 321.447 32.368 321.447 32.56V34.608H320.471C320.247 34.608 320.103 34.752 320.103 34.96V35.28C320.103 35.472 320.247 35.632 320.471 35.632H321.447ZM330.297 39.76C330.297 41.248 331.289 42.176 332.585 42.176C333.721 42.176 334.489 41.616 334.873 41.232L335.017 41.728C335.065 41.888 335.129 42 335.321 42H335.625C335.817 42 335.977 41.84 335.977 41.648V37.552C335.977 35.376 335.577 34.448 333.689 34.448C332.473 34.448 331.513 34.768 331.145 34.928C330.969 35.008 330.857 35.104 330.921 35.328L331.081 35.76C331.145 35.936 331.241 36.032 331.433 35.952C331.769 35.84 332.617 35.52 333.625 35.52C334.681 35.52 334.857 36.192 334.841 37.552C334.841 37.552 334.041 37.312 333.257 37.312C331.353 37.312 330.297 38.352 330.297 39.76ZM331.465 39.76C331.465 38.816 332.233 38.32 333.257 38.32C333.993 38.32 334.585 38.48 334.825 38.608V40.112C334.505 40.592 333.705 41.104 332.793 41.104C331.977 41.104 331.465 40.512 331.465 39.76ZM338.484 41.648C338.484 41.84 338.644 42 338.836 42H339.316C339.492 42 339.668 41.84 339.668 41.648V31.152C339.668 30.976 339.492 30.8 339.316 30.8H338.836C338.644 30.8 338.484 30.976 338.484 31.152V41.648ZM342.808 32.704C343.304 32.704 343.688 32.304 343.688 31.84C343.688 31.328 343.304 30.944 342.808 30.944C342.328 30.944 341.944 31.328 341.944 31.84C341.944 32.304 342.328 32.704 342.808 32.704ZM342.248 41.648C342.248 41.84 342.408 42 342.6 42H343.08C343.256 42 343.432 41.84 343.432 41.648V34.96C343.432 34.784 343.256 34.608 343.08 34.608H342.6C342.408 34.608 342.248 34.784 342.248 34.96V41.648ZM345.472 38.304C345.472 40.464 346.944 42.176 348.976 42.176C350.192 42.176 351.024 41.52 351.024 41.52V45.456C351.024 45.648 351.184 45.808 351.376 45.808H351.824C352.016 45.808 352.192 45.648 352.192 45.456V34.96C352.192 34.784 352.016 34.608 351.824 34.608H351.6C351.408 34.608 351.328 34.72 351.248 34.864L351.136 35.2C351.136 35.2 350.256 34.448 348.928 34.448C346.912 34.448 345.472 36.192 345.472 38.304ZM346.672 38.288C346.672 36.848 347.584 35.536 349.056 35.536C350.256 35.536 351.024 36.432 351.024 36.432V40.48C351.024 40.48 350.16 41.088 349.136 41.088C347.728 41.088 346.672 39.888 346.672 38.288ZM354.606 38.944C354.606 40.896 355.118 42.176 357.246 42.176C358.574 42.176 359.262 41.504 359.534 41.216L359.678 41.68C359.726 41.872 359.806 42 360.014 42H360.27C360.446 42 360.606 41.84 360.606 41.648V34.96C360.606 34.784 360.446 34.608 360.27 34.608H359.774C359.582 34.608 359.438 34.784 359.438 34.96V40.032C359.102 40.416 358.446 41.104 357.342 41.104C356.27 41.104 355.789 40.432 355.789 38.96V34.96C355.789 34.784 355.63 34.608 355.438 34.608H354.958C354.75 34.608 354.606 34.784 354.606 34.96V38.944ZM362.531 39.76C362.531 41.248 363.523 42.176 364.819 42.176C365.955 42.176 366.723 41.616 367.107 41.232L367.251 41.728C367.299 41.888 367.363 42 367.555 42H367.859C368.051 42 368.211 41.84 368.211 41.648V37.552C368.211 35.376 367.811 34.448 365.923 34.448C364.707 34.448 363.747 34.768 363.379 34.928C363.203 35.008 363.091 35.104 363.155 35.328L363.315 35.76C363.379 35.936 363.475 36.032 363.667 35.952C364.003 35.84 364.851 35.52 365.859 35.52C366.915 35.52 367.091 36.192 367.075 37.552C367.075 37.552 366.275 37.312 365.491 37.312C363.587 37.312 362.531 38.352 362.531 39.76ZM363.699 39.76C363.699 38.816 364.467 38.32 365.491 38.32C366.227 38.32 366.819 38.48 367.059 38.608V40.112C366.739 40.592 365.939 41.104 365.027 41.104C364.211 41.104 363.699 40.512 363.699 39.76ZM374.018 38.288C374.018 40.4 375.458 42.176 377.33 42.176C378.722 42.176 379.666 41.216 379.666 41.216L379.762 41.696C379.826 41.872 379.922 42 380.082 42H380.37C380.562 42 380.738 41.84 380.738 41.648V31.152C380.738 30.976 380.562 30.8 380.37 30.8H379.922C379.73 30.8 379.57 30.976 379.57 31.152V34.912C379.57 34.912 378.738 34.448 377.522 34.448C375.298 34.448 374.018 36.128 374.018 38.288ZM375.218 38.304C375.218 36.832 376.098 35.52 377.682 35.52C378.706 35.52 379.57 35.936 379.57 35.936V39.92C379.57 39.92 378.802 41.104 377.474 41.104C376.13 41.104 375.218 39.744 375.218 38.304ZM382.752 38.288C382.752 40.4 384.416 42.176 386.464 42.176C388.512 42.176 390.176 40.4 390.176 38.288C390.176 36.208 388.512 34.448 386.464 34.448C384.416 34.448 382.752 36.208 382.752 38.288ZM383.92 38.288C383.92 36.784 385.008 35.52 386.464 35.52C387.92 35.52 388.992 36.784 388.992 38.288C388.992 39.824 387.92 41.104 386.464 41.104C385.008 41.104 383.92 39.824 383.92 38.288ZM392.266 41.648C392.266 41.84 392.426 42 392.618 42H393.098C393.274 42 393.45 41.84 393.45 41.648V31.152C393.45 30.976 393.274 30.8 393.098 30.8H392.618C392.426 30.8 392.266 30.976 392.266 31.152V41.648ZM395.549 38.288C395.549 40.4 397.213 42.176 399.261 42.176C401.309 42.176 402.973 40.4 402.973 38.288C402.973 36.208 401.309 34.448 399.261 34.448C397.213 34.448 395.549 36.208 395.549 38.288ZM396.717 38.288C396.717 36.784 397.805 35.52 399.261 35.52C400.717 35.52 401.789 36.784 401.789 38.288C401.789 39.824 400.717 41.104 399.261 41.104C397.805 41.104 396.717 39.824 396.717 38.288ZM404.982 41.648C404.982 41.84 405.142 42 405.334 42H405.814C405.99 42 406.166 41.84 406.166 41.648V36.528C406.166 36.528 406.742 35.584 408.166 35.584C408.518 35.584 408.79 35.712 408.966 35.792C409.142 35.872 409.318 35.856 409.398 35.616L409.606 35.04C409.782 34.528 408.87 34.448 408.31 34.448C406.774 34.448 406.038 35.392 406.038 35.392L405.91 34.864C405.862 34.688 405.734 34.608 405.59 34.608H405.334C405.142 34.608 404.982 34.784 404.982 34.96V41.648ZM414.175 38.288C414.175 40.4 415.615 42.176 417.487 42.176C418.879 42.176 419.823 41.216 419.823 41.216L419.919 41.696C419.983 41.872 420.079 42 420.239 42H420.527C420.719 42 420.895 41.84 420.895 41.648V31.152C420.895 30.976 420.719 30.8 420.527 30.8H420.079C419.887 30.8 419.727 30.976 419.727 31.152V34.912C419.727 34.912 418.895 34.448 417.679 34.448C415.455 34.448 414.175 36.128 414.175 38.288ZM415.375 38.304C415.375 36.832 416.255 35.52 417.839 35.52C418.863 35.52 419.727 35.936 419.727 35.936V39.92C419.727 39.92 418.959 41.104 417.631 41.104C416.287 41.104 415.375 39.744 415.375 38.304ZM422.909 38.288C422.909 40.4 424.573 42.176 426.621 42.176C428.669 42.176 430.333 40.4 430.333 38.288C430.333 36.208 428.669 34.448 426.621 34.448C424.573 34.448 422.909 36.208 422.909 38.288ZM424.077 38.288C424.077 36.784 425.165 35.52 426.621 35.52C428.077 35.52 429.149 36.784 429.149 38.288C429.149 39.824 428.077 41.104 426.621 41.104C425.165 41.104 424.077 39.824 424.077 38.288ZM435.61 39.76C435.61 41.248 436.602 42.176 437.898 42.176C439.034 42.176 439.802 41.616 440.186 41.232L440.33 41.728C440.378 41.888 440.442 42 440.634 42H440.938C441.13 42 441.29 41.84 441.29 41.648V37.552C441.29 35.376 440.89 34.448 439.002 34.448C437.786 34.448 436.826 34.768 436.458 34.928C436.282 35.008 436.17 35.104 436.234 35.328L436.394 35.76C436.458 35.936 436.554 36.032 436.746 35.952C437.082 35.84 437.93 35.52 438.938 35.52C439.994 35.52 440.17 36.192 440.154 37.552C440.154 37.552 439.354 37.312 438.57 37.312C436.666 37.312 435.61 38.352 435.61 39.76ZM436.778 39.76C436.778 38.816 437.546 38.32 438.57 38.32C439.306 38.32 439.898 38.48 440.138 38.608V40.112C439.818 40.592 439.018 41.104 438.106 41.104C437.289 41.104 436.778 40.512 436.778 39.76ZM443.717 41.648C443.717 41.84 443.877 42 444.069 42H444.549C444.725 42 444.901 41.84 444.901 41.648V36.544C444.901 36.544 445.573 35.52 446.885 35.52C448.085 35.52 448.549 36.336 448.549 37.744V41.648C448.549 41.84 448.725 42 448.901 42H449.381C449.573 42 449.733 41.84 449.733 41.648V37.744C449.733 37.36 449.701 36.848 449.637 36.528C449.909 36.304 450.581 35.52 451.781 35.52C452.901 35.52 453.349 36.368 453.349 37.744V41.648C453.349 41.84 453.509 42 453.701 42H454.181C454.373 42 454.533 41.84 454.533 41.648V37.744C454.533 35.84 454.021 34.448 451.877 34.448C450.389 34.448 449.333 35.552 449.237 35.616C448.757 34.848 448.165 34.448 447.061 34.448C445.541 34.448 444.773 35.392 444.773 35.392L444.613 34.832C444.581 34.672 444.485 34.608 444.325 34.608H444.069C443.877 34.608 443.717 34.784 443.717 34.96V41.648ZM456.487 38.304C456.487 40.416 457.831 42.176 460.071 42.176C461.351 42.176 462.327 41.68 462.775 41.328C463.047 41.12 462.983 41.04 462.839 40.816L462.647 40.544C462.455 40.256 462.343 40.32 462.087 40.496C461.671 40.768 461.063 41.104 460.087 41.104C458.743 41.104 457.703 39.808 457.671 38.576H463.047C463.207 38.576 463.367 38.448 463.383 38.256C463.399 38.128 463.415 37.936 463.415 37.808C463.415 35.872 462.007 34.448 460.071 34.448C457.831 34.448 456.487 36.224 456.487 38.304ZM457.687 37.632C457.831 36.48 458.823 35.52 460.071 35.52C461.335 35.52 462.199 36.544 462.231 37.632H457.687ZM465.837 35.632V40.128C465.837 41.28 466.125 42.176 467.533 42.176C468.525 42.176 469.293 41.808 469.613 41.584C469.805 41.456 469.837 41.344 469.741 41.104L469.597 40.768C469.517 40.592 469.421 40.448 469.133 40.624C468.829 40.816 468.365 41.104 467.677 41.104C467.261 41.104 467.021 40.816 467.021 40.048V35.632H469.197C469.405 35.632 469.565 35.472 469.565 35.28V34.96C469.565 34.752 469.405 34.608 469.197 34.608H467.021V32.528C467.021 32.336 466.877 32.16 466.685 32.176L466.189 32.208C466.013 32.224 465.837 32.368 465.837 32.56V34.608H464.861C464.637 34.608 464.493 34.752 464.493 34.96V35.28C464.493 35.472 464.637 35.632 464.861 35.632H465.837ZM477.328 42.176C478.832 42.176 479.84 41.232 479.84 40.064C479.84 38.72 478.736 38.24 477.456 37.648C476.56 37.232 476.048 36.992 476.048 36.336C476.048 35.984 476.32 35.52 477.136 35.52C477.824 35.52 478.336 35.76 478.656 35.952C478.816 36.048 479.056 36.032 479.168 35.824L479.328 35.52C479.44 35.312 479.408 35.152 479.248 35.024C478.896 34.768 478.096 34.448 477.136 34.448C475.424 34.448 474.848 35.616 474.848 36.384C474.848 37.648 475.968 38.176 476.944 38.656C478.016 39.184 478.592 39.472 478.592 40.176C478.592 40.752 478.08 41.104 477.328 41.104C476.384 41.104 475.744 40.64 475.488 40.448C475.28 40.304 475.152 40.368 475.056 40.544L474.832 40.96C474.768 41.088 474.8 41.2 474.88 41.28C475.264 41.632 476.096 42.176 477.328 42.176ZM482.324 32.704C482.82 32.704 483.204 32.304 483.204 31.84C483.204 31.328 482.82 30.944 482.324 30.944C481.844 30.944 481.46 31.328 481.46 31.84C481.46 32.304 481.844 32.704 482.324 32.704ZM481.764 41.648C481.764 41.84 481.924 42 482.116 42H482.596C482.772 42 482.948 41.84 482.948 41.648V34.96C482.948 34.784 482.772 34.608 482.596 34.608H482.116C481.924 34.608 481.764 34.784 481.764 34.96V41.648ZM485.451 41.648C485.451 41.84 485.611 42 485.803 42H486.283C486.459 42 486.635 41.84 486.635 41.648V36.544C486.635 36.544 487.515 35.52 488.907 35.52C489.995 35.52 490.475 36.176 490.475 37.584V41.648C490.475 41.84 490.635 42 490.827 42H491.307C491.483 42 491.659 41.84 491.659 41.648V37.744C491.659 35.84 491.131 34.448 488.987 34.448C487.451 34.448 486.507 35.392 486.507 35.392L486.347 34.832C486.315 34.672 486.219 34.608 486.059 34.608H485.803C485.611 34.608 485.451 34.784 485.451 34.96V41.648ZM494.478 35.632V40.128C494.478 41.28 494.766 42.176 496.174 42.176C497.166 42.176 497.934 41.808 498.254 41.584C498.446 41.456 498.478 41.344 498.382 41.104L498.238 40.768C498.158 40.592 498.062 40.448 497.774 40.624C497.47 40.816 497.006 41.104 496.318 41.104C495.902 41.104 495.662 40.816 495.662 40.048V35.632H497.838C498.046 35.632 498.206 35.472 498.206 35.28V34.96C498.206 34.752 498.046 34.608 497.838 34.608H495.662V32.528C495.662 32.336 495.518 32.16 495.326 32.176L494.83 32.208C494.654 32.224 494.478 32.368 494.478 32.56V34.608H493.502C493.278 34.608 493.134 34.752 493.134 34.96V35.28C493.134 35.472 493.278 35.632 493.502 35.632H494.478Z" fill="#262626"/>
<path d="M4.48 65.14C6.72 65.14 7.994 63.25 7.994 60.1C7.994 56.936 6.72 55.06 4.48 55.06C2.254 55.06 0.98 56.936 0.98 60.1C0.98 63.25 2.254 65.14 4.48 65.14ZM4.48 64.16C2.898 64.16 2.072 62.732 2.072 60.1C2.072 57.482 2.898 56.04 4.48 56.04C6.076 56.04 6.902 57.482 6.902 60.1C6.902 62.732 6.076 64.16 4.48 64.16ZM13.4624 65.14C15.7024 65.14 16.9764 63.25 16.9764 60.1C16.9764 56.936 15.7024 55.06 13.4624 55.06C11.2364 55.06 9.96242 56.936 9.96242 60.1C9.96242 63.25 11.2364 65.14 13.4624 65.14ZM13.4624 64.16C11.8804 64.16 11.0544 62.732 11.0544 60.1C11.0544 57.482 11.8804 56.04 13.4624 56.04C15.0584 56.04 15.8844 57.482 15.8844 60.1C15.8844 62.732 15.0584 64.16 13.4624 64.16ZM19.8408 60.24C20.3588 60.24 20.7648 59.82 20.7648 59.33C20.7648 58.798 20.3588 58.392 19.8408 58.392C19.3368 58.392 18.9168 58.798 18.9168 59.33C18.9168 59.82 19.3368 60.24 19.8408 60.24ZM18.9168 64.216C18.9168 64.72 19.3368 65.154 19.8408 65.154C20.3588 65.154 20.7648 64.72 20.7648 64.216C20.7648 63.712 20.3588 63.306 19.8408 63.306C19.3368 63.306 18.9168 63.712 18.9168 64.216ZM26.1909 65.14C28.4309 65.14 29.7049 63.25 29.7049 60.1C29.7049 56.936 28.4309 55.06 26.1909 55.06C23.9649 55.06 22.6909 56.936 22.6909 60.1C22.6909 63.25 23.9649 65.14 26.1909 65.14ZM26.1909 64.16C24.6089 64.16 23.7829 62.732 23.7829 60.1C23.7829 57.482 24.6089 56.04 26.1909 56.04C27.7869 56.04 28.6129 57.482 28.6129 60.1C28.6129 62.732 27.7869 64.16 26.1909 64.16ZM35.1734 65.14C37.4134 65.14 38.6874 63.25 38.6874 60.1C38.6874 56.936 37.4134 55.06 35.1734 55.06C32.9474 55.06 31.6734 56.936 31.6734 60.1C31.6734 63.25 32.9474 65.14 35.1734 65.14ZM35.1734 64.16C33.5914 64.16 32.7654 62.732 32.7654 60.1C32.7654 57.482 33.5914 56.04 35.1734 56.04C36.7694 56.04 37.5954 57.482 37.5954 60.1C37.5954 62.732 36.7694 64.16 35.1734 64.16ZM44.2571 61.92H47.1831C47.3371 61.92 47.4491 61.808 47.4491 61.668V61.402C47.4491 61.248 47.3371 61.136 47.1831 61.136H44.2571C44.1031 61.136 43.9911 61.248 43.9911 61.402V61.668C43.9911 61.808 44.1031 61.92 44.2571 61.92ZM54.0297 64.034L56.7737 61.108C57.7677 60.044 58.5797 59.106 58.5797 57.832C58.5797 56.362 57.5297 55.06 55.4577 55.06C53.7497 55.06 52.7277 56.474 52.7277 56.474C52.6297 56.586 52.6577 56.754 52.7417 56.852L53.0217 57.132C53.1477 57.244 53.3017 57.244 53.4137 57.132C53.8617 56.656 54.5757 56.04 55.4577 56.04C56.9557 56.04 57.4877 57.034 57.4877 57.86C57.4877 58.546 57.0117 59.4 56.0317 60.478C54.8977 61.668 53.7917 62.9 52.6717 64.104C52.4897 64.3 52.4897 64.37 52.4897 64.524V64.72C52.4897 64.874 52.6017 65 52.7697 65H58.2437C58.3977 65 58.5237 64.874 58.5237 64.72V64.342C58.5237 64.188 58.3977 64.062 58.2437 64.062H54.0297V64.034ZM60.312 63.866C60.634 64.216 61.446 65.14 63.21 65.14C65.212 65.14 66.416 63.95 66.416 62.312C66.416 61.024 65.366 60.296 64.68 60.016V59.974C65.338 59.666 66.178 58.798 66.178 57.692C66.178 56.068 64.946 55.06 63.196 55.06C61.628 55.06 60.592 56.334 60.592 56.334C60.494 56.432 60.48 56.614 60.592 56.712L60.942 56.978C61.082 57.118 61.222 57.048 61.306 56.95C61.628 56.586 62.216 56.012 63.196 56.012C64.232 56.012 65.086 56.698 65.086 57.832C65.086 58.784 64.344 59.582 62.804 59.582H62.006C61.768 59.582 61.698 59.666 61.698 59.89V60.24C61.698 60.478 61.824 60.562 61.978 60.562H62.79C64.568 60.562 65.338 61.346 65.338 62.424C65.338 63.6 64.358 64.244 63.266 64.244C62.02 64.244 61.236 63.418 61.11 63.25C60.998 63.096 60.886 63.068 60.718 63.18L60.326 63.516C60.214 63.6 60.228 63.754 60.312 63.866ZM69.2647 60.24C69.7827 60.24 70.1887 59.82 70.1887 59.33C70.1887 58.798 69.7827 58.392 69.2647 58.392C68.7607 58.392 68.3407 58.798 68.3407 59.33C68.3407 59.82 68.7607 60.24 69.2647 60.24ZM68.3407 64.216C68.3407 64.72 68.7607 65.154 69.2647 65.154C69.7827 65.154 70.1887 64.72 70.1887 64.216C70.1887 63.712 69.7827 63.306 69.2647 63.306C68.7607 63.306 68.3407 63.712 68.3407 64.216ZM72.2128 63.95C72.5768 64.384 73.3888 65.14 74.9988 65.14C76.9448 65.14 78.3448 63.642 78.3448 61.836C78.3448 59.96 77.1828 58.812 75.0128 58.812H73.3328V56.166H77.0008C77.1548 56.166 77.2808 56.026 77.2808 55.886V55.466C77.2808 55.326 77.1548 55.2 77.0008 55.2H72.6468C72.4928 55.2 72.3668 55.326 72.3668 55.466V59.274C72.3668 59.512 72.5348 59.778 72.8148 59.778H75.0128C76.5528 59.778 77.2808 60.73 77.2808 61.85C77.2808 62.998 76.3988 64.216 75.0128 64.216C73.7808 64.216 73.1788 63.516 72.8708 63.152C72.7588 62.998 72.6468 63.026 72.5208 63.138C72.3948 63.236 72.2968 63.362 72.1848 63.46C72.0168 63.628 72.0308 63.726 72.2128 63.95ZM81.0385 64.72L81.2065 65.098C81.2625 65.224 81.3885 65.308 81.5285 65.252C82.9845 64.664 86.2745 63.012 86.2745 59.176C86.2745 56.88 85.2525 55.06 82.9145 55.06C81.1785 55.06 79.7225 56.544 79.7225 58.364C79.7225 60.282 81.1925 61.5 82.8305 61.5C84.0625 61.5 85.0145 60.842 85.0145 60.842C84.5105 62.788 81.9485 64.09 81.2905 64.314C81.0245 64.398 80.9685 64.552 81.0385 64.72ZM82.9285 60.562C81.7105 60.562 80.7445 59.554 80.7445 58.308C80.7445 57.062 81.6965 56.012 82.9145 56.012C84.5945 56.012 85.2525 57.594 85.2525 58.952C85.2525 59.19 85.2385 59.414 85.1965 59.624C85.1965 59.624 84.2725 60.562 82.9285 60.562ZM94.5812 66.092C94.7352 66.106 94.8192 66.064 94.8332 65.952L94.8612 65.574C94.8892 65.448 94.8192 65.35 94.7212 65.336C92.9572 64.986 92.2572 63.334 92.2572 60.59C92.2572 57.846 92.9572 56.194 94.7212 55.844C94.8192 55.83 94.8892 55.732 94.8612 55.606L94.8332 55.228C94.8192 55.116 94.7352 55.074 94.5812 55.088C92.9852 55.172 91.2772 56.474 91.2772 60.59C91.2772 64.706 92.9852 66.008 94.5812 66.092ZM96.6233 64.734C96.6233 64.874 96.7493 65 96.8893 65H97.4353C97.5893 65 97.7013 64.874 97.7013 64.734V60.492H103.385V64.734C103.385 64.874 103.497 65 103.651 65H104.197C104.337 65 104.463 64.874 104.463 64.734V55.466C104.463 55.326 104.337 55.2 104.197 55.2H103.651C103.497 55.2 103.385 55.326 103.385 55.466V59.554H97.7013V55.466C97.7013 55.326 97.5893 55.2 97.4353 55.2H96.8893C96.7493 55.2 96.6233 55.326 96.6233 55.466V64.734ZM106.287 61.752C106.287 63.6 107.743 65.154 109.535 65.154C111.327 65.154 112.783 63.6 112.783 61.752C112.783 59.932 111.327 58.392 109.535 58.392C107.743 58.392 106.287 59.932 106.287 61.752ZM107.309 61.752C107.309 60.436 108.261 59.33 109.535 59.33C110.809 59.33 111.747 60.436 111.747 61.752C111.747 63.096 110.809 64.216 109.535 64.216C108.261 64.216 107.309 63.096 107.309 61.752ZM114.541 64.692C114.541 64.86 114.681 65 114.849 65H115.269C115.423 65 115.577 64.86 115.577 64.692V60.212C115.577 60.212 116.081 59.386 117.327 59.386C117.635 59.386 117.873 59.498 118.027 59.568C118.181 59.638 118.335 59.624 118.405 59.414L118.587 58.91C118.741 58.462 117.943 58.392 117.453 58.392C116.109 58.392 115.465 59.218 115.465 59.218L115.353 58.756C115.311 58.602 115.199 58.532 115.073 58.532H114.849C114.681 58.532 114.541 58.686 114.541 58.84V64.692ZM119.369 63.04C119.369 64.342 120.237 65.154 121.371 65.154C122.365 65.154 123.037 64.664 123.373 64.328L123.499 64.762C123.541 64.902 123.597 65 123.765 65H124.031C124.199 65 124.339 64.86 124.339 64.692V61.108C124.339 59.204 123.989 58.392 122.337 58.392C121.273 58.392 120.433 58.672 120.111 58.812C119.957 58.882 119.859 58.966 119.915 59.162L120.055 59.54C120.111 59.694 120.195 59.778 120.363 59.708C120.657 59.61 121.399 59.33 122.281 59.33C123.205 59.33 123.359 59.918 123.345 61.108C123.345 61.108 122.645 60.898 121.959 60.898C120.293 60.898 119.369 61.808 119.369 63.04ZM120.391 63.04C120.391 62.214 121.063 61.78 121.959 61.78C122.603 61.78 123.121 61.92 123.331 62.032V63.348C123.051 63.768 122.351 64.216 121.553 64.216C120.839 64.216 120.391 63.698 120.391 63.04ZM120.853 57.146C120.909 57.258 120.979 57.258 121.175 57.174L123.429 56.236C123.541 56.194 123.569 56.054 123.513 55.942L123.261 55.438C123.191 55.312 122.981 55.34 122.897 55.396L120.797 56.572C120.713 56.614 120.657 56.726 120.713 56.838L120.853 57.146ZM126.463 64.692C126.463 64.86 126.603 65 126.771 65H127.191C127.345 65 127.499 64.86 127.499 64.692V60.212C127.499 60.212 128.003 59.386 129.249 59.386C129.557 59.386 129.795 59.498 129.949 59.568C130.103 59.638 130.257 59.624 130.327 59.414L130.509 58.91C130.663 58.462 129.865 58.392 129.375 58.392C128.031 58.392 127.387 59.218 127.387 59.218L127.275 58.756C127.233 58.602 127.121 58.532 126.995 58.532H126.771C126.603 58.532 126.463 58.686 126.463 58.84V64.692ZM132.353 56.866C132.787 56.866 133.123 56.516 133.123 56.11C133.123 55.662 132.787 55.326 132.353 55.326C131.933 55.326 131.597 55.662 131.597 56.11C131.597 56.516 131.933 56.866 132.353 56.866ZM131.863 64.692C131.863 64.86 132.003 65 132.171 65H132.591C132.745 65 132.899 64.86 132.899 64.692V58.84C132.899 58.686 132.745 58.532 132.591 58.532H132.171C132.003 58.532 131.863 58.686 131.863 58.84V64.692ZM134.67 61.752C134.67 63.6 136.126 65.154 137.918 65.154C139.71 65.154 141.166 63.6 141.166 61.752C141.166 59.932 139.71 58.392 137.918 58.392C136.126 58.392 134.67 59.932 134.67 61.752ZM135.692 61.752C135.692 60.436 136.644 59.33 137.918 59.33C139.192 59.33 140.13 60.436 140.13 61.752C140.13 63.096 139.192 64.216 137.918 64.216C136.644 64.216 135.692 63.096 135.692 61.752ZM145.881 61.752C145.881 63.6 147.141 65.154 148.779 65.154C149.997 65.154 150.823 64.314 150.823 64.314L150.907 64.734C150.963 64.888 151.047 65 151.187 65H151.439C151.607 65 151.761 64.86 151.761 64.692V55.508C151.761 55.354 151.607 55.2 151.439 55.2H151.047C150.879 55.2 150.739 55.354 150.739 55.508V58.798C150.739 58.798 150.011 58.392 148.947 58.392C147.001 58.392 145.881 59.862 145.881 61.752ZM146.931 61.766C146.931 60.478 147.701 59.33 149.087 59.33C149.983 59.33 150.739 59.694 150.739 59.694V63.18C150.739 63.18 150.067 64.216 148.905 64.216C147.729 64.216 146.931 63.026 146.931 61.766ZM153.538 61.766C153.538 63.614 154.714 65.154 156.674 65.154C157.794 65.154 158.648 64.72 159.04 64.412C159.278 64.23 159.222 64.16 159.096 63.964L158.928 63.726C158.76 63.474 158.662 63.53 158.438 63.684C158.074 63.922 157.542 64.216 156.688 64.216C155.512 64.216 154.602 63.082 154.574 62.004H159.278C159.418 62.004 159.558 61.892 159.572 61.724C159.586 61.612 159.6 61.444 159.6 61.332C159.6 59.638 158.368 58.392 156.674 58.392C154.714 58.392 153.538 59.946 153.538 61.766ZM154.588 61.178C154.714 60.17 155.582 59.33 156.674 59.33C157.78 59.33 158.536 60.226 158.564 61.178H154.588ZM165.964 59.596V56.166H168.092C169.24 56.166 169.926 56.838 169.926 57.846C169.926 58.826 169.24 59.596 168.092 59.596H165.964ZM165.936 64.062V60.562H168.344C169.408 60.562 170.248 61.29 170.248 62.284C170.248 63.292 169.534 64.062 168.4 64.062H165.936ZM169.758 60.002C170.402 59.61 171.116 58.91 171.116 57.776C171.116 56.306 169.982 55.2 168.274 55.2H165.18C165.026 55.2 164.914 55.326 164.914 55.466V64.734C164.914 64.874 165.026 65 165.18 65H168.47C170.206 65 171.424 63.866 171.424 62.298C171.424 61.024 170.5 60.338 169.758 60.03V60.002ZM173.235 64.692C173.235 64.86 173.375 65 173.543 65H173.963C174.117 65 174.271 64.86 174.271 64.692V60.212C174.271 60.212 174.775 59.386 176.021 59.386C176.329 59.386 176.567 59.498 176.721 59.568C176.875 59.638 177.029 59.624 177.099 59.414L177.281 58.91C177.435 58.462 176.637 58.392 176.147 58.392C174.803 58.392 174.159 59.218 174.159 59.218L174.047 58.756C174.005 58.602 173.893 58.532 173.767 58.532H173.543C173.375 58.532 173.235 58.686 173.235 58.84V64.692ZM178.063 63.04C178.063 64.342 178.931 65.154 180.065 65.154C181.059 65.154 181.731 64.664 182.067 64.328L182.193 64.762C182.235 64.902 182.291 65 182.459 65H182.725C182.893 65 183.033 64.86 183.033 64.692V61.108C183.033 59.204 182.683 58.392 181.031 58.392C179.967 58.392 179.127 58.672 178.805 58.812C178.651 58.882 178.553 58.966 178.609 59.162L178.749 59.54C178.805 59.694 178.889 59.778 179.057 59.708C179.351 59.61 180.093 59.33 180.975 59.33C181.899 59.33 182.053 59.918 182.039 61.108C182.039 61.108 181.339 60.898 180.653 60.898C178.987 60.898 178.063 61.808 178.063 63.04ZM179.085 63.04C179.085 62.214 179.757 61.78 180.653 61.78C181.297 61.78 181.815 61.92 182.025 62.032V63.348C181.745 63.768 181.045 64.216 180.247 64.216C179.533 64.216 179.085 63.698 179.085 63.04ZM186.962 65.154C188.278 65.154 189.16 64.328 189.16 63.306C189.16 62.13 188.194 61.71 187.074 61.192C186.29 60.828 185.842 60.618 185.842 60.044C185.842 59.736 186.08 59.33 186.794 59.33C187.396 59.33 187.844 59.54 188.124 59.708C188.264 59.792 188.474 59.778 188.572 59.596L188.712 59.33C188.81 59.148 188.782 59.008 188.642 58.896C188.334 58.672 187.634 58.392 186.794 58.392C185.296 58.392 184.792 59.414 184.792 60.086C184.792 61.192 185.772 61.654 186.626 62.074C187.564 62.536 188.068 62.788 188.068 63.404C188.068 63.908 187.62 64.216 186.962 64.216C186.136 64.216 185.576 63.81 185.352 63.642C185.17 63.516 185.058 63.572 184.974 63.726L184.778 64.09C184.722 64.202 184.75 64.3 184.82 64.37C185.156 64.678 185.884 65.154 186.962 65.154ZM190.844 64.692C190.844 64.86 190.984 65 191.152 65H191.572C191.726 65 191.88 64.86 191.88 64.692V58.84C191.88 58.686 191.726 58.532 191.572 58.532H191.152C190.984 58.532 190.844 58.686 190.844 58.84V64.692ZM190.158 57.146C190.214 57.258 190.284 57.258 190.48 57.174L192.734 56.236C192.846 56.194 192.874 56.054 192.818 55.942L192.566 55.438C192.496 55.312 192.286 55.34 192.202 55.396L190.102 56.572C190.018 56.614 189.962 56.726 190.018 56.838L190.158 57.146ZM194.141 64.692C194.141 64.86 194.281 65 194.449 65H194.869C195.023 65 195.177 64.86 195.177 64.692V55.508C195.177 55.354 195.023 55.2 194.869 55.2H194.449C194.281 55.2 194.141 55.354 194.141 55.508V64.692ZM197.924 56.866C198.358 56.866 198.694 56.516 198.694 56.11C198.694 55.662 198.358 55.326 197.924 55.326C197.504 55.326 197.168 55.662 197.168 56.11C197.168 56.516 197.504 56.866 197.924 56.866ZM197.434 64.692C197.434 64.86 197.574 65 197.742 65H198.162C198.316 65 198.47 64.86 198.47 64.692V58.84C198.47 58.686 198.316 58.532 198.162 58.532H197.742C197.574 58.532 197.434 58.686 197.434 58.84V64.692ZM200.156 63.04C200.156 64.342 201.024 65.154 202.158 65.154C203.152 65.154 203.824 64.664 204.16 64.328L204.286 64.762C204.328 64.902 204.384 65 204.552 65H204.818C204.986 65 205.126 64.86 205.126 64.692V61.108C205.126 59.204 204.776 58.392 203.124 58.392C202.06 58.392 201.22 58.672 200.898 58.812C200.744 58.882 200.646 58.966 200.702 59.162L200.842 59.54C200.898 59.694 200.982 59.778 201.15 59.708C201.444 59.61 202.186 59.33 203.068 59.33C203.992 59.33 204.146 59.918 204.132 61.108C204.132 61.108 203.432 60.898 202.746 60.898C201.08 60.898 200.156 61.808 200.156 63.04ZM201.178 63.04C201.178 62.214 201.85 61.78 202.746 61.78C203.39 61.78 203.908 61.92 204.118 62.032V63.348C203.838 63.768 203.138 64.216 202.34 64.216C201.626 64.216 201.178 63.698 201.178 63.04ZM206.499 65.336C206.401 65.35 206.331 65.448 206.359 65.574L206.387 65.952C206.401 66.064 206.485 66.106 206.639 66.092C208.235 66.008 209.943 64.706 209.943 60.59C209.943 56.474 208.235 55.172 206.639 55.088C206.485 55.074 206.401 55.116 206.387 55.228L206.359 55.606C206.331 55.732 206.401 55.83 206.499 55.844C208.263 56.194 208.963 57.846 208.963 60.59C208.963 63.334 208.263 64.986 206.499 65.336Z" fill="#808080"/>
<path d="M619.201 28.8H604.801V43.2H619.201V28.8Z" fill="#F2F2F2"/>
<path d="M619.8 28.8H619.2L612 34.4856L604.8 28.8H604.2C603.207 28.8 602.4 29.6064 602.4 30.6V41.4C602.4 42.3936 603.207 43.2 604.2 43.2H604.8V31.9752L612 37.5132L619.2 31.974V43.2H619.8C620.794 43.2 621.6 42.3936 621.6 41.4V30.6C621.6 29.6064 620.794 28.8 619.8 28.8Z" fill="#F14336"/>
<rect x="604.2" y="59.2001" width="16.8" height="10.2" fill="white"/>
<path d="M621 58.4H612.6C612.269 58.4 612 58.6788 612 59.0222C612 59.3657 612.269 59.6445 612.6 59.6445H619.252L615.565 62.6174L612.922 60.874L612.278 61.9243L615.278 63.903C615.376 63.9677 615.488 64 615.6 64C615.73 64 615.86 63.9565 615.968 63.8694L620.4 60.2941V68.3556H612.6C612.269 68.3556 612 68.6343 612 68.9778C612 69.3213 612.269 69.6 612.6 69.6H621C621.331 69.6 621.6 69.3213 621.6 68.9778V59.0222C621.6 58.6788 621.331 58.4 621 58.4Z" fill="#006FC4"/>
<path d="M612.936 54.5481C612.8 54.4265 612.617 54.374 612.445 54.4124L602.888 56.3323C602.605 56.3886 602.4 56.6523 602.4 56.9608V71.0401C602.4 71.3473 602.605 71.6123 602.888 71.6686L612.445 73.5885C612.481 73.5962 612.518 73.6 612.555 73.6C612.694 73.6 612.829 73.5488 612.936 73.4528C613.074 73.3312 613.152 73.1495 613.152 72.9601V55.0409C613.152 54.8501 613.074 54.6697 612.936 54.5481Z" fill="#006DC3"/>
<path d="M607.801 68.9064C606.147 68.9064 604.801 67.1314 604.801 64.9503C604.801 62.7692 606.147 60.9943 607.801 60.9943C609.454 60.9943 610.801 62.7692 610.801 64.9503C610.801 67.1314 609.454 68.9064 607.801 68.9064ZM607.801 62.3129C606.808 62.3129 606.001 63.4958 606.001 64.9503C606.001 66.4048 606.808 67.5877 607.801 67.5877C608.793 67.5877 609.601 66.4048 609.601 64.9503C609.601 63.4958 608.793 62.3129 607.801 62.3129Z" fill="#EFEFEF"/>
<line y1="83.5" x2="624" y2="83.5" stroke="#E6E6E6"/>
</svg>
