<svg width="24" height="52" viewBox="0 0 24 52" fill="none" xmlns="http://www.w3.org/2000/svg">
<path d="M19.2008 4.80005H4.80078V19.2H19.2008V4.80005Z" fill="#F2F2F2"/>
<path d="M19.8004 4.80005H19.2004L12.0004 10.4856L4.80039 4.80005H4.20039C3.20679 4.80005 2.40039 5.60645 2.40039 6.60005V17.4C2.40039 18.3936 3.20679 19.2 4.20039 19.2H4.80039V7.97525L12.0004 13.5132L19.2004 7.97405V19.2H19.8004C20.794 19.2 21.6004 18.3936 21.6004 17.4V6.60005C21.6004 5.60645 20.794 4.80005 19.8004 4.80005Z" fill="#F14336"/>
<rect x="4.2002" y="35.2001" width="16.8" height="10.2" fill="white"/>
<path d="M21 34.4H12.6C12.2688 34.4 12 34.6788 12 35.0222C12 35.3657 12.2688 35.6445 12.6 35.6445H19.2516L15.5652 38.6174L12.9216 36.874L12.2784 37.9243L15.2784 39.903C15.3756 39.9677 15.4884 40 15.6 40C15.7296 40 15.8604 39.9565 15.9684 39.8694L20.4 36.2941V44.3556H12.6C12.2688 44.3556 12 44.6343 12 44.9778C12 45.3213 12.2688 45.6 12.6 45.6H21C21.3312 45.6 21.6 45.3213 21.6 44.9778V35.0222C21.6 34.6788 21.3312 34.4 21 34.4Z" fill="#006FC4"/>
<path d="M12.9362 30.5481C12.8 30.4265 12.6172 30.374 12.4451 30.4124L2.88781 32.3323C2.60468 32.3886 2.40039 32.6523 2.40039 32.9608V47.0401C2.40039 47.3473 2.60468 47.6123 2.88781 47.6686L12.4451 49.5885C12.481 49.5962 12.518 49.6 12.5551 49.6C12.6936 49.6 12.8286 49.5488 12.9362 49.4528C13.0735 49.3312 13.1524 49.1495 13.1524 48.9601V31.0409C13.1524 30.8501 13.0735 30.6697 12.9362 30.5481Z" fill="#006DC3"/>
<path d="M7.80078 44.9064C6.14718 44.9064 4.80078 43.1314 4.80078 40.9503C4.80078 38.7692 6.14718 36.9943 7.80078 36.9943C9.45438 36.9943 10.8008 38.7692 10.8008 40.9503C10.8008 43.1314 9.45438 44.9064 7.80078 44.9064ZM7.80078 38.3129C6.80838 38.3129 6.00078 39.4958 6.00078 40.9503C6.00078 42.4048 6.80838 43.5877 7.80078 43.5877C8.79318 43.5877 9.60078 42.4048 9.60078 40.9503C9.60078 39.4958 8.79318 38.3129 7.80078 38.3129Z" fill="#EFEFEF"/>
</svg>
