<svg width="184" height="88" viewBox="0 0 184 88" fill="none" xmlns="http://www.w3.org/2000/svg">
<g clip-path="url(#clip0_3100_21845)">
<path d="M114.841 13.8978L107.763 6.82079C107.319 6.37639 106.728 6.13159 106.099 6.13159H76.3024C75.0049 6.13159 73.9492 7.18729 73.9492 8.48479V31.7832H72.2944C70.5548 31.7832 69.1396 33.1985 69.1396 34.938V49.367C69.1396 51.1066 70.5548 52.5219 72.2944 52.5219H101.954C103.252 52.5219 104.307 51.4662 104.307 50.1687V38.9462C104.307 37.6486 103.252 36.5929 101.954 36.5929H72.2944C71.3819 36.5929 70.6396 35.8506 70.6396 34.9381C70.6396 34.0256 71.3819 33.2833 72.2944 33.2833H73.9492V34.1368C73.9492 34.551 74.285 34.8868 74.6992 34.8868C75.1134 34.8868 75.4492 34.551 75.4492 34.1368V8.48479C75.4492 8.01429 75.832 7.63159 76.3024 7.63159H105.212V14.8977C105.212 15.7533 105.908 16.4494 106.764 16.4494H114.03V54.9784C114.03 55.4489 113.647 55.8316 113.177 55.8316H76.3024C75.8319 55.8316 75.4492 55.4489 75.4492 54.9784C75.4492 54.5642 75.1134 54.2284 74.6992 54.2284C74.285 54.2284 73.9492 54.5642 73.9492 54.9784C73.9492 56.276 75.0049 57.3316 76.3024 57.3316H113.177C114.474 57.3316 115.53 56.2759 115.53 54.9784V15.5618C115.53 14.9333 115.285 14.3423 114.841 13.8978ZM72.2944 38.0929H101.954C102.425 38.0929 102.807 38.4757 102.807 38.9462V50.1688C102.807 50.6393 102.425 51.022 101.954 51.022H72.2944C71.3819 51.022 70.6396 50.2796 70.6396 49.3671V37.6231C71.1209 37.921 71.6879 38.0929 72.2944 38.0929ZM106.712 14.8977V7.89089L113.771 14.9494H106.764C106.735 14.9494 106.712 14.9262 106.712 14.8977Z" fill="#00ADBB"/>
<path d="M85.9219 32.4816H103.557C103.971 32.4816 104.307 32.1458 104.307 31.7316C104.307 31.3174 103.971 30.9816 103.557 30.9816H85.9219C85.5077 30.9816 85.1719 31.3174 85.1719 31.7316C85.1719 32.1458 85.5077 32.4816 85.9219 32.4816Z" fill="#00ADBB"/>
<path d="M85.9219 28.4735H103.557C103.971 28.4735 104.307 28.1377 104.307 27.7235C104.307 27.3093 103.971 26.9735 103.557 26.9735H85.9219C85.5077 26.9735 85.1719 27.3093 85.1719 27.7235C85.1719 28.1377 85.5077 28.4735 85.9219 28.4735Z" fill="#00ADBB"/>
<path d="M97.1445 24.4655H103.557C103.972 24.4655 104.307 24.1297 104.307 23.7155C104.307 23.3012 103.972 22.9655 103.557 22.9655H97.1445C96.7303 22.9655 96.3945 23.3012 96.3945 23.7155C96.3945 24.1296 96.7303 24.4655 97.1445 24.4655Z" fill="#00ADBB"/>
<path d="M97.1445 20.4573H103.557C103.972 20.4573 104.307 20.1216 104.307 19.7073C104.307 19.2931 103.972 18.9573 103.557 18.9573H97.1445C96.7303 18.9573 96.3945 19.2931 96.3945 19.7073C96.3945 20.1215 96.7303 20.4573 97.1445 20.4573Z" fill="#00ADBB"/>
<path d="M95.8444 48.6428C96.7423 48.6428 97.5479 48.3481 98.1738 47.7906C98.2964 47.6813 98.413 47.5611 98.5203 47.4332C98.7865 47.1158 98.745 46.6428 98.4276 46.3766C98.1102 46.1104 97.6371 46.1519 97.371 46.4693C97.3103 46.5418 97.2447 46.6094 97.1761 46.6705C96.8242 46.9839 96.3761 47.1429 95.8443 47.1429C94.4187 47.1429 93.2589 45.9831 93.2589 44.5574C93.2589 43.1318 94.4187 41.972 95.8443 41.972C96.3625 41.972 96.8622 42.1245 97.2893 42.4131C97.6326 42.6449 98.0988 42.5547 98.3306 42.2115C98.5625 41.8682 98.4723 41.402 98.129 41.1701C97.4529 40.7133 96.6629 40.4719 95.8442 40.4719C93.5915 40.4719 91.7588 42.3046 91.7588 44.5573C91.7588 46.81 93.5916 48.6428 95.8444 48.6428Z" fill="#00ADBB"/>
<path d="M86.316 48.6428C88.5687 48.6428 90.4014 46.81 90.4014 44.5573C90.4014 42.3046 88.5687 40.4719 86.316 40.4719C84.0633 40.4719 82.2305 42.3046 82.2305 44.5573C82.2305 46.81 84.0633 48.6428 86.316 48.6428ZM86.316 41.9718C87.7416 41.9718 88.9014 43.1317 88.9014 44.5572C88.9014 45.9829 87.7416 47.1427 86.316 47.1427C84.8904 47.1427 83.7305 45.9829 83.7305 44.5572C83.7305 43.1317 84.8904 41.9718 86.316 41.9718Z" fill="#00ADBB"/>
<path d="M86.7235 24.4656H92.3348C93.1904 24.4656 93.8864 23.7695 93.8864 22.9139V20.5091C93.8864 19.6535 93.1904 18.9574 92.3348 18.9574H86.7235C85.8679 18.9574 85.1719 19.6535 85.1719 20.5091V22.9139C85.1719 23.7695 85.868 24.4656 86.7235 24.4656ZM86.6719 20.5091C86.6719 20.4806 86.695 20.4574 86.7235 20.4574H92.3348C92.3633 20.4574 92.3864 20.4805 92.3864 20.5091V22.9139C92.3864 22.9424 92.3633 22.9656 92.3348 22.9656H86.7235C86.695 22.9656 86.6719 22.9425 86.6719 22.9139V20.5091Z" fill="#00ADBB"/>
<path d="M74.7641 47.7971C74.7648 47.996 74.8446 48.1866 74.9857 48.3267C75.1262 48.4662 75.3162 48.5444 75.5141 48.5444H75.5169C75.5723 48.5442 76.8792 48.5392 77.4011 48.53C79.3118 48.4966 80.6986 46.826 80.6986 44.5575C80.6986 42.1729 79.3466 40.5707 77.3344 40.5707H75.501C75.3018 40.5707 75.1109 40.6499 74.9702 40.7909C74.8295 40.9318 74.7506 41.1229 74.751 41.3221C74.751 41.3221 74.7557 43.8122 74.7557 44.5503C74.7557 45.4504 74.7641 47.7971 74.7641 47.7971ZM77.3345 42.0708C78.709 42.0708 79.1987 43.3555 79.1987 44.5576C79.1987 46.2437 78.2827 47.0144 77.375 47.0303C77.1203 47.0347 76.6606 47.0383 76.2616 47.0407C76.2591 46.275 76.2557 45.1212 76.2557 44.5505C76.2557 44.0738 76.2537 42.8671 76.2524 42.0708H77.3345Z" fill="#00ADBB"/>
</g>
<path d="M17.4169 81.696C17.4169 81.856 17.5449 82 17.7209 82H18.3449C18.5049 82 18.6489 81.856 18.6489 81.696V77.616H21.7049L23.7849 81.76C23.8649 81.92 23.9449 82 24.1369 82H24.9049C25.1769 82 25.2889 81.744 25.1769 81.536L22.9849 77.472C24.3769 76.912 25.3529 75.68 25.3529 74.208C25.3529 72.304 23.7849 70.8 21.8649 70.8H17.7209C17.5449 70.8 17.4169 70.944 17.4169 71.104V81.696ZM18.6809 76.56V71.968H21.7849C23.0169 71.968 24.0889 73.008 24.0889 74.224C24.0889 75.536 23.0169 76.56 21.7849 76.56H18.6809ZM26.6649 78.304C26.6649 80.416 28.0089 82.176 30.2489 82.176C31.5289 82.176 32.5049 81.68 32.9529 81.328C33.2249 81.12 33.1609 81.04 33.0169 80.816L32.8249 80.544C32.6329 80.256 32.5209 80.32 32.2649 80.496C31.8489 80.768 31.2409 81.104 30.2649 81.104C28.9209 81.104 27.8809 79.808 27.8489 78.576H33.2249C33.3849 78.576 33.5449 78.448 33.5609 78.256C33.5769 78.128 33.5929 77.936 33.5929 77.808C33.5929 75.872 32.1849 74.448 30.2489 74.448C28.0089 74.448 26.6649 76.224 26.6649 78.304ZM27.8649 77.632C28.0089 76.48 29.0009 75.52 30.2489 75.52C31.5129 75.52 32.3769 76.544 32.4089 77.632H27.8649ZM35.6151 81.648C35.6151 81.84 35.7751 82 35.9671 82H36.4471C36.6231 82 36.7991 81.84 36.7991 81.648V71.152C36.7991 70.976 36.6231 70.8 36.4471 70.8H35.9671C35.7751 70.8 35.6151 70.976 35.6151 71.152V81.648ZM38.9149 78.304C38.9149 80.416 40.2589 82.176 42.4989 82.176C43.7789 82.176 44.7549 81.68 45.2029 81.328C45.4749 81.12 45.4109 81.04 45.2669 80.816L45.0749 80.544C44.8829 80.256 44.7709 80.32 44.5149 80.496C44.0989 80.768 43.4909 81.104 42.5149 81.104C41.1709 81.104 40.1309 79.808 40.0989 78.576H45.4749C45.6349 78.576 45.7949 78.448 45.8109 78.256C45.8269 78.128 45.8429 77.936 45.8429 77.808C45.8429 75.872 44.4349 74.448 42.4989 74.448C40.2589 74.448 38.9149 76.224 38.9149 78.304ZM40.1149 77.632C40.2589 76.48 41.2509 75.52 42.4989 75.52C43.7629 75.52 44.6269 76.544 44.6589 77.632H40.1149ZM47.2091 79.76C47.2091 81.248 48.2011 82.176 49.4971 82.176C50.6331 82.176 51.4011 81.616 51.7851 81.232L51.9291 81.728C51.9771 81.888 52.0411 82 52.2331 82H52.5371C52.7291 82 52.8891 81.84 52.8891 81.648V77.552C52.8891 75.376 52.4891 74.448 50.6011 74.448C49.3851 74.448 48.4251 74.768 48.0571 74.928C47.8811 75.008 47.7691 75.104 47.8331 75.328L47.9931 75.76C48.0571 75.936 48.1531 76.032 48.3451 75.952C48.6811 75.84 49.5291 75.52 50.5371 75.52C51.5931 75.52 51.7691 76.192 51.7531 77.552C51.7531 77.552 50.9531 77.312 50.1691 77.312C48.2651 77.312 47.2091 78.352 47.2091 79.76ZM48.3771 79.76C48.3771 78.816 49.1451 78.32 50.1691 78.32C50.9051 78.32 51.4971 78.48 51.7371 78.608V80.112C51.4171 80.592 50.6171 81.104 49.7051 81.104C48.8891 81.104 48.3771 80.512 48.3771 79.76ZM57.3804 82.176C58.8844 82.176 59.8924 81.232 59.8924 80.064C59.8924 78.72 58.7884 78.24 57.5084 77.648C56.6124 77.232 56.1004 76.992 56.1004 76.336C56.1004 75.984 56.3724 75.52 57.1884 75.52C57.8764 75.52 58.3884 75.76 58.7084 75.952C58.8684 76.048 59.1084 76.032 59.2204 75.824L59.3804 75.52C59.4924 75.312 59.4604 75.152 59.3004 75.024C58.9484 74.768 58.1484 74.448 57.1884 74.448C55.4764 74.448 54.9004 75.616 54.9004 76.384C54.9004 77.648 56.0204 78.176 56.9964 78.656C58.0684 79.184 58.6444 79.472 58.6444 80.176C58.6444 80.752 58.1324 81.104 57.3804 81.104C56.4364 81.104 55.7964 80.64 55.5404 80.448C55.3324 80.304 55.2044 80.368 55.1084 80.544L54.8844 80.96C54.8204 81.088 54.8524 81.2 54.9324 81.28C55.3164 81.632 56.1484 82.176 57.3804 82.176ZM61.3524 78.304C61.3524 80.416 62.6964 82.176 64.9364 82.176C66.2164 82.176 67.1924 81.68 67.6404 81.328C67.9124 81.12 67.8484 81.04 67.7044 80.816L67.5124 80.544C67.3204 80.256 67.2084 80.32 66.9524 80.496C66.5364 80.768 65.9284 81.104 64.9524 81.104C63.6084 81.104 62.5684 79.808 62.5364 78.576H67.9124C68.0724 78.576 68.2324 78.448 68.2484 78.256C68.2644 78.128 68.2804 77.936 68.2804 77.808C68.2804 75.872 66.8724 74.448 64.9364 74.448C62.6964 74.448 61.3524 76.224 61.3524 78.304ZM62.5524 77.632C62.6964 76.48 63.6884 75.52 64.9364 75.52C66.2004 75.52 67.0644 76.544 67.0964 77.632H62.5524ZM73.6024 78.288C73.6024 80.4 75.0424 82.176 76.9144 82.176C78.3064 82.176 79.2504 81.216 79.2504 81.216L79.3464 81.696C79.4104 81.872 79.5064 82 79.6664 82H79.9544C80.1464 82 80.3224 81.84 80.3224 81.648V71.152C80.3224 70.976 80.1464 70.8 79.9544 70.8H79.5064C79.3144 70.8 79.1544 70.976 79.1544 71.152V74.912C79.1544 74.912 78.3224 74.448 77.1064 74.448C74.8824 74.448 73.6024 76.128 73.6024 78.288ZM74.8024 78.304C74.8024 76.832 75.6824 75.52 77.2664 75.52C78.2904 75.52 79.1544 75.936 79.1544 75.936V79.92C79.1544 79.92 78.3864 81.104 77.0584 81.104C75.7144 81.104 74.8024 79.744 74.8024 78.304ZM82.3524 78.304C82.3524 80.416 83.6964 82.176 85.9364 82.176C87.2164 82.176 88.1924 81.68 88.6404 81.328C88.9124 81.12 88.8484 81.04 88.7044 80.816L88.5124 80.544C88.3204 80.256 88.2084 80.32 87.9524 80.496C87.5364 80.768 86.9284 81.104 85.9524 81.104C84.6084 81.104 83.5684 79.808 83.5364 78.576H88.9124C89.0724 78.576 89.2324 78.448 89.2484 78.256C89.2644 78.128 89.2804 77.936 89.2804 77.808C89.2804 75.872 87.8724 74.448 85.9364 74.448C83.6964 74.448 82.3524 76.224 82.3524 78.304ZM83.5524 77.632C83.6964 76.48 84.6884 75.52 85.9364 75.52C87.2004 75.52 88.0644 76.544 88.0964 77.632H83.5524ZM95.3544 81.696C95.3544 81.856 95.4824 82 95.6584 82H96.2824C96.4424 82 96.5864 81.856 96.5864 81.696V77.616H99.6424L101.722 81.76C101.802 81.92 101.882 82 102.074 82H102.842C103.114 82 103.226 81.744 103.114 81.536L100.922 77.472C102.314 76.912 103.29 75.68 103.29 74.208C103.29 72.304 101.722 70.8 99.8024 70.8H95.6584C95.4824 70.8 95.3544 70.944 95.3544 71.104V81.696ZM96.6184 76.56V71.968H99.7224C100.954 71.968 102.026 73.008 102.026 74.224C102.026 75.536 100.954 76.56 99.7224 76.56H96.6184ZM104.602 78.304C104.602 80.416 105.946 82.176 108.186 82.176C109.466 82.176 110.442 81.68 110.89 81.328C111.162 81.12 111.098 81.04 110.954 80.816L110.762 80.544C110.57 80.256 110.458 80.32 110.202 80.496C109.786 80.768 109.178 81.104 108.202 81.104C106.858 81.104 105.818 79.808 105.786 78.576H111.162C111.322 78.576 111.482 78.448 111.498 78.256C111.514 78.128 111.53 77.936 111.53 77.808C111.53 75.872 110.122 74.448 108.186 74.448C105.946 74.448 104.602 76.224 104.602 78.304ZM105.802 77.632C105.946 76.48 106.938 75.52 108.186 75.52C109.45 75.52 110.314 76.544 110.346 77.632H105.802ZM115.537 82.176C117.041 82.176 118.049 81.232 118.049 80.064C118.049 78.72 116.945 78.24 115.665 77.648C114.769 77.232 114.257 76.992 114.257 76.336C114.257 75.984 114.529 75.52 115.345 75.52C116.033 75.52 116.545 75.76 116.865 75.952C117.025 76.048 117.265 76.032 117.377 75.824L117.537 75.52C117.649 75.312 117.617 75.152 117.457 75.024C117.105 74.768 116.305 74.448 115.345 74.448C113.633 74.448 113.057 75.616 113.057 76.384C113.057 77.648 114.177 78.176 115.153 78.656C116.225 79.184 116.801 79.472 116.801 80.176C116.801 80.752 116.289 81.104 115.537 81.104C114.593 81.104 113.953 80.64 113.697 80.448C113.489 80.304 113.361 80.368 113.265 80.544L113.041 80.96C112.977 81.088 113.009 81.2 113.089 81.28C113.473 81.632 114.305 82.176 115.537 82.176ZM119.893 78.944C119.893 80.896 120.405 82.176 122.533 82.176C123.861 82.176 124.549 81.504 124.821 81.216L124.965 81.68C125.013 81.872 125.093 82 125.301 82H125.557C125.733 82 125.893 81.84 125.893 81.648V74.96C125.893 74.784 125.733 74.608 125.557 74.608H125.061C124.869 74.608 124.725 74.784 124.725 74.96V80.032C124.389 80.416 123.733 81.104 122.629 81.104C121.557 81.104 121.077 80.432 121.077 78.96V74.96C121.077 74.784 120.917 74.608 120.725 74.608H120.245C120.037 74.608 119.893 74.784 119.893 74.96V78.944ZM128.474 81.648C128.474 81.84 128.634 82 128.826 82H129.306C129.482 82 129.658 81.84 129.658 81.648V71.152C129.658 70.976 129.482 70.8 129.306 70.8H128.826C128.634 70.8 128.474 70.976 128.474 71.152V81.648ZM132.718 75.632V80.128C132.718 81.28 133.006 82.176 134.414 82.176C135.406 82.176 136.174 81.808 136.494 81.584C136.686 81.456 136.718 81.344 136.622 81.104L136.478 80.768C136.398 80.592 136.302 80.448 136.014 80.624C135.71 80.816 135.246 81.104 134.558 81.104C134.142 81.104 133.902 80.816 133.902 80.048V75.632H136.078C136.286 75.632 136.446 75.472 136.446 75.28V74.96C136.446 74.752 136.286 74.608 136.078 74.608H133.902V72.528C133.902 72.336 133.758 72.16 133.566 72.176L133.07 72.208C132.894 72.224 132.718 72.368 132.718 72.56V74.608H131.742C131.518 74.608 131.374 74.752 131.374 74.96V75.28C131.374 75.472 131.518 75.632 131.742 75.632H132.718ZM137.725 79.76C137.725 81.248 138.717 82.176 140.013 82.176C141.149 82.176 141.917 81.616 142.301 81.232L142.445 81.728C142.493 81.888 142.557 82 142.749 82H143.053C143.245 82 143.405 81.84 143.405 81.648V77.552C143.405 75.376 143.005 74.448 141.117 74.448C139.901 74.448 138.941 74.768 138.573 74.928C138.397 75.008 138.285 75.104 138.349 75.328L138.509 75.76C138.573 75.936 138.669 76.032 138.861 75.952C139.197 75.84 140.045 75.52 141.053 75.52C142.109 75.52 142.285 76.192 142.269 77.552C142.269 77.552 141.469 77.312 140.685 77.312C138.781 77.312 137.725 78.352 137.725 79.76ZM138.893 79.76C138.893 78.816 139.661 78.32 140.685 78.32C141.421 78.32 142.013 78.48 142.253 78.608V80.112C141.933 80.592 141.133 81.104 140.221 81.104C139.405 81.104 138.893 80.512 138.893 79.76ZM145.368 78.288C145.368 80.4 146.808 82.176 148.68 82.176C150.072 82.176 151.016 81.216 151.016 81.216L151.112 81.696C151.176 81.872 151.272 82 151.432 82H151.72C151.912 82 152.088 81.84 152.088 81.648V71.152C152.088 70.976 151.912 70.8 151.72 70.8H151.272C151.08 70.8 150.92 70.976 150.92 71.152V74.912C150.92 74.912 150.088 74.448 148.872 74.448C146.648 74.448 145.368 76.128 145.368 78.288ZM146.568 78.304C146.568 76.832 147.448 75.52 149.032 75.52C150.056 75.52 150.92 75.936 150.92 75.936V79.92C150.92 79.92 150.152 81.104 148.824 81.104C147.48 81.104 146.568 79.744 146.568 78.304ZM154.102 78.288C154.102 80.4 155.766 82.176 157.814 82.176C159.862 82.176 161.526 80.4 161.526 78.288C161.526 76.208 159.862 74.448 157.814 74.448C155.766 74.448 154.102 76.208 154.102 78.288ZM155.27 78.288C155.27 76.784 156.358 75.52 157.814 75.52C159.27 75.52 160.342 76.784 160.342 78.288C160.342 79.824 159.27 81.104 157.814 81.104C156.358 81.104 155.27 79.824 155.27 78.288ZM165.599 82.176C167.103 82.176 168.111 81.232 168.111 80.064C168.111 78.72 167.007 78.24 165.727 77.648C164.831 77.232 164.319 76.992 164.319 76.336C164.319 75.984 164.591 75.52 165.407 75.52C166.095 75.52 166.607 75.76 166.927 75.952C167.087 76.048 167.327 76.032 167.439 75.824L167.599 75.52C167.711 75.312 167.679 75.152 167.519 75.024C167.167 74.768 166.367 74.448 165.407 74.448C163.695 74.448 163.119 75.616 163.119 76.384C163.119 77.648 164.239 78.176 165.215 78.656C166.287 79.184 166.863 79.472 166.863 80.176C166.863 80.752 166.351 81.104 165.599 81.104C164.655 81.104 164.015 80.64 163.759 80.448C163.551 80.304 163.423 80.368 163.327 80.544L163.103 80.96C163.039 81.088 163.071 81.2 163.151 81.28C163.535 81.632 164.367 82.176 165.599 82.176Z" fill="#4D4D4D"/>
<defs>
<clipPath id="clip0_3100_21845">
<rect width="51.2" height="51.2" fill="white" transform="translate(66.7344 6.13159)"/>
</clipPath>
</defs>
</svg>
