<svg width="184" height="88" viewBox="0 0 184 88" fill="none" xmlns="http://www.w3.org/2000/svg">
<g clip-path="url(#clip0_3100_21850)">
<path d="M115.11 13.4232L107.738 6.05129C107.275 5.58837 106.659 5.33337 106.005 5.33337H74.9661C73.6146 5.33337 72.5149 6.43306 72.5149 7.78462V32.0538H70.7911C68.979 32.0538 67.5049 33.5281 67.5049 35.34V50.3703C67.5049 52.1823 68.979 53.6566 70.7911 53.6566H96.6765C98.0282 53.6566 99.1278 52.5569 99.1278 51.2054V39.5153C99.1278 38.1636 98.0281 37.0639 96.6765 37.0639H70.7911C69.8406 37.0639 69.0674 36.2907 69.0674 35.3401C69.0674 34.3896 69.8406 33.6164 70.7911 33.6164H72.5149V34.5055C72.5149 34.9369 72.8647 35.2867 73.2961 35.2867C73.7276 35.2867 74.0774 34.9369 74.0774 34.5055V7.78462C74.0774 7.29452 74.4761 6.89587 74.9661 6.89587H105.08V14.4647C105.08 15.356 105.805 16.0811 106.697 16.0811H114.265V56.2155C114.265 56.7056 113.867 57.1042 113.377 57.1042H74.9661C74.476 57.1042 74.0774 56.7056 74.0774 56.2155C74.0774 55.784 73.7276 55.4342 73.2961 55.4342C72.8647 55.4342 72.5149 55.784 72.5149 56.2155C72.5149 57.5671 73.6146 58.6667 74.9661 58.6667H113.377C114.728 58.6667 115.828 57.567 115.828 56.2155V15.1565C115.828 14.5018 115.573 13.8862 115.11 13.4232ZM70.7911 38.6264H96.6765C97.1666 38.6264 97.5653 39.0251 97.5653 39.5153V51.2055C97.5653 51.6956 97.1665 52.0942 96.6765 52.0942H70.7911C69.8406 52.0942 69.0674 51.3209 69.0674 50.3704V38.137C69.5687 38.4473 70.1594 38.6264 70.7911 38.6264ZM106.643 14.4647V7.16598L113.996 14.5186H106.697C106.667 14.5186 106.643 14.4944 106.643 14.4647Z" fill="#00ADBB"/>
<path d="M82.4833 49.4647C82.539 49.4743 82.5842 49.482 83.3312 49.482C83.6917 49.482 84.2157 49.4803 84.9831 49.4759C85.4146 49.4736 85.7624 49.1218 85.76 48.6903C85.7576 48.2587 85.4039 47.9147 84.9744 47.9134C84.4288 47.9164 83.8429 47.9186 83.3965 47.919V41.9506C83.3965 41.5191 83.0467 41.1693 82.6152 41.1693C82.1838 41.1693 81.834 41.5191 81.834 41.9506V48.6946C81.834 49.0753 82.1082 49.4005 82.4833 49.4647Z" fill="#00ADBB"/>
<path d="M90.4099 49.4816C91.8021 49.4816 92.9706 48.5956 93.1887 47.3749C93.3522 46.4586 92.9331 45.2606 91.2664 44.6458C90.4269 44.3361 89.646 43.9987 89.4175 43.8985C89.2021 43.731 89.2091 43.4944 89.223 43.3965C89.2419 43.2655 89.336 42.9457 89.8037 42.8048C90.7879 42.5082 91.6936 43.2254 91.7188 43.2456C92.049 43.5199 92.5393 43.4763 92.8158 43.1473C93.0934 42.8169 93.0507 42.3241 92.7204 42.0465C92.6578 41.9939 91.1652 40.7629 89.353 41.3087C88.4448 41.5823 87.8023 42.2973 87.6763 43.1744C87.5584 43.9961 87.9145 44.7864 88.6055 45.2369C88.6401 45.2594 88.6762 45.2792 88.714 45.296C88.753 45.3134 89.6806 45.7263 90.7255 46.1117C91.0361 46.2263 91.7482 46.5521 91.6503 47.1002C91.5784 47.5027 91.0948 47.919 90.4097 47.919C89.7216 47.919 89.0586 47.641 88.6366 47.1752C88.3469 46.8555 87.8528 46.8311 87.533 47.1209C87.2133 47.4106 87.1889 47.9047 87.4787 48.2245C88.1923 49.0118 89.2879 49.4816 90.4099 49.4816Z" fill="#00ADBB"/>
<path d="M73.6644 49.3391C73.8012 49.4354 73.9582 49.4817 74.1137 49.4817C74.3592 49.4817 74.6009 49.3662 74.753 49.1502L76.6602 46.4429L78.5645 49.1498C78.7166 49.366 78.9585 49.4817 79.2042 49.4817C79.3595 49.4817 79.5164 49.4355 79.653 49.3394C80.006 49.091 80.0907 48.6037 79.8425 48.2508L77.6162 45.0861L79.508 42.4006C79.7566 42.0479 79.672 41.5605 79.3193 41.3121C78.9666 41.0635 78.4792 41.1481 78.2306 41.5008L76.6612 43.7287L75.0942 41.5011C74.846 41.1482 74.3586 41.0634 74.0057 41.3116C73.6527 41.5599 73.5679 42.0473 73.8162 42.4001L75.7052 45.0854L73.4757 48.2503C73.2271 48.6032 73.3117 49.0905 73.6644 49.3391Z" fill="#00ADBB"/>
<path d="M104.973 20.31C104.973 19.4187 104.248 18.6936 103.357 18.6936H84.9864C84.0951 18.6936 83.3701 19.4187 83.3701 20.31V31.165C83.3701 32.0563 84.0951 32.7813 84.9864 32.7813H103.357C104.248 32.7813 104.973 32.0563 104.973 31.165V20.31H104.973ZM91.6127 27.0438V24.4312H96.7303V27.0438H91.6127ZM96.7303 28.6063V31.2189H91.6127V28.6063H96.7303ZM84.9326 24.4313H90.0502V27.0439H84.9326V24.4313ZM91.6127 22.8688V20.2562H96.7303V22.8688H91.6127ZM98.2928 24.4313H103.41V27.0439H98.2928V24.4313ZM103.41 20.31V22.8687H98.2928V20.2561H103.357C103.386 20.2562 103.41 20.2803 103.41 20.31ZM84.9864 20.2562H90.0502V22.8688H84.9326V20.3101C84.9326 20.2803 84.9567 20.2562 84.9864 20.2562ZM84.9326 31.1651V28.6064H90.0502V31.2189H84.9864C84.9567 31.2189 84.9326 31.1948 84.9326 31.1651ZM103.357 31.2189H98.2928V28.6063H103.41V31.165C103.41 31.1948 103.386 31.2189 103.357 31.2189Z" fill="#00ADBB"/>
</g>
<path d="M33.7108 81.696C33.7108 81.856 33.8388 82 34.0148 82H34.6228C34.7828 82 34.9268 81.856 34.9268 81.696V77.936H37.5668C39.5188 77.936 41.1348 76.32 41.1348 74.336C41.1348 72.4 39.5188 70.8 37.5508 70.8H34.0148C33.8388 70.8 33.7108 70.944 33.7108 71.104V81.696ZM34.9268 76.752V72.016H37.4708C38.7828 72.016 39.9028 72.88 39.9028 74.304C39.9028 75.776 38.7828 76.752 37.4708 76.752H34.9268ZM42.9872 81.648C42.9872 81.84 43.1472 82 43.3392 82H43.8192C43.9952 82 44.1712 81.84 44.1712 81.648V71.152C44.1712 70.976 43.9952 70.8 43.8192 70.8H43.3392C43.1472 70.8 42.9872 70.976 42.9872 71.152V81.648ZM46.1749 79.76C46.1749 81.248 47.1669 82.176 48.4629 82.176C49.5989 82.176 50.3669 81.616 50.7509 81.232L50.8949 81.728C50.9429 81.888 51.0069 82 51.1989 82H51.5029C51.6949 82 51.8549 81.84 51.8549 81.648V77.552C51.8549 75.376 51.4549 74.448 49.5669 74.448C48.3509 74.448 47.3909 74.768 47.0229 74.928C46.8469 75.008 46.7349 75.104 46.7989 75.328L46.9589 75.76C47.0229 75.936 47.1189 76.032 47.3109 75.952C47.6469 75.84 48.4949 75.52 49.5029 75.52C50.5589 75.52 50.7349 76.192 50.7189 77.552C50.7189 77.552 49.9189 77.312 49.1349 77.312C47.2309 77.312 46.1749 78.352 46.1749 79.76ZM47.3429 79.76C47.3429 78.816 48.1109 78.32 49.1349 78.32C49.8709 78.32 50.4629 78.48 50.7029 78.608V80.112C50.3829 80.592 49.5829 81.104 48.6709 81.104C47.8549 81.104 47.3429 80.512 47.3429 79.76ZM54.2822 81.648C54.2822 81.84 54.4422 82 54.6342 82H55.1142C55.2902 82 55.4662 81.84 55.4662 81.648V76.544C55.4662 76.544 56.3462 75.52 57.7382 75.52C58.8262 75.52 59.3062 76.176 59.3062 77.584V81.648C59.3062 81.84 59.4662 82 59.6582 82H60.1382C60.3142 82 60.4902 81.84 60.4902 81.648V77.744C60.4902 75.84 59.9622 74.448 57.8182 74.448C56.2822 74.448 55.3382 75.392 55.3382 75.392L55.1782 74.832C55.1462 74.672 55.0502 74.608 54.8902 74.608H54.6342C54.4422 74.608 54.2822 74.784 54.2822 74.96V81.648ZM63.4672 72.704C63.9632 72.704 64.3472 72.304 64.3472 71.84C64.3472 71.328 63.9632 70.944 63.4672 70.944C62.9872 70.944 62.6032 71.328 62.6032 71.84C62.6032 72.304 62.9872 72.704 63.4672 72.704ZM62.9072 81.648C62.9072 81.84 63.0672 82 63.2592 82H63.7392C63.9152 82 64.0912 81.84 64.0912 81.648V74.96C64.0912 74.784 63.9152 74.608 63.7392 74.608H63.2592C63.0672 74.608 62.9072 74.784 62.9072 74.96V81.648ZM66.6747 81.648C66.6747 81.84 66.8347 82 67.0267 82H67.5067C67.6827 82 67.8587 81.84 67.8587 81.648V71.152C67.8587 70.976 67.6827 70.8 67.5067 70.8H67.0267C66.8347 70.8 66.6747 70.976 66.6747 71.152V81.648ZM70.4384 81.648C70.4384 81.84 70.5984 82 70.7904 82H71.2704C71.4464 82 71.6224 81.84 71.6224 81.648V76.576C71.6224 76.576 72.4864 75.52 73.8944 75.52C75.0304 75.52 75.4464 76.336 75.4464 77.744V81.648C75.4464 81.84 75.6064 82 75.7984 82H76.2944C76.4704 82 76.6464 81.84 76.6464 81.648V77.744C76.6464 75.584 75.8144 74.448 73.9744 74.448C72.4864 74.448 71.6224 75.392 71.6224 75.392V71.152C71.6224 70.976 71.4464 70.8 71.2704 70.8H70.7904C70.5984 70.8 70.4384 70.976 70.4384 71.152V81.648ZM78.4874 79.76C78.4874 81.248 79.4794 82.176 80.7754 82.176C81.9114 82.176 82.6794 81.616 83.0634 81.232L83.2074 81.728C83.2554 81.888 83.3194 82 83.5114 82H83.8154C84.0074 82 84.1674 81.84 84.1674 81.648V77.552C84.1674 75.376 83.7674 74.448 81.8794 74.448C80.6634 74.448 79.7034 74.768 79.3354 74.928C79.1594 75.008 79.0474 75.104 79.1114 75.328L79.2714 75.76C79.3354 75.936 79.4314 76.032 79.6234 75.952C79.9594 75.84 80.8074 75.52 81.8154 75.52C82.8714 75.52 83.0474 76.192 83.0314 77.552C83.0314 77.552 82.2314 77.312 81.4474 77.312C79.5434 77.312 78.4874 78.352 78.4874 79.76ZM79.6554 79.76C79.6554 78.816 80.4234 78.32 81.4474 78.32C82.1834 78.32 82.7754 78.48 83.0154 78.608V80.112C82.6954 80.592 81.8954 81.104 80.9834 81.104C80.1674 81.104 79.6554 80.512 79.6554 79.76ZM89.9744 78.288C89.9744 80.4 91.4144 82.176 93.2864 82.176C94.6784 82.176 95.6224 81.216 95.6224 81.216L95.7184 81.696C95.7824 81.872 95.8784 82 96.0384 82H96.3264C96.5184 82 96.6944 81.84 96.6944 81.648V71.152C96.6944 70.976 96.5184 70.8 96.3264 70.8H95.8784C95.6864 70.8 95.5264 70.976 95.5264 71.152V74.912C95.5264 74.912 94.6944 74.448 93.4784 74.448C91.2544 74.448 89.9744 76.128 89.9744 78.288ZM91.1744 78.304C91.1744 76.832 92.0544 75.52 93.6384 75.52C94.6624 75.52 95.5264 75.936 95.5264 75.936V79.92C95.5264 79.92 94.7584 81.104 93.4304 81.104C92.0864 81.104 91.1744 79.744 91.1744 78.304ZM98.7244 78.304C98.7244 80.416 100.068 82.176 102.308 82.176C103.588 82.176 104.564 81.68 105.012 81.328C105.284 81.12 105.22 81.04 105.076 80.816L104.884 80.544C104.692 80.256 104.58 80.32 104.324 80.496C103.908 80.768 103.3 81.104 102.324 81.104C100.98 81.104 99.9404 79.808 99.9084 78.576H105.284C105.444 78.576 105.604 78.448 105.62 78.256C105.636 78.128 105.652 77.936 105.652 77.808C105.652 75.872 104.244 74.448 102.308 74.448C100.068 74.448 98.7244 76.224 98.7244 78.304ZM99.9244 77.632C100.068 76.48 101.06 75.52 102.308 75.52C103.572 75.52 104.436 76.544 104.468 77.632H99.9244ZM110.574 82H111.214C111.358 82 111.454 81.904 111.486 81.824L112.654 79.184H118.334L119.518 81.824C119.55 81.904 119.646 82 119.79 82H120.43C120.67 82 120.798 81.792 120.702 81.584L115.87 70.816C115.822 70.72 115.742 70.64 115.598 70.64H115.438C115.294 70.64 115.214 70.72 115.166 70.816L110.302 81.584C110.206 81.792 110.334 82 110.574 82ZM113.102 78.192L115.438 72.944H115.566C116.35 74.688 117.118 76.448 117.902 78.192H113.102ZM123.247 81.568C123.247 81.568 124.063 82.176 125.295 82.176C127.327 82.176 128.783 80.464 128.783 78.304C128.783 76.192 127.359 74.448 125.343 74.448C124.015 74.448 123.119 75.2 123.119 75.2L123.007 74.848C122.927 74.656 122.879 74.608 122.703 74.608H122.431C122.239 74.608 122.079 74.784 122.079 74.96V85.456C122.079 85.648 122.239 85.808 122.431 85.808H122.895C123.071 85.808 123.247 85.648 123.247 85.456V81.568ZM123.247 80.464V76.416C123.247 76.416 124.015 75.52 125.199 75.52C126.687 75.52 127.583 76.848 127.583 78.288C127.583 79.904 126.543 81.104 125.119 81.104C124.095 81.104 123.247 80.464 123.247 80.464ZM130.333 78.288C130.333 80.4 131.997 82.176 134.045 82.176C136.093 82.176 137.757 80.4 137.757 78.288C137.757 76.208 136.093 74.448 134.045 74.448C131.997 74.448 130.333 76.208 130.333 78.288ZM131.501 78.288C131.501 76.784 132.589 75.52 134.045 75.52C135.501 75.52 136.573 76.784 136.573 78.288C136.573 79.824 135.501 81.104 134.045 81.104C132.589 81.104 131.501 79.824 131.501 78.288ZM140.327 72.704C140.823 72.704 141.207 72.304 141.207 71.84C141.207 71.328 140.823 70.944 140.327 70.944C139.847 70.944 139.463 71.328 139.463 71.84C139.463 72.304 139.847 72.704 140.327 72.704ZM139.767 81.648C139.767 81.84 139.927 82 140.119 82H140.599C140.775 82 140.951 81.84 140.951 81.648V74.96C140.951 74.784 140.775 74.608 140.599 74.608H140.119C139.927 74.608 139.767 74.784 139.767 74.96V81.648ZM142.974 78.288C142.974 80.4 144.638 82.176 146.686 82.176C148.734 82.176 150.398 80.4 150.398 78.288C150.398 76.208 148.734 74.448 146.686 74.448C144.638 74.448 142.974 76.208 142.974 78.288ZM144.142 78.288C144.142 76.784 145.23 75.52 146.686 75.52C148.142 75.52 149.214 76.784 149.214 78.288C149.214 79.824 148.142 81.104 146.686 81.104C145.23 81.104 144.142 79.824 144.142 78.288Z" fill="#4D4D4D"/>
<defs>
<clipPath id="clip0_3100_21850">
<rect width="53.3333" height="53.3333" fill="white" transform="translate(65 5.33337)"/>
</clipPath>
</defs>
</svg>
