<svg width="184" height="112" viewBox="0 0 184 112" fill="none" xmlns="http://www.w3.org/2000/svg">
<g clip-path="url(#clip0_3100_21842)">
<path d="M112.625 12.9804H92.9375V8.07841C92.9375 7.8184 92.8387 7.56903 92.6629 7.38517C92.4871 7.20131 92.2486 7.09802 92 7.09802C91.7514 7.09802 91.5129 7.20131 91.3371 7.38517C91.1613 7.56903 91.0625 7.8184 91.0625 8.07841V12.9804H71.375C70.6293 12.9812 69.9144 13.2914 69.3872 13.8428C68.8599 14.3942 68.5633 15.1418 68.5625 15.9216V45.3333C68.5633 46.1131 68.8599 46.8607 69.3872 47.4121C69.9144 47.9635 70.6293 48.2737 71.375 48.2745H82.5495L76.268 56.4855C76.1896 56.5859 76.1309 56.7015 76.0954 56.8257C76.0599 56.9499 76.0483 57.0803 76.0613 57.2092C76.0744 57.3381 76.1117 57.4631 76.1712 57.5768C76.2307 57.6905 76.3111 57.7908 76.4079 57.8718C76.5047 57.9528 76.6159 58.0129 76.7351 58.0487C76.8542 58.0844 76.979 58.0951 77.1021 58.0801C77.2253 58.0651 77.3443 58.0247 77.4524 57.9613C77.5605 57.8979 77.6556 57.8126 77.732 57.7105L84.9507 48.2745H99.0495L106.268 57.7105C106.424 57.9104 106.65 58.0376 106.895 58.0647C107.141 58.0918 107.387 58.0165 107.579 57.8552C107.772 57.6939 107.896 57.4596 107.925 57.2032C107.953 56.9467 107.884 56.6888 107.732 56.4855L101.451 48.2745H112.625C113.371 48.2737 114.086 47.9635 114.613 47.4121C115.14 46.8607 115.437 46.1131 115.438 45.3333V15.9216C115.437 15.1418 115.14 14.3942 114.613 13.8428C114.086 13.2914 113.371 12.9812 112.625 12.9804ZM113.562 45.3333C113.562 45.5933 113.463 45.8425 113.288 46.0263C113.112 46.2101 112.874 46.3134 112.625 46.3137H71.375C71.1264 46.3134 70.8881 46.2101 70.7124 46.0263C70.5366 45.8425 70.4377 45.5933 70.4375 45.3333V15.9216C70.4377 15.6616 70.5366 15.4124 70.7124 15.2286C70.8881 15.0448 71.1264 14.9414 71.375 14.9412H112.625C112.874 14.9414 113.112 15.0448 113.288 15.2286C113.463 15.4124 113.562 15.6616 113.562 15.9216V45.3333ZM85.4375 31.6078V37.4902C85.4375 37.7502 85.3387 37.9996 85.1629 38.1834C84.9871 38.3673 84.7486 38.4706 84.5 38.4706C84.2514 38.4706 84.0129 38.3673 83.8371 38.1834C83.6613 37.9996 83.5625 37.7502 83.5625 37.4902V31.6078C83.5625 31.3478 83.6613 31.0984 83.8371 30.9146C84.0129 30.7307 84.2514 30.6274 84.5 30.6274C84.7486 30.6274 84.9871 30.7307 85.1629 30.9146C85.3387 31.0984 85.4375 31.3478 85.4375 31.6078ZM92.9375 27.6863V37.4902C92.9375 37.7502 92.8387 37.9996 92.6629 38.1834C92.4871 38.3673 92.2486 38.4706 92 38.4706C91.7514 38.4706 91.5129 38.3673 91.3371 38.1834C91.1613 37.9996 91.0625 37.7502 91.0625 37.4902V27.6863C91.0625 27.4262 91.1613 27.1769 91.3371 26.993C91.5129 26.8092 91.7514 26.7059 92 26.7059C92.2486 26.7059 92.4871 26.8092 92.6629 26.993C92.8387 27.1769 92.9375 27.4262 92.9375 27.6863ZM100.438 23.7647V37.4902C100.438 37.7502 100.339 37.9996 100.163 38.1834C99.9871 38.3673 99.7486 38.4706 99.5 38.4706C99.2514 38.4706 99.0129 38.3673 98.8371 38.1834C98.6613 37.9996 98.5625 37.7502 98.5625 37.4902V23.7647C98.5625 23.5047 98.6613 23.2553 98.8371 23.0714C99.0129 22.8876 99.2514 22.7843 99.5 22.7843C99.7486 22.7843 99.9871 22.8876 100.163 23.0714C100.339 23.2553 100.438 23.5047 100.438 23.7647Z" fill="#00ADBB"/>
</g>
<path d="M34.2587 82H34.8987C35.0427 82 35.1387 81.904 35.1707 81.824L36.3387 79.184H42.0187L43.2027 81.824C43.2347 81.904 43.3307 82 43.4747 82H44.1147C44.3547 82 44.4827 81.792 44.3867 81.584L39.5547 70.816C39.5067 70.72 39.4267 70.64 39.2827 70.64H39.1227C38.9787 70.64 38.8987 70.72 38.8507 70.816L33.9867 81.584C33.8907 81.792 34.0187 82 34.2587 82ZM36.7867 78.192L39.1227 72.944H39.2507C40.0347 74.688 40.8027 76.448 41.5867 78.192H36.7867ZM46.9313 81.568C46.9313 81.568 47.7473 82.176 48.9793 82.176C51.0113 82.176 52.4673 80.464 52.4673 78.304C52.4673 76.192 51.0433 74.448 49.0273 74.448C47.6993 74.448 46.8033 75.2 46.8033 75.2L46.6913 74.848C46.6113 74.656 46.5633 74.608 46.3873 74.608H46.1153C45.9233 74.608 45.7633 74.784 45.7633 74.96V85.456C45.7633 85.648 45.9233 85.808 46.1153 85.808H46.5793C46.7553 85.808 46.9313 85.648 46.9313 85.456V81.568ZM46.9313 80.464V76.416C46.9313 76.416 47.6993 75.52 48.8833 75.52C50.3713 75.52 51.2673 76.848 51.2673 78.288C51.2673 79.904 50.2273 81.104 48.8033 81.104C47.7793 81.104 46.9313 80.464 46.9313 80.464ZM54.4977 81.648C54.4977 81.84 54.6577 82 54.8497 82H55.3297C55.5057 82 55.6817 81.84 55.6817 81.648V76.528C55.6817 76.528 56.2577 75.584 57.6817 75.584C58.0337 75.584 58.3057 75.712 58.4817 75.792C58.6577 75.872 58.8337 75.856 58.9137 75.616L59.1217 75.04C59.2977 74.528 58.3857 74.448 57.8257 74.448C56.2897 74.448 55.5537 75.392 55.5537 75.392L55.4257 74.864C55.3777 74.688 55.2497 74.608 55.1057 74.608H54.8497C54.6577 74.608 54.4977 74.784 54.4977 74.96V81.648ZM59.9712 78.304C59.9712 80.416 61.3152 82.176 63.5552 82.176C64.8352 82.176 65.8112 81.68 66.2592 81.328C66.5312 81.12 66.4672 81.04 66.3232 80.816L66.1312 80.544C65.9392 80.256 65.8272 80.32 65.5712 80.496C65.1552 80.768 64.5472 81.104 63.5712 81.104C62.2272 81.104 61.1872 79.808 61.1552 78.576H66.5312C66.6912 78.576 66.8512 78.448 66.8672 78.256C66.8832 78.128 66.8992 77.936 66.8992 77.808C66.8992 75.872 65.4912 74.448 63.5552 74.448C61.3152 74.448 59.9712 76.224 59.9712 78.304ZM61.1712 77.632C61.3152 76.48 62.3072 75.52 63.5552 75.52C64.8192 75.52 65.6832 76.544 65.7152 77.632H61.1712ZM70.9054 82.176C72.4094 82.176 73.4174 81.232 73.4174 80.064C73.4174 78.72 72.3134 78.24 71.0334 77.648C70.1374 77.232 69.6254 76.992 69.6254 76.336C69.6254 75.984 69.8974 75.52 70.7134 75.52C71.4014 75.52 71.9134 75.76 72.2334 75.952C72.3934 76.048 72.6334 76.032 72.7454 75.824L72.9054 75.52C73.0174 75.312 72.9854 75.152 72.8254 75.024C72.4734 74.768 71.6734 74.448 70.7134 74.448C69.0014 74.448 68.4254 75.616 68.4254 76.384C68.4254 77.648 69.5454 78.176 70.5214 78.656C71.5934 79.184 72.1694 79.472 72.1694 80.176C72.1694 80.752 71.6574 81.104 70.9054 81.104C69.9614 81.104 69.3214 80.64 69.0654 80.448C68.8574 80.304 68.7294 80.368 68.6334 80.544L68.4094 80.96C68.3454 81.088 68.3774 81.2 68.4574 81.28C68.8414 81.632 69.6734 82.176 70.9054 82.176ZM74.8774 78.304C74.8774 80.416 76.2214 82.176 78.4614 82.176C79.7414 82.176 80.7174 81.68 81.1654 81.328C81.4374 81.12 81.3734 81.04 81.2294 80.816L81.0374 80.544C80.8454 80.256 80.7334 80.32 80.4774 80.496C80.0614 80.768 79.4534 81.104 78.4774 81.104C77.1334 81.104 76.0934 79.808 76.0614 78.576H81.4374C81.5974 78.576 81.7574 78.448 81.7734 78.256C81.7894 78.128 81.8054 77.936 81.8054 77.808C81.8054 75.872 80.3974 74.448 78.4614 74.448C76.2214 74.448 74.8774 76.224 74.8774 78.304ZM76.0774 77.632C76.2214 76.48 77.2134 75.52 78.4614 75.52C79.7254 75.52 80.5894 76.544 80.6214 77.632H76.0774ZM83.7477 81.648C83.7477 81.84 83.9077 82 84.0997 82H84.5797C84.7557 82 84.9317 81.84 84.9317 81.648V76.544C84.9317 76.544 85.8117 75.52 87.2037 75.52C88.2917 75.52 88.7717 76.176 88.7717 77.584V81.648C88.7717 81.84 88.9317 82 89.1237 82H89.6037C89.7797 82 89.9557 81.84 89.9557 81.648V77.744C89.9557 75.84 89.4277 74.448 87.2837 74.448C85.7477 74.448 84.8037 75.392 84.8037 75.392L84.6437 74.832C84.6117 74.672 84.5157 74.608 84.3557 74.608H84.0997C83.9077 74.608 83.7477 74.784 83.7477 74.96V81.648ZM92.7745 75.632V80.128C92.7745 81.28 93.0625 82.176 94.4705 82.176C95.4625 82.176 96.2305 81.808 96.5505 81.584C96.7425 81.456 96.7745 81.344 96.6785 81.104L96.5345 80.768C96.4545 80.592 96.3585 80.448 96.0705 80.624C95.7665 80.816 95.3025 81.104 94.6145 81.104C94.1985 81.104 93.9585 80.816 93.9585 80.048V75.632H96.1345C96.3425 75.632 96.5025 75.472 96.5025 75.28V74.96C96.5025 74.752 96.3425 74.608 96.1345 74.608H93.9585V72.528C93.9585 72.336 93.8145 72.16 93.6225 72.176L93.1265 72.208C92.9505 72.224 92.7745 72.368 92.7745 72.56V74.608H91.7985C91.5745 74.608 91.4305 74.752 91.4305 74.96V75.28C91.4305 75.472 91.5745 75.632 91.7985 75.632H92.7745ZM97.781 79.76C97.781 81.248 98.773 82.176 100.069 82.176C101.205 82.176 101.973 81.616 102.357 81.232L102.501 81.728C102.549 81.888 102.613 82 102.805 82H103.109C103.301 82 103.461 81.84 103.461 81.648V77.552C103.461 75.376 103.061 74.448 101.173 74.448C99.957 74.448 98.997 74.768 98.629 74.928C98.453 75.008 98.341 75.104 98.405 75.328L98.565 75.76C98.629 75.936 98.725 76.032 98.917 75.952C99.253 75.84 100.101 75.52 101.109 75.52C102.165 75.52 102.341 76.192 102.325 77.552C102.325 77.552 101.525 77.312 100.741 77.312C98.837 77.312 97.781 78.352 97.781 79.76ZM98.949 79.76C98.949 78.816 99.717 78.32 100.741 78.32C101.477 78.32 102.069 78.48 102.309 78.608V80.112C101.989 80.592 101.189 81.104 100.277 81.104C99.461 81.104 98.949 80.512 98.949 79.76ZM105.408 78.32C105.408 80.32 106.736 81.84 108.512 82.128L107.76 83.696C107.712 83.808 107.84 83.952 107.952 83.904C108.112 83.824 108.432 83.744 108.72 83.744C109.216 83.744 109.568 83.904 109.568 84.4C109.568 84.832 109.216 85.056 108.672 85.056C108.304 85.056 108.032 84.896 107.872 84.736C107.728 84.64 107.616 84.656 107.536 84.816L107.408 85.056C107.344 85.184 107.312 85.296 107.408 85.392C107.68 85.648 108.128 85.84 108.72 85.84C109.664 85.84 110.512 85.248 110.512 84.336C110.512 83.376 109.792 83.008 109.12 83.008C108.96 83.008 108.816 83.04 108.72 83.072L109.296 82.176C110.448 82.112 111.376 81.472 111.92 80.688C112.048 80.496 111.984 80.336 111.824 80.176L111.728 80.08C111.52 79.872 111.312 79.808 111.104 80.048C110.688 80.528 110.208 81.104 109.088 81.104C107.712 81.104 106.608 79.776 106.608 78.304C106.608 76.832 107.728 75.52 109.136 75.52C109.888 75.52 110.48 75.744 110.992 76.32C111.136 76.48 111.28 76.64 111.52 76.432L111.776 76.192C111.952 76.048 111.984 75.84 111.84 75.664C111.152 74.88 110.256 74.448 109.152 74.448C107.104 74.448 105.408 76.144 105.408 78.32ZM113.312 79.76C113.312 81.248 114.304 82.176 115.6 82.176C116.736 82.176 117.504 81.616 117.888 81.232L118.032 81.728C118.08 81.888 118.144 82 118.336 82H118.64C118.832 82 118.992 81.84 118.992 81.648V77.552C118.992 75.376 118.592 74.448 116.704 74.448C115.488 74.448 114.528 74.768 114.16 74.928C113.984 75.008 113.872 75.104 113.936 75.328L114.096 75.76C114.16 75.936 114.256 76.032 114.448 75.952C114.784 75.84 115.632 75.52 116.64 75.52C117.696 75.52 117.872 76.192 117.856 77.552C117.856 77.552 117.056 77.312 116.272 77.312C114.368 77.312 113.312 78.352 113.312 79.76ZM114.48 79.76C114.48 78.816 115.248 78.32 116.272 78.32C117.008 78.32 117.6 78.48 117.84 78.608V80.112C117.52 80.592 116.72 81.104 115.808 81.104C114.992 81.104 114.48 80.512 114.48 79.76ZM114.304 72.8C114.512 72.912 114.656 72.8 114.704 72.64C114.816 72.304 114.976 71.84 115.408 71.84C115.856 71.84 116.288 73.04 117.168 73.04C118.048 73.04 118.432 72.208 118.592 71.744C118.624 71.632 118.72 71.424 118.528 71.328L118.272 71.2C118.096 71.12 117.952 71.168 117.904 71.328C117.824 71.6 117.632 72.144 117.184 72.144C116.688 72.144 116.384 70.96 115.424 70.96C114.368 70.96 114.096 72.016 113.952 72.304C113.904 72.416 113.888 72.592 114.016 72.656L114.304 72.8ZM120.94 78.288C120.94 80.4 122.604 82.176 124.652 82.176C126.7 82.176 128.364 80.4 128.364 78.288C128.364 76.208 126.7 74.448 124.652 74.448C122.604 74.448 120.94 76.208 120.94 78.288ZM122.108 78.288C122.108 76.784 123.196 75.52 124.652 75.52C126.108 75.52 127.18 76.784 127.18 78.288C127.18 79.824 126.108 81.104 124.652 81.104C123.196 81.104 122.108 79.824 122.108 78.288ZM133.752 78.288C133.752 80.4 135.192 82.176 137.064 82.176C138.456 82.176 139.4 81.216 139.4 81.216L139.496 81.696C139.56 81.872 139.656 82 139.816 82H140.104C140.296 82 140.472 81.84 140.472 81.648V71.152C140.472 70.976 140.296 70.8 140.104 70.8H139.656C139.464 70.8 139.304 70.976 139.304 71.152V74.912C139.304 74.912 138.472 74.448 137.256 74.448C135.032 74.448 133.752 76.128 133.752 78.288ZM134.952 78.304C134.952 76.832 135.832 75.52 137.416 75.52C138.44 75.52 139.304 75.936 139.304 75.936V79.92C139.304 79.92 138.536 81.104 137.208 81.104C135.864 81.104 134.952 79.744 134.952 78.304ZM142.502 78.304C142.502 80.416 143.846 82.176 146.086 82.176C147.366 82.176 148.342 81.68 148.79 81.328C149.062 81.12 148.998 81.04 148.854 80.816L148.662 80.544C148.47 80.256 148.358 80.32 148.102 80.496C147.686 80.768 147.078 81.104 146.102 81.104C144.758 81.104 143.718 79.808 143.686 78.576H149.062C149.222 78.576 149.382 78.448 149.398 78.256C149.414 78.128 149.43 77.936 149.43 77.808C149.43 75.872 148.022 74.448 146.086 74.448C143.846 74.448 142.502 76.224 142.502 78.304ZM143.702 77.632C143.846 76.48 144.838 75.52 146.086 75.52C147.35 75.52 148.214 76.544 148.246 77.632H143.702ZM56.0513 105.696C56.0513 105.856 56.1793 106 56.3553 106H56.9793C57.1393 106 57.2833 105.856 57.2833 105.696V101.616H60.3393L62.4193 105.76C62.4993 105.92 62.5793 106 62.7713 106H63.5393C63.8113 106 63.9233 105.744 63.8113 105.536L61.6193 101.472C63.0113 100.912 63.9873 99.68 63.9873 98.208C63.9873 96.304 62.4193 94.8 60.4993 94.8H56.3553C56.1793 94.8 56.0513 94.944 56.0513 95.104V105.696ZM57.3153 100.56V95.968H60.4193C61.6513 95.968 62.7233 97.008 62.7233 98.224C62.7233 99.536 61.6513 100.56 60.4193 100.56H57.3153ZM65.2993 102.304C65.2993 104.416 66.6433 106.176 68.8833 106.176C70.1633 106.176 71.1393 105.68 71.5873 105.328C71.8593 105.12 71.7953 105.04 71.6513 104.816L71.4593 104.544C71.2673 104.256 71.1553 104.32 70.8993 104.496C70.4833 104.768 69.8753 105.104 68.8993 105.104C67.5553 105.104 66.5153 103.808 66.4833 102.576H71.8593C72.0193 102.576 72.1793 102.448 72.1953 102.256C72.2113 102.128 72.2273 101.936 72.2273 101.808C72.2273 99.872 70.8193 98.448 68.8833 98.448C66.6433 98.448 65.2993 100.224 65.2993 102.304ZM66.4993 101.632C66.6433 100.48 67.6353 99.52 68.8833 99.52C70.1473 99.52 71.0113 100.544 71.0433 101.632H66.4993ZM76.2335 106.176C77.7375 106.176 78.7455 105.232 78.7455 104.064C78.7455 102.72 77.6415 102.24 76.3615 101.648C75.4655 101.232 74.9535 100.992 74.9535 100.336C74.9535 99.984 75.2255 99.52 76.0415 99.52C76.7295 99.52 77.2415 99.76 77.5615 99.952C77.7215 100.048 77.9615 100.032 78.0735 99.824L78.2335 99.52C78.3455 99.312 78.3135 99.152 78.1535 99.024C77.8015 98.768 77.0015 98.448 76.0415 98.448C74.3295 98.448 73.7535 99.616 73.7535 100.384C73.7535 101.648 74.8735 102.176 75.8495 102.656C76.9215 103.184 77.4975 103.472 77.4975 104.176C77.4975 104.752 76.9855 105.104 76.2335 105.104C75.2895 105.104 74.6495 104.64 74.3935 104.448C74.1855 104.304 74.0575 104.368 73.9615 104.544L73.7375 104.96C73.6735 105.088 73.7055 105.2 73.7855 105.28C74.1695 105.632 75.0015 106.176 76.2335 106.176ZM80.5895 102.944C80.5895 104.896 81.1015 106.176 83.2295 106.176C84.5575 106.176 85.2455 105.504 85.5175 105.216L85.6615 105.68C85.7095 105.872 85.7895 106 85.9975 106H86.2535C86.4295 106 86.5895 105.84 86.5895 105.648V98.96C86.5895 98.784 86.4295 98.608 86.2535 98.608H85.7575C85.5655 98.608 85.4215 98.784 85.4215 98.96V104.032C85.0855 104.416 84.4295 105.104 83.3255 105.104C82.2535 105.104 81.7735 104.432 81.7735 102.96V98.96C81.7735 98.784 81.6135 98.608 81.4215 98.608H80.9415C80.7335 98.608 80.5895 98.784 80.5895 98.96V102.944ZM89.1714 105.648C89.1714 105.84 89.3314 106 89.5234 106H90.0034C90.1794 106 90.3554 105.84 90.3554 105.648V95.152C90.3554 94.976 90.1794 94.8 90.0034 94.8H89.5234C89.3314 94.8 89.1714 94.976 89.1714 95.152V105.648ZM93.4152 99.632V104.128C93.4152 105.28 93.7032 106.176 95.1112 106.176C96.1032 106.176 96.8712 105.808 97.1912 105.584C97.3832 105.456 97.4152 105.344 97.3192 105.104L97.1752 104.768C97.0952 104.592 96.9992 104.448 96.7112 104.624C96.4072 104.816 95.9432 105.104 95.2552 105.104C94.8392 105.104 94.5992 104.816 94.5992 104.048V99.632H96.7752C96.9832 99.632 97.1432 99.472 97.1432 99.28V98.96C97.1432 98.752 96.9832 98.608 96.7752 98.608H94.5992V96.528C94.5992 96.336 94.4552 96.16 94.2632 96.176L93.7672 96.208C93.5912 96.224 93.4152 96.368 93.4152 96.56V98.608H92.4392C92.2152 98.608 92.0712 98.752 92.0712 98.96V99.28C92.0712 99.472 92.2152 99.632 92.4392 99.632H93.4152ZM98.4217 103.76C98.4217 105.248 99.4137 106.176 100.71 106.176C101.846 106.176 102.614 105.616 102.998 105.232L103.142 105.728C103.19 105.888 103.254 106 103.446 106H103.75C103.942 106 104.102 105.84 104.102 105.648V101.552C104.102 99.376 103.702 98.448 101.814 98.448C100.598 98.448 99.6377 98.768 99.2697 98.928C99.0937 99.008 98.9817 99.104 99.0457 99.328L99.2057 99.76C99.2697 99.936 99.3657 100.032 99.5577 99.952C99.8937 99.84 100.742 99.52 101.75 99.52C102.806 99.52 102.982 100.192 102.966 101.552C102.966 101.552 102.166 101.312 101.382 101.312C99.4777 101.312 98.4217 102.352 98.4217 103.76ZM99.5897 103.76C99.5897 102.816 100.358 102.32 101.382 102.32C102.118 102.32 102.71 102.48 102.95 102.608V104.112C102.63 104.592 101.83 105.104 100.918 105.104C100.102 105.104 99.5897 104.512 99.5897 103.76ZM106.065 102.288C106.065 104.4 107.505 106.176 109.377 106.176C110.769 106.176 111.713 105.216 111.713 105.216L111.809 105.696C111.873 105.872 111.969 106 112.129 106H112.417C112.609 106 112.785 105.84 112.785 105.648V95.152C112.785 94.976 112.609 94.8 112.417 94.8H111.969C111.777 94.8 111.617 94.976 111.617 95.152V98.912C111.617 98.912 110.785 98.448 109.569 98.448C107.345 98.448 106.065 100.128 106.065 102.288ZM107.265 102.304C107.265 100.832 108.145 99.52 109.729 99.52C110.753 99.52 111.617 99.936 111.617 99.936V103.92C111.617 103.92 110.849 105.104 109.521 105.104C108.177 105.104 107.265 103.744 107.265 102.304ZM114.799 102.288C114.799 104.4 116.463 106.176 118.511 106.176C120.559 106.176 122.223 104.4 122.223 102.288C122.223 100.208 120.559 98.448 118.511 98.448C116.463 98.448 114.799 100.208 114.799 102.288ZM115.967 102.288C115.967 100.784 117.055 99.52 118.511 99.52C119.967 99.52 121.039 100.784 121.039 102.288C121.039 103.824 119.967 105.104 118.511 105.104C117.055 105.104 115.967 103.824 115.967 102.288ZM126.296 106.176C127.8 106.176 128.808 105.232 128.808 104.064C128.808 102.72 127.704 102.24 126.424 101.648C125.528 101.232 125.016 100.992 125.016 100.336C125.016 99.984 125.288 99.52 126.104 99.52C126.792 99.52 127.304 99.76 127.624 99.952C127.784 100.048 128.024 100.032 128.136 99.824L128.296 99.52C128.408 99.312 128.376 99.152 128.216 99.024C127.864 98.768 127.064 98.448 126.104 98.448C124.392 98.448 123.816 99.616 123.816 100.384C123.816 101.648 124.936 102.176 125.912 102.656C126.984 103.184 127.56 103.472 127.56 104.176C127.56 104.752 127.048 105.104 126.296 105.104C125.352 105.104 124.712 104.64 124.456 104.448C124.248 104.304 124.12 104.368 124.024 104.544L123.8 104.96C123.736 105.088 123.768 105.2 123.848 105.28C124.232 105.632 125.064 106.176 126.296 106.176Z" fill="#4D4D4D"/>
<defs>
<clipPath id="clip0_3100_21842">
<rect width="48" height="53.3333" fill="white" transform="translate(68 5.33337)"/>
</clipPath>
</defs>
</svg>
