<svg width="184" height="88" viewBox="0 0 184 88" fill="none" xmlns="http://www.w3.org/2000/svg">
<g clip-path="url(#clip0_3100_21839)">
<path d="M106.498 31.68C106.912 31.68 107.248 31.3442 107.248 30.93C107.248 30.5158 106.912 30.18 106.498 30.18H105.645V22.9139C105.645 22.0583 104.949 21.3623 104.093 21.3623H100.887C100.031 21.3623 99.335 22.0583 99.335 22.9139V30.18H97.6286V26.9219C97.6286 26.0663 96.9326 25.3703 96.077 25.3703H92.8706C92.015 25.3703 91.319 26.0663 91.319 26.9219V30.18H89.6125V22.1123C89.6125 21.6981 89.2767 21.3623 88.8625 21.3623C88.4483 21.3623 88.1125 21.6981 88.1125 22.1123V30.18H84.8028V17.3026C84.8028 17.2741 84.8259 17.251 84.8544 17.251H88.0608C88.0893 17.251 88.1124 17.2741 88.1124 17.3026V18.9059C88.1124 19.3201 88.4482 19.6559 88.8624 19.6559C89.2766 19.6559 89.6124 19.3201 89.6124 18.9059V17.3026C89.6124 16.447 88.9164 15.751 88.0608 15.751H84.8544C83.9988 15.751 83.3028 16.447 83.3028 17.3026V30.18H81.5964V23.7155C81.5964 22.8599 80.9004 22.1639 80.0448 22.1639H76.8384C75.9828 22.1639 75.2868 22.8599 75.2868 23.7155V30.18H74.4336C74.0194 30.18 73.6836 30.5158 73.6836 30.93C73.6836 31.3442 74.0194 31.68 74.4336 31.68H106.498ZM100.835 22.9139C100.835 22.8854 100.858 22.8623 100.886 22.8623H104.093C104.121 22.8623 104.144 22.8854 104.144 22.9139V30.18H100.835V22.9139H100.835ZM92.8188 26.9219C92.8188 26.8934 92.8419 26.8703 92.8704 26.8703H96.0768C96.1053 26.8703 96.1284 26.8934 96.1284 26.9219V30.18H92.8187V26.9219H92.8188ZM76.7866 23.7155C76.7866 23.687 76.8097 23.6639 76.8382 23.6639H80.0446C80.0731 23.6639 80.0962 23.687 80.0962 23.7155V30.18H76.7865V23.7155H76.7866Z" fill="#00ADBB"/>
<path d="M101.688 52.6252H72.0282C71.9997 52.6252 71.9766 52.6021 71.9766 52.5736V7.68319C71.9766 7.65469 71.9997 7.63159 72.0282 7.63159H99.8903C99.9736 7.63159 100.055 7.63969 100.136 7.65169V14.8978C100.136 15.7534 100.832 16.4494 101.688 16.4494H108.934C108.946 16.5302 108.954 16.612 108.954 16.6952V46.9623C108.954 47.3765 109.29 47.7123 109.704 47.7123C110.118 47.7123 110.454 47.3765 110.454 46.9623V16.6951C110.454 15.8524 110.126 15.0602 109.53 14.4643L102.121 7.05559C101.525 6.45969 100.733 6.13159 99.8903 6.13159H72.0282C71.1726 6.13159 70.4766 6.82759 70.4766 7.68319V52.5735C70.4766 53.4291 71.1726 54.1251 72.0282 54.1251H101.688C102.102 54.1251 102.438 53.7893 102.438 53.3751C102.438 52.9609 102.102 52.6252 101.688 52.6252ZM107.894 14.9493H101.688C101.659 14.9493 101.636 14.9262 101.636 14.8977V8.69199L107.894 14.9493Z" fill="#00ADBB"/>
<path d="M112.17 53.3146L106.559 47.7037C106.115 47.2589 105.524 47.014 104.895 47.014C104.525 47.014 104.169 47.0993 103.848 47.2593L102.443 45.8549C103.442 44.6235 104.042 43.0564 104.042 41.3511C104.042 37.4014 100.828 34.1882 96.8787 34.1882C92.929 34.1882 89.7158 37.4015 89.7158 41.3511C89.7158 45.3007 92.9291 48.514 96.8787 48.514C98.5839 48.514 100.151 47.9141 101.383 46.9155L102.787 48.32C102.627 48.6414 102.542 48.9977 102.542 49.3672C102.542 49.9959 102.787 50.5868 103.231 51.031L108.842 56.642C109.286 57.0867 109.877 57.3317 110.506 57.3317C111.135 57.3317 111.726 57.0868 112.17 56.6425C112.615 56.1981 112.859 55.6071 112.859 54.9784C112.859 54.3497 112.614 53.7588 112.17 53.3146V53.3146ZM91.2157 41.3511C91.2157 38.2286 93.7561 35.6882 96.8786 35.6882C100.001 35.6882 102.542 38.2286 102.542 41.3511C102.542 44.4736 100.001 47.014 96.8786 47.014C93.756 47.014 91.2157 44.4736 91.2157 41.3511ZM104.042 49.3672C104.042 49.1393 104.13 48.9252 104.292 48.7636C104.453 48.6026 104.667 48.5139 104.895 48.5139C105.123 48.5139 105.337 48.6026 105.498 48.7639L106.22 49.4861L105.014 50.6925L104.291 49.9701C104.13 49.8092 104.042 49.595 104.042 49.3672V49.3672ZM111.109 55.582C110.948 55.743 110.734 55.8317 110.506 55.8317C110.278 55.8317 110.064 55.743 109.903 55.5817L106.074 51.7532L107.281 50.5468L111.109 54.3754C111.271 54.5364 111.359 54.7506 111.359 54.9784C111.359 55.2062 111.271 55.4205 111.109 55.582V55.582Z" fill="#00ADBB"/>
<path d="M76.8379 35.688H78.4411C78.8553 35.688 79.1911 35.3522 79.1911 34.938C79.1911 34.5238 78.8553 34.188 78.4411 34.188H76.8379C76.4237 34.188 76.0879 34.5238 76.0879 34.938C76.0879 35.3522 76.4237 35.688 76.8379 35.688V35.688Z" fill="#00ADBB"/>
<path d="M76.8379 38.8947H78.4411C78.8553 38.8947 79.1911 38.5589 79.1911 38.1447C79.1911 37.7305 78.8553 37.3947 78.4411 37.3947H76.8379C76.4237 37.3947 76.0879 37.7305 76.0879 38.1447C76.0879 38.5589 76.4237 38.8947 76.8379 38.8947V38.8947Z" fill="#00ADBB"/>
<path d="M89.612 34.938C89.612 34.5238 89.2762 34.188 88.862 34.188H81.6475C81.2333 34.188 80.8975 34.5238 80.8975 34.938C80.8975 35.3522 81.2333 35.688 81.6475 35.688H88.862C89.2762 35.688 89.612 35.3523 89.612 34.938V34.938Z" fill="#00ADBB"/>
<path d="M88.0088 38.1447C88.0088 37.7305 87.673 37.3947 87.2588 37.3947H81.6475C81.2333 37.3947 80.8975 37.7305 80.8975 38.1447C80.8975 38.5589 81.2333 38.8947 81.6475 38.8947H87.2588C87.673 38.8947 88.0088 38.5589 88.0088 38.1447Z" fill="#00ADBB"/>
<path d="M76.8379 45.3073H84.0524C84.4666 45.3073 84.8024 44.9715 84.8024 44.5573C84.8024 44.1431 84.4666 43.8073 84.0524 43.8073H76.8379C76.4237 43.8073 76.0879 44.1431 76.0879 44.5573C76.0879 44.9715 76.4237 45.3073 76.8379 45.3073V45.3073Z" fill="#00ADBB"/>
<path d="M76.8379 42.1008H78.4411C78.8553 42.1008 79.1911 41.765 79.1911 41.3508C79.1911 40.9366 78.8553 40.6008 78.4411 40.6008H76.8379C76.4237 40.6008 76.0879 40.9366 76.0879 41.3508C76.0879 41.765 76.4237 42.1008 76.8379 42.1008V42.1008Z" fill="#00ADBB"/>
<path d="M87.2072 41.3508C87.2072 40.9366 86.8714 40.6008 86.4572 40.6008H81.6475C81.2333 40.6008 80.8975 40.9366 80.8975 41.3508C80.8975 41.765 81.2333 42.1008 81.6475 42.1008H86.4572C86.8714 42.1008 87.2072 41.765 87.2072 41.3508Z" fill="#00ADBB"/>
<path d="M87.2585 14.0444C87.6727 14.0444 88.0085 13.7086 88.0085 13.2944C88.0085 12.8802 87.6727 12.5444 87.2585 12.5444H85.6553C85.2411 12.5444 84.9053 12.8802 84.9053 13.2944C84.9053 13.7086 85.2411 14.0444 85.6553 14.0444H87.2585Z" fill="#00ADBB"/>
<path d="M95.2751 23.6639C95.6893 23.6639 96.0251 23.3281 96.0251 22.9139C96.0251 22.4997 95.6893 22.1639 95.2751 22.1639H93.6719C93.2577 22.1639 92.9219 22.4997 92.9219 22.9139C92.9219 23.3281 93.2577 23.6639 93.6719 23.6639H95.2751Z" fill="#00ADBB"/>
<path d="M79.2428 20.4573C79.657 20.4573 79.9928 20.1215 79.9928 19.7073C79.9928 19.2931 79.657 18.9573 79.2428 18.9573H77.6396C77.2254 18.9573 76.8896 19.2931 76.8896 19.7073C76.8896 20.1215 77.2254 20.4573 77.6396 20.4573H79.2428Z" fill="#00ADBB"/>
<path d="M103.291 19.6559C103.705 19.6559 104.041 19.3201 104.041 18.9059C104.041 18.4917 103.705 18.1559 103.291 18.1559H101.688C101.273 18.1559 100.938 18.4917 100.938 18.9059C100.938 19.3201 101.273 19.6559 101.688 19.6559H103.291Z" fill="#00ADBB"/>
</g>
<path d="M81.7339 81.696C81.7339 81.856 81.8779 82 82.0379 82H82.6779C82.8379 82 82.9819 81.856 82.9819 81.696V71.104C82.9819 70.944 82.8379 70.8 82.6779 70.8H82.0379C81.8779 70.8 81.7339 70.944 81.7339 71.104V81.696ZM88.0144 81.696C88.0144 81.856 88.1584 82 88.3184 82H88.9264C89.0864 82 89.2304 81.856 89.2304 81.696V71.872H92.0144C92.1904 71.872 92.3184 71.728 92.3184 71.568V71.104C92.3184 70.944 92.1904 70.8 92.0144 70.8H85.2304C85.0544 70.8 84.9264 70.944 84.9264 71.104V71.568C84.9264 71.728 85.0544 71.872 85.2304 71.872H88.0144V81.696ZM94.2652 81.696C94.2652 81.856 94.3932 82 94.5692 82H95.1932C95.3532 82 95.4972 81.856 95.4972 81.696V77.616H98.5532L100.633 81.76C100.713 81.92 100.793 82 100.985 82H101.753C102.025 82 102.137 81.744 102.025 81.536L99.8332 77.472C101.225 76.912 102.201 75.68 102.201 74.208C102.201 72.304 100.633 70.8 98.7132 70.8H94.5692C94.3932 70.8 94.2652 70.944 94.2652 71.104V81.696ZM95.5292 76.56V71.968H98.6332C99.8652 71.968 100.937 73.008 100.937 74.224C100.937 75.536 99.8652 76.56 98.6332 76.56H95.5292Z" fill="#4D4D4D"/>
<defs>
<clipPath id="clip0_3100_21839">
<rect width="51.2" height="51.2" fill="white" transform="translate(66.0674 6.13159)"/>
</clipPath>
</defs>
</svg>
