<svg width="291" height="42" viewBox="0 0 291 42" fill="none" xmlns="http://www.w3.org/2000/svg">
<path d="M25.5732 24.4316C25.5732 25.5918 25.1543 26.5059 24.3164 27.1738C23.4844 27.8418 22.3242 28.1758 20.8359 28.1758C19.4648 28.1758 18.252 27.918 17.1973 27.4023V24.8711C18.0645 25.2578 18.7969 25.5303 19.3945 25.6885C19.998 25.8467 20.5488 25.9258 21.0469 25.9258C21.6445 25.9258 22.1016 25.8115 22.418 25.583C22.7402 25.3545 22.9014 25.0146 22.9014 24.5635C22.9014 24.3115 22.8311 24.0889 22.6904 23.8955C22.5498 23.6963 22.3418 23.5059 22.0664 23.3242C21.7969 23.1426 21.2432 22.8525 20.4053 22.4541C19.6201 22.085 19.0312 21.7305 18.6387 21.3906C18.2461 21.0508 17.9326 20.6553 17.6982 20.2041C17.4639 19.7529 17.3467 19.2256 17.3467 18.6221C17.3467 17.4854 17.7305 16.5918 18.498 15.9414C19.2715 15.291 20.3379 14.9658 21.6973 14.9658C22.3652 14.9658 23.001 15.0449 23.6045 15.2031C24.2139 15.3613 24.8496 15.584 25.5117 15.8711L24.6328 17.9893C23.9473 17.708 23.3789 17.5117 22.9277 17.4004C22.4824 17.2891 22.043 17.2334 21.6094 17.2334C21.0938 17.2334 20.6982 17.3535 20.4229 17.5938C20.1475 17.834 20.0098 18.1475 20.0098 18.5342C20.0098 18.7744 20.0654 18.9854 20.1768 19.167C20.2881 19.3428 20.4639 19.5156 20.7041 19.6855C20.9502 19.8496 21.5273 20.1484 22.4355 20.582C23.6367 21.1562 24.46 21.7334 24.9053 22.3135C25.3506 22.8877 25.5732 23.5938 25.5732 24.4316ZM33.9316 28L33.4131 26.6641H33.3428C32.8916 27.2324 32.4258 27.6279 31.9453 27.8506C31.4707 28.0674 30.8496 28.1758 30.082 28.1758C29.1387 28.1758 28.3945 27.9062 27.8496 27.3672C27.3105 26.8281 27.041 26.0605 27.041 25.0645C27.041 24.0215 27.4043 23.2539 28.1309 22.7617C28.8633 22.2637 29.9648 21.9883 31.4355 21.9355L33.1406 21.8828V21.4521C33.1406 20.4561 32.6309 19.958 31.6113 19.958C30.8262 19.958 29.9033 20.1953 28.8428 20.6699L27.9551 18.8594C29.0859 18.2676 30.3398 17.9717 31.7168 17.9717C33.0352 17.9717 34.0459 18.2588 34.749 18.833C35.4521 19.4072 35.8037 20.2803 35.8037 21.4521V28H33.9316ZM33.1406 23.4473L32.1035 23.4824C31.3242 23.5059 30.7441 23.6465 30.3633 23.9043C29.9824 24.1621 29.792 24.5547 29.792 25.082C29.792 25.8379 30.2256 26.2158 31.0928 26.2158C31.7139 26.2158 32.209 26.0371 32.5781 25.6797C32.9531 25.3223 33.1406 24.8477 33.1406 24.2559V23.4473ZM38.458 15.6338C38.458 14.7607 38.9443 14.3242 39.917 14.3242C40.8896 14.3242 41.376 14.7607 41.376 15.6338C41.376 16.0498 41.2529 16.375 41.0068 16.6094C40.7666 16.8379 40.4033 16.9521 39.917 16.9521C38.9443 16.9521 38.458 16.5127 38.458 15.6338ZM41.2529 28H38.5723V18.1738H41.2529V28ZM49.541 17.9893C50.7012 17.9893 51.6094 18.4434 52.2656 19.3516C52.9219 20.2539 53.25 21.4932 53.25 23.0693C53.25 24.6924 52.9102 25.9492 52.2305 26.8398C51.5566 27.7305 50.6367 28.1758 49.4707 28.1758C48.3164 28.1758 47.4111 27.7568 46.7549 26.9189H46.5703L46.1221 28H44.0742V14.3242H46.7549V17.5059C46.7549 17.9102 46.7197 18.5576 46.6494 19.4482H46.7549C47.3818 18.4756 48.3105 17.9893 49.541 17.9893ZM48.6797 20.1338C48.0176 20.1338 47.5342 20.3389 47.2295 20.749C46.9248 21.1533 46.7666 21.8242 46.7549 22.7617V23.0518C46.7549 24.1064 46.9102 24.8623 47.2207 25.3193C47.5371 25.7764 48.0352 26.0049 48.7148 26.0049C49.2656 26.0049 49.7021 25.7529 50.0244 25.249C50.3525 24.7393 50.5166 24.001 50.5166 23.0342C50.5166 22.0674 50.3525 21.3438 50.0244 20.8633C49.6963 20.377 49.248 20.1338 48.6797 20.1338ZM61.7051 28L61.1865 26.6641H61.1162C60.665 27.2324 60.1992 27.6279 59.7188 27.8506C59.2441 28.0674 58.623 28.1758 57.8555 28.1758C56.9121 28.1758 56.168 27.9062 55.623 27.3672C55.084 26.8281 54.8145 26.0605 54.8145 25.0645C54.8145 24.0215 55.1777 23.2539 55.9043 22.7617C56.6367 22.2637 57.7383 21.9883 59.209 21.9355L60.9141 21.8828V21.4521C60.9141 20.4561 60.4043 19.958 59.3848 19.958C58.5996 19.958 57.6768 20.1953 56.6162 20.6699L55.7285 18.8594C56.8594 18.2676 58.1133 17.9717 59.4902 17.9717C60.8086 17.9717 61.8193 18.2588 62.5225 18.833C63.2256 19.4072 63.5771 20.2803 63.5771 21.4521V28H61.7051ZM60.9141 23.4473L59.877 23.4824C59.0977 23.5059 58.5176 23.6465 58.1367 23.9043C57.7559 24.1621 57.5654 24.5547 57.5654 25.082C57.5654 25.8379 57.999 26.2158 58.8662 26.2158C59.4873 26.2158 59.9824 26.0371 60.3516 25.6797C60.7266 25.3223 60.9141 24.8477 60.9141 24.2559V23.4473ZM79.8193 28H77.1387V22.2607C77.1387 21.5518 77.0186 21.0215 76.7783 20.6699C76.5439 20.3125 76.1719 20.1338 75.6621 20.1338C74.9766 20.1338 74.4785 20.3857 74.168 20.8896C73.8574 21.3936 73.7021 22.2227 73.7021 23.377V28H71.0215V18.1738H73.0693L73.4297 19.4307H73.5791C73.8428 18.9795 74.2236 18.6279 74.7217 18.376C75.2197 18.1182 75.791 17.9893 76.4355 17.9893C77.9062 17.9893 78.9023 18.4697 79.4238 19.4307H79.6611C79.9248 18.9736 80.3115 18.6191 80.8213 18.3672C81.3369 18.1152 81.917 17.9893 82.5615 17.9893C83.6748 17.9893 84.5156 18.2764 85.084 18.8506C85.6582 19.4189 85.9453 20.333 85.9453 21.5928V28H83.2559V22.2607C83.2559 21.5518 83.1357 21.0215 82.8955 20.6699C82.6611 20.3125 82.2891 20.1338 81.7793 20.1338C81.123 20.1338 80.6309 20.3682 80.3027 20.8369C79.9805 21.3057 79.8193 22.0498 79.8193 23.0693V28ZM94.9453 28L94.4268 26.6641H94.3564C93.9053 27.2324 93.4395 27.6279 92.959 27.8506C92.4844 28.0674 91.8633 28.1758 91.0957 28.1758C90.1523 28.1758 89.4082 27.9062 88.8633 27.3672C88.3242 26.8281 88.0547 26.0605 88.0547 25.0645C88.0547 24.0215 88.418 23.2539 89.1445 22.7617C89.877 22.2637 90.9785 21.9883 92.4492 21.9355L94.1543 21.8828V21.4521C94.1543 20.4561 93.6445 19.958 92.625 19.958C91.8398 19.958 90.917 20.1953 89.8564 20.6699L88.9688 18.8594C90.0996 18.2676 91.3535 17.9717 92.7305 17.9717C94.0488 17.9717 95.0596 18.2588 95.7627 18.833C96.4658 19.4072 96.8174 20.2803 96.8174 21.4521V28H94.9453ZM94.1543 23.4473L93.1172 23.4824C92.3379 23.5059 91.7578 23.6465 91.377 23.9043C90.9961 24.1621 90.8057 24.5547 90.8057 25.082C90.8057 25.8379 91.2393 26.2158 92.1064 26.2158C92.7275 26.2158 93.2227 26.0371 93.5918 25.6797C93.9668 25.3223 94.1543 24.8477 94.1543 24.2559V23.4473ZM99.4717 15.6338C99.4717 14.7607 99.958 14.3242 100.931 14.3242C101.903 14.3242 102.39 14.7607 102.39 15.6338C102.39 16.0498 102.267 16.375 102.021 16.6094C101.78 16.8379 101.417 16.9521 100.931 16.9521C99.958 16.9521 99.4717 16.5127 99.4717 15.6338ZM102.267 28H99.5859V18.1738H102.267V28ZM111.943 25.082C111.943 26.0898 111.592 26.8574 110.889 27.3848C110.191 27.9121 109.146 28.1758 107.751 28.1758C107.036 28.1758 106.427 28.126 105.923 28.0264C105.419 27.9326 104.947 27.792 104.508 27.6045V25.3896C105.006 25.624 105.565 25.8203 106.187 25.9785C106.813 26.1367 107.364 26.2158 107.839 26.2158C108.812 26.2158 109.298 25.9346 109.298 25.3721C109.298 25.1611 109.233 24.9912 109.104 24.8623C108.976 24.7275 108.753 24.5781 108.437 24.4141C108.12 24.2441 107.698 24.0479 107.171 23.8252C106.415 23.5088 105.858 23.2158 105.501 22.9463C105.149 22.6768 104.892 22.3691 104.728 22.0234C104.569 21.6719 104.49 21.2412 104.49 20.7314C104.49 19.8584 104.827 19.1846 105.501 18.71C106.181 18.2295 107.142 17.9893 108.384 17.9893C109.567 17.9893 110.719 18.2471 111.838 18.7627L111.029 20.6963C110.537 20.4854 110.077 20.3125 109.649 20.1777C109.222 20.043 108.785 19.9756 108.34 19.9756C107.549 19.9756 107.153 20.1895 107.153 20.6172C107.153 20.8574 107.279 21.0654 107.531 21.2412C107.789 21.417 108.349 21.6777 109.21 22.0234C109.978 22.334 110.54 22.624 110.897 22.8936C111.255 23.1631 111.519 23.4736 111.688 23.8252C111.858 24.1768 111.943 24.5957 111.943 25.082Z" fill="white"/>
<rect x="0.5" y="0.5" width="128" height="41" rx="1.5" stroke="white"/>
<path d="M233 20.9999C233 20.6415 233.144 20.2831 233.432 20.0098L242.483 11.4103C243.059 10.8632 243.993 10.8632 244.568 11.4103C245.144 11.9571 245.144 12.8439 244.568 13.391L236.559 20.9999L244.568 28.609C245.144 29.156 245.144 30.0427 244.568 30.5895C243.992 31.1368 243.059 31.1368 242.483 30.5895L233.431 21.99C233.144 21.7166 233 21.3582 233 20.9999Z" fill="#00ADBB"/>
<path d="M285 21.0001C285 21.3585 284.856 21.7169 284.568 21.9902L275.517 30.5898C274.941 31.1368 274.007 31.1368 273.432 30.5898C272.856 30.043 272.856 29.1562 273.432 28.6091L281.441 21.0001L273.432 13.391C272.856 12.844 272.856 11.9573 273.432 11.4105C274.008 10.8632 274.941 10.8632 275.517 11.4105L284.569 20.01C284.856 20.2834 285 20.6418 285 21.0001Z" fill="#00ADBB"/>
</svg>
