<svg width="1440" height="137" viewBox="0 0 1440 137" fill="none" xmlns="http://www.w3.org/2000/svg">
<rect width="1440" height="137" fill="white"/>
<rect x="186" y="32" width="1068" height="1" fill="#E6E6E6"/>
<path d="M186.832 61.416C186.832 64.616 189.408 67.16 192.608 67.16C194.032 67.16 195.36 66.568 196.416 65.608C196.528 65.496 196.56 65.272 196.432 65.176L196.064 64.808C195.936 64.68 195.808 64.664 195.648 64.792C194.8 65.512 193.984 65.992 192.592 65.992C190.064 65.992 188.128 63.864 188.128 61.4C188.128 58.92 190.064 56.792 192.592 56.792C193.76 56.792 194.816 57.272 195.648 57.992C195.808 58.152 195.936 58.168 196.064 58.008L196.496 57.576C196.624 57.448 196.608 57.256 196.48 57.128C195.392 56.2 194.224 55.64 192.608 55.64C189.408 55.64 186.832 58.216 186.832 61.416ZM197.956 63.288C197.956 65.4 199.62 67.176 201.668 67.176C203.716 67.176 205.38 65.4 205.38 63.288C205.38 61.208 203.716 59.448 201.668 59.448C199.62 59.448 197.956 61.208 197.956 63.288ZM199.124 63.288C199.124 61.784 200.212 60.52 201.668 60.52C203.124 60.52 204.196 61.784 204.196 63.288C204.196 64.824 203.124 66.104 201.668 66.104C200.212 66.104 199.124 64.824 199.124 63.288ZM207.389 66.648C207.389 66.84 207.549 67 207.741 67H208.221C208.397 67 208.573 66.84 208.573 66.648V61.544C208.573 61.544 209.245 60.52 210.557 60.52C211.757 60.52 212.221 61.336 212.221 62.744V66.648C212.221 66.84 212.397 67 212.573 67H213.053C213.245 67 213.405 66.84 213.405 66.648V62.744C213.405 62.36 213.373 61.848 213.309 61.528C213.581 61.304 214.253 60.52 215.453 60.52C216.573 60.52 217.021 61.368 217.021 62.744V66.648C217.021 66.84 217.181 67 217.373 67H217.853C218.045 67 218.205 66.84 218.205 66.648V62.744C218.205 60.84 217.693 59.448 215.549 59.448C214.061 59.448 213.005 60.552 212.909 60.616C212.429 59.848 211.837 59.448 210.733 59.448C209.213 59.448 208.445 60.392 208.445 60.392L208.285 59.832C208.253 59.672 208.157 59.608 207.997 59.608H207.741C207.549 59.608 207.389 59.784 207.389 59.96V66.648ZM221.791 66.568C221.791 66.568 222.607 67.176 223.839 67.176C225.871 67.176 227.327 65.464 227.327 63.304C227.327 61.192 225.903 59.448 223.887 59.448C222.559 59.448 221.663 60.2 221.663 60.2L221.551 59.848C221.471 59.656 221.423 59.608 221.247 59.608H220.975C220.783 59.608 220.623 59.784 220.623 59.96V70.456C220.623 70.648 220.783 70.808 220.975 70.808H221.439C221.615 70.808 221.791 70.648 221.791 70.456V66.568ZM221.791 65.464V61.416C221.791 61.416 222.559 60.52 223.743 60.52C225.231 60.52 226.127 61.848 226.127 63.288C226.127 64.904 225.087 66.104 223.663 66.104C222.639 66.104 221.791 65.464 221.791 65.464ZM228.781 64.76C228.781 66.248 229.773 67.176 231.069 67.176C232.205 67.176 232.973 66.616 233.357 66.232L233.501 66.728C233.549 66.888 233.613 67 233.805 67H234.109C234.301 67 234.461 66.84 234.461 66.648V62.552C234.461 60.376 234.061 59.448 232.173 59.448C230.957 59.448 229.997 59.768 229.629 59.928C229.453 60.008 229.341 60.104 229.405 60.328L229.565 60.76C229.629 60.936 229.725 61.032 229.917 60.952C230.253 60.84 231.101 60.52 232.109 60.52C233.165 60.52 233.341 61.192 233.325 62.552C233.325 62.552 232.525 62.312 231.741 62.312C229.837 62.312 228.781 63.352 228.781 64.76ZM229.949 64.76C229.949 63.816 230.717 63.32 231.741 63.32C232.477 63.32 233.069 63.48 233.309 63.608V65.112C232.989 65.592 232.189 66.104 231.277 66.104C230.461 66.104 229.949 65.512 229.949 64.76ZM236.889 66.648C236.889 66.84 237.049 67 237.241 67H237.721C237.897 67 238.073 66.84 238.073 66.648V61.528C238.073 61.528 238.649 60.584 240.073 60.584C240.425 60.584 240.697 60.712 240.873 60.792C241.049 60.872 241.225 60.856 241.305 60.616L241.513 60.04C241.689 59.528 240.777 59.448 240.217 59.448C238.681 59.448 237.945 60.392 237.945 60.392L237.817 59.864C237.769 59.688 237.641 59.608 237.497 59.608H237.241C237.049 59.608 236.889 59.784 236.889 59.96V66.648ZM243.541 60.632V65.128C243.541 66.28 243.829 67.176 245.237 67.176C246.229 67.176 246.997 66.808 247.317 66.584C247.509 66.456 247.541 66.344 247.445 66.104L247.301 65.768C247.221 65.592 247.125 65.448 246.837 65.624C246.533 65.816 246.069 66.104 245.381 66.104C244.965 66.104 244.725 65.816 244.725 65.048V60.632H246.901C247.109 60.632 247.269 60.472 247.269 60.28V59.96C247.269 59.752 247.109 59.608 246.901 59.608H244.725V57.528C244.725 57.336 244.581 57.16 244.389 57.176L243.893 57.208C243.717 57.224 243.541 57.368 243.541 57.56V59.608H242.565C242.34 59.608 242.197 59.752 242.197 59.96V60.28C242.197 60.472 242.34 60.632 242.565 60.632H243.541ZM249.683 57.704C250.179 57.704 250.563 57.304 250.563 56.84C250.563 56.328 250.179 55.944 249.683 55.944C249.203 55.944 248.819 56.328 248.819 56.84C248.819 57.304 249.203 57.704 249.683 57.704ZM249.123 66.648C249.123 66.84 249.283 67 249.475 67H249.955C250.131 67 250.307 66.84 250.307 66.648V59.96C250.307 59.784 250.131 59.608 249.955 59.608H249.475C249.283 59.608 249.123 59.784 249.123 59.96V66.648ZM252.891 66.648C252.891 66.84 253.051 67 253.243 67H253.723C253.899 67 254.075 66.84 254.075 66.648V56.152C254.075 55.976 253.899 55.8 253.723 55.8H253.243C253.051 55.8 252.891 55.976 252.891 56.152V66.648ZM256.654 66.648C256.654 66.84 256.814 67 257.006 67H257.486C257.662 67 257.838 66.84 257.838 66.648V61.576C257.838 61.576 258.702 60.52 260.11 60.52C261.246 60.52 261.662 61.336 261.662 62.744V66.648C261.662 66.84 261.822 67 262.014 67H262.51C262.686 67 262.862 66.84 262.862 66.648V62.744C262.862 60.584 262.03 59.448 260.19 59.448C258.702 59.448 257.838 60.392 257.838 60.392V56.152C257.838 55.976 257.662 55.8 257.486 55.8H257.006C256.814 55.8 256.654 55.976 256.654 56.152V66.648ZM264.703 64.76C264.703 66.248 265.695 67.176 266.991 67.176C268.127 67.176 268.895 66.616 269.279 66.232L269.423 66.728C269.471 66.888 269.535 67 269.727 67H270.031C270.223 67 270.383 66.84 270.383 66.648V62.552C270.383 60.376 269.983 59.448 268.095 59.448C266.879 59.448 265.919 59.768 265.551 59.928C265.375 60.008 265.263 60.104 265.327 60.328L265.487 60.76C265.551 60.936 265.647 61.032 265.839 60.952C266.175 60.84 267.023 60.52 268.031 60.52C269.087 60.52 269.263 61.192 269.247 62.552C269.247 62.552 268.447 62.312 267.663 62.312C265.759 62.312 264.703 63.352 264.703 64.76ZM265.871 64.76C265.871 63.816 266.639 63.32 267.663 63.32C268.399 63.32 268.991 63.48 269.231 63.608V65.112C268.911 65.592 268.111 66.104 267.199 66.104C266.383 66.104 265.871 65.512 265.871 64.76ZM272.811 66.648C272.811 66.84 272.971 67 273.163 67H273.643C273.819 67 273.995 66.84 273.995 66.648V61.528C273.995 61.528 274.571 60.584 275.995 60.584C276.347 60.584 276.619 60.712 276.795 60.792C276.971 60.872 277.147 60.856 277.227 60.616L277.435 60.04C277.611 59.528 276.699 59.448 276.139 59.448C274.603 59.448 273.867 60.392 273.867 60.392L273.739 59.864C273.691 59.688 273.562 59.608 273.419 59.608H273.163C272.971 59.608 272.811 59.784 272.811 59.96V66.648ZM279.878 61.56C280.47 61.56 280.934 61.08 280.934 60.52C280.934 59.912 280.47 59.448 279.878 59.448C279.302 59.448 278.822 59.912 278.822 60.52C278.822 61.08 279.302 61.56 279.878 61.56ZM278.822 66.104C278.822 66.68 279.302 67.176 279.878 67.176C280.47 67.176 280.934 66.68 280.934 66.104C280.934 65.528 280.47 65.064 279.878 65.064C279.302 65.064 278.822 65.528 278.822 66.104Z" fill="#12284C"/>
<path d="M307.2 63.2993C306.751 63.3016 306.308 63.4047 305.904 63.6009C305.5 63.7972 305.145 64.0817 304.866 64.4333L300.48 61.6913C300.64 61.1754 300.64 60.6232 300.48 60.1073L304.866 57.3653C305.311 57.9166 305.937 58.2924 306.633 58.4264C307.329 58.5603 308.049 58.4437 308.667 58.0971C309.285 57.7506 309.761 57.1964 310.009 56.5329C310.258 55.8694 310.264 55.1394 310.025 54.472C309.787 53.8047 309.321 53.2433 308.708 52.8871C308.096 52.5309 307.377 52.403 306.679 52.5261C305.981 52.6491 305.349 53.0152 304.896 53.5594C304.442 54.1036 304.196 54.7908 304.2 55.4993C304.203 55.7676 304.243 56.0342 304.32 56.2913L299.934 59.0333C299.547 58.5459 299.018 58.191 298.42 58.0178C297.822 57.8446 297.185 57.8617 296.597 58.0667C296.009 58.2718 295.5 58.6546 295.139 59.1622C294.779 59.6697 294.585 60.2768 294.585 60.8993C294.585 61.5219 294.779 62.129 295.139 62.6365C295.5 63.1441 296.009 63.5269 296.597 63.7319C297.185 63.937 297.822 63.9541 298.42 63.7809C299.018 63.6077 299.547 63.2528 299.934 62.7653L304.32 65.5073C304.243 65.7644 304.203 66.031 304.2 66.2993C304.2 66.8927 304.376 67.4727 304.706 67.9661C305.035 68.4594 305.504 68.8439 306.052 69.071C306.6 69.298 307.203 69.3575 307.785 69.2417C308.367 69.1259 308.902 68.8402 309.321 68.4207C309.741 68.0011 310.027 67.4666 310.142 66.8846C310.258 66.3027 310.199 65.6995 309.972 65.1513C309.745 64.6031 309.36 64.1346 308.867 63.8049C308.373 63.4753 307.793 63.2993 307.2 63.2993ZM307.2 53.6993C307.556 53.6993 307.904 53.8049 308.2 54.0027C308.496 54.2005 308.727 54.4816 308.863 54.8105C308.999 55.1394 309.035 55.5013 308.965 55.8505C308.896 56.1997 308.725 56.5204 308.473 56.7721C308.221 57.0239 307.9 57.1953 307.551 57.2648C307.202 57.3342 306.84 57.2986 306.511 57.1623C306.182 57.0261 305.901 56.7954 305.703 56.4994C305.506 56.2034 305.4 55.8553 305.4 55.4993C305.4 55.022 305.59 54.5641 305.927 54.2265C306.265 53.889 306.723 53.6993 307.2 53.6993ZM297.6 62.6993C297.244 62.6993 296.896 62.5938 296.6 62.396C296.304 62.1982 296.073 61.9171 295.937 61.5882C295.801 61.2593 295.765 60.8973 295.835 60.5482C295.904 60.199 296.075 59.8783 296.327 59.6265C296.579 59.3748 296.9 59.2034 297.249 59.1339C297.598 59.0645 297.96 59.1001 298.289 59.2364C298.618 59.3726 298.899 59.6033 299.097 59.8993C299.294 60.1953 299.4 60.5433 299.4 60.8993C299.4 61.3767 299.21 61.8346 298.873 62.1721C298.535 62.5097 298.077 62.6993 297.6 62.6993ZM307.2 68.0993C306.844 68.0993 306.496 67.9938 306.2 67.796C305.904 67.5982 305.673 67.3171 305.537 66.9882C305.401 66.6593 305.365 66.2973 305.435 65.9482C305.504 65.599 305.675 65.2783 305.927 65.0265C306.179 64.7748 306.5 64.6034 306.849 64.5339C307.198 64.4645 307.56 64.5001 307.889 64.6364C308.218 64.7726 308.499 65.0033 308.697 65.2993C308.894 65.5953 309 65.9433 309 66.2993C309 66.7767 308.81 67.2346 308.473 67.5721C308.135 67.9097 307.677 68.0993 307.2 68.0993Z" fill="#00ADBB"/>
<path d="M338.601 59.6993H340.401M329.601 66.2993H326.601V56.6993H343.401V66.2993H340.401H329.601ZM329.601 62.6993V69.2993H340.401V62.6993H329.601ZM340.401 56.6993V52.4993H329.601V56.6993H340.401Z" stroke="#00ADBB" stroke-linecap="round" stroke-linejoin="round"/>
<g clip-path="url(#clip0_3100_23937)">
<path d="M375.44 54.2116L372.786 51.5578C372.619 51.3911 372.397 51.2993 372.162 51.2993H360.988C360.501 51.2993 360.105 51.6952 360.105 52.1818V60.9187H359.485C358.832 60.9187 358.302 61.4494 358.302 62.1017V67.5126C358.302 68.1649 358.832 68.6957 359.485 68.6957H368.804C369.29 68.6957 369.686 68.2998 369.686 67.8132V63.6048C369.686 63.1182 369.29 62.7223 368.804 62.7223H359.485C359.143 62.7223 358.864 62.4439 358.864 62.1018C358.864 61.7596 359.143 61.4812 359.485 61.4812H360.105V61.8013C360.105 61.9566 360.231 62.0825 360.387 62.0825C360.542 62.0825 360.668 61.9566 360.668 61.8013V52.1818C360.668 52.0053 360.811 51.8618 360.988 51.8618H371.829V54.5866C371.829 54.9075 372.09 55.1685 372.411 55.1685H375.136V69.6169C375.136 69.7933 374.992 69.9368 374.816 69.9368H360.988C360.811 69.9368 360.668 69.7933 360.668 69.6169C360.668 69.4615 360.542 69.3356 360.387 69.3356C360.231 69.3356 360.105 69.4615 360.105 69.6169C360.105 70.1035 360.501 70.4993 360.988 70.4993H374.816C375.302 70.4993 375.698 70.1034 375.698 69.6169V54.8356C375.698 54.6 375.606 54.3783 375.44 54.2116ZM359.485 63.2848H368.804C368.98 63.2848 369.123 63.4284 369.123 63.6048V67.8133C369.123 67.9897 368.98 68.1332 368.804 68.1332H359.485C359.143 68.1332 358.864 67.8548 358.864 67.5126V63.1086C359.045 63.2203 359.257 63.2848 359.485 63.2848ZM372.391 54.5866V51.9591L375.038 54.606H372.411C372.4 54.606 372.391 54.5973 372.391 54.5866Z" fill="#00ADBB"/>
<path d="M366.271 67.1839C366.427 67.1839 366.553 67.058 366.553 66.9026V65.9676H367.162C367.317 65.9676 367.443 65.8417 367.443 65.6864C367.443 65.5311 367.317 65.4051 367.162 65.4051H366.553V64.7966H367.239C367.394 64.7966 367.52 64.6707 367.52 64.5154C367.52 64.36 367.394 64.2341 367.239 64.2341H366.271C366.116 64.2341 365.99 64.36 365.99 64.5154V66.9026C365.99 67.0579 366.116 67.1839 366.271 67.1839Z" fill="#00ADBB"/>
<path d="M363.315 67.0753C363.368 67.1276 363.439 67.1569 363.514 67.1569H363.515C363.535 67.1569 364.006 67.1551 364.194 67.1518C364.889 67.1396 365.393 66.5328 365.393 65.7088C365.393 64.8427 364.902 64.2607 364.17 64.2607H363.509C363.434 64.2607 363.363 64.2904 363.31 64.3433C363.257 64.3962 363.227 64.4679 363.228 64.5425V64.5444V64.5444V66.8378C363.228 66.8571 363.229 66.876 363.233 66.8942C363.238 66.9624 363.267 67.0269 363.315 67.0753ZM364.17 64.8232C364.657 64.8232 364.831 65.2807 364.831 65.7088C364.831 66.3093 364.506 66.5838 364.184 66.5893C364.095 66.5909 363.935 66.5922 363.794 66.593C363.793 66.3171 363.791 65.1103 363.791 64.8232H364.17Z" fill="#00ADBB"/>
<path d="M360.979 67.1928C361.135 67.1928 361.261 67.067 361.261 66.9116V66.1467C361.4 66.146 361.559 66.1453 361.649 66.1453C362.186 66.1453 362.622 65.7147 362.622 65.1854C362.622 64.6561 362.186 64.2255 361.649 64.2255H360.979C360.905 64.2255 360.833 64.2552 360.78 64.3082C360.728 64.3609 360.698 64.4323 360.698 64.5067H360.698V66.9116C360.698 67.067 360.824 67.1928 360.979 67.1928ZM361.649 64.788C361.872 64.788 362.06 64.97 362.06 65.1854C362.06 65.4008 361.872 65.5828 361.649 65.5828C361.56 65.5828 361.403 65.5835 361.264 65.5842C361.263 65.4406 361.262 64.9383 361.262 64.788H361.649V64.788Z" fill="#00ADBB"/>
<path d="M366.248 59.4542C365.556 59.6723 364.847 59.9743 364.468 60.365C364.156 60.6873 364.1 61.0612 364.313 61.391C364.458 61.6147 364.657 61.7317 364.881 61.7317C364.967 61.7317 365.057 61.7144 365.149 61.6794C365.479 61.553 365.836 61.1935 366.24 60.5803C366.37 60.3823 366.502 60.1623 366.633 59.9243C366.681 59.9102 366.73 59.8963 366.78 59.8823C367.574 59.6602 368.472 59.4991 369.26 59.4317C369.74 59.8963 370.237 60.2582 370.66 60.3569C371.126 60.4656 371.495 60.2526 371.647 59.7872C371.74 59.5054 371.633 59.2396 371.363 59.0762C371.085 58.9083 370.601 58.8272 369.926 58.8349C369.783 58.8365 369.631 58.8424 369.473 58.8522C369.17 58.5395 368.854 58.1658 368.551 57.7531C368.315 57.4334 368.105 57.1135 367.927 56.8094C367.946 56.7428 367.965 56.6771 367.982 56.6125C368.174 55.8995 368.243 55.3536 368.186 54.9899C368.104 54.4648 367.765 54.3902 367.623 54.3825C367.14 54.3564 366.814 54.6002 366.752 55.0346C366.703 55.3797 366.819 55.8545 367.097 56.4458C367.163 56.5864 367.237 56.7313 367.319 56.8792C367.288 56.9765 367.256 57.0778 367.22 57.1832C366.961 57.9503 366.609 58.7676 366.248 59.4542ZM364.897 61.1677C364.877 61.1702 364.843 61.1744 364.785 61.0852C364.738 61.0125 364.736 60.9577 364.776 60.8828C364.87 60.7078 365.19 60.4621 365.811 60.2084C365.378 60.88 365.054 61.1481 364.897 61.1677ZM371.118 59.593C371.117 59.5964 371.116 59.6027 371.113 59.6121C371.043 59.8265 370.948 59.8467 370.788 59.8092C370.592 59.7635 370.343 59.6187 370.065 59.3971C370.817 59.4031 371.079 59.5386 371.118 59.593ZM367.309 55.114C367.32 55.0336 367.333 54.9432 367.547 54.9432C367.561 54.9432 367.575 54.9436 367.59 54.9443C367.654 55.0223 367.687 55.3696 367.539 56.0567C367.364 55.6564 367.279 55.3238 367.309 55.114ZM367.701 57.5142C367.824 57.7039 367.957 57.8955 368.098 58.0867C368.3 58.3609 368.528 58.6457 368.769 58.9175C368.49 58.9511 368.202 58.9946 367.914 59.0469C367.719 59.0822 367.379 59.149 366.982 59.2481C367.07 59.0653 367.157 58.8757 367.242 58.6808C367.411 58.2934 367.567 57.8971 367.701 57.5142Z" fill="#00ADBB"/>
</g>
<defs>
<clipPath id="clip0_3100_23937">
<rect width="19.2" height="19.2" fill="white" transform="translate(357.4 51.2993)"/>
</clipPath>
</defs>
</svg>
