<svg width="24" height="24" viewBox="0 0 24 24" fill="none" xmlns="http://www.w3.org/2000/svg">
<path d="M16.2 14.2993C15.7509 14.3016 15.308 14.4047 14.9041 14.6009C14.5001 14.7972 14.1454 15.0817 13.866 15.4333L9.48001 12.6913C9.63986 12.1754 9.63986 11.6232 9.48001 11.1073L13.866 8.36534C14.3112 8.91657 14.9371 9.29245 15.6328 9.42639C16.3286 9.56032 17.0493 9.44368 17.6673 9.09712C18.2853 8.75055 18.7607 8.19644 19.0093 7.53293C19.2579 6.86942 19.2636 6.13935 19.0254 5.47204C18.7872 4.80473 18.3205 4.24326 17.708 3.88708C17.0955 3.5309 16.3767 3.40301 15.6789 3.52606C14.9812 3.64911 14.3495 4.01517 13.8957 4.55937C13.442 5.10358 13.1956 5.79082 13.2 6.49934C13.2028 6.76765 13.2432 7.03424 13.32 7.29134L8.93401 10.0333C8.5468 9.54589 8.01754 9.19097 7.41958 9.01778C6.82163 8.84459 6.18461 8.8617 5.59682 9.06675C5.00903 9.2718 4.49959 9.65462 4.1391 10.1622C3.77862 10.6697 3.58496 11.2768 3.58496 11.8993C3.58496 12.5219 3.77862 13.129 4.1391 13.6365C4.49959 14.1441 5.00903 14.5269 5.59682 14.7319C6.18461 14.937 6.82163 14.9541 7.41958 14.7809C8.01754 14.6077 8.5468 14.2528 8.93401 13.7653L13.32 16.5073C13.2432 16.7644 13.2028 17.031 13.2 17.2993C13.2 17.8927 13.376 18.4727 13.7056 18.9661C14.0352 19.4594 14.5038 19.8439 15.052 20.071C15.6001 20.298 16.2033 20.3575 16.7853 20.2417C17.3672 20.1259 17.9018 19.8402 18.3213 19.4207C18.7409 19.0011 19.0266 18.4666 19.1424 17.8846C19.2581 17.3027 19.1987 16.6995 18.9717 16.1513C18.7446 15.6031 18.3601 15.1346 17.8667 14.8049C17.3734 14.4753 16.7934 14.2993 16.2 14.2993ZM16.2 4.69934C16.556 4.69934 16.904 4.80491 17.2 5.0027C17.496 5.20048 17.7268 5.4816 17.863 5.81051C17.9992 6.13942 18.0349 6.50134 17.9654 6.8505C17.896 7.19967 17.7245 7.5204 17.4728 7.77213C17.2211 8.02387 16.9003 8.1953 16.5512 8.26475C16.202 8.33421 15.8401 8.29856 15.5112 8.16232C15.1823 8.02609 14.9012 7.79538 14.7034 7.49937C14.5056 7.20336 14.4 6.85535 14.4 6.49934C14.4 6.02195 14.5897 5.56411 14.9272 5.22655C15.2648 4.88898 15.7226 4.69934 16.2 4.69934ZM6.60001 13.6993C6.24401 13.6993 5.89599 13.5938 5.59999 13.396C5.30398 13.1982 5.07327 12.9171 4.93703 12.5882C4.80079 12.2593 4.76515 11.8973 4.8346 11.5482C4.90405 11.199 5.07549 10.8783 5.32722 10.6265C5.57896 10.3748 5.89968 10.2034 6.24885 10.1339C6.59802 10.0645 6.95994 10.1001 7.28884 10.2364C7.61775 10.3726 7.89887 10.6033 8.09666 10.8993C8.29444 11.1953 8.40001 11.5433 8.40001 11.8993C8.40001 12.3767 8.21037 12.8346 7.87281 13.1721C7.53524 13.5097 7.0774 13.6993 6.60001 13.6993ZM16.2 19.0993C15.844 19.0993 15.496 18.9938 15.2 18.796C14.904 18.5982 14.6733 18.3171 14.537 17.9882C14.4008 17.6593 14.3651 17.2973 14.4346 16.9482C14.5041 16.599 14.6755 16.2783 14.9272 16.0265C15.179 15.7748 15.4997 15.6034 15.8488 15.5339C16.198 15.4645 16.5599 15.5001 16.8888 15.6364C17.2177 15.7726 17.4989 16.0033 17.6967 16.2993C17.8944 16.5953 18 16.9433 18 17.2993C18 17.7767 17.8104 18.2346 17.4728 18.5721C17.1352 18.9097 16.6774 19.0993 16.2 19.0993Z" fill="#00ADBB"/>
</svg>
