<svg width="24" height="24" viewBox="0 0 24 24" fill="none" xmlns="http://www.w3.org/2000/svg">
<g clip-path="url(#clip0_93_7774)">
<path d="M20.4396 5.21164L17.7857 2.55777C17.619 2.39112 17.3974 2.29932 17.1617 2.29932H5.9878C5.50124 2.29932 5.10536 2.6952 5.10536 3.18177V11.9187H4.48481C3.83246 11.9187 3.30176 12.4494 3.30176 13.1017V18.5126C3.30176 19.1649 3.83246 19.6957 4.48481 19.6957H13.8035C14.2901 19.6957 14.686 19.2998 14.686 18.8132V14.6048C14.686 14.1182 14.2901 13.7223 13.8035 13.7223H4.48481C4.14262 13.7223 3.86426 13.4439 3.86426 13.1018C3.86426 12.7596 4.14262 12.4812 4.48481 12.4812H5.10536V12.8013C5.10536 12.9566 5.23128 13.0825 5.38661 13.0825C5.54193 13.0825 5.66785 12.9566 5.66785 12.8013V3.18177C5.66785 3.00533 5.8114 2.86182 5.9878 2.86182H16.8289V5.5866C16.8289 5.90745 17.0899 6.16849 17.4108 6.16849H20.1356V20.6169C20.1356 20.7933 19.992 20.9368 19.8156 20.9368H5.9878C5.81137 20.9368 5.66785 20.7933 5.66785 20.6169C5.66785 20.4615 5.54193 20.3356 5.38661 20.3356C5.23128 20.3356 5.10536 20.4615 5.10536 20.6169C5.10536 21.1035 5.50124 21.4993 5.9878 21.4993H19.8156C20.3022 21.4993 20.6981 21.1034 20.6981 20.6169V5.83564C20.6981 5.59995 20.6063 5.37833 20.4396 5.21164ZM4.48481 14.2848H13.8035C13.98 14.2848 14.1235 14.4284 14.1235 14.6048V18.8133C14.1235 18.9897 13.9799 19.1332 13.8035 19.1332H4.48481C4.14262 19.1332 3.86426 18.8548 3.86426 18.5126V14.1086C4.04474 14.2203 4.25737 14.2848 4.48481 14.2848ZM17.3914 5.5866V2.95905L20.0384 5.60599H17.4108C17.4001 5.60599 17.3914 5.59729 17.3914 5.5866Z" fill="#00ADBB"/>
<path d="M11.2715 18.1839C11.4268 18.1839 11.5527 18.058 11.5527 17.9026V16.9676H12.1621C12.3175 16.9676 12.4434 16.8417 12.4434 16.6864C12.4434 16.5311 12.3175 16.4051 12.1621 16.4051H11.5527V15.7966H12.239C12.3943 15.7966 12.5203 15.6707 12.5203 15.5154C12.5203 15.36 12.3943 15.2341 12.239 15.2341H11.2715C11.1162 15.2341 10.9902 15.36 10.9902 15.5154V17.9026C10.9902 18.0579 11.1162 18.1839 11.2715 18.1839Z" fill="#00ADBB"/>
<path d="M8.31537 18.0753C8.36805 18.1276 8.4393 18.1569 8.51351 18.1569H8.51456C8.53455 18.1569 9.00574 18.1551 9.19395 18.1518C9.88894 18.1396 10.3934 17.5328 10.3934 16.7088C10.3934 15.8427 9.90165 15.2607 9.16973 15.2607H8.50879C8.43409 15.2607 8.3625 15.2904 8.30974 15.3433C8.25698 15.3962 8.22739 15.4679 8.22754 15.5425V15.5444V15.5444V17.8378C8.22754 17.8571 8.22949 17.876 8.2332 17.8942C8.2377 17.9624 8.26658 18.0269 8.31537 18.0753ZM9.16973 15.8232C9.65723 15.8232 9.83089 16.2807 9.83089 16.7088C9.83089 17.3093 9.50606 17.5838 9.18413 17.5893C9.09465 17.5909 8.93501 17.5922 8.79379 17.593C8.79289 17.3171 8.79101 16.1103 8.79053 15.8232H9.16973Z" fill="#00ADBB"/>
<path d="M5.97949 18.1928C6.13482 18.1928 6.26075 18.067 6.26075 17.9116V17.1467C6.4004 17.146 6.55917 17.1453 6.6491 17.1453C7.18573 17.1453 7.6223 16.7147 7.6223 16.1854C7.6223 15.6561 7.18573 15.2255 6.6491 15.2255H5.97949C5.90476 15.2255 5.83309 15.2552 5.78029 15.3082C5.72772 15.3609 5.69828 15.4323 5.69828 15.5067H5.69824V17.9116C5.69824 18.067 5.82417 18.1928 5.97949 18.1928ZM6.6491 15.788C6.87174 15.788 7.0598 15.97 7.0598 16.1854C7.0598 16.4008 6.87174 16.5828 6.6491 16.5828C6.55977 16.5828 6.40298 16.5835 6.26386 16.5842C6.26311 16.4406 6.26198 15.9383 6.26157 15.788H6.6491V15.788Z" fill="#00ADBB"/>
<path d="M11.2475 10.4542C10.5563 10.6723 9.84681 10.9743 9.46836 11.365C9.1561 11.6873 9.09951 12.0612 9.31308 12.391C9.45801 12.6147 9.65725 12.7317 9.88127 12.7317C9.96726 12.7317 10.0569 12.7144 10.1485 12.6794C10.479 12.553 10.8359 12.1935 11.2397 11.5803C11.3701 11.3823 11.502 11.1623 11.6334 10.9243C11.6812 10.9102 11.7299 10.8963 11.7798 10.8823C12.5735 10.6602 13.4715 10.4991 14.2596 10.4317C14.74 10.8963 15.2366 11.2582 15.6599 11.3569C16.1256 11.4656 16.4949 11.2526 16.6474 10.7872C16.7397 10.5054 16.6334 10.2396 16.3628 10.0762C16.0847 9.90828 15.6012 9.82717 14.9264 9.8349C14.7826 9.83655 14.6309 9.8424 14.473 9.85218C14.1698 9.53951 13.8544 9.16582 13.5506 8.75313C13.3153 8.43345 13.1049 8.11353 12.927 7.80945C12.9463 7.74281 12.9647 7.67707 12.9821 7.6125C13.1744 6.89951 13.243 6.35362 13.186 5.98995C13.1036 5.46476 12.7646 5.39017 12.6227 5.38252C12.1395 5.35639 11.8141 5.60017 11.7521 6.03461C11.7029 6.37972 11.819 6.85455 12.0971 7.44585C12.1632 7.5864 12.2373 7.73126 12.3187 7.8792C12.2884 7.97655 12.2555 8.07783 12.2199 8.18325C11.9606 8.95027 11.6095 9.76758 11.2475 10.4542ZM9.89687 12.1677C9.87681 12.1702 9.84299 12.1744 9.78516 12.0852C9.7381 12.0125 9.73555 11.9577 9.77571 11.8828C9.86961 11.7078 10.1902 11.4621 10.8106 11.2084C10.3776 11.88 10.054 12.1481 9.89687 12.1677ZM16.1175 10.593C16.1171 10.5964 16.116 10.6027 16.1129 10.6121C16.0426 10.8265 15.9482 10.8467 15.7877 10.8092C15.5917 10.7635 15.3428 10.6187 15.0651 10.3971C15.8169 10.4031 16.0792 10.5386 16.1175 10.593ZM12.309 6.11403C12.3205 6.03363 12.3333 5.94322 12.5473 5.94322C12.5608 5.94322 12.575 5.9436 12.5901 5.94431C12.6542 6.02235 12.6871 6.36956 12.5389 7.05671C12.3644 6.6564 12.2791 6.32385 12.309 6.11403ZM12.7006 8.51418C12.8241 8.7039 12.9569 8.89548 13.0976 9.08666C13.2995 9.36093 13.5276 9.64567 13.7688 9.91747C13.4897 9.95115 13.2019 9.99461 12.9139 10.0469C12.7191 10.0822 12.3794 10.149 11.9817 10.2481C12.0699 10.0653 12.1569 9.8757 12.242 9.68077C12.4111 9.29343 12.5666 8.8971 12.7006 8.51418Z" fill="#00ADBB"/>
</g>
<defs>
<clipPath id="clip0_93_7774">
<rect width="19.2" height="19.2" fill="white" transform="translate(2.40039 2.29932)"/>
</clipPath>
</defs>
</svg>
