<svg width="25" height="24" viewBox="0 0 25 24" fill="none" xmlns="http://www.w3.org/2000/svg">
<path d="M21.45 2H3.05C2.6075 2 2.25 2.3575 2.25 2.8V21.2C2.25 21.6425 2.6075 22 3.05 22H21.45C21.8925 22 22.25 21.6425 22.25 21.2V2.8C22.25 2.3575 21.8925 2 21.45 2ZM8.1825 19.0425H5.215V9.4975H8.1825V19.0425ZM6.7 8.1925C6.35982 8.1925 6.02727 8.09162 5.74442 7.90263C5.46157 7.71363 5.24111 7.445 5.11093 7.13072C4.98074 6.81643 4.94668 6.47059 5.01305 6.13694C5.07942 5.8033 5.24323 5.49682 5.48378 5.25628C5.72432 5.01573 6.0308 4.85192 6.36444 4.78555C6.69809 4.71918 7.04393 4.75324 7.35822 4.88343C7.6725 5.01361 7.94113 5.23407 8.13013 5.51692C8.31912 5.79977 8.42 6.13232 8.42 6.4725C8.4175 7.4225 7.6475 8.1925 6.7 8.1925ZM19.2925 19.0425H16.3275V14.4C16.3275 13.2925 16.3075 11.87 14.785 11.87C13.2425 11.87 13.005 13.075 13.005 14.32V19.0425H10.0425V9.4975H12.8875V10.8025H12.9275C13.3225 10.0525 14.29 9.26 15.735 9.26C18.74 9.26 19.2925 11.2375 19.2925 13.8075V19.0425V19.0425Z" fill="#00ADBB"/>
</svg>
