<svg width="41" height="40" viewBox="0 0 41 40" fill="none" xmlns="http://www.w3.org/2000/svg">
<g clip-path="url(#clip0_93_1537)">
<path d="M31.6278 10.9489L28.0892 7.4104C27.867 7.1882 27.5715 7.0658 27.2572 7.0658H12.3587C11.71 7.0658 11.1821 7.59365 11.1821 8.2424V19.8916H10.3547C9.48494 19.8916 8.77734 20.5992 8.77734 21.469V28.6835C8.77734 29.5533 9.48494 30.2609 10.3547 30.2609H25.1846C25.8334 30.2609 26.3612 29.7331 26.3612 29.0843V23.4731C26.3612 22.8243 25.8333 22.2964 25.1846 22.2964H10.3547C9.89849 22.2964 9.52734 21.9253 9.52734 21.469C9.52734 21.0128 9.89849 20.6416 10.3547 20.6416H11.1821V21.0684C11.1821 21.2755 11.35 21.4434 11.5571 21.4434C11.7642 21.4434 11.9321 21.2755 11.9321 21.0684V8.2424C11.9321 8.00715 12.1235 7.8158 12.3587 7.8158H26.8136V11.4488C26.8136 11.8766 27.1616 12.2247 27.5894 12.2247H31.2224V31.4892C31.2224 31.7244 31.031 31.9158 30.7958 31.9158H12.3587C12.1235 31.9158 11.9321 31.7244 11.9321 31.4892C11.9321 31.2821 11.7642 31.1142 11.5571 31.1142C11.35 31.1142 11.1821 31.2821 11.1821 31.4892C11.1821 32.138 11.71 32.6658 12.3587 32.6658H30.7958C31.4446 32.6658 31.9724 32.1379 31.9724 31.4892V11.7809C31.9725 11.4666 31.8501 11.1711 31.6278 10.9489V10.9489ZM10.3547 23.0464H25.1846C25.4198 23.0464 25.6112 23.2378 25.6112 23.4731V29.0844C25.6112 29.3196 25.4198 29.511 25.1846 29.511H10.3547C9.89849 29.511 9.52734 29.1398 9.52734 28.6835V22.8115C9.76799 22.9605 10.0515 23.0464 10.3547 23.0464ZM27.5636 11.4488V7.94545L31.0929 11.4747H27.5894C27.5752 11.4747 27.5636 11.4631 27.5636 11.4488Z" fill="#009ABF"/>
<path d="M17.168 20.2408H25.9857C26.1928 20.2408 26.3607 20.0729 26.3607 19.8658C26.3607 19.6587 26.1928 19.4908 25.9857 19.4908H17.168C16.9609 19.4908 16.793 19.6587 16.793 19.8658C16.793 20.0729 16.9609 20.2408 17.168 20.2408Z" fill="#009ABF"/>
<path d="M17.168 18.2368H25.9857C26.1928 18.2368 26.3607 18.0689 26.3607 17.8618C26.3607 17.6547 26.1928 17.4868 25.9857 17.4868H17.168C16.9609 17.4868 16.793 17.6547 16.793 17.8618C16.793 18.0689 16.9609 18.2368 17.168 18.2368Z" fill="#009ABF"/>
<path d="M22.7793 16.2327H25.9857C26.1928 16.2327 26.3607 16.0648 26.3607 15.8577C26.3607 15.6506 26.1928 15.4827 25.9857 15.4827H22.7793C22.5722 15.4827 22.4043 15.6506 22.4043 15.8577C22.4043 16.0648 22.5722 16.2327 22.7793 16.2327Z" fill="#009ABF"/>
<path d="M22.7793 14.2286H25.9857C26.1928 14.2286 26.3607 14.0608 26.3607 13.8536C26.3607 13.6465 26.1928 13.4786 25.9857 13.4786H22.7793C22.5722 13.4786 22.4043 13.6465 22.4043 13.8536C22.4043 14.0607 22.5722 14.2286 22.7793 14.2286Z" fill="#009ABF"/>
<path d="M22.1297 28.3214C22.5787 28.3214 22.9815 28.1741 23.2944 27.8953C23.3557 27.8407 23.414 27.7806 23.4677 27.7166C23.6008 27.5579 23.58 27.3214 23.4213 27.1883C23.2626 27.0552 23.0261 27.076 22.893 27.2347C22.8627 27.2709 22.8299 27.3047 22.7956 27.3353C22.6196 27.492 22.3956 27.5715 22.1297 27.5715C21.4169 27.5715 20.837 26.9916 20.837 26.2787C20.837 25.5659 21.4169 24.986 22.1297 24.986C22.3888 24.986 22.6386 25.0623 22.8522 25.2066C23.0238 25.3225 23.2569 25.2774 23.3728 25.1058C23.4888 24.9341 23.4437 24.701 23.272 24.5851C22.934 24.3567 22.539 24.236 22.1296 24.236C21.0033 24.236 20.0869 25.1523 20.0869 26.2787C20.0869 27.405 21.0033 28.3214 22.1297 28.3214V28.3214Z" fill="#009ABF"/>
<path d="M17.366 28.3214C18.4923 28.3214 19.4087 27.405 19.4087 26.2787C19.4087 25.1523 18.4923 24.236 17.366 24.236C16.2396 24.236 15.3232 25.1523 15.3232 26.2787C15.3232 27.405 16.2396 28.3214 17.366 28.3214V28.3214ZM17.366 24.9859C18.0788 24.9859 18.6587 25.5659 18.6587 26.2786C18.6587 26.9915 18.0788 27.5714 17.366 27.5714C16.6532 27.5714 16.0732 26.9915 16.0732 26.2786C16.0732 25.5659 16.6532 24.9859 17.366 24.9859V24.9859Z" fill="#009ABF"/>
<path d="M17.5688 16.2328H20.3744C20.8022 16.2328 21.1502 15.8847 21.1502 15.4569V14.2545C21.1502 13.8267 20.8022 13.4787 20.3744 13.4787H17.5688C17.141 13.4787 16.793 13.8267 16.793 14.2545V15.4569C16.793 15.8847 17.141 16.2328 17.5688 16.2328ZM17.543 14.2545C17.543 14.2403 17.5545 14.2287 17.5688 14.2287H20.3744C20.3887 14.2287 20.4002 14.2402 20.4002 14.2545V15.4569C20.4002 15.4712 20.3887 15.4828 20.3744 15.4828H17.5688C17.5545 15.4828 17.543 15.4712 17.543 15.4569V14.2545Z" fill="#009ABF"/>
<path d="M11.5896 27.8985C11.5899 27.998 11.6298 28.0933 11.7004 28.1633C11.7706 28.2331 11.8656 28.2722 11.9646 28.2722H11.966C11.9937 28.2721 12.6471 28.2696 12.9081 28.265C13.8634 28.2483 14.5568 27.413 14.5568 26.2787C14.5568 25.0864 13.8808 24.2853 12.8747 24.2853H11.958C11.8584 24.2853 11.763 24.3249 11.6926 24.3954C11.6223 24.4659 11.5828 24.5614 11.583 24.661C11.583 24.661 11.5854 25.9061 11.5854 26.2751C11.5854 26.7252 11.5896 27.8985 11.5896 27.8985ZM12.8748 25.0354C13.562 25.0354 13.8069 25.6777 13.8069 26.2788C13.8069 27.1218 13.3489 27.5072 12.895 27.5151C12.7677 27.5173 12.5378 27.5191 12.3383 27.5203C12.3371 27.1375 12.3354 26.5606 12.3354 26.2752C12.3354 26.0369 12.3344 25.4335 12.3337 25.0354H12.8748Z" fill="#009ABF"/>
</g>
<defs>
<clipPath id="clip0_93_1537">
<rect width="25.6" height="25.6" fill="white" transform="translate(7.5752 7.0658)"/>
</clipPath>
</defs>
</svg>
