<svg width="41" height="40" viewBox="0 0 41 40" fill="none" xmlns="http://www.w3.org/2000/svg">
<g clip-path="url(#clip0_93_1249)">
<path d="M31.3778 10.9489L27.8392 7.4104C27.617 7.1882 27.3215 7.0658 27.0072 7.0658H12.1087C11.46 7.0658 10.9321 7.59365 10.9321 8.2424V19.8916H10.1047C9.23494 19.8916 8.52734 20.5992 8.52734 21.469V28.6835C8.52734 29.5533 9.23494 30.2609 10.1047 30.2609H24.9346C25.5834 30.2609 26.1112 29.7331 26.1112 29.0843V23.4731C26.1112 22.8243 25.5833 22.2964 24.9346 22.2964H10.1047C9.64849 22.2964 9.27734 21.9253 9.27734 21.469C9.27734 21.0128 9.64849 20.6416 10.1047 20.6416H10.9321V21.0684C10.9321 21.2755 11.1 21.4434 11.3071 21.4434C11.5142 21.4434 11.6821 21.2755 11.6821 21.0684V8.2424C11.6821 8.00715 11.8735 7.8158 12.1087 7.8158H26.5636V11.4488C26.5636 11.8766 26.9116 12.2247 27.3394 12.2247H30.9724V31.4892C30.9724 31.7244 30.781 31.9158 30.5458 31.9158H12.1087C11.8735 31.9158 11.6821 31.7244 11.6821 31.4892C11.6821 31.2821 11.5142 31.1142 11.3071 31.1142C11.1 31.1142 10.9321 31.2821 10.9321 31.4892C10.9321 32.138 11.46 32.6658 12.1087 32.6658H30.5458C31.1946 32.6658 31.7224 32.1379 31.7224 31.4892V11.7809C31.7225 11.4666 31.6001 11.1711 31.3778 10.9489V10.9489ZM10.1047 23.0464H24.9346C25.1698 23.0464 25.3612 23.2378 25.3612 23.4731V29.0844C25.3612 29.3196 25.1698 29.511 24.9346 29.511H10.1047C9.64849 29.511 9.27734 29.1398 9.27734 28.6835V22.8115C9.51799 22.9605 9.80149 23.0464 10.1047 23.0464ZM27.3136 11.4488V7.94545L30.8429 11.4747H27.3394C27.3252 11.4747 27.3136 11.4631 27.3136 11.4488Z" fill="#999999"/>
<path d="M16.918 20.2408H25.7357C25.9428 20.2408 26.1107 20.0729 26.1107 19.8658C26.1107 19.6587 25.9428 19.4908 25.7357 19.4908H16.918C16.7109 19.4908 16.543 19.6587 16.543 19.8658C16.543 20.0729 16.7109 20.2408 16.918 20.2408Z" fill="#999999"/>
<path d="M16.918 18.2368H25.7357C25.9428 18.2368 26.1107 18.0689 26.1107 17.8618C26.1107 17.6547 25.9428 17.4868 25.7357 17.4868H16.918C16.7109 17.4868 16.543 17.6547 16.543 17.8618C16.543 18.0689 16.7109 18.2368 16.918 18.2368Z" fill="#999999"/>
<path d="M22.5293 16.2327H25.7357C25.9428 16.2327 26.1107 16.0648 26.1107 15.8577C26.1107 15.6506 25.9428 15.4827 25.7357 15.4827H22.5293C22.3222 15.4827 22.1543 15.6506 22.1543 15.8577C22.1543 16.0648 22.3222 16.2327 22.5293 16.2327Z" fill="#999999"/>
<path d="M22.5293 14.2286H25.7357C25.9428 14.2286 26.1107 14.0608 26.1107 13.8536C26.1107 13.6465 25.9428 13.4786 25.7357 13.4786H22.5293C22.3222 13.4786 22.1543 13.6465 22.1543 13.8536C22.1543 14.0607 22.3222 14.2286 22.5293 14.2286Z" fill="#999999"/>
<path d="M21.8797 28.3214C22.3287 28.3214 22.7315 28.1741 23.0444 27.8953C23.1057 27.8407 23.164 27.7806 23.2177 27.7166C23.3508 27.5579 23.33 27.3214 23.1713 27.1883C23.0126 27.0552 22.7761 27.076 22.643 27.2347C22.6127 27.2709 22.5799 27.3047 22.5456 27.3353C22.3696 27.492 22.1456 27.5715 21.8797 27.5715C21.1669 27.5715 20.587 26.9916 20.587 26.2787C20.587 25.5659 21.1669 24.986 21.8797 24.986C22.1388 24.986 22.3886 25.0623 22.6022 25.2066C22.7738 25.3225 23.0069 25.2774 23.1228 25.1058C23.2388 24.9341 23.1937 24.701 23.022 24.5851C22.684 24.3567 22.289 24.236 21.8796 24.236C20.7533 24.236 19.8369 25.1523 19.8369 26.2787C19.8369 27.405 20.7533 28.3214 21.8797 28.3214V28.3214Z" fill="#999999"/>
<path d="M17.116 28.3214C18.2423 28.3214 19.1587 27.405 19.1587 26.2787C19.1587 25.1523 18.2423 24.236 17.116 24.236C15.9896 24.236 15.0732 25.1523 15.0732 26.2787C15.0732 27.405 15.9896 28.3214 17.116 28.3214V28.3214ZM17.116 24.9859C17.8288 24.9859 18.4087 25.5659 18.4087 26.2786C18.4087 26.9915 17.8288 27.5714 17.116 27.5714C16.4032 27.5714 15.8232 26.9915 15.8232 26.2786C15.8232 25.5659 16.4032 24.9859 17.116 24.9859V24.9859Z" fill="#999999"/>
<path d="M17.3188 16.2328H20.1244C20.5522 16.2328 20.9002 15.8847 20.9002 15.4569V14.2545C20.9002 13.8267 20.5522 13.4787 20.1244 13.4787H17.3188C16.891 13.4787 16.543 13.8267 16.543 14.2545V15.4569C16.543 15.8847 16.891 16.2328 17.3188 16.2328ZM17.293 14.2545C17.293 14.2403 17.3045 14.2287 17.3188 14.2287H20.1244C20.1387 14.2287 20.1502 14.2402 20.1502 14.2545V15.4569C20.1502 15.4712 20.1387 15.4828 20.1244 15.4828H17.3188C17.3045 15.4828 17.293 15.4712 17.293 15.4569V14.2545Z" fill="#999999"/>
<path d="M11.3396 27.8985C11.3399 27.998 11.3798 28.0933 11.4504 28.1633C11.5206 28.2331 11.6156 28.2722 11.7146 28.2722H11.716C11.7437 28.2721 12.3971 28.2696 12.6581 28.265C13.6134 28.2483 14.3068 27.413 14.3068 26.2787C14.3068 25.0864 13.6308 24.2853 12.6247 24.2853H11.708C11.6084 24.2853 11.513 24.3249 11.4426 24.3954C11.3723 24.4659 11.3328 24.5614 11.333 24.661C11.333 24.661 11.3354 25.9061 11.3354 26.2751C11.3354 26.7252 11.3396 27.8985 11.3396 27.8985ZM12.6248 25.0354C13.312 25.0354 13.5569 25.6777 13.5569 26.2788C13.5569 27.1218 13.0989 27.5072 12.645 27.5151C12.5177 27.5173 12.2878 27.5191 12.0883 27.5203C12.0871 27.1375 12.0854 26.5606 12.0854 26.2752C12.0854 26.0369 12.0844 25.4335 12.0837 25.0354H12.6248Z" fill="#999999"/>
</g>
<defs>
<clipPath id="clip0_93_1249">
<rect width="25.6" height="25.6" fill="white" transform="translate(7.3252 7.0658)"/>
</clipPath>
</defs>
</svg>
