<svg width="41" height="40" viewBox="0 0 41 40" fill="none" xmlns="http://www.w3.org/2000/svg">
<g clip-path="url(#clip0_93_1551)">
<path d="M30.6875 10.4902H20.8438V8.03921C20.8438 7.9092 20.7944 7.78452 20.7065 7.69259C20.6185 7.60066 20.4993 7.54901 20.375 7.54901C20.2507 7.54901 20.1315 7.60066 20.0435 7.69259C19.9556 7.78452 19.9062 7.9092 19.9062 8.03921V10.4902H10.0625C9.68966 10.4906 9.33221 10.6457 9.06858 10.9214C8.80494 11.1971 8.65665 11.5709 8.65625 11.9608V26.6667C8.65665 27.0566 8.80494 27.4304 9.06858 27.7061C9.33221 27.9818 9.68966 28.1368 10.0625 28.1372H15.6498L12.509 32.2428C12.4698 32.2929 12.4404 32.3507 12.4227 32.4129C12.405 32.475 12.3992 32.5401 12.4057 32.6046C12.4122 32.6691 12.4308 32.7315 12.4606 32.7884C12.4903 32.8453 12.5306 32.8954 12.579 32.9359C12.6274 32.9764 12.683 33.0065 12.7425 33.0243C12.8021 33.0422 12.8645 33.0476 12.9261 33.0401C12.9876 33.0326 13.0472 33.0124 13.1012 32.9806C13.1553 32.9489 13.2028 32.9063 13.241 32.8553L16.8504 28.1372H23.8998L27.509 32.8553C27.5872 32.9552 27.6999 33.0188 27.8226 33.0324C27.9454 33.0459 28.0683 33.0083 28.1647 32.9276C28.2611 32.847 28.3232 32.7298 28.3374 32.6016C28.3517 32.4734 28.3171 32.3444 28.241 32.2428L25.1004 28.1372H30.6875C31.0603 28.1368 31.4178 27.9818 31.6814 27.7061C31.9451 27.4304 32.0933 27.0566 32.0938 26.6667V11.9608C32.0933 11.5709 31.9451 11.1971 31.6814 10.9214C31.4178 10.6457 31.0603 10.4906 30.6875 10.4902ZM31.1562 26.6667C31.1561 26.7966 31.1067 26.9212 31.0188 27.0131C30.9309 27.105 30.8118 27.1567 30.6875 27.1569H10.0625C9.93822 27.1567 9.81906 27.105 9.73118 27.0131C9.6433 26.9212 9.59387 26.7966 9.59375 26.6667V11.9608C9.59387 11.8308 9.6433 11.7062 9.73118 11.6143C9.81906 11.5224 9.93822 11.4707 10.0625 11.4706H30.6875C30.8118 11.4707 30.9309 11.5224 31.0188 11.6143C31.1067 11.7062 31.1561 11.8308 31.1562 11.9608V26.6667ZM17.0938 19.8039V22.7451C17.0938 22.8751 17.0444 22.9998 16.9565 23.0917C16.8685 23.1836 16.7493 23.2353 16.625 23.2353C16.5007 23.2353 16.3815 23.1836 16.2935 23.0917C16.2056 22.9998 16.1562 22.8751 16.1562 22.7451V19.8039C16.1562 19.6739 16.2056 19.5492 16.2935 19.4573C16.3815 19.3654 16.5007 19.3137 16.625 19.3137C16.7493 19.3137 16.8685 19.3654 16.9565 19.4573C17.0444 19.5492 17.0938 19.6739 17.0938 19.8039ZM20.8438 17.8431V22.7451C20.8438 22.8751 20.7944 22.9998 20.7065 23.0917C20.6185 23.1836 20.4993 23.2353 20.375 23.2353C20.2507 23.2353 20.1315 23.1836 20.0435 23.0917C19.9556 22.9998 19.9062 22.8751 19.9062 22.7451V17.8431C19.9062 17.7131 19.9556 17.5884 20.0435 17.4965C20.1315 17.4046 20.2507 17.3529 20.375 17.3529C20.4993 17.3529 20.6185 17.4046 20.7065 17.4965C20.7944 17.5884 20.8438 17.7131 20.8438 17.8431ZM24.5938 15.8823V22.7451C24.5938 22.8751 24.5444 22.9998 24.4565 23.0917C24.3685 23.1836 24.2493 23.2353 24.125 23.2353C24.0007 23.2353 23.8815 23.1836 23.7935 23.0917C23.7056 22.9998 23.6562 22.8751 23.6562 22.7451V15.8823C23.6562 15.7523 23.7056 15.6277 23.7935 15.5357C23.8815 15.4438 24.0007 15.3921 24.125 15.3921C24.2493 15.3921 24.3685 15.4438 24.4565 15.5357C24.5444 15.6277 24.5938 15.7523 24.5938 15.8823Z" fill="#999999"/>
</g>
<defs>
<clipPath id="clip0_93_1551">
<rect width="24" height="26.6667" fill="white" transform="translate(8.375 6.66669)"/>
</clipPath>
</defs>
</svg>
