<svg width="41" height="40" viewBox="0 0 41 40" fill="none" xmlns="http://www.w3.org/2000/svg">
<g clip-path="url(#clip0_93_1609)">
<path d="M30.4375 10.4902H20.5938V8.03921C20.5938 7.9092 20.5444 7.78452 20.4565 7.69259C20.3685 7.60066 20.2493 7.54901 20.125 7.54901C20.0007 7.54901 19.8815 7.60066 19.7935 7.69259C19.7056 7.78452 19.6562 7.9092 19.6562 8.03921V10.4902H9.8125C9.43966 10.4906 9.08221 10.6457 8.81858 10.9214C8.55494 11.1971 8.40665 11.5709 8.40625 11.9608V26.6667C8.40665 27.0566 8.55494 27.4304 8.81858 27.7061C9.08221 27.9818 9.43966 28.1368 9.8125 28.1372H15.3998L12.259 32.2428C12.2198 32.2929 12.1904 32.3507 12.1727 32.4129C12.155 32.475 12.1492 32.5401 12.1557 32.6046C12.1622 32.6691 12.1808 32.7315 12.2106 32.7884C12.2403 32.8453 12.2806 32.8954 12.329 32.9359C12.3774 32.9764 12.433 33.0065 12.4925 33.0243C12.5521 33.0422 12.6145 33.0476 12.6761 33.0401C12.7376 33.0326 12.7972 33.0124 12.8512 32.9806C12.9053 32.9489 12.9528 32.9063 12.991 32.8553L16.6004 28.1372H23.6498L27.259 32.8553C27.3372 32.9552 27.4499 33.0188 27.5726 33.0324C27.6954 33.0459 27.8183 33.0083 27.9147 32.9276C28.0111 32.847 28.0732 32.7298 28.0874 32.6016C28.1017 32.4734 28.0671 32.3444 27.991 32.2428L24.8504 28.1372H30.4375C30.8103 28.1368 31.1678 27.9818 31.4314 27.7061C31.6951 27.4304 31.8433 27.0566 31.8438 26.6667V11.9608C31.8433 11.5709 31.6951 11.1971 31.4314 10.9214C31.1678 10.6457 30.8103 10.4906 30.4375 10.4902ZM30.9062 26.6667C30.9061 26.7966 30.8567 26.9212 30.7688 27.0131C30.6809 27.105 30.5618 27.1567 30.4375 27.1569H9.8125C9.68822 27.1567 9.56906 27.105 9.48118 27.0131C9.3933 26.9212 9.34387 26.7966 9.34375 26.6667V11.9608C9.34387 11.8308 9.3933 11.7062 9.48118 11.6143C9.56906 11.5224 9.68822 11.4707 9.8125 11.4706H30.4375C30.5618 11.4707 30.6809 11.5224 30.7688 11.6143C30.8567 11.7062 30.9061 11.8308 30.9062 11.9608V26.6667ZM16.8438 19.8039V22.7451C16.8438 22.8751 16.7944 22.9998 16.7065 23.0917C16.6185 23.1836 16.4993 23.2353 16.375 23.2353C16.2507 23.2353 16.1315 23.1836 16.0435 23.0917C15.9556 22.9998 15.9062 22.8751 15.9062 22.7451V19.8039C15.9062 19.6739 15.9556 19.5492 16.0435 19.4573C16.1315 19.3654 16.2507 19.3137 16.375 19.3137C16.4993 19.3137 16.6185 19.3654 16.7065 19.4573C16.7944 19.5492 16.8438 19.6739 16.8438 19.8039ZM20.5938 17.8431V22.7451C20.5938 22.8751 20.5444 22.9998 20.4565 23.0917C20.3685 23.1836 20.2493 23.2353 20.125 23.2353C20.0007 23.2353 19.8815 23.1836 19.7935 23.0917C19.7056 22.9998 19.6562 22.8751 19.6562 22.7451V17.8431C19.6562 17.7131 19.7056 17.5884 19.7935 17.4965C19.8815 17.4046 20.0007 17.3529 20.125 17.3529C20.2493 17.3529 20.3685 17.4046 20.4565 17.4965C20.5444 17.5884 20.5938 17.7131 20.5938 17.8431ZM24.3438 15.8823V22.7451C24.3438 22.8751 24.2944 22.9998 24.2065 23.0917C24.1185 23.1836 23.9993 23.2353 23.875 23.2353C23.7507 23.2353 23.6315 23.1836 23.5435 23.0917C23.4556 22.9998 23.4062 22.8751 23.4062 22.7451V15.8823C23.4062 15.7523 23.4556 15.6277 23.5435 15.5357C23.6315 15.4438 23.7507 15.3921 23.875 15.3921C23.9993 15.3921 24.1185 15.4438 24.2065 15.5357C24.2944 15.6277 24.3438 15.7523 24.3438 15.8823Z" fill="#009ABF"/>
</g>
<defs>
<clipPath id="clip0_93_1609">
<rect width="24" height="26.6667" fill="white" transform="translate(8.125 6.66669)"/>
</clipPath>
</defs>
</svg>
