<svg width="41" height="40" viewBox="0 0 41 40" fill="none" xmlns="http://www.w3.org/2000/svg">
<g clip-path="url(#clip0_93_1569)">
<path d="M28.0985 19.9731C28.3143 19.9731 28.4892 19.7982 28.4892 19.5825C28.4892 19.3668 28.3143 19.1919 28.0985 19.1919H27.6542V15.4074C27.6542 14.9618 27.2917 14.5993 26.846 14.5993H25.176C24.7304 14.5993 24.3679 14.9618 24.3679 15.4074V19.1919H23.4792V17.4949C23.4792 17.0493 23.1167 16.6868 22.671 16.6868H21.001C20.5554 16.6868 20.1929 17.0493 20.1929 17.4949V19.1919H19.3041V14.9899C19.3041 14.7742 19.1292 14.5993 18.9135 14.5993C18.6978 14.5993 18.5229 14.7742 18.5229 14.9899V19.1919H16.7991V12.4849C16.7991 12.47 16.8111 12.458 16.8259 12.458H18.4959C18.5108 12.458 18.5228 12.47 18.5228 12.4849V13.3199C18.5228 13.5357 18.6977 13.7106 18.9134 13.7106C19.1292 13.7106 19.3041 13.5357 19.3041 13.3199V12.4849C19.3041 12.0393 18.9416 11.6768 18.4959 11.6768H16.8259C16.3803 11.6768 16.0178 12.0393 16.0178 12.4849V19.1919H15.1291V15.8249C15.1291 15.3793 14.7666 15.0168 14.3209 15.0168H12.6509C12.2053 15.0168 11.8428 15.3793 11.8428 15.8249V19.1919H11.3984C11.1827 19.1919 11.0078 19.3668 11.0078 19.5825C11.0078 19.7982 11.1827 19.9731 11.3984 19.9731H28.0985ZM25.1491 15.4074C25.1491 15.3926 25.1611 15.3806 25.176 15.3806H26.846C26.8608 15.3806 26.8729 15.3926 26.8729 15.4074V19.1919H25.1491V15.4074H25.1491ZM20.9741 17.4949C20.9741 17.4801 20.9861 17.4681 21.0009 17.4681H22.6709C22.6858 17.4681 22.6978 17.4801 22.6978 17.4949V19.1919H20.974V17.4949H20.9741ZM12.624 15.8249C12.624 15.8101 12.636 15.7981 12.6508 15.7981H14.3208C14.3357 15.7981 14.3477 15.8101 14.3477 15.8249V19.1919H12.6239V15.8249H12.624Z" fill="#999999"/>
<path d="M25.5938 30.8821H10.146C10.1312 30.8821 10.1191 30.8701 10.1191 30.8552V7.47481C10.1191 7.45997 10.1312 7.44794 10.146 7.44794H24.6575C24.7009 7.44794 24.7435 7.45216 24.7856 7.45841V11.2324C24.7856 11.678 25.1481 12.0405 25.5937 12.0405H29.3677C29.374 12.0826 29.3782 12.1252 29.3782 12.1686V27.9327C29.3782 28.1484 29.553 28.3233 29.7688 28.3233C29.9845 28.3233 30.1594 28.1484 30.1594 27.9327V12.1685C30.1594 11.7296 29.9885 11.317 29.6782 11.0066L25.8194 7.14794C25.509 6.83757 25.0964 6.66669 24.6575 6.66669H10.146C9.70039 6.66669 9.33789 7.02919 9.33789 7.47481V30.8552C9.33789 31.3008 9.70039 31.6633 10.146 31.6633H25.5938C25.8095 31.6633 25.9844 31.4884 25.9844 31.2727C25.9844 31.0569 25.8095 30.8821 25.5938 30.8821ZM28.826 11.2592H25.5938C25.5789 11.2592 25.5669 11.2472 25.5669 11.2324V8.00023L28.826 11.2592Z" fill="#999999"/>
<path d="M31.0533 31.2411L28.1309 28.3188C27.8996 28.0871 27.5917 27.9596 27.2641 27.9596C27.0716 27.9596 26.886 28.004 26.7187 28.0873L25.9872 27.3559C26.5073 26.7145 26.8198 25.8983 26.8198 25.0102C26.8198 22.953 25.1462 21.2795 23.0891 21.2795C21.0319 21.2795 19.3584 22.9531 19.3584 25.0102C19.3584 27.0672 21.032 28.7408 23.0891 28.7408C23.9772 28.7408 24.7935 28.4284 25.4348 27.9083L26.1663 28.6398C26.0829 28.8072 26.0386 28.9928 26.0386 29.1852C26.0386 29.5127 26.1661 29.8204 26.3976 30.0518L29.32 32.9742C29.5513 33.2058 29.8591 33.3334 30.1867 33.3334C30.5143 33.3334 30.8222 33.2058 31.0533 32.9744C31.2848 32.743 31.4124 32.4352 31.4124 32.1077C31.4124 31.7803 31.2847 31.4725 31.0533 31.2411V31.2411ZM20.1396 25.0102C20.1396 23.3839 21.4627 22.0607 23.089 22.0607C24.7153 22.0607 26.0385 23.3839 26.0385 25.0102C26.0385 26.6365 24.7153 27.9596 23.089 27.9596C21.4627 27.9596 20.1396 26.6365 20.1396 25.0102ZM26.8197 29.1852C26.8197 29.0665 26.866 28.955 26.9501 28.8708C27.0338 28.787 27.1454 28.7408 27.2641 28.7408C27.3828 28.7408 27.4943 28.787 27.5783 28.871L27.9544 29.2471L27.3261 29.8755L26.9498 29.4992C26.8659 29.4154 26.8197 29.3039 26.8197 29.1852V29.1852ZM30.5006 32.4221C30.4169 32.5059 30.3054 32.5521 30.1866 32.5521C30.0679 32.5521 29.9564 32.5059 29.8725 32.4219L27.8785 30.4279L28.5068 29.7996L30.5009 31.7936C30.5848 31.8775 30.6311 31.9891 30.6311 32.1077C30.6311 32.2264 30.5848 32.338 30.5006 32.4221V32.4221Z" fill="#999999"/>
<path d="M12.6514 22.0607H13.4864C13.7021 22.0607 13.877 21.8858 13.877 21.67C13.877 21.4543 13.7021 21.2794 13.4864 21.2794H12.6514C12.4356 21.2794 12.2607 21.4543 12.2607 21.67C12.2607 21.8858 12.4356 22.0607 12.6514 22.0607V22.0607Z" fill="#999999"/>
<path d="M12.6514 23.7308H13.4864C13.7021 23.7308 13.877 23.5559 13.877 23.3401C13.877 23.1244 13.7021 22.9495 13.4864 22.9495H12.6514C12.4356 22.9495 12.2607 23.1244 12.2607 23.3401C12.2607 23.5559 12.4356 23.7308 12.6514 23.7308V23.7308Z" fill="#999999"/>
<path d="M19.3044 21.67C19.3044 21.4543 19.1295 21.2794 18.9138 21.2794H15.1563C14.9405 21.2794 14.7656 21.4543 14.7656 21.67C14.7656 21.8858 14.9405 22.0607 15.1563 22.0607H18.9138C19.1295 22.0607 19.3044 21.8858 19.3044 21.67V21.67Z" fill="#999999"/>
<path d="M18.4694 23.3401C18.4694 23.1244 18.2945 22.9495 18.0788 22.9495H15.1562C14.9405 22.9495 14.7656 23.1244 14.7656 23.3401C14.7656 23.5559 14.9405 23.7308 15.1562 23.7308H18.0788C18.2945 23.7308 18.4694 23.5559 18.4694 23.3401Z" fill="#999999"/>
<path d="M12.6514 27.0707H16.4089C16.6247 27.0707 16.7996 26.8958 16.7996 26.6801C16.7996 26.4643 16.6247 26.2894 16.4089 26.2894H12.6514C12.4356 26.2894 12.2607 26.4643 12.2607 26.6801C12.2607 26.8958 12.4356 27.0707 12.6514 27.0707V27.0707Z" fill="#999999"/>
<path d="M12.6514 25.4006H13.4864C13.7021 25.4006 13.877 25.2257 13.877 25.01C13.877 24.7943 13.7021 24.6194 13.4864 24.6194H12.6514C12.4356 24.6194 12.2607 24.7943 12.2607 25.01C12.2607 25.2257 12.4356 25.4006 12.6514 25.4006V25.4006Z" fill="#999999"/>
<path d="M18.0519 25.01C18.0519 24.7943 17.877 24.6194 17.6613 24.6194H15.1562C14.9405 24.6194 14.7656 24.7943 14.7656 25.01C14.7656 25.2257 14.9405 25.4006 15.1562 25.4006H17.6613C17.877 25.4006 18.0519 25.2257 18.0519 25.01Z" fill="#999999"/>
<path d="M18.0782 10.788C18.2939 10.788 18.4688 10.6131 18.4688 10.3973C18.4688 10.1816 18.2939 10.0067 18.0782 10.0067H17.2432C17.0274 10.0067 16.8525 10.1816 16.8525 10.3973C16.8525 10.6131 17.0274 10.788 17.2432 10.788H18.0782Z" fill="#999999"/>
<path d="M22.2539 15.7981C22.4697 15.7981 22.6446 15.6232 22.6446 15.4075C22.6446 15.1917 22.4697 15.0168 22.2539 15.0168H21.4189C21.2032 15.0168 21.0283 15.1917 21.0283 15.4075C21.0283 15.6232 21.2032 15.7981 21.4189 15.7981H22.2539Z" fill="#999999"/>
<path d="M13.9034 14.128C14.1191 14.128 14.294 13.9531 14.294 13.7374C14.294 13.5216 14.1191 13.3467 13.9034 13.3467H13.0684C12.8526 13.3467 12.6777 13.5216 12.6777 13.7374C12.6777 13.9531 12.8526 14.128 13.0684 14.128H13.9034Z" fill="#999999"/>
<path d="M26.4288 13.7106C26.6445 13.7106 26.8194 13.5357 26.8194 13.32C26.8194 13.1043 26.6445 12.9294 26.4288 12.9294H25.5938C25.378 12.9294 25.2031 13.1043 25.2031 13.32C25.2031 13.5357 25.378 13.7106 25.5938 13.7106H26.4288Z" fill="#999999"/>
</g>
<defs>
<clipPath id="clip0_93_1569">
<rect width="26.6667" height="26.6667" fill="white" transform="translate(7.04199 6.66669)"/>
</clipPath>
</defs>
</svg>
