<svg width="41" height="40" viewBox="0 0 41 40" fill="none" xmlns="http://www.w3.org/2000/svg">
<g clip-path="url(#clip0_93_1616)">
<path d="M27.8485 19.9731C28.0643 19.9731 28.2392 19.7982 28.2392 19.5825C28.2392 19.3668 28.0643 19.1919 27.8485 19.1919H27.4042V15.4074C27.4042 14.9618 27.0417 14.5993 26.596 14.5993H24.926C24.4804 14.5993 24.1179 14.9618 24.1179 15.4074V19.1919H23.2292V17.4949C23.2292 17.0493 22.8667 16.6868 22.421 16.6868H20.751C20.3054 16.6868 19.9429 17.0493 19.9429 17.4949V19.1919H19.0541V14.9899C19.0541 14.7742 18.8792 14.5993 18.6635 14.5993C18.4478 14.5993 18.2729 14.7742 18.2729 14.9899V19.1919H16.5491V12.4849C16.5491 12.47 16.5611 12.458 16.5759 12.458H18.2459C18.2608 12.458 18.2728 12.47 18.2728 12.4849V13.3199C18.2728 13.5357 18.4477 13.7106 18.6634 13.7106C18.8792 13.7106 19.0541 13.5357 19.0541 13.3199V12.4849C19.0541 12.0393 18.6916 11.6768 18.2459 11.6768H16.5759C16.1303 11.6768 15.7678 12.0393 15.7678 12.4849V19.1919H14.8791V15.8249C14.8791 15.3793 14.5166 15.0168 14.0709 15.0168H12.4009C11.9553 15.0168 11.5928 15.3793 11.5928 15.8249V19.1919H11.1484C10.9327 19.1919 10.7578 19.3668 10.7578 19.5825C10.7578 19.7982 10.9327 19.9731 11.1484 19.9731H27.8485ZM24.8991 15.4074C24.8991 15.3926 24.9111 15.3806 24.926 15.3806H26.596C26.6108 15.3806 26.6229 15.3926 26.6229 15.4074V19.1919H24.8991V15.4074H24.8991ZM20.7241 17.4949C20.7241 17.4801 20.7361 17.4681 20.7509 17.4681H22.4209C22.4358 17.4681 22.4478 17.4801 22.4478 17.4949V19.1919H20.724V17.4949H20.7241ZM12.374 15.8249C12.374 15.8101 12.386 15.7981 12.4008 15.7981H14.0708C14.0857 15.7981 14.0977 15.8101 14.0977 15.8249V19.1919H12.3739V15.8249H12.374Z" fill="#009ABF"/>
<path d="M25.3438 30.8821H9.89602C9.88117 30.8821 9.86914 30.8701 9.86914 30.8552V7.47481C9.86914 7.45997 9.88117 7.44794 9.89602 7.44794H24.4075C24.4509 7.44794 24.4935 7.45216 24.5356 7.45841V11.2324C24.5356 11.678 24.8981 12.0405 25.3437 12.0405H29.1177C29.124 12.0826 29.1282 12.1252 29.1282 12.1686V27.9327C29.1282 28.1484 29.303 28.3233 29.5188 28.3233C29.7345 28.3233 29.9094 28.1484 29.9094 27.9327V12.1685C29.9094 11.7296 29.7385 11.317 29.4282 11.0066L25.5694 7.14794C25.259 6.83757 24.8464 6.66669 24.4075 6.66669H9.89602C9.45039 6.66669 9.08789 7.02919 9.08789 7.47481V30.8552C9.08789 31.3008 9.45039 31.6633 9.89602 31.6633H25.3438C25.5595 31.6633 25.7344 31.4884 25.7344 31.2727C25.7344 31.0569 25.5595 30.8821 25.3438 30.8821ZM28.576 11.2592H25.3438C25.3289 11.2592 25.3169 11.2472 25.3169 11.2324V8.00023L28.576 11.2592Z" fill="#009ABF"/>
<path d="M30.8033 31.2411L27.8809 28.3188C27.6496 28.0871 27.3417 27.9596 27.0141 27.9596C26.8216 27.9596 26.636 28.004 26.4687 28.0873L25.7372 27.3559C26.2573 26.7145 26.5698 25.8983 26.5698 25.0102C26.5698 22.953 24.8962 21.2795 22.8391 21.2795C20.7819 21.2795 19.1084 22.9531 19.1084 25.0102C19.1084 27.0672 20.782 28.7408 22.8391 28.7408C23.7272 28.7408 24.5435 28.4284 25.1848 27.9083L25.9163 28.6398C25.8329 28.8072 25.7886 28.9928 25.7886 29.1852C25.7886 29.5127 25.9161 29.8204 26.1476 30.0518L29.07 32.9742C29.3013 33.2058 29.6091 33.3334 29.9367 33.3334C30.2643 33.3334 30.5722 33.2058 30.8033 32.9744C31.0348 32.743 31.1624 32.4352 31.1624 32.1077C31.1624 31.7803 31.0347 31.4725 30.8033 31.2411V31.2411ZM19.8896 25.0102C19.8896 23.3839 21.2127 22.0607 22.839 22.0607C24.4653 22.0607 25.7885 23.3839 25.7885 25.0102C25.7885 26.6365 24.4653 27.9596 22.839 27.9596C21.2127 27.9596 19.8896 26.6365 19.8896 25.0102ZM26.5697 29.1852C26.5697 29.0665 26.616 28.955 26.7001 28.8708C26.7838 28.787 26.8954 28.7408 27.0141 28.7408C27.1328 28.7408 27.2443 28.787 27.3283 28.871L27.7044 29.2471L27.0761 29.8755L26.6998 29.4992C26.6159 29.4154 26.5697 29.3039 26.5697 29.1852V29.1852ZM30.2506 32.4221C30.1669 32.5059 30.0554 32.5521 29.9366 32.5521C29.8179 32.5521 29.7064 32.5059 29.6225 32.4219L27.6285 30.4279L28.2568 29.7996L30.2509 31.7936C30.3348 31.8775 30.3811 31.9891 30.3811 32.1077C30.3811 32.2264 30.3348 32.338 30.2506 32.4221V32.4221Z" fill="#009ABF"/>
<path d="M12.4014 22.0607H13.2364C13.4521 22.0607 13.627 21.8858 13.627 21.67C13.627 21.4543 13.4521 21.2794 13.2364 21.2794H12.4014C12.1856 21.2794 12.0107 21.4543 12.0107 21.67C12.0107 21.8858 12.1856 22.0607 12.4014 22.0607V22.0607Z" fill="#009ABF"/>
<path d="M12.4014 23.7308H13.2364C13.4521 23.7308 13.627 23.5559 13.627 23.3401C13.627 23.1244 13.4521 22.9495 13.2364 22.9495H12.4014C12.1856 22.9495 12.0107 23.1244 12.0107 23.3401C12.0107 23.5559 12.1856 23.7308 12.4014 23.7308V23.7308Z" fill="#009ABF"/>
<path d="M19.0544 21.67C19.0544 21.4543 18.8795 21.2794 18.6638 21.2794H14.9063C14.6905 21.2794 14.5156 21.4543 14.5156 21.67C14.5156 21.8858 14.6905 22.0607 14.9063 22.0607H18.6638C18.8795 22.0607 19.0544 21.8858 19.0544 21.67V21.67Z" fill="#009ABF"/>
<path d="M18.2194 23.3401C18.2194 23.1244 18.0445 22.9495 17.8288 22.9495H14.9062C14.6905 22.9495 14.5156 23.1244 14.5156 23.3401C14.5156 23.5559 14.6905 23.7308 14.9062 23.7308H17.8288C18.0445 23.7308 18.2194 23.5559 18.2194 23.3401Z" fill="#009ABF"/>
<path d="M12.4014 27.0707H16.1589C16.3747 27.0707 16.5496 26.8958 16.5496 26.6801C16.5496 26.4643 16.3747 26.2894 16.1589 26.2894H12.4014C12.1856 26.2894 12.0107 26.4643 12.0107 26.6801C12.0107 26.8958 12.1856 27.0707 12.4014 27.0707V27.0707Z" fill="#009ABF"/>
<path d="M12.4014 25.4006H13.2364C13.4521 25.4006 13.627 25.2257 13.627 25.01C13.627 24.7943 13.4521 24.6194 13.2364 24.6194H12.4014C12.1856 24.6194 12.0107 24.7943 12.0107 25.01C12.0107 25.2257 12.1856 25.4006 12.4014 25.4006V25.4006Z" fill="#009ABF"/>
<path d="M17.8019 25.01C17.8019 24.7943 17.627 24.6194 17.4113 24.6194H14.9062C14.6905 24.6194 14.5156 24.7943 14.5156 25.01C14.5156 25.2257 14.6905 25.4006 14.9062 25.4006H17.4113C17.627 25.4006 17.8019 25.2257 17.8019 25.01Z" fill="#009ABF"/>
<path d="M17.8282 10.788C18.0439 10.788 18.2188 10.6131 18.2188 10.3973C18.2188 10.1816 18.0439 10.0067 17.8282 10.0067H16.9932C16.7774 10.0067 16.6025 10.1816 16.6025 10.3973C16.6025 10.6131 16.7774 10.788 16.9932 10.788H17.8282Z" fill="#009ABF"/>
<path d="M22.0039 15.7981C22.2197 15.7981 22.3946 15.6232 22.3946 15.4075C22.3946 15.1917 22.2197 15.0168 22.0039 15.0168H21.1689C20.9532 15.0168 20.7783 15.1917 20.7783 15.4075C20.7783 15.6232 20.9532 15.7981 21.1689 15.7981H22.0039Z" fill="#009ABF"/>
<path d="M13.6534 14.128C13.8691 14.128 14.044 13.9531 14.044 13.7374C14.044 13.5216 13.8691 13.3467 13.6534 13.3467H12.8184C12.6026 13.3467 12.4277 13.5216 12.4277 13.7374C12.4277 13.9531 12.6026 14.128 12.8184 14.128H13.6534Z" fill="#009ABF"/>
<path d="M26.1788 13.7106C26.3945 13.7106 26.5694 13.5357 26.5694 13.32C26.5694 13.1043 26.3945 12.9294 26.1788 12.9294H25.3438C25.128 12.9294 24.9531 13.1043 24.9531 13.32C24.9531 13.5357 25.128 13.7106 25.3438 13.7106H26.1788Z" fill="#009ABF"/>
</g>
<defs>
<clipPath id="clip0_93_1616">
<rect width="26.6667" height="26.6667" fill="white" transform="translate(6.79199 6.66669)"/>
</clipPath>
</defs>
</svg>
