<svg width="41" height="40" viewBox="0 0 41 40" fill="none" xmlns="http://www.w3.org/2000/svg">
<g clip-path="url(#clip0_93_1265)">
<path d="M28.3796 33.3334H11.8691C11.2229 33.3334 10.6973 32.8077 10.6973 32.1615V18.3464C10.6973 18.1307 10.8722 17.9558 11.0879 17.9558C11.3036 17.9558 11.4785 18.1307 11.4785 18.3464V32.1615C11.4785 32.3769 11.6537 32.5521 11.8691 32.5521H28.3796C28.595 32.5521 28.7702 32.3769 28.7702 32.1615V26.862C28.7702 26.6463 28.9451 26.4714 29.1608 26.4714C29.3765 26.4714 29.5514 26.6463 29.5514 26.862V32.1615C29.5514 32.8077 29.0258 33.3334 28.3796 33.3334ZM21.5448 26.1345C21.3188 26.1345 21.0972 26.0461 20.9303 25.8791L18.7388 23.6876H16.1761C15.5862 23.6876 15.0699 23.3114 14.8911 22.7514C14.7793 22.4014 14.6896 22.02 14.6245 21.6178C14.59 21.4049 14.7347 21.2043 14.9477 21.1698C15.1603 21.1355 15.3612 21.28 15.3957 21.493C15.4546 21.8571 15.5352 22.2005 15.6353 22.5138C15.7102 22.7487 15.9276 22.9064 16.1761 22.9064H18.51V17.0937H16.1761C15.9276 17.0937 15.7103 17.2514 15.6353 17.4863C15.4735 17.9929 15.2806 18.8403 15.2806 20C15.2806 20.2158 15.1057 20.3906 14.89 20.3906C14.6742 20.3906 14.4993 20.2158 14.4993 20C14.4993 18.7398 14.7124 17.8082 14.8911 17.2486C15.0699 16.6886 15.5862 16.3124 16.1761 16.3124H18.7388L20.9303 14.1209C21.1801 13.8711 21.5524 13.797 21.8788 13.9322C22.2051 14.0674 22.416 14.3829 22.416 14.7362V25.2638C22.416 25.617 22.2051 25.9326 21.8788 26.0678C21.7704 26.1127 21.6571 26.1345 21.5448 26.1345ZM19.2912 23.1352L21.4827 25.3267C21.5106 25.3547 21.5433 25.3611 21.5798 25.3461C21.6162 25.331 21.6347 25.3033 21.6347 25.2638V14.7363C21.6347 14.6968 21.6162 14.6691 21.5798 14.654C21.5433 14.6389 21.5106 14.6454 21.4827 14.6734L19.2912 16.8649V23.1352ZM24.0827 8.45804V11.7448C24.0827 11.9602 24.2579 12.1354 24.4733 12.1354H27.7601C27.2522 11.6276 26.5868 10.9622 25.9214 10.2967C25.256 9.63127 24.5905 8.96591 24.0827 8.45804ZM25.2546 23.8733C25.0388 23.8733 24.8639 23.6984 24.8639 23.4827V16.5174C24.8639 16.3016 25.0388 16.1267 25.2546 16.1267C25.4703 16.1267 25.6452 16.3016 25.6452 16.5174V23.4826C25.6452 23.6984 25.4703 23.8733 25.2546 23.8733V23.8733ZM23.3014 7.83856C23.3014 7.62283 23.1265 7.44794 22.9108 7.44794H11.8691C11.6537 7.44794 11.4785 7.62315 11.4785 7.83856V16.7839C11.4785 16.9997 11.3036 17.1746 11.0879 17.1746C10.8722 17.1746 10.6973 16.9997 10.6973 16.7839V7.83856C10.6973 7.19236 11.2229 6.66669 11.8691 6.66669H22.9108C23.2238 6.66669 23.518 6.78856 23.7394 7.00986C23.7394 7.00986 23.7394 7.00986 23.7395 7.00992C23.7762 7.04663 25.125 8.39544 26.4738 9.74429C27.8218 11.0923 29.1699 12.4403 29.2081 12.4787C29.2464 12.517 29.2082 12.4787 29.2082 12.4787H29.2083C29.4296 12.7001 29.5514 12.9943 29.5514 13.3073V25.2994C29.5514 25.5152 29.3765 25.6901 29.1608 25.6901C28.945 25.6901 28.7701 25.5152 28.7701 25.2994V13.3073C28.7701 13.0916 28.5952 12.9167 28.3795 12.9167H24.4733C23.8271 12.9167 23.3014 12.391 23.3014 11.7448V7.83856H23.3014ZM26.8171 22.2947C26.6013 22.2947 26.4264 22.1198 26.4264 21.9041V18.096C26.4264 17.8803 26.6013 17.7054 26.8171 17.7054C27.0328 17.7054 27.2077 17.8803 27.2077 18.096V21.9041C27.2077 22.1198 27.0328 22.2947 26.8171 22.2947ZM23.6921 21.9461C23.4763 21.9461 23.3014 21.7712 23.3014 21.5554V18.4446C23.3014 18.2289 23.4763 18.054 23.6921 18.054C23.9078 18.054 24.0827 18.2289 24.0827 18.4446V21.5554C24.0827 21.7712 23.9078 21.9461 23.6921 21.9461Z" fill="#009ABF"/>
</g>
<defs>
<clipPath id="clip0_93_1265">
<rect width="21.3333" height="26.6667" fill="white" transform="translate(9.45801 6.66669)"/>
</clipPath>
</defs>
</svg>
