<svg width="41" height="40" viewBox="0 0 41 40" fill="none" xmlns="http://www.w3.org/2000/svg">
<g clip-path="url(#clip0_93_1512)">
<path d="M28.8815 33.3334H12.3711C11.7249 33.3334 11.1992 32.8077 11.1992 32.1615V18.3464C11.1992 18.1307 11.3741 17.9558 11.5898 17.9558C11.8056 17.9558 11.9805 18.1307 11.9805 18.3464V32.1615C11.9805 32.3769 12.1557 32.5521 12.3711 32.5521H28.8815C29.0969 32.5521 29.2721 32.3769 29.2721 32.1615V26.862C29.2721 26.6463 29.447 26.4714 29.6628 26.4714C29.8785 26.4714 30.0534 26.6463 30.0534 26.862V32.1615C30.0534 32.8077 29.5277 33.3334 28.8815 33.3334ZM22.0468 26.1345C21.8207 26.1345 21.5992 26.0461 21.4323 25.8791L19.2408 23.6876H16.678C16.0882 23.6876 15.5718 23.3114 15.393 22.7514C15.2812 22.4014 15.1915 22.02 15.1264 21.6178C15.0919 21.4049 15.2367 21.2043 15.4496 21.1698C15.6623 21.1355 15.8632 21.28 15.8977 21.493C15.9566 21.8571 16.0372 22.2005 16.1372 22.5138C16.2122 22.7487 16.4295 22.9064 16.678 22.9064H19.012V17.0937H16.678C16.4295 17.0937 16.2122 17.2514 16.1372 17.4863C15.9754 17.9929 15.7826 18.8403 15.7826 20C15.7826 20.2158 15.6077 20.3906 15.3919 20.3906C15.1762 20.3906 15.0013 20.2158 15.0013 20C15.0013 18.7398 15.2143 17.8082 15.393 17.2486C15.5718 16.6886 16.0882 16.3124 16.678 16.3124H19.2408L21.4323 14.1209C21.682 13.8711 22.0544 13.797 22.3807 13.9322C22.7071 14.0674 22.918 14.3829 22.918 14.7362V25.2638C22.918 25.617 22.7071 25.9326 22.3807 26.0678C22.2724 26.1127 22.1591 26.1345 22.0468 26.1345ZM19.7932 23.1352L21.9847 25.3267C22.0126 25.3547 22.0452 25.3611 22.0817 25.3461C22.1182 25.331 22.1367 25.3033 22.1367 25.2638V14.7363C22.1367 14.6968 22.1182 14.6691 22.0817 14.654C22.0453 14.6389 22.0126 14.6454 21.9847 14.6734L19.7932 16.8649V23.1352ZM24.5846 8.45804V11.7448C24.5846 11.9602 24.7598 12.1354 24.9753 12.1354H28.262C27.7542 11.6276 27.0887 10.9622 26.4233 10.2967C25.7579 9.63127 25.0925 8.96591 24.5846 8.45804ZM25.7565 23.8733C25.5408 23.8733 25.3659 23.6984 25.3659 23.4827V16.5174C25.3659 16.3016 25.5408 16.1267 25.7565 16.1267C25.9722 16.1267 26.1471 16.3016 26.1471 16.5174V23.4826C26.1471 23.6984 25.9722 23.8733 25.7565 23.8733V23.8733ZM23.8034 7.83856C23.8034 7.62283 23.6285 7.44794 23.4128 7.44794H12.3711C12.1557 7.44794 11.9805 7.62315 11.9805 7.83856V16.7839C11.9805 16.9997 11.8056 17.1746 11.5898 17.1746C11.3741 17.1746 11.1992 16.9997 11.1992 16.7839V7.83856C11.1992 7.19236 11.7249 6.66669 12.3711 6.66669H23.4128C23.7257 6.66669 24.02 6.78856 24.2414 7.00986C24.2414 7.00986 24.2414 7.00986 24.2414 7.00992C24.2781 7.04663 25.6269 8.39544 26.9758 9.74429C28.3238 11.0923 29.6718 12.4403 29.7101 12.4787C29.7484 12.517 29.7102 12.4787 29.7102 12.4787H29.7102C29.9315 12.7001 30.0533 12.9943 30.0533 13.3073V25.2994C30.0533 25.5152 29.8784 25.6901 29.6627 25.6901C29.447 25.6901 29.2721 25.5152 29.2721 25.2994V13.3073C29.2721 13.0916 29.0972 12.9167 28.8815 12.9167H24.9752C24.329 12.9167 23.8033 12.391 23.8033 11.7448V7.83856H23.8034ZM27.319 22.2947C27.1033 22.2947 26.9284 22.1198 26.9284 21.9041V18.096C26.9284 17.8803 27.1033 17.7054 27.319 17.7054C27.5347 17.7054 27.7096 17.8803 27.7096 18.096V21.9041C27.7096 22.1198 27.5347 22.2947 27.319 22.2947ZM24.194 21.9461C23.9783 21.9461 23.8034 21.7712 23.8034 21.5554V18.4446C23.8034 18.2289 23.9783 18.054 24.194 18.054C24.4097 18.054 24.5846 18.2289 24.5846 18.4446V21.5554C24.5846 21.7712 24.4097 21.9461 24.194 21.9461Z" fill="#999999"/>
</g>
<defs>
<clipPath id="clip0_93_1512">
<rect width="21.3333" height="26.6667" fill="white" transform="translate(9.95898 6.66669)"/>
</clipPath>
</defs>
</svg>
