<svg width="187" height="160" viewBox="0 0 187 160" fill="none" xmlns="http://www.w3.org/2000/svg">
<g filter="url(#filter0_d_3100_21688)">
<rect x="14" y="14" width="155" height="128" rx="4" fill="#00ADBB"/>
<g clip-path="url(#clip0_3100_21688)">
<path d="M116.143 89.9997H66.8571C63.8571 89.9997 61.5 87.5997 61.5 84.5452V82.3634C61.5 81.7088 61.9286 81.2725 62.5714 81.2725H87.2143C87.8571 81.2725 88.2857 81.7088 88.2857 82.3634C88.2857 83.0179 88.7143 83.4543 89.3571 83.4543H93.6429C94.2857 83.4543 94.7143 83.0179 94.7143 82.3634C94.7143 81.7088 95.1429 81.2725 95.7857 81.2725H120.429C121.071 81.2725 121.5 81.7088 121.5 82.3634V84.5452C121.5 87.5997 119.143 89.9997 116.143 89.9997ZM63.6429 83.4543V84.5452C63.6429 86.3997 65.0357 87.8179 66.8571 87.8179H116.143C117.964 87.8179 119.357 86.3997 119.357 84.5452V83.4543H96.6429C96.2143 84.7634 95.0357 85.6361 93.6429 85.6361H89.3571C87.9643 85.6361 86.7857 84.7634 86.3571 83.4543H63.6429Z" fill="#12284C"/>
<path d="M66.8576 83.454C66.2147 83.454 65.7861 83.0177 65.7861 82.3631V52.9086C65.7861 50.5086 67.7147 48.5449 70.0718 48.5449H75.429C76.0718 48.5449 76.5004 48.9813 76.5004 49.6358C76.5004 50.2904 76.0718 50.7267 75.429 50.7267H70.0718C68.8933 50.7267 67.929 51.7086 67.929 52.9086V82.3631C67.929 83.0177 67.5004 83.454 66.8576 83.454Z" fill="#12284C"/>
<path d="M116.143 83.454C115.5 83.454 115.072 83.0177 115.072 82.3631V52.9086C115.072 51.7086 114.108 50.7267 112.929 50.7267H111.858C111.215 50.7267 110.786 50.2904 110.786 49.6358C110.786 48.9813 111.215 48.5449 111.858 48.5449H112.929C115.286 48.5449 117.215 50.5086 117.215 52.9086V82.3631C117.215 83.0177 116.786 83.454 116.143 83.454Z" fill="#12284C"/>
<path d="M79.7137 68.1822C76.178 68.1822 73.2852 65.2368 73.2852 61.6368C73.2852 58.0368 76.178 55.0913 79.7137 55.0913C83.2494 55.0913 86.1423 58.0368 86.1423 61.6368C86.1423 65.2368 83.2494 68.1822 79.7137 68.1822ZM79.7137 57.2731C77.3566 57.2731 75.428 59.2368 75.428 61.6368C75.428 64.0368 77.3566 66.0004 79.7137 66.0004C82.0709 66.0004 83.9994 64.0368 83.9994 61.6368C83.9994 59.2368 82.0709 57.2731 79.7137 57.2731Z" fill="white"/>
<path d="M88.2856 79.0913C87.6427 79.0913 87.2141 78.6549 87.2141 78.0004V75.8186C87.2141 71.0186 83.357 69.2731 79.7141 69.2731C76.0713 69.2731 72.2141 71.0186 72.2141 75.8186V78.0004C72.2141 78.6549 71.7856 79.0913 71.1427 79.0913C70.4999 79.0913 70.0713 78.6549 70.0713 78.0004V75.8186C70.0713 70.5822 73.9284 67.0913 79.7141 67.0913C85.4999 67.0913 89.357 70.5822 89.357 75.8186V78.0004C89.357 78.6549 88.9284 79.0913 88.2856 79.0913Z" fill="white"/>
<path d="M90.4283 70.3636C90.1069 70.3636 89.8926 70.2546 89.6783 70.0364C89.2497 69.6 89.2497 68.9455 89.6783 68.5091L93.964 64.1455C94.1783 63.9273 94.3926 63.8182 94.714 63.8182H104.357C105.535 63.8182 106.5 62.8364 106.5 61.6364V46.3636C106.5 45.1636 105.535 44.1818 104.357 44.1818H82.9283C81.7497 44.1818 80.7854 45.1636 80.7854 46.3636V56.1818C80.7854 56.8364 80.3569 57.2727 79.714 57.2727C79.0711 57.2727 78.6426 56.8364 78.6426 56.1818V46.3636C78.6426 43.9636 80.5711 42 82.9283 42H104.357C106.714 42 108.643 43.9636 108.643 46.3636V61.6364C108.643 64.0364 106.714 66 104.357 66H95.1426L91.1783 70.0364C90.964 70.2546 90.7497 70.3636 90.4283 70.3636Z" fill="white"/>
<path d="M86.6784 55.6365C85.8213 55.6365 85.0713 54.8729 85.0713 54.0001C85.0713 53.1274 85.8213 52.3638 86.6784 52.3638C87.5356 52.3638 88.2856 53.1274 88.2856 54.0001C88.2856 54.8729 87.5356 55.6365 86.6784 55.6365ZM86.6784 53.4547C86.357 53.4547 86.1427 53.6729 86.1427 54.0001C86.1427 54.3274 86.357 54.5456 86.6784 54.5456C86.9999 54.5456 87.2141 54.3274 87.2141 54.0001C87.2141 53.6729 86.9999 53.4547 86.6784 53.4547Z" fill="white"/>
<path d="M93.6423 55.6365C92.7852 55.6365 92.0352 54.8729 92.0352 54.0001C92.0352 53.1274 92.7852 52.3638 93.6423 52.3638C94.4994 52.3638 95.2495 53.1274 95.2495 54.0001C95.2495 54.8729 94.4994 55.6365 93.6423 55.6365ZM93.6423 53.4547C93.3209 53.4547 93.1066 53.6729 93.1066 54.0001C93.1066 54.3274 93.3209 54.5456 93.6423 54.5456C93.9637 54.5456 94.178 54.3274 94.178 54.0001C94.178 53.6729 93.9637 53.4547 93.6423 53.4547Z" fill="white"/>
<path d="M100.607 55.6365C99.75 55.6365 99 54.8729 99 54.0001C99 53.1274 99.75 52.3638 100.607 52.3638C101.464 52.3638 102.214 53.1274 102.214 54.0001C102.214 54.8729 101.464 55.6365 100.607 55.6365ZM100.607 53.4547C100.286 53.4547 100.071 53.6729 100.071 54.0001C100.071 54.3274 100.286 54.5456 100.607 54.5456C100.929 54.5456 101.143 54.3274 101.143 54.0001C101.143 53.6729 100.929 53.4547 100.607 53.4547Z" fill="white"/>
</g>
<path d="M48.1454 119.696C48.1454 119.856 48.2734 120 48.4494 120H49.0734C49.2334 120 49.3774 119.856 49.3774 119.696V115.328H53.9694C54.1294 115.328 54.2734 115.184 54.2734 115.024V114.56C54.2734 114.4 54.1294 114.256 53.9694 114.256H49.3774V109.872H54.7534C54.9294 109.872 55.0574 109.728 55.0574 109.568V109.104C55.0574 108.944 54.9294 108.8 54.7534 108.8H48.4494C48.2734 108.8 48.1454 108.944 48.1454 109.104V119.696ZM55.6095 117.76C55.6095 119.248 56.6015 120.176 57.8975 120.176C59.0335 120.176 59.8015 119.616 60.1855 119.232L60.3295 119.728C60.3775 119.888 60.4415 120 60.6335 120H60.9375C61.1295 120 61.2895 119.84 61.2895 119.648V115.552C61.2895 113.376 60.8895 112.448 59.0015 112.448C57.7855 112.448 56.8255 112.768 56.4575 112.928C56.2815 113.008 56.1695 113.104 56.2335 113.328L56.3935 113.76C56.4575 113.936 56.5535 114.032 56.7455 113.952C57.0815 113.84 57.9295 113.52 58.9375 113.52C59.9935 113.52 60.1695 114.192 60.1535 115.552C60.1535 115.552 59.3535 115.312 58.5695 115.312C56.6655 115.312 55.6095 116.352 55.6095 117.76ZM56.7775 117.76C56.7775 116.816 57.5455 116.32 58.5695 116.32C59.3055 116.32 59.8975 116.48 60.1375 116.608V118.112C59.8175 118.592 59.0175 119.104 58.1055 119.104C57.2895 119.104 56.7775 118.512 56.7775 117.76ZM63.7968 119.648C63.7968 119.84 63.9568 120 64.1488 120H64.6288C64.8048 120 64.9808 119.84 64.9808 119.648V109.152C64.9808 108.976 64.8048 108.8 64.6288 108.8H64.1488C63.9568 108.8 63.7968 108.976 63.7968 109.152V119.648ZM67.0965 116.304C67.0965 118.416 68.4405 120.176 70.6805 120.176C71.9605 120.176 72.9365 119.68 73.3845 119.328C73.6565 119.12 73.5925 119.04 73.4485 118.816L73.2565 118.544C73.0645 118.256 72.9525 118.32 72.6965 118.496C72.2805 118.768 71.6725 119.104 70.6965 119.104C69.3525 119.104 68.3125 117.808 68.2805 116.576H73.6565C73.8165 116.576 73.9765 116.448 73.9925 116.256C74.0085 116.128 74.0245 115.936 74.0245 115.808C74.0245 113.872 72.6165 112.448 70.6805 112.448C68.4405 112.448 67.0965 114.224 67.0965 116.304ZM68.2965 115.632C68.4405 114.48 69.4325 113.52 70.6805 113.52C71.9445 113.52 72.8085 114.544 72.8405 115.632H68.2965ZM79.3305 116.32C79.3305 118.544 80.8665 120.176 83.0585 120.176C84.2905 120.176 85.2825 119.504 85.8425 118.688C85.9705 118.496 85.9065 118.336 85.7465 118.176L85.6505 118.08C85.4425 117.872 85.2345 117.808 85.0265 118.048C84.6105 118.528 84.1305 119.104 83.0105 119.104C81.6345 119.104 80.5305 117.872 80.5305 116.304C80.5305 114.768 81.6505 113.52 83.0585 113.52C83.8105 113.52 84.4025 113.744 84.9145 114.32C85.0585 114.48 85.2025 114.64 85.4425 114.432L85.6985 114.192C85.8745 114.048 85.9065 113.84 85.7625 113.664C85.0745 112.88 84.1785 112.448 83.0745 112.448C80.9305 112.448 79.3305 114.144 79.3305 116.32ZM87.2524 116.288C87.2524 118.4 88.9164 120.176 90.9644 120.176C93.0124 120.176 94.6764 118.4 94.6764 116.288C94.6764 114.208 93.0124 112.448 90.9644 112.448C88.9164 112.448 87.2524 114.208 87.2524 116.288ZM88.4204 116.288C88.4204 114.784 89.5084 113.52 90.9644 113.52C92.4204 113.52 93.4924 114.784 93.4924 116.288C93.4924 117.824 92.4204 119.104 90.9644 119.104C89.5084 119.104 88.4204 117.824 88.4204 116.288ZM96.6855 119.648C96.6855 119.84 96.8455 120 97.0375 120H97.5175C97.6935 120 97.8695 119.84 97.8695 119.648V114.544C97.8695 114.544 98.7495 113.52 100.141 113.52C101.23 113.52 101.71 114.176 101.71 115.584V119.648C101.71 119.84 101.87 120 102.062 120H102.542C102.718 120 102.894 119.84 102.894 119.648V115.744C102.894 113.84 102.366 112.448 100.222 112.448C98.6855 112.448 97.7415 113.392 97.7415 113.392L97.5815 112.832C97.5495 112.672 97.4535 112.608 97.2935 112.608H97.0375C96.8455 112.608 96.6855 112.784 96.6855 112.96V119.648ZM104.831 116.288C104.831 118.4 106.495 120.176 108.543 120.176C110.591 120.176 112.255 118.4 112.255 116.288C112.255 114.208 110.591 112.448 108.543 112.448C106.495 112.448 104.831 114.208 104.831 116.288ZM105.999 116.288C105.999 114.784 107.087 113.52 108.543 113.52C109.999 113.52 111.071 114.784 111.071 116.288C111.071 117.824 109.999 119.104 108.543 119.104C107.087 119.104 105.999 117.824 105.999 116.288ZM116.328 120.176C117.832 120.176 118.84 119.232 118.84 118.064C118.84 116.72 117.736 116.24 116.456 115.648C115.56 115.232 115.048 114.992 115.048 114.336C115.048 113.984 115.32 113.52 116.136 113.52C116.824 113.52 117.336 113.76 117.656 113.952C117.816 114.048 118.056 114.032 118.168 113.824L118.328 113.52C118.44 113.312 118.408 113.152 118.248 113.024C117.896 112.768 117.096 112.448 116.136 112.448C114.424 112.448 113.848 113.616 113.848 114.384C113.848 115.648 114.968 116.176 115.944 116.656C117.016 117.184 117.592 117.472 117.592 118.176C117.592 118.752 117.08 119.104 116.328 119.104C115.384 119.104 114.744 118.64 114.488 118.448C114.28 118.304 114.152 118.368 114.056 118.544L113.832 118.96C113.768 119.088 113.8 119.2 113.88 119.28C114.264 119.632 115.096 120.176 116.328 120.176ZM120.284 116.32C120.284 118.544 121.82 120.176 124.012 120.176C125.244 120.176 126.236 119.504 126.796 118.688C126.924 118.496 126.86 118.336 126.7 118.176L126.604 118.08C126.396 117.872 126.188 117.808 125.98 118.048C125.564 118.528 125.084 119.104 123.964 119.104C122.588 119.104 121.484 117.872 121.484 116.304C121.484 114.768 122.604 113.52 124.012 113.52C124.764 113.52 125.356 113.744 125.868 114.32C126.012 114.48 126.156 114.64 126.396 114.432L126.652 114.192C126.828 114.048 126.86 113.84 126.716 113.664C126.028 112.88 125.132 112.448 124.028 112.448C121.884 112.448 120.284 114.144 120.284 116.32ZM128.206 116.288C128.206 118.4 129.87 120.176 131.918 120.176C133.966 120.176 135.63 118.4 135.63 116.288C135.63 114.208 133.966 112.448 131.918 112.448C129.87 112.448 128.206 114.208 128.206 116.288ZM129.374 116.288C129.374 114.784 130.462 113.52 131.918 113.52C133.374 113.52 134.446 114.784 134.446 116.288C134.446 117.824 133.374 119.104 131.918 119.104C130.462 119.104 129.374 117.824 129.374 116.288Z" fill="#12284C"/>
</g>
<defs>
<filter id="filter0_d_3100_21688" x="0" y="0" width="187" height="160" filterUnits="userSpaceOnUse" color-interpolation-filters="sRGB">
<feFlood flood-opacity="0" result="BackgroundImageFix"/>
<feColorMatrix in="SourceAlpha" type="matrix" values="0 0 0 0 0 0 0 0 0 0 0 0 0 0 0 0 0 0 127 0" result="hardAlpha"/>
<feOffset dx="2" dy="2"/>
<feGaussianBlur stdDeviation="8"/>
<feColorMatrix type="matrix" values="0 0 0 0 0 0 0 0 0 0 0 0 0 0 0 0 0 0 0.08 0"/>
<feBlend mode="normal" in2="BackgroundImageFix" result="effect1_dropShadow_3100_21688"/>
<feBlend mode="normal" in="SourceGraphic" in2="effect1_dropShadow_3100_21688" result="shape"/>
</filter>
<clipPath id="clip0_3100_21688">
<rect width="60" height="48" fill="white" transform="translate(61.5 42)"/>
</clipPath>
</defs>
</svg>
