<svg width="185" height="160" viewBox="0 0 185 160" fill="none" xmlns="http://www.w3.org/2000/svg">
<g filter="url(#filter0_d_3100_21684)">
<rect x="14" y="14" width="153" height="128" rx="4" fill="#00ADBB"/>
<path d="M115.143 90.0001H65.8571C62.8571 90.0001 60.5 87.3601 60.5 84.0001V81.6001C60.5 80.8801 60.9286 80.4001 61.5714 80.4001H86.2143C86.8571 80.4001 87.2857 80.8801 87.2857 81.6001C87.2857 82.3201 87.7143 82.8001 88.3571 82.8001H92.6429C93.2857 82.8001 93.7143 82.3201 93.7143 81.6001C93.7143 80.8801 94.1429 80.4001 94.7857 80.4001H119.429C120.071 80.4001 120.5 80.8801 120.5 81.6001V84.0001C120.5 87.3601 118.143 90.0001 115.143 90.0001ZM62.6429 82.8001V84.0001C62.6429 86.0401 64.0357 87.6001 65.8571 87.6001H115.143C116.964 87.6001 118.357 86.0401 118.357 84.0001V82.8001H95.6429C95.2143 84.2401 94.0357 85.2001 92.6429 85.2001H88.3571C86.9643 85.2001 85.7857 84.2401 85.3571 82.8001H62.6429Z" fill="#12284C"/>
<path d="M66.9969 82.7997C66.3712 82.7997 65.9541 82.3797 65.9541 81.7497V53.3997C65.9541 51.0897 67.8311 49.1997 70.1252 49.1997H100.366C100.992 49.1997 101.409 49.6197 101.409 50.2497C101.409 50.8797 100.992 51.2997 100.366 51.2997H70.1252C68.9782 51.2997 68.0397 52.2447 68.0397 53.3997V81.7497C68.0397 82.3797 67.6226 82.7997 66.9969 82.7997Z" fill="#12284C"/>
<path d="M69.7488 78C69.4287 78 69.2152 77.8941 69.0018 77.6824C68.5749 77.2588 68.5749 76.6235 69.0018 76.2L81.8081 63.4941C82.235 63.0706 82.8753 63.0706 83.3022 63.4941L91.0927 71.2235L111.69 50.7882C112.116 50.3647 112.757 50.3647 113.184 50.7882L115.638 53.2235V44.1176H106.46L108.915 46.5529C109.342 46.9765 109.342 47.6118 108.915 48.0353L91.8397 64.9765C91.4129 65.4 90.7726 65.4 90.3457 64.9765L82.5552 57.2471L70.4959 69.2118C70.069 69.6353 69.4287 69.6353 69.0018 69.2118C68.5749 68.7882 68.5749 68.1529 69.0018 67.7294L81.8081 55.0235C82.235 54.6 82.8753 54.6 83.3022 55.0235L91.0927 62.7529L106.674 47.2941L103.152 43.8C102.832 43.4824 102.725 43.0588 102.939 42.6353C103.045 42.2118 103.472 42 103.899 42H116.705C117.346 42 117.773 42.4235 117.773 43.0588V55.7647C117.773 56.1882 117.559 56.6118 117.132 56.7176C116.705 56.9294 116.278 56.8235 115.958 56.5059L112.437 53.0118L91.8397 73.4471C91.4129 73.8706 90.7726 73.8706 90.3457 73.4471L82.5552 65.7176L70.4959 77.6824C70.2824 77.8941 70.069 78 69.7488 78Z" fill="white"/>
<path d="M54.5516 119.696C54.5516 119.856 54.6796 120 54.8556 120H55.4796C55.6396 120 55.7836 119.856 55.7836 119.696V115.616H58.8396L60.9196 119.76C60.9996 119.92 61.0796 120 61.2716 120H62.0396C62.3116 120 62.4236 119.744 62.3116 119.536L60.1196 115.472C61.5116 114.912 62.4876 113.68 62.4876 112.208C62.4876 110.304 60.9196 108.8 58.9996 108.8H54.8556C54.6796 108.8 54.5516 108.944 54.5516 109.104V119.696ZM55.8156 114.56V109.968H58.9196C60.1516 109.968 61.2236 111.008 61.2236 112.224C61.2236 113.536 60.1516 114.56 58.9196 114.56H55.8156ZM63.7996 116.304C63.7996 118.416 65.1436 120.176 67.3836 120.176C68.6636 120.176 69.6396 119.68 70.0876 119.328C70.3596 119.12 70.2956 119.04 70.1516 118.816L69.9596 118.544C69.7676 118.256 69.6556 118.32 69.3996 118.496C68.9836 118.768 68.3756 119.104 67.3996 119.104C66.0556 119.104 65.0156 117.808 64.9836 116.576H70.3596C70.5196 116.576 70.6796 116.448 70.6956 116.256C70.7116 116.128 70.7276 115.936 70.7276 115.808C70.7276 113.872 69.3196 112.448 67.3836 112.448C65.1436 112.448 63.7996 114.224 63.7996 116.304ZM64.9996 115.632C65.1436 114.48 66.1356 113.52 67.3836 113.52C68.6476 113.52 69.5116 114.544 69.5436 115.632H64.9996ZM74.7339 120.176C76.2379 120.176 77.2459 119.232 77.2459 118.064C77.2459 116.72 76.1419 116.24 74.8619 115.648C73.9659 115.232 73.4539 114.992 73.4539 114.336C73.4539 113.984 73.7259 113.52 74.5419 113.52C75.2299 113.52 75.7419 113.76 76.0619 113.952C76.2219 114.048 76.4619 114.032 76.5739 113.824L76.7339 113.52C76.8459 113.312 76.8139 113.152 76.6539 113.024C76.3019 112.768 75.5019 112.448 74.5419 112.448C72.8299 112.448 72.2539 113.616 72.2539 114.384C72.2539 115.648 73.3739 116.176 74.3499 116.656C75.4219 117.184 75.9979 117.472 75.9979 118.176C75.9979 118.752 75.4859 119.104 74.7339 119.104C73.7899 119.104 73.1499 118.64 72.8939 118.448C72.6859 118.304 72.5579 118.368 72.4619 118.544L72.2379 118.96C72.1739 119.088 72.2059 119.2 72.2859 119.28C72.6699 119.632 73.5019 120.176 74.7339 120.176ZM79.0899 116.944C79.0899 118.896 79.6019 120.176 81.7299 120.176C83.0579 120.176 83.7459 119.504 84.0179 119.216L84.1619 119.68C84.2099 119.872 84.2899 120 84.4979 120H84.7539C84.9299 120 85.0899 119.84 85.0899 119.648V112.96C85.0899 112.784 84.9299 112.608 84.7539 112.608H84.2579C84.0659 112.608 83.9219 112.784 83.9219 112.96V118.032C83.5859 118.416 82.9299 119.104 81.8259 119.104C80.7539 119.104 80.2739 118.432 80.2739 116.96V112.96C80.2739 112.784 80.1139 112.608 79.9219 112.608H79.4419C79.2339 112.608 79.0899 112.784 79.0899 112.96V116.944ZM87.6718 119.648C87.6718 119.84 87.8318 120 88.0238 120H88.5038C88.6798 120 88.8558 119.84 88.8558 119.648V109.152C88.8558 108.976 88.6798 108.8 88.5038 108.8H88.0238C87.8318 108.8 87.6718 108.976 87.6718 109.152V119.648ZM91.9155 113.632V118.128C91.9155 119.28 92.2035 120.176 93.6115 120.176C94.6035 120.176 95.3715 119.808 95.6915 119.584C95.8835 119.456 95.9155 119.344 95.8195 119.104L95.6755 118.768C95.5955 118.592 95.4995 118.448 95.2115 118.624C94.9075 118.816 94.4435 119.104 93.7555 119.104C93.3395 119.104 93.0995 118.816 93.0995 118.048V113.632H95.2755C95.4835 113.632 95.6435 113.472 95.6435 113.28V112.96C95.6435 112.752 95.4835 112.608 95.2755 112.608H93.0995V110.528C93.0995 110.336 92.9555 110.16 92.7635 110.176L92.2675 110.208C92.0915 110.224 91.9155 110.368 91.9155 110.56V112.608H90.9395C90.7155 112.608 90.5715 112.752 90.5715 112.96V113.28C90.5715 113.472 90.7155 113.632 90.9395 113.632H91.9155ZM96.922 117.76C96.922 119.248 97.914 120.176 99.21 120.176C100.346 120.176 101.114 119.616 101.498 119.232L101.642 119.728C101.69 119.888 101.754 120 101.946 120H102.25C102.442 120 102.602 119.84 102.602 119.648V115.552C102.602 113.376 102.202 112.448 100.314 112.448C99.098 112.448 98.138 112.768 97.77 112.928C97.594 113.008 97.482 113.104 97.546 113.328L97.706 113.76C97.77 113.936 97.866 114.032 98.058 113.952C98.394 113.84 99.242 113.52 100.25 113.52C101.306 113.52 101.482 114.192 101.466 115.552C101.466 115.552 100.666 115.312 99.882 115.312C97.978 115.312 96.922 116.352 96.922 117.76ZM98.09 117.76C98.09 116.816 98.858 116.32 99.882 116.32C100.618 116.32 101.21 116.48 101.45 116.608V118.112C101.13 118.592 100.33 119.104 99.418 119.104C98.602 119.104 98.09 118.512 98.09 117.76ZM104.565 116.288C104.565 118.4 106.005 120.176 107.877 120.176C109.269 120.176 110.213 119.216 110.213 119.216L110.309 119.696C110.373 119.872 110.469 120 110.629 120H110.917C111.109 120 111.285 119.84 111.285 119.648V109.152C111.285 108.976 111.109 108.8 110.917 108.8H110.469C110.277 108.8 110.117 108.976 110.117 109.152V112.912C110.117 112.912 109.285 112.448 108.069 112.448C105.845 112.448 104.565 114.128 104.565 116.288ZM105.765 116.304C105.765 114.832 106.645 113.52 108.229 113.52C109.253 113.52 110.117 113.936 110.117 113.936V117.92C110.117 117.92 109.349 119.104 108.021 119.104C106.677 119.104 105.765 117.744 105.765 116.304ZM113.299 116.288C113.299 118.4 114.963 120.176 117.011 120.176C119.059 120.176 120.723 118.4 120.723 116.288C120.723 114.208 119.059 112.448 117.011 112.448C114.963 112.448 113.299 114.208 113.299 116.288ZM114.467 116.288C114.467 114.784 115.555 113.52 117.011 113.52C118.467 113.52 119.539 114.784 119.539 116.288C119.539 117.824 118.467 119.104 117.011 119.104C115.555 119.104 114.467 117.824 114.467 116.288ZM124.796 120.176C126.3 120.176 127.308 119.232 127.308 118.064C127.308 116.72 126.204 116.24 124.924 115.648C124.028 115.232 123.516 114.992 123.516 114.336C123.516 113.984 123.788 113.52 124.604 113.52C125.292 113.52 125.804 113.76 126.124 113.952C126.284 114.048 126.524 114.032 126.636 113.824L126.796 113.52C126.908 113.312 126.876 113.152 126.716 113.024C126.364 112.768 125.564 112.448 124.604 112.448C122.892 112.448 122.316 113.616 122.316 114.384C122.316 115.648 123.436 116.176 124.412 116.656C125.484 117.184 126.06 117.472 126.06 118.176C126.06 118.752 125.548 119.104 124.796 119.104C123.852 119.104 123.212 118.64 122.956 118.448C122.748 118.304 122.62 118.368 122.524 118.544L122.3 118.96C122.236 119.088 122.268 119.2 122.348 119.28C122.732 119.632 123.564 120.176 124.796 120.176Z" fill="#12284C"/>
</g>
<defs>
<filter id="filter0_d_3100_21684" x="0" y="0" width="185" height="160" filterUnits="userSpaceOnUse" color-interpolation-filters="sRGB">
<feFlood flood-opacity="0" result="BackgroundImageFix"/>
<feColorMatrix in="SourceAlpha" type="matrix" values="0 0 0 0 0 0 0 0 0 0 0 0 0 0 0 0 0 0 127 0" result="hardAlpha"/>
<feOffset dx="2" dy="2"/>
<feGaussianBlur stdDeviation="8"/>
<feColorMatrix type="matrix" values="0 0 0 0 0 0 0 0 0 0 0 0 0 0 0 0 0 0 0.08 0"/>
<feBlend mode="normal" in2="BackgroundImageFix" result="effect1_dropShadow_3100_21684"/>
<feBlend mode="normal" in="SourceGraphic" in2="effect1_dropShadow_3100_21684" result="shape"/>
</filter>
</defs>
</svg>
