<svg width="182" height="160" viewBox="0 0 182 160" fill="none" xmlns="http://www.w3.org/2000/svg">
<g filter="url(#filter0_d_3100_21687)">
<rect x="14" y="14" width="150" height="128" rx="4" fill="#00ADBB"/>
<path d="M70.25 54.9233C70.25 54.4337 70.4475 53.9641 70.7992 53.6179C71.1508 53.2717 71.6277 53.0771 72.125 53.0771H98.375C98.8723 53.0771 99.3492 53.2717 99.7008 53.6179C100.052 53.9641 100.25 54.4337 100.25 54.9233C100.25 55.4129 100.052 55.8825 99.7008 56.2287C99.3492 56.575 98.8723 56.7695 98.375 56.7695H72.125C71.6277 56.7695 71.1508 56.575 70.7992 56.2287C70.4475 55.8825 70.25 55.4129 70.25 54.9233Z" fill="white"/>
<path d="M90.875 64.1536C90.3777 64.1536 89.9008 64.3481 89.5492 64.6943C89.1975 65.0405 89 65.5101 89 65.9997C89 66.4893 89.1975 66.9589 89.5492 67.3051C89.9008 67.6514 90.3777 67.8459 90.875 67.8459H98.375C98.8723 67.8459 99.3492 67.6514 99.7008 67.3051C100.052 66.9589 100.25 66.4893 100.25 65.9997C100.25 65.5101 100.052 65.0405 99.7008 64.6943C99.3492 64.3481 98.8723 64.1536 98.375 64.1536H90.875Z" fill="white"/>
<path d="M89 77.0769C89 76.5872 89.1975 76.1177 89.5492 75.7714C89.9008 75.4252 90.3777 75.2307 90.875 75.2307H98.375C98.8723 75.2307 99.3492 75.4252 99.7008 75.7714C100.052 76.1177 100.25 76.5872 100.25 77.0769C100.25 77.5665 100.052 78.0361 99.7008 78.3823C99.3492 78.7285 98.8723 78.923 98.375 78.923H90.875C90.3777 78.923 89.9008 78.7285 89.5492 78.3823C89.1975 78.0361 89 77.5665 89 77.0769Z" fill="white"/>
<path d="M72.125 64.1536C71.6277 64.1536 71.1508 64.3481 70.7992 64.6943C70.4475 65.0405 70.25 65.5101 70.25 65.9997V77.0766C70.25 77.5663 70.4475 78.0358 70.7992 78.3821C71.1508 78.7283 71.6277 78.9228 72.125 78.9228H83.375C83.8723 78.9228 84.3492 78.7283 84.7008 78.3821C85.0525 78.0358 85.25 77.5663 85.25 77.0766V65.9997C85.25 65.5101 85.0525 65.0405 84.7008 64.6943C84.3492 64.3481 83.8723 64.1536 83.375 64.1536H72.125ZM74 75.2305V67.8459H81.5V75.2305H74Z" fill="white"/>
<path d="M59 49.3846C59 47.4261 59.7902 45.5478 61.1967 44.1629C62.6032 42.778 64.5109 42 66.5 42H104C105.989 42 107.897 42.778 109.303 44.1629C110.71 45.5478 111.5 47.4261 111.5 49.3846V53.0769C113.489 53.0769 115.397 53.8549 116.803 55.2398C118.21 56.6247 119 58.503 119 60.4615V80.7692C119 83.2174 118.012 85.5653 116.254 87.2964C114.496 89.0275 112.111 90 109.625 90H68.375C65.8886 90 63.504 89.0275 61.7459 87.2964C59.9877 85.5653 59 83.2174 59 80.7692V49.3846ZM107.75 49.3846C107.75 48.4054 107.355 47.4662 106.652 46.7738C105.948 46.0813 104.995 45.6923 104 45.6923H66.5C65.5054 45.6923 64.5516 46.0813 63.8483 46.7738C63.1451 47.4662 62.75 48.4054 62.75 49.3846V80.7692C62.75 82.2381 63.3426 83.6469 64.3975 84.6855C65.4524 85.7242 66.8832 86.3077 68.375 86.3077H109.625C111.117 86.3077 112.548 85.7242 113.602 84.6855C114.657 83.6469 115.25 82.2381 115.25 80.7692V60.4615C115.25 59.4823 114.855 58.5431 114.152 57.8507C113.448 57.1582 112.495 56.7692 111.5 56.7692V80.7692C111.5 81.2589 111.302 81.7284 110.951 82.0747C110.599 82.4209 110.122 82.6154 109.625 82.6154C109.128 82.6154 108.651 82.4209 108.299 82.0747C107.948 81.7284 107.75 81.2589 107.75 80.7692V49.3846Z" fill="#12284C"/>
<path d="M50.4446 119.696C50.4446 119.856 50.5726 120 50.7486 120H51.3726C51.5326 120 51.6766 119.856 51.6766 119.696V114.592L55.5806 109.264C55.7086 109.056 55.5806 108.8 55.3246 108.8H54.5726C54.4606 108.8 54.3646 108.88 54.3166 108.944L51.0846 113.408L47.8526 108.944C47.8046 108.88 47.7086 108.8 47.5966 108.8H46.8446C46.5886 108.8 46.4606 109.056 46.5886 109.264L50.4446 114.608V119.696ZM57.2001 119.696C57.2001 119.856 57.3281 120 57.4881 120H61.0721C64.1601 120 66.6881 117.488 66.6881 114.384C66.6881 111.312 64.1601 108.8 61.0721 108.8H57.4881C57.3281 108.8 57.2001 108.944 57.2001 109.104V119.696ZM58.4161 118.896V109.888H60.9281C63.5521 109.888 65.3921 111.76 65.3921 114.384C65.3921 117.024 63.5521 118.896 60.9281 118.896H58.4161ZM68.9631 115.936C68.9631 118.368 70.6751 120.16 73.1871 120.16C75.7151 120.16 77.4431 118.368 77.4431 115.936V109.104C77.4431 108.944 77.2991 108.8 77.1391 108.8H76.5311C76.3551 108.8 76.2271 108.944 76.2271 109.104V115.872C76.2271 117.696 75.0751 119.024 73.1871 119.024C71.3151 119.024 70.1791 117.664 70.1791 115.84V109.104C70.1791 108.944 70.0511 108.8 69.8751 108.8H69.2671C69.1071 108.8 68.9631 108.944 68.9631 109.104V115.936ZM79.6992 114.416C79.6992 117.616 82.2432 120.16 85.4432 120.16C85.8112 120.16 86.2592 120.128 86.6112 120.064L88.3552 123.008C88.4192 123.12 88.5472 123.168 88.6112 123.168H89.4112C89.6672 123.168 89.8112 122.912 89.6672 122.688L87.7952 119.68C89.8112 118.784 91.2032 116.784 91.2032 114.416C91.2032 111.216 88.6432 108.64 85.4432 108.64C82.2432 108.64 79.6992 111.216 79.6992 114.416ZM80.8192 114.416C80.8192 111.872 82.8992 109.76 85.4432 109.76C87.9872 109.76 90.0832 111.872 90.0832 114.416C90.0832 116.96 87.9872 119.04 85.4432 119.04C82.8992 119.04 80.8192 116.96 80.8192 114.416ZM93.0471 118.864C93.2551 119.056 94.5351 120.16 96.4231 120.16C98.2951 120.16 99.8791 118.88 99.8791 117.216C99.8791 115.36 98.4871 114.544 96.3271 113.664C94.9831 113.104 94.1671 112.608 94.1671 111.472C94.1671 110.8 94.6791 109.712 96.3751 109.712C97.2711 109.712 97.8311 109.952 98.5031 110.352C98.7591 110.496 98.9351 110.496 99.0631 110.272L99.2231 110C99.3991 109.696 99.2231 109.504 99.1271 109.456C99.1271 109.456 97.9591 108.64 96.3911 108.64C93.8471 108.64 92.9831 110.4 92.9831 111.488C92.9831 113.312 94.0391 113.984 95.7991 114.736C97.6391 115.52 98.5991 116.16 98.5991 117.264C98.5991 118.272 97.7511 119.088 96.4551 119.088C95.0311 119.088 93.8151 118.016 93.7031 117.92C93.4791 117.728 93.3511 117.808 93.1911 118.016L92.9511 118.32C92.7271 118.608 92.9191 118.752 93.0471 118.864ZM105.934 119.696C105.934 119.856 106.062 120 106.222 120H109.806C112.894 120 115.422 117.488 115.422 114.384C115.422 111.312 112.894 108.8 109.806 108.8H106.222C106.062 108.8 105.934 108.944 105.934 109.104V119.696ZM107.15 118.896V109.888H109.662C112.286 109.888 114.126 111.76 114.126 114.384C114.126 117.024 112.286 118.896 109.662 118.896H107.15ZM116.805 117.76C116.805 119.248 117.797 120.176 119.093 120.176C120.229 120.176 120.997 119.616 121.381 119.232L121.525 119.728C121.573 119.888 121.637 120 121.829 120H122.133C122.325 120 122.485 119.84 122.485 119.648V115.552C122.485 113.376 122.085 112.448 120.197 112.448C118.981 112.448 118.021 112.768 117.653 112.928C117.477 113.008 117.365 113.104 117.429 113.328L117.589 113.76C117.653 113.936 117.749 114.032 117.941 113.952C118.277 113.84 119.125 113.52 120.133 113.52C121.189 113.52 121.365 114.192 121.349 115.552C121.349 115.552 120.549 115.312 119.765 115.312C117.861 115.312 116.805 116.352 116.805 117.76ZM117.973 117.76C117.973 116.816 118.741 116.32 119.765 116.32C120.501 116.32 121.093 116.48 121.333 116.608V118.112C121.013 118.592 120.213 119.104 119.301 119.104C118.485 119.104 117.973 118.512 117.973 117.76ZM126.691 119.984L125.267 123.36C125.155 123.616 125.283 123.808 125.571 123.808H126.147C126.275 123.808 126.419 123.696 126.467 123.584L131.091 113.024C131.203 112.784 131.091 112.608 130.803 112.608H130.211C130.067 112.608 129.939 112.688 129.891 112.816L127.395 118.688H127.363L125.267 112.816C125.219 112.688 125.091 112.608 124.947 112.608H124.275C123.987 112.608 123.891 112.768 123.987 113.008L126.691 119.984Z" fill="#12284C"/>
</g>
<defs>
<filter id="filter0_d_3100_21687" x="0" y="0" width="182" height="160" filterUnits="userSpaceOnUse" color-interpolation-filters="sRGB">
<feFlood flood-opacity="0" result="BackgroundImageFix"/>
<feColorMatrix in="SourceAlpha" type="matrix" values="0 0 0 0 0 0 0 0 0 0 0 0 0 0 0 0 0 0 127 0" result="hardAlpha"/>
<feOffset dx="2" dy="2"/>
<feGaussianBlur stdDeviation="8"/>
<feColorMatrix type="matrix" values="0 0 0 0 0 0 0 0 0 0 0 0 0 0 0 0 0 0 0.08 0"/>
<feBlend mode="normal" in2="BackgroundImageFix" result="effect1_dropShadow_3100_21687"/>
<feBlend mode="normal" in="SourceGraphic" in2="effect1_dropShadow_3100_21687" result="shape"/>
</filter>
</defs>
</svg>
