<svg width="182" height="160" viewBox="0 0 182 160" fill="none" xmlns="http://www.w3.org/2000/svg">
<g filter="url(#filter0_d_3100_21685)">
<rect x="14" y="14" width="150" height="128" rx="4" fill="#00ADBB"/>
<g clip-path="url(#clip0_3100_21685)">
<path d="M74.2727 49.8462H63.2273C62.4909 49.8462 62 49.3846 62 48.6923C62 48 62.4909 47.5385 63.2273 47.5385H74.2727V37.1538C74.2727 36.4615 74.7636 36 75.5 36C76.2364 36 76.7273 36.4615 76.7273 37.1538V47.5385C76.7273 48.8077 75.6227 49.8462 74.2727 49.8462Z" fill="#12284C"/>
<path d="M108.636 96H64.4545C63.1045 96 62 94.9615 62 93.6923V48.6923C62 48.3462 62.1227 48.1154 62.3682 47.8846L74.6409 36.3462C74.8864 36.1154 75.1318 36 75.5 36H108.636C109.986 36 111.091 37.0385 111.091 38.3077V44.0769C111.091 44.7692 110.6 45.2308 109.864 45.2308C109.127 45.2308 108.636 44.7692 108.636 44.0769V38.3077H75.9909L64.4545 49.1538V93.6923H108.636V71.7692C108.636 71.0769 109.127 70.6154 109.864 70.6154C110.6 70.6154 111.091 71.0769 111.091 71.7692V93.6923C111.091 94.9615 109.986 96 108.636 96Z" fill="#12284C"/>
<path d="M82.8633 82.1534H70.5906C69.8542 82.1534 69.3633 81.6919 69.3633 80.9995C69.3633 80.3072 69.8542 79.8457 70.5906 79.8457H82.8633C83.5996 79.8457 84.0906 80.3072 84.0906 80.9995C84.0906 81.6919 83.5996 82.1534 82.8633 82.1534Z" fill="#12284C"/>
<path d="M82.8633 86.7699H70.5906C69.8542 86.7699 69.3633 86.3083 69.3633 85.616C69.3633 84.9237 69.8542 84.4622 70.5906 84.4622H82.8633C83.5996 84.4622 84.0906 84.9237 84.0906 85.616C84.0906 86.3083 83.5996 86.7699 82.8633 86.7699Z" fill="#12284C"/>
<path d="M102.5 82.1534H90.2273C89.4909 82.1534 89 81.6919 89 80.9995C89 80.3072 89.4909 79.8457 90.2273 79.8457H102.5C103.236 79.8457 103.727 80.3072 103.727 80.9995C103.727 81.6919 103.236 82.1534 102.5 82.1534Z" fill="#12284C"/>
<path d="M102.5 86.7699H90.2273C89.4909 86.7699 89 86.3083 89 85.616C89 84.9237 89.4909 84.4622 90.2273 84.4622H102.5C103.236 84.4622 103.727 84.9237 103.727 85.616C103.727 86.3083 103.236 86.7699 102.5 86.7699Z" fill="#12284C"/>
<path d="M77.9542 77.9992H70.5906C69.8542 77.9992 69.3633 77.4981 69.3633 76.7464V66.7246C69.3633 65.973 69.8542 65.4719 70.5906 65.4719H77.9542C78.6906 65.4719 79.1815 65.973 79.1815 66.7246V76.7464C79.1815 77.4981 78.6906 77.9992 77.9542 77.9992ZM71.8178 75.4937H76.7269V67.9774H71.8178V75.4937Z" fill="white"/>
<path d="M85.3175 78H77.9538C77.2175 78 76.7266 77.4989 76.7266 76.7472V56.7037C76.7266 55.952 77.2175 55.4509 77.9538 55.4509H82.8629C83.5993 55.4509 84.0902 55.952 84.0902 56.7037C84.0902 57.4553 83.5993 57.9564 82.8629 57.9564H79.1811V75.4945H85.3175C86.0538 75.4945 86.5447 75.9956 86.5447 76.7472C86.5447 77.4989 86.0538 78 85.3175 78Z" fill="white"/>
<path d="M98.8177 67.9781C92.0677 67.9781 86.5449 62.3408 86.5449 55.4508C86.5449 48.5608 92.0677 42.9236 98.8177 42.9236C105.568 42.9236 111.09 48.5608 111.09 55.4508C111.09 62.3408 105.568 67.9781 98.8177 67.9781ZM98.8177 45.429C93.4177 45.429 88.9995 49.9388 88.9995 55.4508C88.9995 60.9628 93.4177 65.4726 98.8177 65.4726C104.218 65.4726 108.636 60.9628 108.636 55.4508C108.636 49.9388 104.218 45.429 98.8177 45.429Z" fill="white"/>
<path d="M114.773 72.9882C114.404 72.9882 114.159 72.8629 113.913 72.6124L105.813 64.3444C105.323 63.8433 105.323 63.0917 105.813 62.5906C106.304 62.0895 107.041 62.0895 107.532 62.5906L115.632 70.8586C116.123 71.3597 116.123 72.1113 115.632 72.6124C115.386 72.8629 115.141 72.9882 114.773 72.9882Z" fill="white"/>
<path d="M100.045 77.9998H92.6814C91.945 77.9998 91.4541 77.4987 91.4541 76.7471V70.4834C91.4541 69.7318 91.945 69.2307 92.6814 69.2307C93.4177 69.2307 93.9086 69.7318 93.9086 70.4834V75.4943H98.8177V71.7362C98.8177 70.9845 99.3086 70.4834 100.045 70.4834C100.781 70.4834 101.272 70.9845 101.272 71.7362V76.7471C101.272 77.4987 100.781 77.9998 100.045 77.9998Z" fill="white"/>
<path d="M92.6817 77.9989H85.3181C84.5817 77.9989 84.0908 77.4979 84.0908 76.7462V64.219C84.0908 63.4673 84.5817 62.9662 85.3181 62.9662C86.0545 62.9662 86.5454 63.4673 86.5454 64.219V75.4935H91.4545V70.4826C91.4545 69.731 91.9454 69.2299 92.6817 69.2299C93.4181 69.2299 93.909 69.731 93.909 70.4826V76.7462C93.909 77.4979 93.4181 77.9989 92.6817 77.9989Z" fill="white"/>
<path d="M97.5907 60.4612C97.2226 60.4612 96.9771 60.3359 96.7316 60.0853L93.0498 56.3272C92.5589 55.8261 92.5589 55.0744 93.0498 54.5733C93.5407 54.0723 94.2771 54.0723 94.768 54.5733L97.5907 57.4546L102.868 52.0679C103.359 51.5668 104.095 51.5668 104.586 52.0679C105.077 52.569 105.077 53.3206 104.586 53.8217L98.4498 60.0853C98.2044 60.3359 97.9589 60.4612 97.5907 60.4612Z" fill="white"/>
</g>
<path d="M25.1992 114.416C25.1992 117.616 27.7752 120.16 30.9752 120.16C32.3992 120.16 33.7272 119.568 34.7832 118.608C34.8952 118.496 34.9272 118.272 34.7992 118.176L34.4312 117.808C34.3032 117.68 34.1752 117.664 34.0152 117.792C33.1672 118.512 32.3512 118.992 30.9592 118.992C28.4312 118.992 26.4952 116.864 26.4952 114.4C26.4952 111.92 28.4312 109.792 30.9592 109.792C32.1272 109.792 33.1832 110.272 34.0152 110.992C34.1752 111.152 34.3032 111.168 34.4312 111.008L34.8632 110.576C34.9912 110.448 34.9752 110.256 34.8472 110.128C33.7592 109.2 32.5912 108.64 30.9752 108.64C27.7752 108.64 25.1992 111.216 25.1992 114.416ZM36.3227 116.288C36.3227 118.4 37.9867 120.176 40.0347 120.176C42.0827 120.176 43.7467 118.4 43.7467 116.288C43.7467 114.208 42.0827 112.448 40.0347 112.448C37.9867 112.448 36.3227 114.208 36.3227 116.288ZM37.4907 116.288C37.4907 114.784 38.5787 113.52 40.0347 113.52C41.4907 113.52 42.5627 114.784 42.5627 116.288C42.5627 117.824 41.4907 119.104 40.0347 119.104C38.5787 119.104 37.4907 117.824 37.4907 116.288ZM45.7558 119.648C45.7558 119.84 45.9158 120 46.1078 120H46.5878C46.7638 120 46.9398 119.84 46.9398 119.648V114.544C46.9398 114.544 47.6118 113.52 48.9238 113.52C50.1238 113.52 50.5878 114.336 50.5878 115.744V119.648C50.5878 119.84 50.7638 120 50.9398 120H51.4198C51.6118 120 51.7718 119.84 51.7718 119.648V115.744C51.7718 115.36 51.7398 114.848 51.6758 114.528C51.9478 114.304 52.6198 113.52 53.8198 113.52C54.9398 113.52 55.3878 114.368 55.3878 115.744V119.648C55.3878 119.84 55.5478 120 55.7398 120H56.2198C56.4118 120 56.5718 119.84 56.5718 119.648V115.744C56.5718 113.84 56.0598 112.448 53.9158 112.448C52.4278 112.448 51.3718 113.552 51.2758 113.616C50.7958 112.848 50.2038 112.448 49.0998 112.448C47.5798 112.448 46.8118 113.392 46.8118 113.392L46.6518 112.832C46.6198 112.672 46.5238 112.608 46.3638 112.608H46.1078C45.9158 112.608 45.7558 112.784 45.7558 112.96V119.648ZM58.9102 116.944C58.9102 118.896 59.4222 120.176 61.5502 120.176C62.8782 120.176 63.5662 119.504 63.8382 119.216L63.9822 119.68C64.0302 119.872 64.1102 120 64.3182 120H64.5742C64.7502 120 64.9102 119.84 64.9102 119.648V112.96C64.9102 112.784 64.7502 112.608 64.5742 112.608H64.0782C63.8862 112.608 63.7422 112.784 63.7422 112.96V118.032C63.4062 118.416 62.7502 119.104 61.6462 119.104C60.5742 119.104 60.0942 118.432 60.0942 116.96V112.96C60.0942 112.784 59.9342 112.608 59.7422 112.608H59.2622C59.0542 112.608 58.9102 112.784 58.9102 112.96V116.944ZM67.4121 119.648C67.4121 119.84 67.5721 120 67.7641 120H68.2441C68.4201 120 68.5961 119.84 68.5961 119.648V114.544C68.5961 114.544 69.4761 113.52 70.8681 113.52C71.9561 113.52 72.4361 114.176 72.4361 115.584V119.648C72.4361 119.84 72.5961 120 72.7881 120H73.2681C73.4441 120 73.6201 119.84 73.6201 119.648V115.744C73.6201 113.84 73.0921 112.448 70.9481 112.448C69.4121 112.448 68.4681 113.392 68.4681 113.392L68.3081 112.832C68.2761 112.672 68.1801 112.608 68.0201 112.608H67.7641C67.5721 112.608 67.4121 112.784 67.4121 112.96V119.648ZM76.5971 110.704C77.0931 110.704 77.4771 110.304 77.4771 109.84C77.4771 109.328 77.0931 108.944 76.5971 108.944C76.1171 108.944 75.7331 109.328 75.7331 109.84C75.7331 110.304 76.1171 110.704 76.5971 110.704ZM76.0371 119.648C76.0371 119.84 76.1971 120 76.3891 120H76.8691C77.0451 120 77.2211 119.84 77.2211 119.648V112.96C77.2211 112.784 77.0451 112.608 76.8691 112.608H76.3891C76.1971 112.608 76.0371 112.784 76.0371 112.96V119.648ZM79.2446 116.32C79.2446 118.544 80.7806 120.176 82.9726 120.176C84.2046 120.176 85.1966 119.504 85.7566 118.688C85.8846 118.496 85.8206 118.336 85.6606 118.176L85.5646 118.08C85.3566 117.872 85.1486 117.808 84.9406 118.048C84.5246 118.528 84.0446 119.104 82.9246 119.104C81.5486 119.104 80.4446 117.872 80.4446 116.304C80.4446 114.768 81.5646 113.52 82.9726 113.52C83.7246 113.52 84.3166 113.744 84.8286 114.32C84.9726 114.48 85.1166 114.64 85.3566 114.432L85.6126 114.192C85.7886 114.048 85.8206 113.84 85.6766 113.664C84.9886 112.88 84.0926 112.448 82.9886 112.448C80.8446 112.448 79.2446 114.144 79.2446 116.32ZM87.1486 117.76C87.1486 119.248 88.1406 120.176 89.4366 120.176C90.5726 120.176 91.3406 119.616 91.7246 119.232L91.8686 119.728C91.9166 119.888 91.9806 120 92.1726 120H92.4766C92.6686 120 92.8286 119.84 92.8286 119.648V115.552C92.8286 113.376 92.4286 112.448 90.5406 112.448C89.3246 112.448 88.3646 112.768 87.9966 112.928C87.8206 113.008 87.7086 113.104 87.7726 113.328L87.9326 113.76C87.9966 113.936 88.0926 114.032 88.2846 113.952C88.6206 113.84 89.4686 113.52 90.4766 113.52C91.5326 113.52 91.7086 114.192 91.6926 115.552C91.6926 115.552 90.8926 115.312 90.1086 115.312C88.2046 115.312 87.1486 116.352 87.1486 117.76ZM88.3166 117.76C88.3166 116.816 89.0846 116.32 90.1086 116.32C90.8446 116.32 91.4366 116.48 91.6766 116.608V118.112C91.3566 118.592 90.5566 119.104 89.6446 119.104C88.8286 119.104 88.3166 118.512 88.3166 117.76ZM94.7918 116.288C94.7918 118.4 96.2318 120.176 98.1038 120.176C99.4958 120.176 100.44 119.216 100.44 119.216L100.536 119.696C100.6 119.872 100.696 120 100.856 120H101.144C101.336 120 101.512 119.84 101.512 119.648V109.152C101.512 108.976 101.336 108.8 101.144 108.8H100.696C100.504 108.8 100.344 108.976 100.344 109.152V112.912C100.344 112.912 99.5118 112.448 98.2958 112.448C96.0718 112.448 94.7918 114.128 94.7918 116.288ZM95.9918 116.304C95.9918 114.832 96.8718 113.52 98.4558 113.52C99.4798 113.52 100.344 113.936 100.344 113.936V117.92C100.344 117.92 99.5758 119.104 98.2478 119.104C96.9038 119.104 95.9918 117.744 95.9918 116.304ZM103.526 116.288C103.526 118.4 105.19 120.176 107.238 120.176C109.286 120.176 110.95 118.4 110.95 116.288C110.95 114.208 109.286 112.448 107.238 112.448C105.19 112.448 103.526 114.208 103.526 116.288ZM104.694 116.288C104.694 114.784 105.782 113.52 107.238 113.52C108.694 113.52 109.766 114.784 109.766 116.288C109.766 117.824 108.694 119.104 107.238 119.104C105.782 119.104 104.694 117.824 104.694 116.288ZM115.023 120.176C116.527 120.176 117.535 119.232 117.535 118.064C117.535 116.72 116.431 116.24 115.151 115.648C114.255 115.232 113.743 114.992 113.743 114.336C113.743 113.984 114.015 113.52 114.831 113.52C115.519 113.52 116.031 113.76 116.351 113.952C116.511 114.048 116.751 114.032 116.863 113.824L117.023 113.52C117.135 113.312 117.103 113.152 116.943 113.024C116.591 112.768 115.791 112.448 114.831 112.448C113.119 112.448 112.543 113.616 112.543 114.384C112.543 115.648 113.663 116.176 114.639 116.656C115.711 117.184 116.287 117.472 116.287 118.176C116.287 118.752 115.775 119.104 115.023 119.104C114.079 119.104 113.439 118.64 113.183 118.448C112.975 118.304 112.847 118.368 112.751 118.544L112.527 118.96C112.463 119.088 112.495 119.2 112.575 119.28C112.959 119.632 113.791 120.176 115.023 120.176ZM122.839 116.304C122.839 118.416 124.183 120.176 126.423 120.176C127.703 120.176 128.679 119.68 129.127 119.328C129.399 119.12 129.335 119.04 129.191 118.816L128.999 118.544C128.807 118.256 128.695 118.32 128.439 118.496C128.023 118.768 127.415 119.104 126.439 119.104C125.095 119.104 124.055 117.808 124.023 116.576H129.399C129.559 116.576 129.719 116.448 129.735 116.256C129.751 116.128 129.767 115.936 129.767 115.808C129.767 113.872 128.359 112.448 126.423 112.448C124.183 112.448 122.839 114.224 122.839 116.304ZM124.039 115.632C124.183 114.48 125.175 113.52 126.423 113.52C127.687 113.52 128.551 114.544 128.583 115.632H124.039ZM135.841 119.696C135.841 119.856 135.969 120 136.145 120H136.769C136.929 120 137.073 119.856 137.073 119.696V115.328H141.665C141.825 115.328 141.969 115.184 141.969 115.024V114.56C141.969 114.4 141.825 114.256 141.665 114.256H137.073V109.872H142.449C142.625 109.872 142.753 109.728 142.753 109.568V109.104C142.753 108.944 142.625 108.8 142.449 108.8H136.145C135.969 108.8 135.841 108.944 135.841 109.104V119.696ZM144.763 119.696C144.763 119.856 144.891 120 145.067 120H145.691C145.851 120 145.995 119.856 145.995 119.696V115.616H149.051L151.131 119.76C151.211 119.92 151.291 120 151.483 120H152.251C152.523 120 152.635 119.744 152.523 119.536L150.331 115.472C151.723 114.912 152.699 113.68 152.699 112.208C152.699 110.304 151.131 108.8 149.211 108.8H145.067C144.891 108.8 144.763 108.944 144.763 109.104V119.696ZM146.027 114.56V109.968H149.131C150.363 109.968 151.435 111.008 151.435 112.224C151.435 113.536 150.363 114.56 149.131 114.56H146.027Z" fill="#12284C"/>
</g>
<defs>
<filter id="filter0_d_3100_21685" x="0" y="0" width="182" height="160" filterUnits="userSpaceOnUse" color-interpolation-filters="sRGB">
<feFlood flood-opacity="0" result="BackgroundImageFix"/>
<feColorMatrix in="SourceAlpha" type="matrix" values="0 0 0 0 0 0 0 0 0 0 0 0 0 0 0 0 0 0 127 0" result="hardAlpha"/>
<feOffset dx="2" dy="2"/>
<feGaussianBlur stdDeviation="8"/>
<feColorMatrix type="matrix" values="0 0 0 0 0 0 0 0 0 0 0 0 0 0 0 0 0 0 0.08 0"/>
<feBlend mode="normal" in2="BackgroundImageFix" result="effect1_dropShadow_3100_21685"/>
<feBlend mode="normal" in="SourceGraphic" in2="effect1_dropShadow_3100_21685" result="shape"/>
</filter>
<clipPath id="clip0_3100_21685">
<rect width="54" height="60" fill="white" transform="translate(62 36)"/>
</clipPath>
</defs>
</svg>
