<svg width="187" height="160" viewBox="0 0 187 160" fill="none" xmlns="http://www.w3.org/2000/svg">
<g filter="url(#filter0_d_3100_21689)">
<rect x="14" y="14" width="155" height="128" rx="4" fill="#00ADBB"/>
<g clip-path="url(#clip0_3100_21689)">
<path d="M91.5 76.0225C91.4 76.0225 91.4 76.0225 91.3 76.0225C90.2 75.927 89.2 75.5452 88.5 74.7816L65.8 50.8225C65.4 50.4406 65.4 49.7725 65.8 49.4861C66.2 49.1043 66.8 49.1997 67.2 49.5816L90 73.5407C90.4 73.9225 90.9 74.1134 91.4 74.2088C91.9 74.2088 92.4 74.0179 92.8 73.7316L92.9 73.6361L115.8 49.4861C116.2 49.1043 116.8 49.1043 117.2 49.3906C117.6 49.7725 117.6 50.3452 117.3 50.727L94.5 74.7816C94.4 74.877 94.3 74.9725 94.2 75.0679C93.4 75.7361 92.5 76.0225 91.5 76.0225Z" fill="white"/>
<path d="M89.5 82.2272H77.5C76.9 82.2272 76.5 81.8454 76.5 81.2727C76.5 80.6999 76.9 80.3181 77.5 80.3181H89.5C90.1 80.3181 90.5 80.6999 90.5 81.2727C90.5 81.8454 90.1 82.2272 89.5 82.2272Z" fill="white"/>
<path d="M93.5 82.2272H92.5C91.9 82.2272 91.5 81.8454 91.5 81.2727C91.5 80.6999 91.9 80.3181 92.5 80.3181H93.5C94.1 80.3181 94.5 80.6999 94.5 81.2727C94.5 81.8454 94.1 82.2272 93.5 82.2272Z" fill="white"/>
<path d="M116.5 87H66.5C63.7 87 61.5 84.9 61.5 82.2273V49.7727C61.5 47.1 63.7 45 66.5 45H116.5C119.3 45 121.5 47.1 121.5 49.7727V82.2273C121.5 84.9 119.3 87 116.5 87ZM66.5 46.9091C64.8 46.9091 63.5 48.15 63.5 49.7727V82.2273C63.5 83.85 64.8 85.0909 66.5 85.0909H116.5C118.2 85.0909 119.5 83.85 119.5 82.2273V49.7727C119.5 48.15 118.2 46.9091 116.5 46.9091H66.5Z" fill="#12284C"/>
<path d="M119.3 85.8545C119 85.8545 118.8 85.7591 118.6 85.5681L104.4 72.0136C104 71.6318 104 71.0591 104.4 70.6772C104.8 70.2954 105.4 70.2954 105.8 70.6772L120 84.2318C120.4 84.6136 120.4 85.1863 120 85.5681C119.8 85.7591 119.6 85.8545 119.3 85.8545Z" fill="#12284C"/>
<path d="M63.7002 85.8545C63.4002 85.8545 63.2002 85.7591 63.0002 85.5681C62.6002 85.1863 62.6002 84.6136 63.0002 84.2318L77.2002 70.6772C77.6002 70.2954 78.2002 70.2954 78.6002 70.6772C79.0002 71.0591 79.0002 71.6318 78.6002 72.0136L64.4002 85.5681C64.2002 85.7591 63.9002 85.8545 63.7002 85.8545Z" fill="#12284C"/>
</g>
<path d="M67.3711 119.616C67.3231 119.84 67.4191 120 67.6591 120H68.2991C68.4271 120 68.5711 119.888 68.5871 119.776L69.9791 111.536C69.9951 111.536 70.0271 111.536 70.0431 111.536L73.0191 119.984C73.0511 120.08 73.1951 120.16 73.2911 120.16H73.5791C73.6751 120.16 73.8191 120.08 73.8511 119.984L76.7951 111.536C76.8111 111.536 76.8431 111.536 76.8591 111.536L78.2831 119.776C78.3151 119.888 78.4431 120 78.5711 120H79.2111C79.4511 120 79.5471 119.84 79.4991 119.616L77.4351 108.864C77.4031 108.736 77.2751 108.64 77.1471 108.64H76.8911C76.7791 108.64 76.6511 108.72 76.6191 108.816L73.4991 117.632C73.4671 117.632 73.4511 117.632 73.4191 117.632L70.2511 108.816C70.2191 108.72 70.0911 108.64 69.9791 108.64H69.7231C69.5951 108.64 69.4671 108.736 69.4351 108.864L67.3711 119.616ZM81.0079 117.76C81.0079 119.248 81.9999 120.176 83.2959 120.176C84.4319 120.176 85.1999 119.616 85.5839 119.232L85.7279 119.728C85.7759 119.888 85.8399 120 86.0319 120H86.3359C86.5279 120 86.6879 119.84 86.6879 119.648V115.552C86.6879 113.376 86.2879 112.448 84.3999 112.448C83.1839 112.448 82.2239 112.768 81.8559 112.928C81.6799 113.008 81.5679 113.104 81.6319 113.328L81.7919 113.76C81.8559 113.936 81.9519 114.032 82.1439 113.952C82.4799 113.84 83.3279 113.52 84.3359 113.52C85.3919 113.52 85.5679 114.192 85.5519 115.552C85.5519 115.552 84.7519 115.312 83.9679 115.312C82.0639 115.312 81.0079 116.352 81.0079 117.76ZM82.1759 117.76C82.1759 116.816 82.9439 116.32 83.9679 116.32C84.7039 116.32 85.2959 116.48 85.5359 116.608V118.112C85.2159 118.592 84.4159 119.104 83.5039 119.104C82.6879 119.104 82.1759 118.512 82.1759 117.76ZM89.6752 110.704C90.1712 110.704 90.5552 110.304 90.5552 109.84C90.5552 109.328 90.1712 108.944 89.6752 108.944C89.1952 108.944 88.8112 109.328 88.8112 109.84C88.8112 110.304 89.1952 110.704 89.6752 110.704ZM89.1152 119.648C89.1152 119.84 89.2752 120 89.4672 120H89.9472C90.1232 120 90.2992 119.84 90.2992 119.648V112.96C90.2992 112.784 90.1232 112.608 89.9472 112.608H89.4672C89.2752 112.608 89.1152 112.784 89.1152 112.96V119.648ZM92.8827 119.648C92.8827 119.84 93.0427 120 93.2347 120H93.7147C93.8907 120 94.0667 119.84 94.0667 119.648V109.152C94.0667 108.976 93.8907 108.8 93.7147 108.8H93.2347C93.0427 108.8 92.8827 108.976 92.8827 109.152V119.648ZM97.2064 110.704C97.7024 110.704 98.0864 110.304 98.0864 109.84C98.0864 109.328 97.7024 108.944 97.2064 108.944C96.7264 108.944 96.3424 109.328 96.3424 109.84C96.3424 110.304 96.7264 110.704 97.2064 110.704ZM96.6464 119.648C96.6464 119.84 96.8064 120 96.9984 120H97.4784C97.6544 120 97.8304 119.84 97.8304 119.648V112.96C97.8304 112.784 97.6544 112.608 97.4784 112.608H96.9984C96.8064 112.608 96.6464 112.784 96.6464 112.96V119.648ZM100.334 119.648C100.334 119.84 100.494 120 100.686 120H101.166C101.342 120 101.518 119.84 101.518 119.648V114.544C101.518 114.544 102.398 113.52 103.79 113.52C104.878 113.52 105.358 114.176 105.358 115.584V119.648C105.358 119.84 105.518 120 105.71 120H106.19C106.366 120 106.542 119.84 106.542 119.648V115.744C106.542 113.84 106.014 112.448 103.87 112.448C102.334 112.448 101.39 113.392 101.39 113.392L101.23 112.832C101.198 112.672 101.102 112.608 100.942 112.608H100.686C100.494 112.608 100.334 112.784 100.334 112.96V119.648ZM109.695 116.288C109.695 114.848 110.607 113.536 112.079 113.536C113.279 113.536 114.031 114.432 114.031 114.432V118.48C114.031 118.48 113.183 119.088 112.159 119.088C110.751 119.088 109.695 117.888 109.695 116.288ZM115.215 112.96C115.215 112.784 115.039 112.608 114.847 112.608H114.623C114.431 112.608 114.351 112.72 114.271 112.864L114.159 113.2C114.159 113.2 113.279 112.448 111.951 112.448C109.935 112.448 108.495 114.192 108.495 116.304C108.495 118.464 109.967 120.176 111.999 120.176C113.215 120.176 114.047 119.52 114.047 119.52V120.048C114.047 121.776 113.151 122.416 111.983 122.416C111.167 122.416 110.527 121.968 110.127 121.632C109.951 121.472 109.759 121.472 109.647 121.648L109.327 122.112C109.247 122.224 109.279 122.432 109.407 122.544C109.791 122.896 110.815 123.504 111.983 123.504C113.663 123.504 115.215 122.576 115.215 120.048V112.96Z" fill="#12284C"/>
</g>
<defs>
<filter id="filter0_d_3100_21689" x="0" y="0" width="187" height="160" filterUnits="userSpaceOnUse" color-interpolation-filters="sRGB">
<feFlood flood-opacity="0" result="BackgroundImageFix"/>
<feColorMatrix in="SourceAlpha" type="matrix" values="0 0 0 0 0 0 0 0 0 0 0 0 0 0 0 0 0 0 127 0" result="hardAlpha"/>
<feOffset dx="2" dy="2"/>
<feGaussianBlur stdDeviation="8"/>
<feColorMatrix type="matrix" values="0 0 0 0 0 0 0 0 0 0 0 0 0 0 0 0 0 0 0.08 0"/>
<feBlend mode="normal" in2="BackgroundImageFix" result="effect1_dropShadow_3100_21689"/>
<feBlend mode="normal" in="SourceGraphic" in2="effect1_dropShadow_3100_21689" result="shape"/>
</filter>
<clipPath id="clip0_3100_21689">
<rect width="60" height="42" fill="white" transform="translate(61.5 45)"/>
</clipPath>
</defs>
</svg>
