<svg width="187" height="160" viewBox="0 0 187 160" fill="none" xmlns="http://www.w3.org/2000/svg">
<g filter="url(#filter0_d_3100_21686)">
<rect x="14" y="14" width="155" height="128" rx="4" fill="#00ADBB"/>
<g clip-path="url(#clip0_3100_21686)">
<path d="M73.0386 93.0004C72.3463 93.0004 71.8848 92.5504 71.8848 91.8754V72.7504C71.8848 72.0754 72.3463 71.6254 73.0386 71.6254C73.7309 71.6254 74.1925 72.0754 74.1925 72.7504V91.8754C74.1925 92.5504 73.7309 93.0004 73.0386 93.0004Z" fill="white"/>
<path d="M73.0385 51.375C69.577 51.375 66.6924 48.5625 66.6924 45.1875C66.6924 41.8125 69.577 39 73.0385 39C76.5001 39 79.3847 41.8125 79.3847 45.1875C79.3847 48.5625 76.5001 51.375 73.0385 51.375ZM73.0385 41.25C70.8462 41.25 69.0001 43.05 69.0001 45.1875C69.0001 47.325 70.8462 49.125 73.0385 49.125C75.2308 49.125 77.077 47.325 77.077 45.1875C77.077 43.05 75.2308 41.25 73.0385 41.25Z" fill="white"/>
<path d="M77.6538 92.9993H68.4231C67.1538 92.9993 66.1154 91.9868 66.1154 90.7493V74.3243C63.4615 73.7618 61.5 71.5118 61.5 68.8118V58.1243C61.5 53.5118 66.2308 50.2493 73.0385 50.2493H92.6538C94.6154 50.2493 96.1154 51.7118 96.1154 53.6243C96.1154 55.5368 94.6154 56.9993 92.6538 56.9993H81.1154C80.4231 56.9993 79.9615 57.4493 79.9615 58.1243V90.7493C79.9615 91.9868 78.9231 92.9993 77.6538 92.9993ZM68.4231 73.3118V90.7493H77.6538V58.1243C77.6538 56.2118 79.1538 54.7493 81.1154 54.7493H92.6538C93.3462 54.7493 93.8077 54.2993 93.8077 53.6243C93.8077 52.9493 93.3462 52.4993 92.6538 52.4993H73.0385C68.5385 52.4993 63.8077 54.2993 63.8077 58.1243V68.8118C63.8077 70.2743 64.7308 71.5118 66.1154 71.9618V59.2493C66.1154 58.5743 66.5769 58.1243 67.2692 58.1243C67.9615 58.1243 68.4231 58.5743 68.4231 59.2493V73.3118Z" fill="white"/>
<path d="M120.346 77.2493H83.4229C82.7306 77.2493 82.2691 76.7993 82.2691 76.1243C82.2691 75.4493 82.7306 74.9993 83.4229 74.9993H119.192V45.7493H82.2691C81.5768 45.7493 81.1152 45.2993 81.1152 44.6243C81.1152 43.9493 81.5768 43.4993 82.2691 43.4993H120.346C121.038 43.4993 121.5 43.9493 121.5 44.6243V76.1243C121.5 76.7993 121.038 77.2493 120.346 77.2493Z" fill="#12284C"/>
<path d="M97.2691 93.0007C96.5768 93.0007 96.1152 92.5507 96.1152 91.8757V76.1257C96.1152 75.4507 96.5768 75.0007 97.2691 75.0007C97.9614 75.0007 98.4229 75.4507 98.4229 76.1257V91.8757C98.4229 92.5507 97.9614 93.0007 97.2691 93.0007Z" fill="#12284C"/>
<path d="M105.346 93C105 93 104.769 92.8875 104.538 92.6625L97.2689 85.575L89.9996 92.6625C89.5381 93.1125 88.8458 93.1125 88.3842 92.6625C87.9227 92.2125 87.9227 91.5375 88.3842 91.0875L96.4612 83.2125C96.9227 82.7625 97.615 82.7625 98.0765 83.2125L106.153 91.0875C106.615 91.5375 106.615 92.2125 106.153 92.6625C105.923 92.8875 105.692 93 105.346 93Z" fill="#12284C"/>
<path d="M85.731 70.5C85.3848 70.5 85.1541 70.3875 84.9233 70.1625C84.4618 69.7125 84.4618 69.0375 84.9233 68.5875L91.8464 61.8375C92.3079 61.3875 93.0002 61.3875 93.4618 61.8375L97.2695 65.55L110.308 52.8375C110.769 52.3875 111.462 52.3875 111.923 52.8375C112.385 53.2875 112.385 53.9625 111.923 54.4125L98.0772 67.9125C97.6156 68.3625 96.9233 68.3625 96.4618 67.9125L92.6541 64.2L86.5387 70.1625C86.3079 70.3875 86.0771 70.5 85.731 70.5Z" fill="#12284C"/>
<path d="M111.115 61.5C110.423 61.5 109.961 61.05 109.961 60.375V54.75H104.192C103.5 54.75 103.038 54.3 103.038 53.625C103.038 52.95 103.5 52.5 104.192 52.5H111.115C111.807 52.5 112.269 52.95 112.269 53.625V60.375C112.269 61.05 111.807 61.5 111.115 61.5Z" fill="#12284C"/>
</g>
<path d="M40.6106 120H41.2506C41.3946 120 41.4906 119.904 41.5226 119.824L42.6906 117.184H48.3706L49.5546 119.824C49.5866 119.904 49.6826 120 49.8266 120H50.4666C50.7066 120 50.8346 119.792 50.7386 119.584L45.9066 108.816C45.8586 108.72 45.7786 108.64 45.6346 108.64H45.4746C45.3306 108.64 45.2506 108.72 45.2026 108.816L40.3386 119.584C40.2426 119.792 40.3706 120 40.6106 120ZM43.1386 116.192L45.4746 110.944H45.6026C46.3866 112.688 47.1546 114.448 47.9386 116.192H43.1386ZM53.2832 119.568C53.2832 119.568 54.0992 120.176 55.3312 120.176C57.3632 120.176 58.8192 118.464 58.8192 116.304C58.8192 114.192 57.3952 112.448 55.3792 112.448C54.0512 112.448 53.1552 113.2 53.1552 113.2L53.0432 112.848C52.9632 112.656 52.9152 112.608 52.7392 112.608H52.4672C52.2752 112.608 52.1152 112.784 52.1152 112.96V123.456C52.1152 123.648 52.2752 123.808 52.4672 123.808H52.9312C53.1072 123.808 53.2832 123.648 53.2832 123.456V119.568ZM53.2832 118.464V114.416C53.2832 114.416 54.0512 113.52 55.2352 113.52C56.7232 113.52 57.6192 114.848 57.6192 116.288C57.6192 117.904 56.5792 119.104 55.1552 119.104C54.1312 119.104 53.2832 118.464 53.2832 118.464ZM60.8496 119.648C60.8496 119.84 61.0096 120 61.2016 120H61.6816C61.8576 120 62.0336 119.84 62.0336 119.648V114.528C62.0336 114.528 62.6096 113.584 64.0336 113.584C64.3856 113.584 64.6576 113.712 64.8336 113.792C65.0096 113.872 65.1856 113.856 65.2656 113.616L65.4736 113.04C65.6496 112.528 64.7376 112.448 64.1776 112.448C62.6416 112.448 61.9056 113.392 61.9056 113.392L61.7776 112.864C61.7296 112.688 61.6016 112.608 61.4576 112.608H61.2016C61.0096 112.608 60.8496 112.784 60.8496 112.96V119.648ZM66.3231 116.304C66.3231 118.416 67.6671 120.176 69.9071 120.176C71.1871 120.176 72.1631 119.68 72.6111 119.328C72.8831 119.12 72.8191 119.04 72.6751 118.816L72.4831 118.544C72.2911 118.256 72.1791 118.32 71.9231 118.496C71.5071 118.768 70.8991 119.104 69.9231 119.104C68.5791 119.104 67.5391 117.808 67.5071 116.576H72.8831C73.0431 116.576 73.2031 116.448 73.2191 116.256C73.2351 116.128 73.2511 115.936 73.2511 115.808C73.2511 113.872 71.8431 112.448 69.9071 112.448C67.6671 112.448 66.3231 114.224 66.3231 116.304ZM67.5231 115.632C67.6671 114.48 68.6591 113.52 69.9071 113.52C71.1711 113.52 72.0351 114.544 72.0671 115.632H67.5231ZM77.2573 120.176C78.7613 120.176 79.7693 119.232 79.7693 118.064C79.7693 116.72 78.6653 116.24 77.3853 115.648C76.4893 115.232 75.9773 114.992 75.9773 114.336C75.9773 113.984 76.2493 113.52 77.0653 113.52C77.7533 113.52 78.2653 113.76 78.5853 113.952C78.7453 114.048 78.9853 114.032 79.0973 113.824L79.2573 113.52C79.3693 113.312 79.3373 113.152 79.1773 113.024C78.8253 112.768 78.0253 112.448 77.0653 112.448C75.3533 112.448 74.7773 113.616 74.7773 114.384C74.7773 115.648 75.8973 116.176 76.8733 116.656C77.9453 117.184 78.5213 117.472 78.5213 118.176C78.5213 118.752 78.0093 119.104 77.2573 119.104C76.3133 119.104 75.6733 118.64 75.4173 118.448C75.2093 118.304 75.0813 118.368 74.9853 118.544L74.7613 118.96C74.6973 119.088 74.7293 119.2 74.8093 119.28C75.1933 119.632 76.0253 120.176 77.2573 120.176ZM81.2293 116.304C81.2293 118.416 82.5733 120.176 84.8133 120.176C86.0933 120.176 87.0693 119.68 87.5173 119.328C87.7893 119.12 87.7253 119.04 87.5813 118.816L87.3893 118.544C87.1973 118.256 87.0853 118.32 86.8293 118.496C86.4133 118.768 85.8053 119.104 84.8293 119.104C83.4853 119.104 82.4453 117.808 82.4133 116.576H87.7893C87.9493 116.576 88.1093 116.448 88.1253 116.256C88.1413 116.128 88.1573 115.936 88.1573 115.808C88.1573 113.872 86.7493 112.448 84.8133 112.448C82.5733 112.448 81.2293 114.224 81.2293 116.304ZM82.4293 115.632C82.5733 114.48 83.5653 113.52 84.8133 113.52C86.0773 113.52 86.9413 114.544 86.9733 115.632H82.4293ZM90.0996 119.648C90.0996 119.84 90.2596 120 90.4516 120H90.9316C91.1076 120 91.2836 119.84 91.2836 119.648V114.544C91.2836 114.544 92.1636 113.52 93.5556 113.52C94.6436 113.52 95.1236 114.176 95.1236 115.584V119.648C95.1236 119.84 95.2836 120 95.4756 120H95.9556C96.1316 120 96.3076 119.84 96.3076 119.648V115.744C96.3076 113.84 95.7796 112.448 93.6356 112.448C92.0996 112.448 91.1556 113.392 91.1556 113.392L90.9956 112.832C90.9636 112.672 90.8676 112.608 90.7076 112.608H90.4516C90.2596 112.608 90.0996 112.784 90.0996 112.96V119.648ZM99.1264 113.632V118.128C99.1264 119.28 99.4144 120.176 100.822 120.176C101.814 120.176 102.582 119.808 102.902 119.584C103.094 119.456 103.126 119.344 103.03 119.104L102.886 118.768C102.806 118.592 102.71 118.448 102.422 118.624C102.118 118.816 101.654 119.104 100.966 119.104C100.55 119.104 100.31 118.816 100.31 118.048V113.632H102.486C102.694 113.632 102.854 113.472 102.854 113.28V112.96C102.854 112.752 102.694 112.608 102.486 112.608H100.31V110.528C100.31 110.336 100.166 110.16 99.9744 110.176L99.4784 110.208C99.3024 110.224 99.1264 110.368 99.1264 110.56V112.608H98.1504C97.9264 112.608 97.7824 112.752 97.7824 112.96V113.28C97.7824 113.472 97.9264 113.632 98.1504 113.632H99.1264ZM104.133 117.76C104.133 119.248 105.125 120.176 106.421 120.176C107.557 120.176 108.325 119.616 108.709 119.232L108.853 119.728C108.901 119.888 108.965 120 109.157 120H109.461C109.653 120 109.813 119.84 109.813 119.648V115.552C109.813 113.376 109.413 112.448 107.525 112.448C106.309 112.448 105.349 112.768 104.981 112.928C104.805 113.008 104.693 113.104 104.757 113.328L104.917 113.76C104.981 113.936 105.077 114.032 105.269 113.952C105.605 113.84 106.453 113.52 107.461 113.52C108.517 113.52 108.693 114.192 108.677 115.552C108.677 115.552 107.877 115.312 107.093 115.312C105.189 115.312 104.133 116.352 104.133 117.76ZM105.301 117.76C105.301 116.816 106.069 116.32 107.093 116.32C107.829 116.32 108.421 116.48 108.661 116.608V118.112C108.341 118.592 107.541 119.104 106.629 119.104C105.813 119.104 105.301 118.512 105.301 117.76ZM111.76 116.32C111.76 118.32 113.088 119.84 114.864 120.128L114.112 121.696C114.064 121.808 114.192 121.952 114.304 121.904C114.464 121.824 114.784 121.744 115.072 121.744C115.568 121.744 115.92 121.904 115.92 122.4C115.92 122.832 115.568 123.056 115.024 123.056C114.656 123.056 114.384 122.896 114.224 122.736C114.08 122.64 113.968 122.656 113.888 122.816L113.76 123.056C113.696 123.184 113.664 123.296 113.76 123.392C114.032 123.648 114.48 123.84 115.072 123.84C116.016 123.84 116.864 123.248 116.864 122.336C116.864 121.376 116.144 121.008 115.472 121.008C115.312 121.008 115.168 121.04 115.072 121.072L115.648 120.176C116.8 120.112 117.728 119.472 118.272 118.688C118.4 118.496 118.336 118.336 118.176 118.176L118.08 118.08C117.872 117.872 117.664 117.808 117.456 118.048C117.04 118.528 116.56 119.104 115.44 119.104C114.064 119.104 112.96 117.776 112.96 116.304C112.96 114.832 114.08 113.52 115.488 113.52C116.24 113.52 116.832 113.744 117.344 114.32C117.488 114.48 117.632 114.64 117.872 114.432L118.128 114.192C118.304 114.048 118.336 113.84 118.192 113.664C117.504 112.88 116.608 112.448 115.504 112.448C113.456 112.448 111.76 114.144 111.76 116.32ZM119.682 116.288C119.682 118.4 121.346 120.176 123.394 120.176C125.442 120.176 127.106 118.4 127.106 116.288C127.106 114.208 125.442 112.448 123.394 112.448C121.346 112.448 119.682 114.208 119.682 116.288ZM120.85 116.288C120.85 114.784 121.938 113.52 123.394 113.52C124.85 113.52 125.922 114.784 125.922 116.288C125.922 117.824 124.85 119.104 123.394 119.104C121.938 119.104 120.85 117.824 120.85 116.288ZM121.378 110.8C121.586 110.912 121.73 110.8 121.778 110.64C121.89 110.304 122.05 109.84 122.482 109.84C122.93 109.84 123.362 111.04 124.242 111.04C125.122 111.04 125.506 110.208 125.666 109.744C125.698 109.632 125.794 109.424 125.602 109.328L125.346 109.2C125.17 109.12 125.026 109.168 124.978 109.328C124.898 109.6 124.706 110.144 124.258 110.144C123.762 110.144 123.458 108.96 122.498 108.96C121.442 108.96 121.17 110.016 121.026 110.304C120.978 110.416 120.962 110.592 121.09 110.656L121.378 110.8ZM128.651 116.304C128.651 118.416 129.995 120.176 132.235 120.176C133.515 120.176 134.491 119.68 134.939 119.328C135.211 119.12 135.147 119.04 135.003 118.816L134.811 118.544C134.619 118.256 134.507 118.32 134.251 118.496C133.835 118.768 133.227 119.104 132.251 119.104C130.907 119.104 129.867 117.808 129.835 116.576H135.211C135.371 116.576 135.531 116.448 135.547 116.256C135.563 116.128 135.579 115.936 135.579 115.808C135.579 113.872 134.171 112.448 132.235 112.448C129.995 112.448 128.651 114.224 128.651 116.304ZM129.851 115.632C129.995 114.48 130.987 113.52 132.235 113.52C133.499 113.52 134.363 114.544 134.395 115.632H129.851ZM139.585 120.176C141.089 120.176 142.097 119.232 142.097 118.064C142.097 116.72 140.993 116.24 139.713 115.648C138.817 115.232 138.305 114.992 138.305 114.336C138.305 113.984 138.577 113.52 139.393 113.52C140.081 113.52 140.593 113.76 140.913 113.952C141.073 114.048 141.313 114.032 141.425 113.824L141.585 113.52C141.697 113.312 141.665 113.152 141.505 113.024C141.153 112.768 140.353 112.448 139.393 112.448C137.681 112.448 137.105 113.616 137.105 114.384C137.105 115.648 138.225 116.176 139.201 116.656C140.273 117.184 140.849 117.472 140.849 118.176C140.849 118.752 140.337 119.104 139.585 119.104C138.641 119.104 138.001 118.64 137.745 118.448C137.537 118.304 137.409 118.368 137.313 118.544L137.089 118.96C137.025 119.088 137.057 119.2 137.137 119.28C137.521 119.632 138.353 120.176 139.585 120.176Z" fill="#12284C"/>
</g>
<defs>
<filter id="filter0_d_3100_21686" x="0" y="0" width="187" height="160" filterUnits="userSpaceOnUse" color-interpolation-filters="sRGB">
<feFlood flood-opacity="0" result="BackgroundImageFix"/>
<feColorMatrix in="SourceAlpha" type="matrix" values="0 0 0 0 0 0 0 0 0 0 0 0 0 0 0 0 0 0 127 0" result="hardAlpha"/>
<feOffset dx="2" dy="2"/>
<feGaussianBlur stdDeviation="8"/>
<feColorMatrix type="matrix" values="0 0 0 0 0 0 0 0 0 0 0 0 0 0 0 0 0 0 0.08 0"/>
<feBlend mode="normal" in2="BackgroundImageFix" result="effect1_dropShadow_3100_21686"/>
<feBlend mode="normal" in="SourceGraphic" in2="effect1_dropShadow_3100_21686" result="shape"/>
</filter>
<clipPath id="clip0_3100_21686">
<rect width="60" height="54" fill="white" transform="translate(61.5 39)"/>
</clipPath>
</defs>
</svg>
